%TF.GenerationSoftware,KiCad,Pcbnew,10.0.5*%
%TF.CreationDate,2026-07-31T18:56:35+05:30*%
%TF.ProjectId,esp32_project,65737033-325f-4707-926f-6a6563742e6b,rev?*%
%TF.SameCoordinates,Original*%
%TF.FileFunction,Copper,L1,Top*%
%TF.FilePolarity,Positive*%
%FSLAX46Y46*%
G04 Gerber Fmt 4.6, Leading zero omitted, Abs format (unit mm)*
G04 Created by KiCad (PCBNEW 10.0.5) date 2026-07-31 18:56:35*
%MOMM*%
%LPD*%
G01*
G04 APERTURE LIST*
G04 Aperture macros list*
%AMRoundRect*
0 Rectangle with rounded corners*
0 $1 Rounding radius*
0 $2 $3 $4 $5 $6 $7 $8 $9 X,Y pos of 4 corners*
0 Add a 4 corners polygon primitive as box body*
4,1,4,$2,$3,$4,$5,$6,$7,$8,$9,$2,$3,0*
0 Add four circle primitives for the rounded corners*
1,1,$1+$1,$2,$3*
1,1,$1+$1,$4,$5*
1,1,$1+$1,$6,$7*
1,1,$1+$1,$8,$9*
0 Add four rect primitives between the rounded corners*
20,1,$1+$1,$2,$3,$4,$5,0*
20,1,$1+$1,$4,$5,$6,$7,0*
20,1,$1+$1,$6,$7,$8,$9,0*
20,1,$1+$1,$8,$9,$2,$3,0*%
G04 Aperture macros list end*
%ADD10C,0.150000*%
%ADD11C,0.300000*%
%ADD12C,0.400000*%
%TA.AperFunction,SMDPad,CuDef*%
%ADD13RoundRect,0.200000X-0.275000X0.200000X-0.275000X-0.200000X0.275000X-0.200000X0.275000X0.200000X0*%
%TD*%
%TA.AperFunction,SMDPad,CuDef*%
%ADD14RoundRect,0.225000X0.225000X0.250000X-0.225000X0.250000X-0.225000X-0.250000X0.225000X-0.250000X0*%
%TD*%
%TA.AperFunction,SMDPad,CuDef*%
%ADD15RoundRect,0.225000X0.250000X-0.225000X0.250000X0.225000X-0.250000X0.225000X-0.250000X-0.225000X0*%
%TD*%
%TA.AperFunction,SMDPad,CuDef*%
%ADD16RoundRect,0.250000X0.545000X0.445000X-0.545000X0.445000X-0.545000X-0.445000X0.545000X-0.445000X0*%
%TD*%
%TA.AperFunction,SMDPad,CuDef*%
%ADD17RoundRect,0.225000X-0.250000X0.225000X-0.250000X-0.225000X0.250000X-0.225000X0.250000X0.225000X0*%
%TD*%
%TA.AperFunction,SMDPad,CuDef*%
%ADD18RoundRect,0.150000X0.150000X-0.587500X0.150000X0.587500X-0.150000X0.587500X-0.150000X-0.587500X0*%
%TD*%
%TA.AperFunction,SMDPad,CuDef*%
%ADD19R,1.500000X0.900000*%
%TD*%
%TA.AperFunction,SMDPad,CuDef*%
%ADD20R,0.900000X1.500000*%
%TD*%
%TA.AperFunction,SMDPad,CuDef*%
%ADD21R,1.050000X1.050000*%
%TD*%
%TA.AperFunction,HeatsinkPad*%
%ADD22C,0.600000*%
%TD*%
%TA.AperFunction,HeatsinkPad*%
%ADD23R,4.200000X4.200000*%
%TD*%
%TA.AperFunction,SMDPad,CuDef*%
%ADD24RoundRect,0.200000X-0.200000X-0.275000X0.200000X-0.275000X0.200000X0.275000X-0.200000X0.275000X0*%
%TD*%
%TA.AperFunction,SMDPad,CuDef*%
%ADD25RoundRect,0.200000X0.200000X0.275000X-0.200000X0.275000X-0.200000X-0.275000X0.200000X-0.275000X0*%
%TD*%
%TA.AperFunction,SMDPad,CuDef*%
%ADD26RoundRect,0.150000X-0.150000X0.587500X-0.150000X-0.587500X0.150000X-0.587500X0.150000X0.587500X0*%
%TD*%
%TA.AperFunction,SMDPad,CuDef*%
%ADD27RoundRect,0.150000X0.825000X0.150000X-0.825000X0.150000X-0.825000X-0.150000X0.825000X-0.150000X0*%
%TD*%
%TA.AperFunction,SMDPad,CuDef*%
%ADD28RoundRect,0.200000X-0.800000X0.200000X-0.800000X-0.200000X0.800000X-0.200000X0.800000X0.200000X0*%
%TD*%
%TA.AperFunction,ComponentPad*%
%ADD29RoundRect,0.250000X-0.350000X-0.625000X0.350000X-0.625000X0.350000X0.625000X-0.350000X0.625000X0*%
%TD*%
%TA.AperFunction,ComponentPad*%
%ADD30O,1.200000X1.750000*%
%TD*%
%TA.AperFunction,SMDPad,CuDef*%
%ADD31RoundRect,0.375000X0.375000X-0.625000X0.375000X0.625000X-0.375000X0.625000X-0.375000X-0.625000X0*%
%TD*%
%TA.AperFunction,SMDPad,CuDef*%
%ADD32RoundRect,0.500000X1.400000X-0.500000X1.400000X0.500000X-1.400000X0.500000X-1.400000X-0.500000X0*%
%TD*%
%TA.AperFunction,SMDPad,CuDef*%
%ADD33RoundRect,0.218750X0.218750X0.256250X-0.218750X0.256250X-0.218750X-0.256250X0.218750X-0.256250X0*%
%TD*%
%TA.AperFunction,SMDPad,CuDef*%
%ADD34RoundRect,0.200000X0.800000X-0.200000X0.800000X0.200000X-0.800000X0.200000X-0.800000X-0.200000X0*%
%TD*%
%TA.AperFunction,ComponentPad*%
%ADD35R,1.700000X1.700000*%
%TD*%
%TA.AperFunction,ComponentPad*%
%ADD36C,1.700000*%
%TD*%
%TA.AperFunction,SMDPad,CuDef*%
%ADD37RoundRect,0.150000X0.150000X0.575000X-0.150000X0.575000X-0.150000X-0.575000X0.150000X-0.575000X0*%
%TD*%
%TA.AperFunction,SMDPad,CuDef*%
%ADD38RoundRect,0.075000X0.075000X0.650000X-0.075000X0.650000X-0.075000X-0.650000X0.075000X-0.650000X0*%
%TD*%
%TA.AperFunction,ComponentPad*%
%ADD39O,1.000000X2.100000*%
%TD*%
%TA.AperFunction,ComponentPad*%
%ADD40O,1.000000X1.600000*%
%TD*%
%TA.AperFunction,SMDPad,CuDef*%
%ADD41RoundRect,0.225000X0.375000X-0.225000X0.375000X0.225000X-0.375000X0.225000X-0.375000X-0.225000X0*%
%TD*%
%TA.AperFunction,ViaPad*%
%ADD42C,0.600000*%
%TD*%
%TA.AperFunction,Conductor*%
%ADD43C,0.200000*%
%TD*%
%TA.AperFunction,Conductor*%
%ADD44C,0.300000*%
%TD*%
%TA.AperFunction,Conductor*%
%ADD45C,0.500000*%
%TD*%
G04 APERTURE END LIST*
D10*
X177002200Y-166007200D02*
X285002200Y-166007200D01*
X285002200Y-198007200D01*
X177002200Y-198007200D01*
X177002200Y-166007200D01*
X10000000Y-10000000D02*
X287002200Y-10000000D01*
X287002200Y-200007200D01*
X10000000Y-200007200D01*
X10000000Y-10000000D01*
X12000000Y-12000000D02*
X285002200Y-12000000D01*
X285002200Y-198007200D01*
X12000000Y-198007200D01*
X12000000Y-12000000D01*
X60000000Y-12000000D02*
X60000000Y-10000000D01*
X110000000Y-12000000D02*
X110000000Y-10000000D01*
X160000000Y-12000000D02*
X160000000Y-10000000D01*
X210000000Y-12000000D02*
X210000000Y-10000000D01*
X260000000Y-12000000D02*
X260000000Y-10000000D01*
X36089160Y-11593604D02*
X35346303Y-11593604D01*
X35717731Y-11593604D02*
X35717731Y-10293604D01*
X35717731Y-10293604D02*
X35593922Y-10479319D01*
X35593922Y-10479319D02*
X35470112Y-10603128D01*
X35470112Y-10603128D02*
X35346303Y-10665033D01*
X85346303Y-10417414D02*
X85408207Y-10355509D01*
X85408207Y-10355509D02*
X85532017Y-10293604D01*
X85532017Y-10293604D02*
X85841541Y-10293604D01*
X85841541Y-10293604D02*
X85965350Y-10355509D01*
X85965350Y-10355509D02*
X86027255Y-10417414D01*
X86027255Y-10417414D02*
X86089160Y-10541223D01*
X86089160Y-10541223D02*
X86089160Y-10665033D01*
X86089160Y-10665033D02*
X86027255Y-10850747D01*
X86027255Y-10850747D02*
X85284398Y-11593604D01*
X85284398Y-11593604D02*
X86089160Y-11593604D01*
X135284398Y-10293604D02*
X136089160Y-10293604D01*
X136089160Y-10293604D02*
X135655826Y-10788842D01*
X135655826Y-10788842D02*
X135841541Y-10788842D01*
X135841541Y-10788842D02*
X135965350Y-10850747D01*
X135965350Y-10850747D02*
X136027255Y-10912652D01*
X136027255Y-10912652D02*
X136089160Y-11036461D01*
X136089160Y-11036461D02*
X136089160Y-11345985D01*
X136089160Y-11345985D02*
X136027255Y-11469795D01*
X136027255Y-11469795D02*
X135965350Y-11531700D01*
X135965350Y-11531700D02*
X135841541Y-11593604D01*
X135841541Y-11593604D02*
X135470112Y-11593604D01*
X135470112Y-11593604D02*
X135346303Y-11531700D01*
X135346303Y-11531700D02*
X135284398Y-11469795D01*
X185965350Y-10726938D02*
X185965350Y-11593604D01*
X185655826Y-10231700D02*
X185346303Y-11160271D01*
X185346303Y-11160271D02*
X186151064Y-11160271D01*
X236027255Y-10293604D02*
X235408207Y-10293604D01*
X235408207Y-10293604D02*
X235346303Y-10912652D01*
X235346303Y-10912652D02*
X235408207Y-10850747D01*
X235408207Y-10850747D02*
X235532017Y-10788842D01*
X235532017Y-10788842D02*
X235841541Y-10788842D01*
X235841541Y-10788842D02*
X235965350Y-10850747D01*
X235965350Y-10850747D02*
X236027255Y-10912652D01*
X236027255Y-10912652D02*
X236089160Y-11036461D01*
X236089160Y-11036461D02*
X236089160Y-11345985D01*
X236089160Y-11345985D02*
X236027255Y-11469795D01*
X236027255Y-11469795D02*
X235965350Y-11531700D01*
X235965350Y-11531700D02*
X235841541Y-11593604D01*
X235841541Y-11593604D02*
X235532017Y-11593604D01*
X235532017Y-11593604D02*
X235408207Y-11531700D01*
X235408207Y-11531700D02*
X235346303Y-11469795D01*
X285965350Y-10293604D02*
X285717731Y-10293604D01*
X285717731Y-10293604D02*
X285593922Y-10355509D01*
X285593922Y-10355509D02*
X285532017Y-10417414D01*
X285532017Y-10417414D02*
X285408207Y-10603128D01*
X285408207Y-10603128D02*
X285346303Y-10850747D01*
X285346303Y-10850747D02*
X285346303Y-11345985D01*
X285346303Y-11345985D02*
X285408207Y-11469795D01*
X285408207Y-11469795D02*
X285470112Y-11531700D01*
X285470112Y-11531700D02*
X285593922Y-11593604D01*
X285593922Y-11593604D02*
X285841541Y-11593604D01*
X285841541Y-11593604D02*
X285965350Y-11531700D01*
X285965350Y-11531700D02*
X286027255Y-11469795D01*
X286027255Y-11469795D02*
X286089160Y-11345985D01*
X286089160Y-11345985D02*
X286089160Y-11036461D01*
X286089160Y-11036461D02*
X286027255Y-10912652D01*
X286027255Y-10912652D02*
X285965350Y-10850747D01*
X285965350Y-10850747D02*
X285841541Y-10788842D01*
X285841541Y-10788842D02*
X285593922Y-10788842D01*
X285593922Y-10788842D02*
X285470112Y-10850747D01*
X285470112Y-10850747D02*
X285408207Y-10912652D01*
X285408207Y-10912652D02*
X285346303Y-11036461D01*
X60000000Y-198007200D02*
X60000000Y-200007200D01*
X110000000Y-198007200D02*
X110000000Y-200007200D01*
X160000000Y-198007200D02*
X160000000Y-200007200D01*
X210000000Y-198007200D02*
X210000000Y-200007200D01*
X260000000Y-198007200D02*
X260000000Y-200007200D01*
X36089160Y-199600804D02*
X35346303Y-199600804D01*
X35717731Y-199600804D02*
X35717731Y-198300804D01*
X35717731Y-198300804D02*
X35593922Y-198486519D01*
X35593922Y-198486519D02*
X35470112Y-198610328D01*
X35470112Y-198610328D02*
X35346303Y-198672233D01*
X85346303Y-198424614D02*
X85408207Y-198362709D01*
X85408207Y-198362709D02*
X85532017Y-198300804D01*
X85532017Y-198300804D02*
X85841541Y-198300804D01*
X85841541Y-198300804D02*
X85965350Y-198362709D01*
X85965350Y-198362709D02*
X86027255Y-198424614D01*
X86027255Y-198424614D02*
X86089160Y-198548423D01*
X86089160Y-198548423D02*
X86089160Y-198672233D01*
X86089160Y-198672233D02*
X86027255Y-198857947D01*
X86027255Y-198857947D02*
X85284398Y-199600804D01*
X85284398Y-199600804D02*
X86089160Y-199600804D01*
X135284398Y-198300804D02*
X136089160Y-198300804D01*
X136089160Y-198300804D02*
X135655826Y-198796042D01*
X135655826Y-198796042D02*
X135841541Y-198796042D01*
X135841541Y-198796042D02*
X135965350Y-198857947D01*
X135965350Y-198857947D02*
X136027255Y-198919852D01*
X136027255Y-198919852D02*
X136089160Y-199043661D01*
X136089160Y-199043661D02*
X136089160Y-199353185D01*
X136089160Y-199353185D02*
X136027255Y-199476995D01*
X136027255Y-199476995D02*
X135965350Y-199538900D01*
X135965350Y-199538900D02*
X135841541Y-199600804D01*
X135841541Y-199600804D02*
X135470112Y-199600804D01*
X135470112Y-199600804D02*
X135346303Y-199538900D01*
X135346303Y-199538900D02*
X135284398Y-199476995D01*
X185965350Y-198734138D02*
X185965350Y-199600804D01*
X185655826Y-198238900D02*
X185346303Y-199167471D01*
X185346303Y-199167471D02*
X186151064Y-199167471D01*
X236027255Y-198300804D02*
X235408207Y-198300804D01*
X235408207Y-198300804D02*
X235346303Y-198919852D01*
X235346303Y-198919852D02*
X235408207Y-198857947D01*
X235408207Y-198857947D02*
X235532017Y-198796042D01*
X235532017Y-198796042D02*
X235841541Y-198796042D01*
X235841541Y-198796042D02*
X235965350Y-198857947D01*
X235965350Y-198857947D02*
X236027255Y-198919852D01*
X236027255Y-198919852D02*
X236089160Y-199043661D01*
X236089160Y-199043661D02*
X236089160Y-199353185D01*
X236089160Y-199353185D02*
X236027255Y-199476995D01*
X236027255Y-199476995D02*
X235965350Y-199538900D01*
X235965350Y-199538900D02*
X235841541Y-199600804D01*
X235841541Y-199600804D02*
X235532017Y-199600804D01*
X235532017Y-199600804D02*
X235408207Y-199538900D01*
X235408207Y-199538900D02*
X235346303Y-199476995D01*
X285965350Y-198300804D02*
X285717731Y-198300804D01*
X285717731Y-198300804D02*
X285593922Y-198362709D01*
X285593922Y-198362709D02*
X285532017Y-198424614D01*
X285532017Y-198424614D02*
X285408207Y-198610328D01*
X285408207Y-198610328D02*
X285346303Y-198857947D01*
X285346303Y-198857947D02*
X285346303Y-199353185D01*
X285346303Y-199353185D02*
X285408207Y-199476995D01*
X285408207Y-199476995D02*
X285470112Y-199538900D01*
X285470112Y-199538900D02*
X285593922Y-199600804D01*
X285593922Y-199600804D02*
X285841541Y-199600804D01*
X285841541Y-199600804D02*
X285965350Y-199538900D01*
X285965350Y-199538900D02*
X286027255Y-199476995D01*
X286027255Y-199476995D02*
X286089160Y-199353185D01*
X286089160Y-199353185D02*
X286089160Y-199043661D01*
X286089160Y-199043661D02*
X286027255Y-198919852D01*
X286027255Y-198919852D02*
X285965350Y-198857947D01*
X285965350Y-198857947D02*
X285841541Y-198796042D01*
X285841541Y-198796042D02*
X285593922Y-198796042D01*
X285593922Y-198796042D02*
X285470112Y-198857947D01*
X285470112Y-198857947D02*
X285408207Y-198919852D01*
X285408207Y-198919852D02*
X285346303Y-199043661D01*
X10000000Y-60000000D02*
X12000000Y-60000000D01*
X10000000Y-110000000D02*
X12000000Y-110000000D01*
X10000000Y-160000000D02*
X12000000Y-160000000D01*
X10690476Y-35222176D02*
X11309523Y-35222176D01*
X10566666Y-35593604D02*
X10999999Y-34293604D01*
X10999999Y-34293604D02*
X11433333Y-35593604D01*
X11092857Y-84912652D02*
X11278571Y-84974557D01*
X11278571Y-84974557D02*
X11340476Y-85036461D01*
X11340476Y-85036461D02*
X11402380Y-85160271D01*
X11402380Y-85160271D02*
X11402380Y-85345985D01*
X11402380Y-85345985D02*
X11340476Y-85469795D01*
X11340476Y-85469795D02*
X11278571Y-85531700D01*
X11278571Y-85531700D02*
X11154761Y-85593604D01*
X11154761Y-85593604D02*
X10659523Y-85593604D01*
X10659523Y-85593604D02*
X10659523Y-84293604D01*
X10659523Y-84293604D02*
X11092857Y-84293604D01*
X11092857Y-84293604D02*
X11216666Y-84355509D01*
X11216666Y-84355509D02*
X11278571Y-84417414D01*
X11278571Y-84417414D02*
X11340476Y-84541223D01*
X11340476Y-84541223D02*
X11340476Y-84665033D01*
X11340476Y-84665033D02*
X11278571Y-84788842D01*
X11278571Y-84788842D02*
X11216666Y-84850747D01*
X11216666Y-84850747D02*
X11092857Y-84912652D01*
X11092857Y-84912652D02*
X10659523Y-84912652D01*
X11402380Y-135469795D02*
X11340476Y-135531700D01*
X11340476Y-135531700D02*
X11154761Y-135593604D01*
X11154761Y-135593604D02*
X11030952Y-135593604D01*
X11030952Y-135593604D02*
X10845238Y-135531700D01*
X10845238Y-135531700D02*
X10721428Y-135407890D01*
X10721428Y-135407890D02*
X10659523Y-135284080D01*
X10659523Y-135284080D02*
X10597619Y-135036461D01*
X10597619Y-135036461D02*
X10597619Y-134850747D01*
X10597619Y-134850747D02*
X10659523Y-134603128D01*
X10659523Y-134603128D02*
X10721428Y-134479319D01*
X10721428Y-134479319D02*
X10845238Y-134355509D01*
X10845238Y-134355509D02*
X11030952Y-134293604D01*
X11030952Y-134293604D02*
X11154761Y-134293604D01*
X11154761Y-134293604D02*
X11340476Y-134355509D01*
X11340476Y-134355509D02*
X11402380Y-134417414D01*
X10659523Y-185593604D02*
X10659523Y-184293604D01*
X10659523Y-184293604D02*
X10969047Y-184293604D01*
X10969047Y-184293604D02*
X11154761Y-184355509D01*
X11154761Y-184355509D02*
X11278571Y-184479319D01*
X11278571Y-184479319D02*
X11340476Y-184603128D01*
X11340476Y-184603128D02*
X11402380Y-184850747D01*
X11402380Y-184850747D02*
X11402380Y-185036461D01*
X11402380Y-185036461D02*
X11340476Y-185284080D01*
X11340476Y-185284080D02*
X11278571Y-185407890D01*
X11278571Y-185407890D02*
X11154761Y-185531700D01*
X11154761Y-185531700D02*
X10969047Y-185593604D01*
X10969047Y-185593604D02*
X10659523Y-185593604D01*
X287002200Y-60000000D02*
X285002200Y-60000000D01*
X287002200Y-110000000D02*
X285002200Y-110000000D01*
X287002200Y-160000000D02*
X285002200Y-160000000D01*
X285692676Y-35222176D02*
X286311723Y-35222176D01*
X285568866Y-35593604D02*
X286002199Y-34293604D01*
X286002199Y-34293604D02*
X286435533Y-35593604D01*
X286095057Y-84912652D02*
X286280771Y-84974557D01*
X286280771Y-84974557D02*
X286342676Y-85036461D01*
X286342676Y-85036461D02*
X286404580Y-85160271D01*
X286404580Y-85160271D02*
X286404580Y-85345985D01*
X286404580Y-85345985D02*
X286342676Y-85469795D01*
X286342676Y-85469795D02*
X286280771Y-85531700D01*
X286280771Y-85531700D02*
X286156961Y-85593604D01*
X286156961Y-85593604D02*
X285661723Y-85593604D01*
X285661723Y-85593604D02*
X285661723Y-84293604D01*
X285661723Y-84293604D02*
X286095057Y-84293604D01*
X286095057Y-84293604D02*
X286218866Y-84355509D01*
X286218866Y-84355509D02*
X286280771Y-84417414D01*
X286280771Y-84417414D02*
X286342676Y-84541223D01*
X286342676Y-84541223D02*
X286342676Y-84665033D01*
X286342676Y-84665033D02*
X286280771Y-84788842D01*
X286280771Y-84788842D02*
X286218866Y-84850747D01*
X286218866Y-84850747D02*
X286095057Y-84912652D01*
X286095057Y-84912652D02*
X285661723Y-84912652D01*
X286404580Y-135469795D02*
X286342676Y-135531700D01*
X286342676Y-135531700D02*
X286156961Y-135593604D01*
X286156961Y-135593604D02*
X286033152Y-135593604D01*
X286033152Y-135593604D02*
X285847438Y-135531700D01*
X285847438Y-135531700D02*
X285723628Y-135407890D01*
X285723628Y-135407890D02*
X285661723Y-135284080D01*
X285661723Y-135284080D02*
X285599819Y-135036461D01*
X285599819Y-135036461D02*
X285599819Y-134850747D01*
X285599819Y-134850747D02*
X285661723Y-134603128D01*
X285661723Y-134603128D02*
X285723628Y-134479319D01*
X285723628Y-134479319D02*
X285847438Y-134355509D01*
X285847438Y-134355509D02*
X286033152Y-134293604D01*
X286033152Y-134293604D02*
X286156961Y-134293604D01*
X286156961Y-134293604D02*
X286342676Y-134355509D01*
X286342676Y-134355509D02*
X286404580Y-134417414D01*
X285661723Y-185593604D02*
X285661723Y-184293604D01*
X285661723Y-184293604D02*
X285971247Y-184293604D01*
X285971247Y-184293604D02*
X286156961Y-184355509D01*
X286156961Y-184355509D02*
X286280771Y-184479319D01*
X286280771Y-184479319D02*
X286342676Y-184603128D01*
X286342676Y-184603128D02*
X286404580Y-184850747D01*
X286404580Y-184850747D02*
X286404580Y-185036461D01*
X286404580Y-185036461D02*
X286342676Y-185284080D01*
X286342676Y-185284080D02*
X286280771Y-185407890D01*
X286280771Y-185407890D02*
X286156961Y-185531700D01*
X286156961Y-185531700D02*
X285971247Y-185593604D01*
X285971247Y-185593604D02*
X285661723Y-185593604D01*
X200458026Y-193793328D02*
X200458026Y-192293328D01*
X200458026Y-192293328D02*
X200815169Y-192293328D01*
X200815169Y-192293328D02*
X201029455Y-192364757D01*
X201029455Y-192364757D02*
X201172312Y-192507614D01*
X201172312Y-192507614D02*
X201243741Y-192650471D01*
X201243741Y-192650471D02*
X201315169Y-192936185D01*
X201315169Y-192936185D02*
X201315169Y-193150471D01*
X201315169Y-193150471D02*
X201243741Y-193436185D01*
X201243741Y-193436185D02*
X201172312Y-193579042D01*
X201172312Y-193579042D02*
X201029455Y-193721900D01*
X201029455Y-193721900D02*
X200815169Y-193793328D01*
X200815169Y-193793328D02*
X200458026Y-193793328D01*
X202600884Y-193793328D02*
X202600884Y-193007614D01*
X202600884Y-193007614D02*
X202529455Y-192864757D01*
X202529455Y-192864757D02*
X202386598Y-192793328D01*
X202386598Y-192793328D02*
X202100884Y-192793328D01*
X202100884Y-192793328D02*
X201958026Y-192864757D01*
X202600884Y-193721900D02*
X202458026Y-193793328D01*
X202458026Y-193793328D02*
X202100884Y-193793328D01*
X202100884Y-193793328D02*
X201958026Y-193721900D01*
X201958026Y-193721900D02*
X201886598Y-193579042D01*
X201886598Y-193579042D02*
X201886598Y-193436185D01*
X201886598Y-193436185D02*
X201958026Y-193293328D01*
X201958026Y-193293328D02*
X202100884Y-193221900D01*
X202100884Y-193221900D02*
X202458026Y-193221900D01*
X202458026Y-193221900D02*
X202600884Y-193150471D01*
X203100884Y-192793328D02*
X203672312Y-192793328D01*
X203315169Y-192293328D02*
X203315169Y-193579042D01*
X203315169Y-193579042D02*
X203386598Y-193721900D01*
X203386598Y-193721900D02*
X203529455Y-193793328D01*
X203529455Y-193793328D02*
X203672312Y-193793328D01*
X204743741Y-193721900D02*
X204600884Y-193793328D01*
X204600884Y-193793328D02*
X204315170Y-193793328D01*
X204315170Y-193793328D02*
X204172312Y-193721900D01*
X204172312Y-193721900D02*
X204100884Y-193579042D01*
X204100884Y-193579042D02*
X204100884Y-193007614D01*
X204100884Y-193007614D02*
X204172312Y-192864757D01*
X204172312Y-192864757D02*
X204315170Y-192793328D01*
X204315170Y-192793328D02*
X204600884Y-192793328D01*
X204600884Y-192793328D02*
X204743741Y-192864757D01*
X204743741Y-192864757D02*
X204815170Y-193007614D01*
X204815170Y-193007614D02*
X204815170Y-193150471D01*
X204815170Y-193150471D02*
X204100884Y-193293328D01*
X205458026Y-193650471D02*
X205529455Y-193721900D01*
X205529455Y-193721900D02*
X205458026Y-193793328D01*
X205458026Y-193793328D02*
X205386598Y-193721900D01*
X205386598Y-193721900D02*
X205458026Y-193650471D01*
X205458026Y-193650471D02*
X205458026Y-193793328D01*
X205458026Y-192864757D02*
X205529455Y-192936185D01*
X205529455Y-192936185D02*
X205458026Y-193007614D01*
X205458026Y-193007614D02*
X205386598Y-192936185D01*
X205386598Y-192936185D02*
X205458026Y-192864757D01*
X205458026Y-192864757D02*
X205458026Y-193007614D01*
X177002200Y-194507200D02*
X285002200Y-194507200D01*
X178458026Y-196593328D02*
X178458026Y-195093328D01*
X179315169Y-196593328D02*
X178672312Y-195736185D01*
X179315169Y-195093328D02*
X178458026Y-195950471D01*
X179958026Y-196593328D02*
X179958026Y-195593328D01*
X179958026Y-195093328D02*
X179886598Y-195164757D01*
X179886598Y-195164757D02*
X179958026Y-195236185D01*
X179958026Y-195236185D02*
X180029455Y-195164757D01*
X180029455Y-195164757D02*
X179958026Y-195093328D01*
X179958026Y-195093328D02*
X179958026Y-195236185D01*
X181529455Y-196450471D02*
X181458027Y-196521900D01*
X181458027Y-196521900D02*
X181243741Y-196593328D01*
X181243741Y-196593328D02*
X181100884Y-196593328D01*
X181100884Y-196593328D02*
X180886598Y-196521900D01*
X180886598Y-196521900D02*
X180743741Y-196379042D01*
X180743741Y-196379042D02*
X180672312Y-196236185D01*
X180672312Y-196236185D02*
X180600884Y-195950471D01*
X180600884Y-195950471D02*
X180600884Y-195736185D01*
X180600884Y-195736185D02*
X180672312Y-195450471D01*
X180672312Y-195450471D02*
X180743741Y-195307614D01*
X180743741Y-195307614D02*
X180886598Y-195164757D01*
X180886598Y-195164757D02*
X181100884Y-195093328D01*
X181100884Y-195093328D02*
X181243741Y-195093328D01*
X181243741Y-195093328D02*
X181458027Y-195164757D01*
X181458027Y-195164757D02*
X181529455Y-195236185D01*
X182815170Y-196593328D02*
X182815170Y-195807614D01*
X182815170Y-195807614D02*
X182743741Y-195664757D01*
X182743741Y-195664757D02*
X182600884Y-195593328D01*
X182600884Y-195593328D02*
X182315170Y-195593328D01*
X182315170Y-195593328D02*
X182172312Y-195664757D01*
X182815170Y-196521900D02*
X182672312Y-196593328D01*
X182672312Y-196593328D02*
X182315170Y-196593328D01*
X182315170Y-196593328D02*
X182172312Y-196521900D01*
X182172312Y-196521900D02*
X182100884Y-196379042D01*
X182100884Y-196379042D02*
X182100884Y-196236185D01*
X182100884Y-196236185D02*
X182172312Y-196093328D01*
X182172312Y-196093328D02*
X182315170Y-196021900D01*
X182315170Y-196021900D02*
X182672312Y-196021900D01*
X182672312Y-196021900D02*
X182815170Y-195950471D01*
X184172313Y-196593328D02*
X184172313Y-195093328D01*
X184172313Y-196521900D02*
X184029455Y-196593328D01*
X184029455Y-196593328D02*
X183743741Y-196593328D01*
X183743741Y-196593328D02*
X183600884Y-196521900D01*
X183600884Y-196521900D02*
X183529455Y-196450471D01*
X183529455Y-196450471D02*
X183458027Y-196307614D01*
X183458027Y-196307614D02*
X183458027Y-195879042D01*
X183458027Y-195879042D02*
X183529455Y-195736185D01*
X183529455Y-195736185D02*
X183600884Y-195664757D01*
X183600884Y-195664757D02*
X183743741Y-195593328D01*
X183743741Y-195593328D02*
X184029455Y-195593328D01*
X184029455Y-195593328D02*
X184172313Y-195664757D01*
X186029455Y-195807614D02*
X186529455Y-195807614D01*
X186743741Y-196593328D02*
X186029455Y-196593328D01*
X186029455Y-196593328D02*
X186029455Y-195093328D01*
X186029455Y-195093328D02*
X186743741Y-195093328D01*
X187386598Y-196450471D02*
X187458027Y-196521900D01*
X187458027Y-196521900D02*
X187386598Y-196593328D01*
X187386598Y-196593328D02*
X187315170Y-196521900D01*
X187315170Y-196521900D02*
X187386598Y-196450471D01*
X187386598Y-196450471D02*
X187386598Y-196593328D01*
X188100884Y-196593328D02*
X188100884Y-195093328D01*
X188100884Y-195093328D02*
X188458027Y-195093328D01*
X188458027Y-195093328D02*
X188672313Y-195164757D01*
X188672313Y-195164757D02*
X188815170Y-195307614D01*
X188815170Y-195307614D02*
X188886599Y-195450471D01*
X188886599Y-195450471D02*
X188958027Y-195736185D01*
X188958027Y-195736185D02*
X188958027Y-195950471D01*
X188958027Y-195950471D02*
X188886599Y-196236185D01*
X188886599Y-196236185D02*
X188815170Y-196379042D01*
X188815170Y-196379042D02*
X188672313Y-196521900D01*
X188672313Y-196521900D02*
X188458027Y-196593328D01*
X188458027Y-196593328D02*
X188100884Y-196593328D01*
X189600884Y-196450471D02*
X189672313Y-196521900D01*
X189672313Y-196521900D02*
X189600884Y-196593328D01*
X189600884Y-196593328D02*
X189529456Y-196521900D01*
X189529456Y-196521900D02*
X189600884Y-196450471D01*
X189600884Y-196450471D02*
X189600884Y-196593328D01*
X190243742Y-196164757D02*
X190958028Y-196164757D01*
X190100885Y-196593328D02*
X190600885Y-195093328D01*
X190600885Y-195093328D02*
X191100885Y-196593328D01*
X191600884Y-196450471D02*
X191672313Y-196521900D01*
X191672313Y-196521900D02*
X191600884Y-196593328D01*
X191600884Y-196593328D02*
X191529456Y-196521900D01*
X191529456Y-196521900D02*
X191600884Y-196450471D01*
X191600884Y-196450471D02*
X191600884Y-196593328D01*
X194243742Y-196593328D02*
X193386599Y-196593328D01*
X193815170Y-196593328D02*
X193815170Y-195093328D01*
X193815170Y-195093328D02*
X193672313Y-195307614D01*
X193672313Y-195307614D02*
X193529456Y-195450471D01*
X193529456Y-195450471D02*
X193386599Y-195521900D01*
X195172313Y-195093328D02*
X195315170Y-195093328D01*
X195315170Y-195093328D02*
X195458027Y-195164757D01*
X195458027Y-195164757D02*
X195529456Y-195236185D01*
X195529456Y-195236185D02*
X195600884Y-195379042D01*
X195600884Y-195379042D02*
X195672313Y-195664757D01*
X195672313Y-195664757D02*
X195672313Y-196021900D01*
X195672313Y-196021900D02*
X195600884Y-196307614D01*
X195600884Y-196307614D02*
X195529456Y-196450471D01*
X195529456Y-196450471D02*
X195458027Y-196521900D01*
X195458027Y-196521900D02*
X195315170Y-196593328D01*
X195315170Y-196593328D02*
X195172313Y-196593328D01*
X195172313Y-196593328D02*
X195029456Y-196521900D01*
X195029456Y-196521900D02*
X194958027Y-196450471D01*
X194958027Y-196450471D02*
X194886598Y-196307614D01*
X194886598Y-196307614D02*
X194815170Y-196021900D01*
X194815170Y-196021900D02*
X194815170Y-195664757D01*
X194815170Y-195664757D02*
X194886598Y-195379042D01*
X194886598Y-195379042D02*
X194958027Y-195236185D01*
X194958027Y-195236185D02*
X195029456Y-195164757D01*
X195029456Y-195164757D02*
X195172313Y-195093328D01*
X196315169Y-196450471D02*
X196386598Y-196521900D01*
X196386598Y-196521900D02*
X196315169Y-196593328D01*
X196315169Y-196593328D02*
X196243741Y-196521900D01*
X196243741Y-196521900D02*
X196315169Y-196450471D01*
X196315169Y-196450471D02*
X196315169Y-196593328D01*
X197315170Y-195093328D02*
X197458027Y-195093328D01*
X197458027Y-195093328D02*
X197600884Y-195164757D01*
X197600884Y-195164757D02*
X197672313Y-195236185D01*
X197672313Y-195236185D02*
X197743741Y-195379042D01*
X197743741Y-195379042D02*
X197815170Y-195664757D01*
X197815170Y-195664757D02*
X197815170Y-196021900D01*
X197815170Y-196021900D02*
X197743741Y-196307614D01*
X197743741Y-196307614D02*
X197672313Y-196450471D01*
X197672313Y-196450471D02*
X197600884Y-196521900D01*
X197600884Y-196521900D02*
X197458027Y-196593328D01*
X197458027Y-196593328D02*
X197315170Y-196593328D01*
X197315170Y-196593328D02*
X197172313Y-196521900D01*
X197172313Y-196521900D02*
X197100884Y-196450471D01*
X197100884Y-196450471D02*
X197029455Y-196307614D01*
X197029455Y-196307614D02*
X196958027Y-196021900D01*
X196958027Y-196021900D02*
X196958027Y-195664757D01*
X196958027Y-195664757D02*
X197029455Y-195379042D01*
X197029455Y-195379042D02*
X197100884Y-195236185D01*
X197100884Y-195236185D02*
X197172313Y-195164757D01*
X197172313Y-195164757D02*
X197315170Y-195093328D01*
X198458026Y-196450471D02*
X198529455Y-196521900D01*
X198529455Y-196521900D02*
X198458026Y-196593328D01*
X198458026Y-196593328D02*
X198386598Y-196521900D01*
X198386598Y-196521900D02*
X198458026Y-196450471D01*
X198458026Y-196450471D02*
X198458026Y-196593328D01*
X199886598Y-195093328D02*
X199172312Y-195093328D01*
X199172312Y-195093328D02*
X199100884Y-195807614D01*
X199100884Y-195807614D02*
X199172312Y-195736185D01*
X199172312Y-195736185D02*
X199315170Y-195664757D01*
X199315170Y-195664757D02*
X199672312Y-195664757D01*
X199672312Y-195664757D02*
X199815170Y-195736185D01*
X199815170Y-195736185D02*
X199886598Y-195807614D01*
X199886598Y-195807614D02*
X199958027Y-195950471D01*
X199958027Y-195950471D02*
X199958027Y-196307614D01*
X199958027Y-196307614D02*
X199886598Y-196450471D01*
X199886598Y-196450471D02*
X199815170Y-196521900D01*
X199815170Y-196521900D02*
X199672312Y-196593328D01*
X199672312Y-196593328D02*
X199315170Y-196593328D01*
X199315170Y-196593328D02*
X199172312Y-196521900D01*
X199172312Y-196521900D02*
X199100884Y-196450471D01*
X177002200Y-191507200D02*
X285002200Y-191507200D01*
D11*
X264413853Y-193785528D02*
X263913853Y-193071242D01*
X263556710Y-193785528D02*
X263556710Y-192285528D01*
X263556710Y-192285528D02*
X264128139Y-192285528D01*
X264128139Y-192285528D02*
X264270996Y-192356957D01*
X264270996Y-192356957D02*
X264342425Y-192428385D01*
X264342425Y-192428385D02*
X264413853Y-192571242D01*
X264413853Y-192571242D02*
X264413853Y-192785528D01*
X264413853Y-192785528D02*
X264342425Y-192928385D01*
X264342425Y-192928385D02*
X264270996Y-192999814D01*
X264270996Y-192999814D02*
X264128139Y-193071242D01*
X264128139Y-193071242D02*
X263556710Y-193071242D01*
X265628139Y-193714100D02*
X265485282Y-193785528D01*
X265485282Y-193785528D02*
X265199568Y-193785528D01*
X265199568Y-193785528D02*
X265056710Y-193714100D01*
X265056710Y-193714100D02*
X264985282Y-193571242D01*
X264985282Y-193571242D02*
X264985282Y-192999814D01*
X264985282Y-192999814D02*
X265056710Y-192856957D01*
X265056710Y-192856957D02*
X265199568Y-192785528D01*
X265199568Y-192785528D02*
X265485282Y-192785528D01*
X265485282Y-192785528D02*
X265628139Y-192856957D01*
X265628139Y-192856957D02*
X265699568Y-192999814D01*
X265699568Y-192999814D02*
X265699568Y-193142671D01*
X265699568Y-193142671D02*
X264985282Y-193285528D01*
X266199567Y-192785528D02*
X266556710Y-193785528D01*
X266556710Y-193785528D02*
X266913853Y-192785528D01*
X267485281Y-193642671D02*
X267556710Y-193714100D01*
X267556710Y-193714100D02*
X267485281Y-193785528D01*
X267485281Y-193785528D02*
X267413853Y-193714100D01*
X267413853Y-193714100D02*
X267485281Y-193642671D01*
X267485281Y-193642671D02*
X267485281Y-193785528D01*
X267485281Y-192856957D02*
X267556710Y-192928385D01*
X267556710Y-192928385D02*
X267485281Y-192999814D01*
X267485281Y-192999814D02*
X267413853Y-192928385D01*
X267413853Y-192928385D02*
X267485281Y-192856957D01*
X267485281Y-192856957D02*
X267485281Y-192999814D01*
D10*
X178386598Y-193721900D02*
X178600884Y-193793328D01*
X178600884Y-193793328D02*
X178958026Y-193793328D01*
X178958026Y-193793328D02*
X179100884Y-193721900D01*
X179100884Y-193721900D02*
X179172312Y-193650471D01*
X179172312Y-193650471D02*
X179243741Y-193507614D01*
X179243741Y-193507614D02*
X179243741Y-193364757D01*
X179243741Y-193364757D02*
X179172312Y-193221900D01*
X179172312Y-193221900D02*
X179100884Y-193150471D01*
X179100884Y-193150471D02*
X178958026Y-193079042D01*
X178958026Y-193079042D02*
X178672312Y-193007614D01*
X178672312Y-193007614D02*
X178529455Y-192936185D01*
X178529455Y-192936185D02*
X178458026Y-192864757D01*
X178458026Y-192864757D02*
X178386598Y-192721900D01*
X178386598Y-192721900D02*
X178386598Y-192579042D01*
X178386598Y-192579042D02*
X178458026Y-192436185D01*
X178458026Y-192436185D02*
X178529455Y-192364757D01*
X178529455Y-192364757D02*
X178672312Y-192293328D01*
X178672312Y-192293328D02*
X179029455Y-192293328D01*
X179029455Y-192293328D02*
X179243741Y-192364757D01*
X179886597Y-193793328D02*
X179886597Y-192793328D01*
X179886597Y-192293328D02*
X179815169Y-192364757D01*
X179815169Y-192364757D02*
X179886597Y-192436185D01*
X179886597Y-192436185D02*
X179958026Y-192364757D01*
X179958026Y-192364757D02*
X179886597Y-192293328D01*
X179886597Y-192293328D02*
X179886597Y-192436185D01*
X180458026Y-192793328D02*
X181243741Y-192793328D01*
X181243741Y-192793328D02*
X180458026Y-193793328D01*
X180458026Y-193793328D02*
X181243741Y-193793328D01*
X182386598Y-193721900D02*
X182243741Y-193793328D01*
X182243741Y-193793328D02*
X181958027Y-193793328D01*
X181958027Y-193793328D02*
X181815169Y-193721900D01*
X181815169Y-193721900D02*
X181743741Y-193579042D01*
X181743741Y-193579042D02*
X181743741Y-193007614D01*
X181743741Y-193007614D02*
X181815169Y-192864757D01*
X181815169Y-192864757D02*
X181958027Y-192793328D01*
X181958027Y-192793328D02*
X182243741Y-192793328D01*
X182243741Y-192793328D02*
X182386598Y-192864757D01*
X182386598Y-192864757D02*
X182458027Y-193007614D01*
X182458027Y-193007614D02*
X182458027Y-193150471D01*
X182458027Y-193150471D02*
X181743741Y-193293328D01*
X183100883Y-193650471D02*
X183172312Y-193721900D01*
X183172312Y-193721900D02*
X183100883Y-193793328D01*
X183100883Y-193793328D02*
X183029455Y-193721900D01*
X183029455Y-193721900D02*
X183100883Y-193650471D01*
X183100883Y-193650471D02*
X183100883Y-193793328D01*
X183100883Y-192864757D02*
X183172312Y-192936185D01*
X183172312Y-192936185D02*
X183100883Y-193007614D01*
X183100883Y-193007614D02*
X183029455Y-192936185D01*
X183029455Y-192936185D02*
X183100883Y-192864757D01*
X183100883Y-192864757D02*
X183100883Y-193007614D01*
X184886598Y-193364757D02*
X185600884Y-193364757D01*
X184743741Y-193793328D02*
X185243741Y-192293328D01*
X185243741Y-192293328D02*
X185743741Y-193793328D01*
X186886598Y-192793328D02*
X186886598Y-193793328D01*
X186529455Y-192221900D02*
X186172312Y-193293328D01*
X186172312Y-193293328D02*
X187100883Y-193293328D01*
X263458026Y-196593328D02*
X263458026Y-195093328D01*
X264815170Y-196593328D02*
X264815170Y-195093328D01*
X264815170Y-196521900D02*
X264672312Y-196593328D01*
X264672312Y-196593328D02*
X264386598Y-196593328D01*
X264386598Y-196593328D02*
X264243741Y-196521900D01*
X264243741Y-196521900D02*
X264172312Y-196450471D01*
X264172312Y-196450471D02*
X264100884Y-196307614D01*
X264100884Y-196307614D02*
X264100884Y-195879042D01*
X264100884Y-195879042D02*
X264172312Y-195736185D01*
X264172312Y-195736185D02*
X264243741Y-195664757D01*
X264243741Y-195664757D02*
X264386598Y-195593328D01*
X264386598Y-195593328D02*
X264672312Y-195593328D01*
X264672312Y-195593328D02*
X264815170Y-195664757D01*
X265529455Y-196450471D02*
X265600884Y-196521900D01*
X265600884Y-196521900D02*
X265529455Y-196593328D01*
X265529455Y-196593328D02*
X265458027Y-196521900D01*
X265458027Y-196521900D02*
X265529455Y-196450471D01*
X265529455Y-196450471D02*
X265529455Y-196593328D01*
X265529455Y-195664757D02*
X265600884Y-195736185D01*
X265600884Y-195736185D02*
X265529455Y-195807614D01*
X265529455Y-195807614D02*
X265458027Y-195736185D01*
X265458027Y-195736185D02*
X265529455Y-195664757D01*
X265529455Y-195664757D02*
X265529455Y-195807614D01*
X268172313Y-196593328D02*
X267315170Y-196593328D01*
X267743741Y-196593328D02*
X267743741Y-195093328D01*
X267743741Y-195093328D02*
X267600884Y-195307614D01*
X267600884Y-195307614D02*
X267458027Y-195450471D01*
X267458027Y-195450471D02*
X267315170Y-195521900D01*
X269886598Y-195021900D02*
X268600884Y-196950471D01*
X271172313Y-196593328D02*
X270315170Y-196593328D01*
X270743741Y-196593328D02*
X270743741Y-195093328D01*
X270743741Y-195093328D02*
X270600884Y-195307614D01*
X270600884Y-195307614D02*
X270458027Y-195450471D01*
X270458027Y-195450471D02*
X270315170Y-195521900D01*
X272100884Y-195093328D02*
X272243741Y-195093328D01*
X272243741Y-195093328D02*
X272386598Y-195164757D01*
X272386598Y-195164757D02*
X272458027Y-195236185D01*
X272458027Y-195236185D02*
X272529455Y-195379042D01*
X272529455Y-195379042D02*
X272600884Y-195664757D01*
X272600884Y-195664757D02*
X272600884Y-196021900D01*
X272600884Y-196021900D02*
X272529455Y-196307614D01*
X272529455Y-196307614D02*
X272458027Y-196450471D01*
X272458027Y-196450471D02*
X272386598Y-196521900D01*
X272386598Y-196521900D02*
X272243741Y-196593328D01*
X272243741Y-196593328D02*
X272100884Y-196593328D01*
X272100884Y-196593328D02*
X271958027Y-196521900D01*
X271958027Y-196521900D02*
X271886598Y-196450471D01*
X271886598Y-196450471D02*
X271815169Y-196307614D01*
X271815169Y-196307614D02*
X271743741Y-196021900D01*
X271743741Y-196021900D02*
X271743741Y-195664757D01*
X271743741Y-195664757D02*
X271815169Y-195379042D01*
X271815169Y-195379042D02*
X271886598Y-195236185D01*
X271886598Y-195236185D02*
X271958027Y-195164757D01*
X271958027Y-195164757D02*
X272100884Y-195093328D01*
X177002200Y-187507200D02*
X285002200Y-187507200D01*
D12*
X178693928Y-188211638D02*
X179836785Y-188211638D01*
X179015357Y-190211638D02*
X179265357Y-188211638D01*
X180253452Y-190211638D02*
X180420119Y-188878304D01*
X180503452Y-188211638D02*
X180396309Y-188306876D01*
X180396309Y-188306876D02*
X180479643Y-188402114D01*
X180479643Y-188402114D02*
X180586786Y-188306876D01*
X180586786Y-188306876D02*
X180503452Y-188211638D01*
X180503452Y-188211638D02*
X180479643Y-188402114D01*
X181086786Y-188878304D02*
X181848690Y-188878304D01*
X181455833Y-188211638D02*
X181241548Y-189925923D01*
X181241548Y-189925923D02*
X181312976Y-190116400D01*
X181312976Y-190116400D02*
X181491548Y-190211638D01*
X181491548Y-190211638D02*
X181682024Y-190211638D01*
X182634405Y-190211638D02*
X182455833Y-190116400D01*
X182455833Y-190116400D02*
X182384405Y-189925923D01*
X182384405Y-189925923D02*
X182598690Y-188211638D01*
X184170119Y-190116400D02*
X183967738Y-190211638D01*
X183967738Y-190211638D02*
X183586785Y-190211638D01*
X183586785Y-190211638D02*
X183408214Y-190116400D01*
X183408214Y-190116400D02*
X183336785Y-189925923D01*
X183336785Y-189925923D02*
X183432024Y-189164019D01*
X183432024Y-189164019D02*
X183551071Y-188973542D01*
X183551071Y-188973542D02*
X183753452Y-188878304D01*
X183753452Y-188878304D02*
X184134404Y-188878304D01*
X184134404Y-188878304D02*
X184312976Y-188973542D01*
X184312976Y-188973542D02*
X184384404Y-189164019D01*
X184384404Y-189164019D02*
X184360595Y-189354495D01*
X184360595Y-189354495D02*
X183384404Y-189544971D01*
X185134405Y-190021161D02*
X185217738Y-190116400D01*
X185217738Y-190116400D02*
X185110595Y-190211638D01*
X185110595Y-190211638D02*
X185027262Y-190116400D01*
X185027262Y-190116400D02*
X185134405Y-190021161D01*
X185134405Y-190021161D02*
X185110595Y-190211638D01*
X185265357Y-188973542D02*
X185348690Y-189068780D01*
X185348690Y-189068780D02*
X185241548Y-189164019D01*
X185241548Y-189164019D02*
X185158214Y-189068780D01*
X185158214Y-189068780D02*
X185265357Y-188973542D01*
X185265357Y-188973542D02*
X185241548Y-189164019D01*
D10*
X178958026Y-185607614D02*
X178458026Y-185607614D01*
X178458026Y-186393328D02*
X178458026Y-184893328D01*
X178458026Y-184893328D02*
X179172312Y-184893328D01*
X179743740Y-186393328D02*
X179743740Y-185393328D01*
X179743740Y-184893328D02*
X179672312Y-184964757D01*
X179672312Y-184964757D02*
X179743740Y-185036185D01*
X179743740Y-185036185D02*
X179815169Y-184964757D01*
X179815169Y-184964757D02*
X179743740Y-184893328D01*
X179743740Y-184893328D02*
X179743740Y-185036185D01*
X180672312Y-186393328D02*
X180529455Y-186321900D01*
X180529455Y-186321900D02*
X180458026Y-186179042D01*
X180458026Y-186179042D02*
X180458026Y-184893328D01*
X181815169Y-186321900D02*
X181672312Y-186393328D01*
X181672312Y-186393328D02*
X181386598Y-186393328D01*
X181386598Y-186393328D02*
X181243740Y-186321900D01*
X181243740Y-186321900D02*
X181172312Y-186179042D01*
X181172312Y-186179042D02*
X181172312Y-185607614D01*
X181172312Y-185607614D02*
X181243740Y-185464757D01*
X181243740Y-185464757D02*
X181386598Y-185393328D01*
X181386598Y-185393328D02*
X181672312Y-185393328D01*
X181672312Y-185393328D02*
X181815169Y-185464757D01*
X181815169Y-185464757D02*
X181886598Y-185607614D01*
X181886598Y-185607614D02*
X181886598Y-185750471D01*
X181886598Y-185750471D02*
X181172312Y-185893328D01*
X182529454Y-186250471D02*
X182600883Y-186321900D01*
X182600883Y-186321900D02*
X182529454Y-186393328D01*
X182529454Y-186393328D02*
X182458026Y-186321900D01*
X182458026Y-186321900D02*
X182529454Y-186250471D01*
X182529454Y-186250471D02*
X182529454Y-186393328D01*
X182529454Y-185464757D02*
X182600883Y-185536185D01*
X182600883Y-185536185D02*
X182529454Y-185607614D01*
X182529454Y-185607614D02*
X182458026Y-185536185D01*
X182458026Y-185536185D02*
X182529454Y-185464757D01*
X182529454Y-185464757D02*
X182529454Y-185607614D01*
X184958026Y-186321900D02*
X184815169Y-186393328D01*
X184815169Y-186393328D02*
X184529455Y-186393328D01*
X184529455Y-186393328D02*
X184386597Y-186321900D01*
X184386597Y-186321900D02*
X184315169Y-186179042D01*
X184315169Y-186179042D02*
X184315169Y-185607614D01*
X184315169Y-185607614D02*
X184386597Y-185464757D01*
X184386597Y-185464757D02*
X184529455Y-185393328D01*
X184529455Y-185393328D02*
X184815169Y-185393328D01*
X184815169Y-185393328D02*
X184958026Y-185464757D01*
X184958026Y-185464757D02*
X185029455Y-185607614D01*
X185029455Y-185607614D02*
X185029455Y-185750471D01*
X185029455Y-185750471D02*
X184315169Y-185893328D01*
X185600883Y-186321900D02*
X185743740Y-186393328D01*
X185743740Y-186393328D02*
X186029454Y-186393328D01*
X186029454Y-186393328D02*
X186172311Y-186321900D01*
X186172311Y-186321900D02*
X186243740Y-186179042D01*
X186243740Y-186179042D02*
X186243740Y-186107614D01*
X186243740Y-186107614D02*
X186172311Y-185964757D01*
X186172311Y-185964757D02*
X186029454Y-185893328D01*
X186029454Y-185893328D02*
X185815169Y-185893328D01*
X185815169Y-185893328D02*
X185672311Y-185821900D01*
X185672311Y-185821900D02*
X185600883Y-185679042D01*
X185600883Y-185679042D02*
X185600883Y-185607614D01*
X185600883Y-185607614D02*
X185672311Y-185464757D01*
X185672311Y-185464757D02*
X185815169Y-185393328D01*
X185815169Y-185393328D02*
X186029454Y-185393328D01*
X186029454Y-185393328D02*
X186172311Y-185464757D01*
X186886597Y-185393328D02*
X186886597Y-186893328D01*
X186886597Y-185464757D02*
X187029455Y-185393328D01*
X187029455Y-185393328D02*
X187315169Y-185393328D01*
X187315169Y-185393328D02*
X187458026Y-185464757D01*
X187458026Y-185464757D02*
X187529455Y-185536185D01*
X187529455Y-185536185D02*
X187600883Y-185679042D01*
X187600883Y-185679042D02*
X187600883Y-186107614D01*
X187600883Y-186107614D02*
X187529455Y-186250471D01*
X187529455Y-186250471D02*
X187458026Y-186321900D01*
X187458026Y-186321900D02*
X187315169Y-186393328D01*
X187315169Y-186393328D02*
X187029455Y-186393328D01*
X187029455Y-186393328D02*
X186886597Y-186321900D01*
X188100883Y-184893328D02*
X189029455Y-184893328D01*
X189029455Y-184893328D02*
X188529455Y-185464757D01*
X188529455Y-185464757D02*
X188743740Y-185464757D01*
X188743740Y-185464757D02*
X188886598Y-185536185D01*
X188886598Y-185536185D02*
X188958026Y-185607614D01*
X188958026Y-185607614D02*
X189029455Y-185750471D01*
X189029455Y-185750471D02*
X189029455Y-186107614D01*
X189029455Y-186107614D02*
X188958026Y-186250471D01*
X188958026Y-186250471D02*
X188886598Y-186321900D01*
X188886598Y-186321900D02*
X188743740Y-186393328D01*
X188743740Y-186393328D02*
X188315169Y-186393328D01*
X188315169Y-186393328D02*
X188172312Y-186321900D01*
X188172312Y-186321900D02*
X188100883Y-186250471D01*
X189600883Y-185036185D02*
X189672311Y-184964757D01*
X189672311Y-184964757D02*
X189815169Y-184893328D01*
X189815169Y-184893328D02*
X190172311Y-184893328D01*
X190172311Y-184893328D02*
X190315169Y-184964757D01*
X190315169Y-184964757D02*
X190386597Y-185036185D01*
X190386597Y-185036185D02*
X190458026Y-185179042D01*
X190458026Y-185179042D02*
X190458026Y-185321900D01*
X190458026Y-185321900D02*
X190386597Y-185536185D01*
X190386597Y-185536185D02*
X189529454Y-186393328D01*
X189529454Y-186393328D02*
X190458026Y-186393328D01*
X190743740Y-186536185D02*
X191886597Y-186536185D01*
X192243739Y-185393328D02*
X192243739Y-186893328D01*
X192243739Y-185464757D02*
X192386597Y-185393328D01*
X192386597Y-185393328D02*
X192672311Y-185393328D01*
X192672311Y-185393328D02*
X192815168Y-185464757D01*
X192815168Y-185464757D02*
X192886597Y-185536185D01*
X192886597Y-185536185D02*
X192958025Y-185679042D01*
X192958025Y-185679042D02*
X192958025Y-186107614D01*
X192958025Y-186107614D02*
X192886597Y-186250471D01*
X192886597Y-186250471D02*
X192815168Y-186321900D01*
X192815168Y-186321900D02*
X192672311Y-186393328D01*
X192672311Y-186393328D02*
X192386597Y-186393328D01*
X192386597Y-186393328D02*
X192243739Y-186321900D01*
X193600882Y-186393328D02*
X193600882Y-185393328D01*
X193600882Y-185679042D02*
X193672311Y-185536185D01*
X193672311Y-185536185D02*
X193743740Y-185464757D01*
X193743740Y-185464757D02*
X193886597Y-185393328D01*
X193886597Y-185393328D02*
X194029454Y-185393328D01*
X194743739Y-186393328D02*
X194600882Y-186321900D01*
X194600882Y-186321900D02*
X194529453Y-186250471D01*
X194529453Y-186250471D02*
X194458025Y-186107614D01*
X194458025Y-186107614D02*
X194458025Y-185679042D01*
X194458025Y-185679042D02*
X194529453Y-185536185D01*
X194529453Y-185536185D02*
X194600882Y-185464757D01*
X194600882Y-185464757D02*
X194743739Y-185393328D01*
X194743739Y-185393328D02*
X194958025Y-185393328D01*
X194958025Y-185393328D02*
X195100882Y-185464757D01*
X195100882Y-185464757D02*
X195172311Y-185536185D01*
X195172311Y-185536185D02*
X195243739Y-185679042D01*
X195243739Y-185679042D02*
X195243739Y-186107614D01*
X195243739Y-186107614D02*
X195172311Y-186250471D01*
X195172311Y-186250471D02*
X195100882Y-186321900D01*
X195100882Y-186321900D02*
X194958025Y-186393328D01*
X194958025Y-186393328D02*
X194743739Y-186393328D01*
X195886596Y-185393328D02*
X195886596Y-186679042D01*
X195886596Y-186679042D02*
X195815168Y-186821900D01*
X195815168Y-186821900D02*
X195672311Y-186893328D01*
X195672311Y-186893328D02*
X195600882Y-186893328D01*
X195886596Y-184893328D02*
X195815168Y-184964757D01*
X195815168Y-184964757D02*
X195886596Y-185036185D01*
X195886596Y-185036185D02*
X195958025Y-184964757D01*
X195958025Y-184964757D02*
X195886596Y-184893328D01*
X195886596Y-184893328D02*
X195886596Y-185036185D01*
X197172311Y-186321900D02*
X197029454Y-186393328D01*
X197029454Y-186393328D02*
X196743740Y-186393328D01*
X196743740Y-186393328D02*
X196600882Y-186321900D01*
X196600882Y-186321900D02*
X196529454Y-186179042D01*
X196529454Y-186179042D02*
X196529454Y-185607614D01*
X196529454Y-185607614D02*
X196600882Y-185464757D01*
X196600882Y-185464757D02*
X196743740Y-185393328D01*
X196743740Y-185393328D02*
X197029454Y-185393328D01*
X197029454Y-185393328D02*
X197172311Y-185464757D01*
X197172311Y-185464757D02*
X197243740Y-185607614D01*
X197243740Y-185607614D02*
X197243740Y-185750471D01*
X197243740Y-185750471D02*
X196529454Y-185893328D01*
X198529454Y-186321900D02*
X198386596Y-186393328D01*
X198386596Y-186393328D02*
X198100882Y-186393328D01*
X198100882Y-186393328D02*
X197958025Y-186321900D01*
X197958025Y-186321900D02*
X197886596Y-186250471D01*
X197886596Y-186250471D02*
X197815168Y-186107614D01*
X197815168Y-186107614D02*
X197815168Y-185679042D01*
X197815168Y-185679042D02*
X197886596Y-185536185D01*
X197886596Y-185536185D02*
X197958025Y-185464757D01*
X197958025Y-185464757D02*
X198100882Y-185393328D01*
X198100882Y-185393328D02*
X198386596Y-185393328D01*
X198386596Y-185393328D02*
X198529454Y-185464757D01*
X198958025Y-185393328D02*
X199529453Y-185393328D01*
X199172310Y-184893328D02*
X199172310Y-186179042D01*
X199172310Y-186179042D02*
X199243739Y-186321900D01*
X199243739Y-186321900D02*
X199386596Y-186393328D01*
X199386596Y-186393328D02*
X199529453Y-186393328D01*
X200029453Y-186250471D02*
X200100882Y-186321900D01*
X200100882Y-186321900D02*
X200029453Y-186393328D01*
X200029453Y-186393328D02*
X199958025Y-186321900D01*
X199958025Y-186321900D02*
X200029453Y-186250471D01*
X200029453Y-186250471D02*
X200029453Y-186393328D01*
X200743739Y-186393328D02*
X200743739Y-184893328D01*
X200886597Y-185821900D02*
X201315168Y-186393328D01*
X201315168Y-185393328D02*
X200743739Y-185964757D01*
X201958025Y-186393328D02*
X201958025Y-185393328D01*
X201958025Y-184893328D02*
X201886597Y-184964757D01*
X201886597Y-184964757D02*
X201958025Y-185036185D01*
X201958025Y-185036185D02*
X202029454Y-184964757D01*
X202029454Y-184964757D02*
X201958025Y-184893328D01*
X201958025Y-184893328D02*
X201958025Y-185036185D01*
X203315169Y-186321900D02*
X203172311Y-186393328D01*
X203172311Y-186393328D02*
X202886597Y-186393328D01*
X202886597Y-186393328D02*
X202743740Y-186321900D01*
X202743740Y-186321900D02*
X202672311Y-186250471D01*
X202672311Y-186250471D02*
X202600883Y-186107614D01*
X202600883Y-186107614D02*
X202600883Y-185679042D01*
X202600883Y-185679042D02*
X202672311Y-185536185D01*
X202672311Y-185536185D02*
X202743740Y-185464757D01*
X202743740Y-185464757D02*
X202886597Y-185393328D01*
X202886597Y-185393328D02*
X203172311Y-185393328D01*
X203172311Y-185393328D02*
X203315169Y-185464757D01*
X204600883Y-186393328D02*
X204600883Y-185607614D01*
X204600883Y-185607614D02*
X204529454Y-185464757D01*
X204529454Y-185464757D02*
X204386597Y-185393328D01*
X204386597Y-185393328D02*
X204100883Y-185393328D01*
X204100883Y-185393328D02*
X203958025Y-185464757D01*
X204600883Y-186321900D02*
X204458025Y-186393328D01*
X204458025Y-186393328D02*
X204100883Y-186393328D01*
X204100883Y-186393328D02*
X203958025Y-186321900D01*
X203958025Y-186321900D02*
X203886597Y-186179042D01*
X203886597Y-186179042D02*
X203886597Y-186036185D01*
X203886597Y-186036185D02*
X203958025Y-185893328D01*
X203958025Y-185893328D02*
X204100883Y-185821900D01*
X204100883Y-185821900D02*
X204458025Y-185821900D01*
X204458025Y-185821900D02*
X204600883Y-185750471D01*
X205958026Y-186393328D02*
X205958026Y-184893328D01*
X205958026Y-186321900D02*
X205815168Y-186393328D01*
X205815168Y-186393328D02*
X205529454Y-186393328D01*
X205529454Y-186393328D02*
X205386597Y-186321900D01*
X205386597Y-186321900D02*
X205315168Y-186250471D01*
X205315168Y-186250471D02*
X205243740Y-186107614D01*
X205243740Y-186107614D02*
X205243740Y-185679042D01*
X205243740Y-185679042D02*
X205315168Y-185536185D01*
X205315168Y-185536185D02*
X205386597Y-185464757D01*
X205386597Y-185464757D02*
X205529454Y-185393328D01*
X205529454Y-185393328D02*
X205815168Y-185393328D01*
X205815168Y-185393328D02*
X205958026Y-185464757D01*
X206315169Y-186536185D02*
X207458026Y-186536185D01*
X207815168Y-185393328D02*
X207815168Y-186893328D01*
X207815168Y-185464757D02*
X207958026Y-185393328D01*
X207958026Y-185393328D02*
X208243740Y-185393328D01*
X208243740Y-185393328D02*
X208386597Y-185464757D01*
X208386597Y-185464757D02*
X208458026Y-185536185D01*
X208458026Y-185536185D02*
X208529454Y-185679042D01*
X208529454Y-185679042D02*
X208529454Y-186107614D01*
X208529454Y-186107614D02*
X208458026Y-186250471D01*
X208458026Y-186250471D02*
X208386597Y-186321900D01*
X208386597Y-186321900D02*
X208243740Y-186393328D01*
X208243740Y-186393328D02*
X207958026Y-186393328D01*
X207958026Y-186393328D02*
X207815168Y-186321900D01*
X209815169Y-186321900D02*
X209672311Y-186393328D01*
X209672311Y-186393328D02*
X209386597Y-186393328D01*
X209386597Y-186393328D02*
X209243740Y-186321900D01*
X209243740Y-186321900D02*
X209172311Y-186250471D01*
X209172311Y-186250471D02*
X209100883Y-186107614D01*
X209100883Y-186107614D02*
X209100883Y-185679042D01*
X209100883Y-185679042D02*
X209172311Y-185536185D01*
X209172311Y-185536185D02*
X209243740Y-185464757D01*
X209243740Y-185464757D02*
X209386597Y-185393328D01*
X209386597Y-185393328D02*
X209672311Y-185393328D01*
X209672311Y-185393328D02*
X209815169Y-185464757D01*
X210458025Y-186393328D02*
X210458025Y-184893328D01*
X210458025Y-185464757D02*
X210600883Y-185393328D01*
X210600883Y-185393328D02*
X210886597Y-185393328D01*
X210886597Y-185393328D02*
X211029454Y-185464757D01*
X211029454Y-185464757D02*
X211100883Y-185536185D01*
X211100883Y-185536185D02*
X211172311Y-185679042D01*
X211172311Y-185679042D02*
X211172311Y-186107614D01*
X211172311Y-186107614D02*
X211100883Y-186250471D01*
X211100883Y-186250471D02*
X211029454Y-186321900D01*
X211029454Y-186321900D02*
X210886597Y-186393328D01*
X210886597Y-186393328D02*
X210600883Y-186393328D01*
X210600883Y-186393328D02*
X210458025Y-186321900D01*
X177002200Y-181507200D02*
X285002200Y-181507200D01*
X178386598Y-183621900D02*
X178600884Y-183693328D01*
X178600884Y-183693328D02*
X178958026Y-183693328D01*
X178958026Y-183693328D02*
X179100884Y-183621900D01*
X179100884Y-183621900D02*
X179172312Y-183550471D01*
X179172312Y-183550471D02*
X179243741Y-183407614D01*
X179243741Y-183407614D02*
X179243741Y-183264757D01*
X179243741Y-183264757D02*
X179172312Y-183121900D01*
X179172312Y-183121900D02*
X179100884Y-183050471D01*
X179100884Y-183050471D02*
X178958026Y-182979042D01*
X178958026Y-182979042D02*
X178672312Y-182907614D01*
X178672312Y-182907614D02*
X178529455Y-182836185D01*
X178529455Y-182836185D02*
X178458026Y-182764757D01*
X178458026Y-182764757D02*
X178386598Y-182621900D01*
X178386598Y-182621900D02*
X178386598Y-182479042D01*
X178386598Y-182479042D02*
X178458026Y-182336185D01*
X178458026Y-182336185D02*
X178529455Y-182264757D01*
X178529455Y-182264757D02*
X178672312Y-182193328D01*
X178672312Y-182193328D02*
X179029455Y-182193328D01*
X179029455Y-182193328D02*
X179243741Y-182264757D01*
X179886597Y-183693328D02*
X179886597Y-182193328D01*
X180529455Y-183693328D02*
X180529455Y-182907614D01*
X180529455Y-182907614D02*
X180458026Y-182764757D01*
X180458026Y-182764757D02*
X180315169Y-182693328D01*
X180315169Y-182693328D02*
X180100883Y-182693328D01*
X180100883Y-182693328D02*
X179958026Y-182764757D01*
X179958026Y-182764757D02*
X179886597Y-182836185D01*
X181815169Y-183621900D02*
X181672312Y-183693328D01*
X181672312Y-183693328D02*
X181386598Y-183693328D01*
X181386598Y-183693328D02*
X181243740Y-183621900D01*
X181243740Y-183621900D02*
X181172312Y-183479042D01*
X181172312Y-183479042D02*
X181172312Y-182907614D01*
X181172312Y-182907614D02*
X181243740Y-182764757D01*
X181243740Y-182764757D02*
X181386598Y-182693328D01*
X181386598Y-182693328D02*
X181672312Y-182693328D01*
X181672312Y-182693328D02*
X181815169Y-182764757D01*
X181815169Y-182764757D02*
X181886598Y-182907614D01*
X181886598Y-182907614D02*
X181886598Y-183050471D01*
X181886598Y-183050471D02*
X181172312Y-183193328D01*
X183100883Y-183621900D02*
X182958026Y-183693328D01*
X182958026Y-183693328D02*
X182672312Y-183693328D01*
X182672312Y-183693328D02*
X182529454Y-183621900D01*
X182529454Y-183621900D02*
X182458026Y-183479042D01*
X182458026Y-183479042D02*
X182458026Y-182907614D01*
X182458026Y-182907614D02*
X182529454Y-182764757D01*
X182529454Y-182764757D02*
X182672312Y-182693328D01*
X182672312Y-182693328D02*
X182958026Y-182693328D01*
X182958026Y-182693328D02*
X183100883Y-182764757D01*
X183100883Y-182764757D02*
X183172312Y-182907614D01*
X183172312Y-182907614D02*
X183172312Y-183050471D01*
X183172312Y-183050471D02*
X182458026Y-183193328D01*
X183600883Y-182693328D02*
X184172311Y-182693328D01*
X183815168Y-182193328D02*
X183815168Y-183479042D01*
X183815168Y-183479042D02*
X183886597Y-183621900D01*
X183886597Y-183621900D02*
X184029454Y-183693328D01*
X184029454Y-183693328D02*
X184172311Y-183693328D01*
X184672311Y-183550471D02*
X184743740Y-183621900D01*
X184743740Y-183621900D02*
X184672311Y-183693328D01*
X184672311Y-183693328D02*
X184600883Y-183621900D01*
X184600883Y-183621900D02*
X184672311Y-183550471D01*
X184672311Y-183550471D02*
X184672311Y-183693328D01*
X184672311Y-182764757D02*
X184743740Y-182836185D01*
X184743740Y-182836185D02*
X184672311Y-182907614D01*
X184672311Y-182907614D02*
X184600883Y-182836185D01*
X184600883Y-182836185D02*
X184672311Y-182764757D01*
X184672311Y-182764757D02*
X184672311Y-182907614D01*
X197002200Y-191507200D02*
X197002200Y-194507200D01*
X261002200Y-191507200D02*
X261002200Y-198007200D01*
D13*
%TO.P,R4,1*%
%TO.N,/DTR*%
X116000000Y-76350000D03*
%TO.P,R4,2*%
%TO.N,Net-(Q1-B)*%
X116000000Y-78000000D03*
%TD*%
D14*
%TO.P,C6,1*%
%TO.N,GND*%
X120335000Y-82000000D03*
%TO.P,C6,2*%
%TO.N,/IO0*%
X118785000Y-82000000D03*
%TD*%
D15*
%TO.P,C7,1*%
%TO.N,+3.3V*%
X112000000Y-72775000D03*
%TO.P,C7,2*%
%TO.N,GND*%
X112000000Y-71225000D03*
%TD*%
D16*
%TO.P,C2,1*%
%TO.N,+3.3V*%
X122000000Y-80000000D03*
%TO.P,C2,2*%
%TO.N,GND*%
X119120000Y-80000000D03*
%TD*%
D14*
%TO.P,C1,1*%
%TO.N,+5V*%
X124775000Y-77000000D03*
%TO.P,C1,2*%
%TO.N,GND*%
X123225000Y-77000000D03*
%TD*%
D17*
%TO.P,C5,1*%
%TO.N,GND*%
X134000000Y-83225000D03*
%TO.P,C5,2*%
%TO.N,/EN*%
X134000000Y-84775000D03*
%TD*%
D18*
%TO.P,Q3,1,B_1*%
%TO.N,Net-(Q3-B)*%
X114050000Y-81937500D03*
%TO.P,Q3,2,C_2*%
%TO.N,Net-(Q1-B)*%
X115950000Y-81937500D03*
%TO.P,Q3,3,E_3*%
%TO.N,/IO0*%
X115000000Y-80062500D03*
%TD*%
D19*
%TO.P,U1,1,GND_1*%
%TO.N,GND*%
X91405000Y-64135000D03*
%TO.P,U1,2,VDD_2*%
%TO.N,+3.3V*%
X91405000Y-65405000D03*
%TO.P,U1,3,EN_3*%
%TO.N,/EN*%
X91405000Y-66675000D03*
%TO.P,U1,4,SENSOR_VP_4*%
%TO.N,unconnected-(U1-SENSOR_VP-Pad4)*%
X91405000Y-67945000D03*
%TO.P,U1,5,SENSOR_VN_5*%
%TO.N,unconnected-(U1-SENSOR_VN-Pad5)*%
X91405000Y-69215000D03*
%TO.P,U1,6,IO34_6*%
%TO.N,unconnected-(U1-IO34-Pad6)*%
X91405000Y-70485000D03*
%TO.P,U1,7,IO35_7*%
%TO.N,unconnected-(U1-IO35-Pad7)*%
X91405000Y-71755000D03*
%TO.P,U1,8,IO32_8*%
%TO.N,unconnected-(U1-IO32-Pad8)*%
X91405000Y-73025000D03*
%TO.P,U1,9,IO33_9*%
%TO.N,unconnected-(U1-IO33-Pad9)*%
X91405000Y-74295000D03*
%TO.P,U1,10,IO25_10*%
%TO.N,unconnected-(U1-IO25-Pad10)*%
X91405000Y-75565000D03*
%TO.P,U1,11,IO26_11*%
%TO.N,unconnected-(U1-IO26-Pad11)*%
X91405000Y-76835000D03*
%TO.P,U1,12,IO27_12*%
%TO.N,unconnected-(U1-IO27-Pad12)*%
X91405000Y-78105000D03*
%TO.P,U1,13,IO14_13*%
%TO.N,unconnected-(U1-IO14-Pad13)*%
X91405000Y-79375000D03*
%TO.P,U1,14,IO12_14*%
%TO.N,unconnected-(U1-IO12-Pad14)*%
X91405000Y-80645000D03*
D20*
%TO.P,U1,15,GND_15*%
%TO.N,GND*%
X94445000Y-81895000D03*
%TO.P,U1,16,IO13_16*%
%TO.N,unconnected-(U1-IO13-Pad16)*%
X95715000Y-81895000D03*
%TO.P,U1,17,SHD/SD2_17*%
%TO.N,unconnected-(U1-SHD{slash}SD2-Pad17)*%
X96985000Y-81895000D03*
%TO.P,U1,18,SWP/SD3_18*%
%TO.N,unconnected-(U1-SWP{slash}SD3-Pad18)*%
X98255000Y-81895000D03*
%TO.P,U1,19,SCS/CMD_19*%
%TO.N,unconnected-(U1-SCS{slash}CMD-Pad19)*%
X99525000Y-81895000D03*
%TO.P,U1,20,SCK/CLK_20*%
%TO.N,unconnected-(U1-SCK{slash}CLK-Pad20)*%
X100795000Y-81895000D03*
%TO.P,U1,21,SDO/SD0_21*%
%TO.N,unconnected-(U1-SDO{slash}SD0-Pad21)*%
X102065000Y-81895000D03*
%TO.P,U1,22,SDI/SD1_22*%
%TO.N,unconnected-(U1-SDI{slash}SD1-Pad22)*%
X103335000Y-81895000D03*
%TO.P,U1,23,IO15_23*%
%TO.N,unconnected-(U1-IO15-Pad23)*%
X104605000Y-81895000D03*
%TO.P,U1,24,IO2_24*%
%TO.N,/D2*%
X105875000Y-81895000D03*
D19*
%TO.P,U1,25,IO0_25*%
%TO.N,/IO0*%
X108905000Y-80645000D03*
%TO.P,U1,26,IO4_26*%
%TO.N,/INT*%
X108905000Y-79375000D03*
%TO.P,U1,27,IO16_27*%
%TO.N,unconnected-(U1-IO16-Pad27)*%
X108905000Y-78105000D03*
%TO.P,U1,28,IO17_28*%
%TO.N,unconnected-(U1-IO17-Pad28)*%
X108905000Y-76835000D03*
%TO.P,U1,29,IO5_29*%
%TO.N,/CS*%
X108905000Y-75565000D03*
%TO.P,U1,30,IO18_30*%
%TO.N,/SCK*%
X108905000Y-74295000D03*
%TO.P,U1,31,IO19_31*%
%TO.N,/MISO*%
X108905000Y-73025000D03*
%TO.P,U1,32,NC_32*%
%TO.N,unconnected-(U1-NC-Pad32)*%
X108905000Y-71755000D03*
%TO.P,U1,33,IO21_33*%
%TO.N,unconnected-(U1-IO21-Pad33)*%
X108905000Y-70485000D03*
%TO.P,U1,34,RXD0/IO3_34*%
%TO.N,/RXD*%
X108905000Y-69215000D03*
%TO.P,U1,35,TXD0/IO1_35*%
%TO.N,/TXD*%
X108905000Y-67945000D03*
%TO.P,U1,36,IO22_36*%
%TO.N,unconnected-(U1-IO22-Pad36)*%
X108905000Y-66675000D03*
%TO.P,U1,37,IO23_37*%
%TO.N,/MOSI*%
X108905000Y-65405000D03*
%TO.P,U1,38,GND_38*%
%TO.N,GND*%
X108905000Y-64135000D03*
D21*
%TO.P,U1,39,GND_39*%
X97950000Y-69950000D03*
D22*
X97950000Y-70712500D03*
D21*
X97950000Y-71475000D03*
D22*
X97950000Y-72237500D03*
D21*
X97950000Y-73000000D03*
D22*
X98712500Y-69950000D03*
X98712500Y-71475000D03*
X98712500Y-73000000D03*
D21*
X99475000Y-69950000D03*
D22*
X99475000Y-70712500D03*
D21*
X99475000Y-71475000D03*
D23*
X99475000Y-71475000D03*
D22*
X99475000Y-72237500D03*
D21*
X99475000Y-73000000D03*
D22*
X100237500Y-69950000D03*
X100237500Y-71475000D03*
X100237500Y-73000000D03*
D21*
X101000000Y-69950000D03*
D22*
X101000000Y-70712500D03*
D21*
X101000000Y-71475000D03*
D22*
X101000000Y-72237500D03*
D21*
X101000000Y-73000000D03*
%TD*%
D24*
%TO.P,R6,1*%
%TO.N,/EN*%
X119175000Y-77000000D03*
%TO.P,R6,2*%
%TO.N,+3.3V*%
X120825000Y-77000000D03*
%TD*%
D14*
%TO.P,C4,1*%
%TO.N,GND*%
X128000000Y-85000000D03*
%TO.P,C4,2*%
%TO.N,Net-(U2-V3)*%
X126450000Y-85000000D03*
%TD*%
D25*
%TO.P,R2,1*%
%TO.N,Net-(J1-CC1)*%
X133825000Y-67000000D03*
%TO.P,R2,2*%
%TO.N,GND*%
X132175000Y-67000000D03*
%TD*%
D26*
%TO.P,Q1,1,B_1*%
%TO.N,Net-(Q1-B)*%
X112950000Y-76062500D03*
%TO.P,Q1,2,E_2*%
%TO.N,/RTS*%
X111050000Y-76062500D03*
%TO.P,Q1,3,C_3*%
%TO.N,/EN*%
X112000000Y-77937500D03*
%TD*%
D27*
%TO.P,U2,1,GND_1*%
%TO.N,GND*%
X120475000Y-73445000D03*
%TO.P,U2,2,TXD_2*%
%TO.N,/RXD*%
X120475000Y-72175000D03*
%TO.P,U2,3,RXD_3*%
%TO.N,/TXD*%
X120475000Y-70905000D03*
%TO.P,U2,4,V3_4*%
%TO.N,Net-(U2-V3)*%
X120475000Y-69635000D03*
%TO.P,U2,5,UD+_5*%
%TO.N,/USB_D+*%
X120475000Y-68365000D03*
%TO.P,U2,6,UD-_6*%
%TO.N,/USB_D-*%
X120475000Y-67095000D03*
%TO.P,U2,7,NC_7*%
%TO.N,unconnected-(U2-NC-Pad7)*%
X120475000Y-65825000D03*
%TO.P,U2,8,NC_8*%
%TO.N,unconnected-(U2-NC-Pad8)*%
X120475000Y-64555000D03*
%TO.P,U2,9,~{CTS}_9*%
%TO.N,unconnected-(U2-~{CTS}-Pad9)*%
X115525000Y-64555000D03*
%TO.P,U2,10,~{DSR}_10*%
%TO.N,unconnected-(U2-~{DSR}-Pad10)*%
X115525000Y-65825000D03*
%TO.P,U2,11,~{RI}_11*%
%TO.N,unconnected-(U2-~{RI}-Pad11)*%
X115525000Y-67095000D03*
%TO.P,U2,12,~{DCD}_12*%
%TO.N,unconnected-(U2-~{DCD}-Pad12)*%
X115525000Y-68365000D03*
%TO.P,U2,13,~{DTR}_13*%
%TO.N,/DTR*%
X115525000Y-69635000D03*
%TO.P,U2,14,~{RTS}_14*%
%TO.N,/RTS*%
X115525000Y-70905000D03*
%TO.P,U2,15,R232_15*%
%TO.N,unconnected-(U2-R232-Pad15)*%
X115525000Y-72175000D03*
%TO.P,U2,16,VCC_16*%
%TO.N,+3.3V*%
X115525000Y-73445000D03*
%TD*%
D28*
%TO.P,SW1,1,1_1*%
%TO.N,GND*%
X116000000Y-84900000D03*
%TO.P,SW1,2,2_2*%
%TO.N,/EN*%
X116000000Y-89100000D03*
%TD*%
D13*
%TO.P,R5,1*%
%TO.N,/RTS*%
X111000000Y-80175000D03*
%TO.P,R5,2*%
%TO.N,Net-(Q3-B)*%
X111000000Y-81825000D03*
%TD*%
D29*
%TO.P,J2,1,Pin_1_1*%
%TO.N,+3.3V*%
X94000000Y-87000000D03*
D30*
%TO.P,J2,2,Pin_2_2*%
%TO.N,GND*%
X96000000Y-87000000D03*
%TO.P,J2,3,Pin_3_3*%
%TO.N,/SCK*%
X98000000Y-87000000D03*
%TO.P,J2,4,Pin_4_4*%
%TO.N,/MISO*%
X100000000Y-87000000D03*
%TO.P,J2,5,Pin_5_5*%
%TO.N,/MOSI*%
X102000000Y-87000000D03*
%TO.P,J2,6,Pin_6_6*%
%TO.N,/CS*%
X104000000Y-87000000D03*
%TO.P,J2,7,Pin_7_7*%
%TO.N,/INT*%
X106000000Y-87000000D03*
%TD*%
D14*
%TO.P,C3,1*%
%TO.N,+3.3V*%
X124775000Y-83000000D03*
%TO.P,C3,2*%
%TO.N,GND*%
X123225000Y-83000000D03*
%TD*%
D24*
%TO.P,R3,1*%
%TO.N,Net-(D1-A)*%
X127175000Y-79000000D03*
%TO.P,R3,2*%
%TO.N,+5V*%
X128825000Y-79000000D03*
%TD*%
D31*
%TO.P,U4,1,GND_1*%
%TO.N,GND*%
X129700000Y-76150000D03*
%TO.P,U4,2,VO_2*%
%TO.N,+3.3V*%
X132000000Y-76150000D03*
D32*
X132000000Y-69850000D03*
D31*
%TO.P,U4,3,VI_3*%
%TO.N,+5V*%
X134300000Y-76150000D03*
%TD*%
D33*
%TO.P,D1,1,K_1*%
%TO.N,GND*%
X132787500Y-80000000D03*
%TO.P,D1,2,A_2*%
%TO.N,Net-(D1-A)*%
X131212500Y-80000000D03*
%TD*%
%TO.P,D3,1,K_1*%
%TO.N,GND*%
X131575000Y-83000000D03*
%TO.P,D3,2,A_2*%
%TO.N,Net-(D3-A)*%
X130000000Y-83000000D03*
%TD*%
D34*
%TO.P,SW2,1,1_1*%
%TO.N,GND*%
X111000000Y-89100000D03*
%TO.P,SW2,2,2_2*%
%TO.N,/IO0*%
X111000000Y-84900000D03*
%TD*%
D35*
%TO.P,J3,1,Pin_1_1*%
%TO.N,+3.3V*%
X121460000Y-88000000D03*
D36*
%TO.P,J3,2,Pin_2_2*%
%TO.N,/TXD*%
X124000000Y-88000000D03*
%TO.P,J3,3,Pin_3_3*%
%TO.N,/RXD*%
X126540000Y-88000000D03*
%TO.P,J3,4,Pin_4_4*%
%TO.N,GND*%
X129080000Y-88000000D03*
%TO.P,J3,5,Pin_5_5*%
%TO.N,/EN*%
X131620000Y-88000000D03*
%TO.P,J3,6*%
%TO.N,N/C*%
X134160000Y-88000000D03*
%TD*%
D15*
%TO.P,C8,1*%
%TO.N,+3.3V*%
X112000000Y-66775000D03*
%TO.P,C8,2*%
%TO.N,GND*%
X112000000Y-65225000D03*
%TD*%
D25*
%TO.P,R7,1*%
%TO.N,Net-(D3-A)*%
X128825000Y-81000000D03*
%TO.P,R7,2*%
%TO.N,/D2*%
X127175000Y-81000000D03*
%TD*%
D37*
%TO.P,J1,A1,GND_A1*%
%TO.N,GND*%
X133250000Y-64045000D03*
%TO.P,J1,A4,VBUS_A4*%
%TO.N,VBUS*%
X132450000Y-64045000D03*
D38*
%TO.P,J1,A5,CC1_A5*%
%TO.N,Net-(J1-CC1)*%
X131250000Y-64045000D03*
%TO.P,J1,A6,D+_A6*%
%TO.N,/USB_D+*%
X130250000Y-64045000D03*
%TO.P,J1,A7,D-_A7*%
%TO.N,/USB_D-*%
X129750000Y-64045000D03*
%TO.P,J1,A8,SBU1_A8*%
%TO.N,unconnected-(J1-SBU1-PadA8)*%
X128750000Y-64045000D03*
D37*
%TO.P,J1,A9,VBUS_A9*%
%TO.N,VBUS*%
X127550000Y-64045000D03*
%TO.P,J1,A12,GND_A12*%
%TO.N,GND*%
X126750000Y-64045000D03*
%TO.P,J1,B1,GND_B1*%
X126750000Y-64045000D03*
%TO.P,J1,B4,VBUS_B4*%
%TO.N,VBUS*%
X127550000Y-64045000D03*
D38*
%TO.P,J1,B5,CC2_B5*%
%TO.N,Net-(J1-CC2)*%
X128250000Y-64045000D03*
%TO.P,J1,B6,D+_B6*%
%TO.N,/USB_D+*%
X129250000Y-64045000D03*
%TO.P,J1,B7,D-_B7*%
%TO.N,/USB_D-*%
X130750000Y-64045000D03*
%TO.P,J1,B8,SBU2_B8*%
%TO.N,unconnected-(J1-SBU2-PadB8)*%
X131750000Y-64045000D03*
D37*
%TO.P,J1,B9,VBUS_B9*%
%TO.N,VBUS*%
X132450000Y-64045000D03*
%TO.P,J1,B12,GND_B12*%
%TO.N,GND*%
X133250000Y-64045000D03*
D39*
%TO.P,J1,SH,SHIELD_SH*%
X134320000Y-63130000D03*
D40*
X134320000Y-58950000D03*
D39*
X125680000Y-63130000D03*
D40*
X125680000Y-58950000D03*
%TD*%
D41*
%TO.P,D2,1,K_1*%
%TO.N,+5V*%
X125000000Y-72650000D03*
%TO.P,D2,2,A_2*%
%TO.N,VBUS*%
X125000000Y-69350000D03*
%TD*%
D42*
%TO.N,/DTR*%
X114017200Y-69635000D03*
X114447600Y-75453200D03*
%TO.N,GND*%
X123564100Y-82015500D03*
%TO.N,/EN*%
X119473300Y-88854700D03*
X105585600Y-66675000D03*
X112888800Y-78083500D03*
X118227000Y-76779900D03*
%TO.N,/D2*%
X121000000Y-90000000D03*
X105561800Y-83174600D03*
%TO.N,/SCK*%
X107095900Y-75864800D03*
%TO.N,/MISO*%
X107626900Y-73025000D03*
%TO.N,/RXD*%
X122125500Y-72175000D03*
%TO.N,/TXD*%
X121971000Y-71297100D03*
%TO.N,Net-(U2-V3)*%
X126849500Y-84003400D03*
X121799700Y-70233300D03*
%TO.N,/USB_D-*%
X121840600Y-66473400D03*
X125066400Y-60698200D03*
%TD*%
%TO.N,/DTR*%
D43*
X115103200Y-75453200D02*
X116000000Y-76350000D01*
X114447600Y-75453200D02*
X115103200Y-75453200D01*
X115525000Y-69635000D02*
X114017200Y-69635000D01*
%TO.N,Net-(Q1-B)*%
X112950000Y-76062500D02*
X114887500Y-78000000D01*
X115950000Y-81937500D02*
X116000000Y-81887500D01*
X114887500Y-78000000D02*
X116000000Y-78000000D01*
X116000000Y-81887500D02*
X116000000Y-78000000D01*
%TO.N,GND*%
X121335000Y-83000000D02*
X120335000Y-82000000D01*
D44*
X133250000Y-65925000D02*
X133250000Y-64045000D01*
D43*
X99475000Y-69950000D02*
X98712500Y-69950000D01*
X96000000Y-87000000D02*
X96901700Y-87000000D01*
X111191900Y-73199700D02*
X111191900Y-72033100D01*
D44*
X128550000Y-75000000D02*
X124612500Y-75000000D01*
D43*
X100237500Y-73000000D02*
X99475000Y-73000000D01*
X106221900Y-64135000D02*
X106221900Y-66926700D01*
X112259600Y-74267400D02*
X111191900Y-73199700D01*
X123564100Y-82660900D02*
X123225000Y-83000000D01*
X119120000Y-80000000D02*
X119120000Y-80785000D01*
X125680000Y-63130000D02*
X125680000Y-63485700D01*
X119120000Y-80785000D02*
X120335000Y-82000000D01*
X131575000Y-83000000D02*
X130731000Y-83844000D01*
X117625300Y-78505300D02*
X117625300Y-76751200D01*
X119120000Y-80000000D02*
X117625300Y-78505300D01*
X125680000Y-64481700D02*
X126313300Y-64481700D01*
X115200000Y-84900000D02*
X116000000Y-84900000D01*
X117435000Y-84900000D02*
X120335000Y-82000000D01*
X94445000Y-85445000D02*
X94445000Y-81895000D01*
X98712500Y-71475000D02*
X97950000Y-71475000D01*
X98712500Y-73000000D02*
X97950000Y-73000000D01*
X132787500Y-80000000D02*
X132825000Y-80000000D01*
X129353000Y-83647000D02*
X128000000Y-85000000D01*
D44*
X132175000Y-67000000D02*
X133250000Y-65925000D01*
D43*
X111000000Y-89100000D02*
X115200000Y-84900000D01*
X103198600Y-69950000D02*
X101000000Y-69950000D01*
D44*
X129700000Y-76150000D02*
X128550000Y-75000000D01*
D43*
X95098300Y-87000000D02*
X95098300Y-86098300D01*
X99475000Y-71475000D02*
X98712500Y-71475000D01*
X129080000Y-88000000D02*
X128000000Y-86920000D01*
X108905000Y-64135000D02*
X110910000Y-64135000D01*
X99475000Y-73000000D02*
X98712500Y-73000000D01*
X97950000Y-69950000D02*
X98712500Y-69950000D01*
X132787500Y-83000000D02*
X132787500Y-80000000D01*
X106221900Y-64135000D02*
X108905000Y-64135000D01*
X111191900Y-72033100D02*
X112000000Y-71225000D01*
X125680000Y-60051700D02*
X134320000Y-60051700D01*
X123564100Y-82015500D02*
X123564100Y-82660900D01*
X119033700Y-73445000D02*
X120475000Y-73445000D01*
X101000000Y-71475000D02*
X100237500Y-71475000D01*
X130731000Y-83844000D02*
X129549900Y-83844000D01*
X125680000Y-63485700D02*
X125680000Y-63758700D01*
D44*
X123225000Y-76387500D02*
X123225000Y-77000000D01*
X124612500Y-75000000D02*
X123225000Y-76387500D01*
D43*
X112315000Y-71540000D02*
X117128700Y-71540000D01*
X112000000Y-71225000D02*
X112315000Y-71540000D01*
D44*
X133405000Y-64045000D02*
X134320000Y-63130000D01*
D43*
X115141500Y-74267400D02*
X112259600Y-74267400D01*
X95098300Y-86098300D02*
X94445000Y-85445000D01*
X134320000Y-58950000D02*
X134320000Y-60051700D01*
X110910000Y-64135000D02*
X112000000Y-65225000D01*
X125680000Y-58950000D02*
X125680000Y-60051700D01*
X100237500Y-69950000D02*
X99475000Y-69950000D01*
X123225000Y-83000000D02*
X121335000Y-83000000D01*
X128000000Y-82294100D02*
X128000000Y-80639300D01*
X101000000Y-73000000D02*
X100237500Y-73000000D01*
X98515200Y-89100000D02*
X96901700Y-87486500D01*
X126366500Y-80141500D02*
X123225000Y-77000000D01*
X117128700Y-71540000D02*
X119033700Y-73445000D01*
X126313300Y-64481700D02*
X126750000Y-64045000D01*
X101000000Y-69950000D02*
X100237500Y-69950000D01*
X129353000Y-83647000D02*
X128000000Y-82294100D01*
X129549900Y-83844000D02*
X129353000Y-83647000D01*
X133775000Y-83000000D02*
X134000000Y-83225000D01*
X125680000Y-63758700D02*
X125680000Y-64481700D01*
X127502200Y-80141500D02*
X126366500Y-80141500D01*
X96000000Y-87000000D02*
X95098300Y-87000000D01*
X131575000Y-83000000D02*
X132787500Y-83000000D01*
X128000000Y-86920000D02*
X128000000Y-85000000D01*
X106221900Y-66926700D02*
X103198600Y-69950000D01*
X100237500Y-71475000D02*
X99475000Y-71475000D01*
X117625300Y-76751200D02*
X115141500Y-74267400D01*
D44*
X133250000Y-64045000D02*
X133405000Y-64045000D01*
D43*
X132787500Y-83000000D02*
X133775000Y-83000000D01*
X96901700Y-87486500D02*
X96901700Y-87000000D01*
X111000000Y-89100000D02*
X98515200Y-89100000D01*
X128000000Y-80639300D02*
X127502200Y-80141500D01*
X91405000Y-64135000D02*
X106221900Y-64135000D01*
X116000000Y-84900000D02*
X117435000Y-84900000D01*
%TO.N,/IO0*%
X109956700Y-80645000D02*
X109956700Y-80650400D01*
X112612700Y-80062500D02*
X115000000Y-80062500D01*
X108905000Y-80645000D02*
X109956700Y-80645000D01*
X109956700Y-80650400D02*
X110217500Y-80911200D01*
X110217500Y-84117500D02*
X110217500Y-80911200D01*
X111764000Y-80911200D02*
X112612700Y-80062500D01*
X118785000Y-82000000D02*
X117056100Y-83728900D01*
X117056100Y-83728900D02*
X112171100Y-83728900D01*
X111000000Y-84900000D02*
X110217500Y-84117500D01*
X112171100Y-83728900D02*
X111000000Y-84900000D01*
X110217500Y-80911200D02*
X111764000Y-80911200D01*
%TO.N,+3.3V*%
D45*
X120825000Y-75370000D02*
X122000000Y-74195000D01*
D43*
X116506900Y-66460000D02*
X119046800Y-68999900D01*
D45*
X97000000Y-90000000D02*
X119460000Y-90000000D01*
D43*
X112315000Y-66460000D02*
X116506900Y-66460000D01*
D45*
X124850000Y-74000000D02*
X129850000Y-74000000D01*
X124775000Y-84225000D02*
X124775000Y-83000000D01*
X112000000Y-72775000D02*
X112670000Y-73445000D01*
X94000000Y-87000000D02*
X97000000Y-90000000D01*
X122000000Y-74195000D02*
X124655000Y-74195000D01*
X116275000Y-74195000D02*
X122000000Y-74195000D01*
X124775000Y-83000000D02*
X124775000Y-80775000D01*
X124775000Y-80775000D02*
X124000000Y-80000000D01*
X89000000Y-66560000D02*
X89000000Y-86000000D01*
X121460000Y-88000000D02*
X121460000Y-87540000D01*
X120825000Y-75370000D02*
X122000000Y-74195000D01*
X122000000Y-80000000D02*
X122000000Y-78175000D01*
X90155000Y-65405000D02*
X89000000Y-66560000D01*
X121460000Y-88000000D02*
X121460000Y-87540000D01*
D43*
X112000000Y-66775000D02*
X112315000Y-66460000D01*
D45*
X120825000Y-77000000D02*
X120825000Y-75370000D01*
X89000000Y-66560000D02*
X89000000Y-86000000D01*
X122000000Y-78175000D02*
X120825000Y-77000000D01*
X112670000Y-73445000D02*
X115525000Y-73445000D01*
X121460000Y-87540000D02*
X124775000Y-84225000D01*
D43*
X122781300Y-73413700D02*
X122000000Y-74195000D01*
D45*
X124000000Y-80000000D02*
X122000000Y-80000000D01*
X97000000Y-90000000D02*
X119460000Y-90000000D01*
X89000000Y-86000000D02*
X93000000Y-86000000D01*
X89000000Y-86000000D02*
X93000000Y-86000000D01*
X132000000Y-76150000D02*
X132000000Y-69850000D01*
X124850000Y-74000000D02*
X124655000Y-74195000D01*
X93000000Y-86000000D02*
X94000000Y-87000000D01*
X112670000Y-73445000D02*
X115525000Y-73445000D01*
X124775000Y-84225000D02*
X124775000Y-83000000D01*
D43*
X121520400Y-68999900D02*
X122781300Y-70260800D01*
D45*
X91405000Y-65405000D02*
X90155000Y-65405000D01*
X115525000Y-73445000D02*
X116275000Y-74195000D01*
X122000000Y-74195000D02*
X124655000Y-74195000D01*
X91405000Y-65405000D02*
X90155000Y-65405000D01*
X93000000Y-86000000D02*
X94000000Y-87000000D01*
X94000000Y-87000000D02*
X97000000Y-90000000D01*
X116275000Y-74195000D02*
X122000000Y-74195000D01*
X124000000Y-80000000D02*
X122000000Y-80000000D01*
X129850000Y-74000000D02*
X132000000Y-76150000D01*
D43*
X122781300Y-70260800D02*
X122781300Y-73413700D01*
D45*
X119460000Y-90000000D02*
X121460000Y-88000000D01*
X122000000Y-78175000D02*
X120825000Y-77000000D01*
D43*
X119046800Y-68999900D02*
X121520400Y-68999900D01*
D45*
X124775000Y-80775000D02*
X124000000Y-80000000D01*
%TO.N,+5V*%
X134300000Y-76150000D02*
X131450000Y-79000000D01*
D44*
X135000000Y-68000000D02*
X136000000Y-69000000D01*
X129650000Y-68000000D02*
X135000000Y-68000000D01*
D45*
X126825000Y-77000000D02*
X128825000Y-79000000D01*
D44*
X136000000Y-74450000D02*
X134300000Y-76150000D01*
D45*
X131450000Y-79000000D02*
X128825000Y-79000000D01*
X124775000Y-77000000D02*
X126825000Y-77000000D01*
X126825000Y-77000000D02*
X128825000Y-79000000D01*
D44*
X136000000Y-69000000D02*
X136000000Y-74450000D01*
X125000000Y-72650000D02*
X129650000Y-68000000D01*
%TO.N,/EN*%
D43*
X134000000Y-85620000D02*
X134000000Y-84775000D01*
X118227000Y-76779900D02*
X118954900Y-76779900D01*
X112146000Y-78083500D02*
X112000000Y-77937500D01*
X116245300Y-88854700D02*
X116000000Y-89100000D01*
X118954900Y-76779900D02*
X119175000Y-77000000D01*
X131620000Y-88000000D02*
X134000000Y-85620000D01*
X91405000Y-66675000D02*
X105585600Y-66675000D01*
X112888800Y-78083500D02*
X112146000Y-78083500D01*
X119473300Y-88854700D02*
X116245300Y-88854700D01*
%TO.N,Net-(Q3-B)*%
X114050000Y-81937500D02*
X111112500Y-81937500D01*
X111112500Y-81937500D02*
X111000000Y-81825000D01*
%TO.N,/D2*%
X105875000Y-81895000D02*
X105875000Y-82946700D01*
X105875000Y-82946700D02*
X105789700Y-82946700D01*
X122658800Y-88975600D02*
X122658800Y-87345400D01*
X121000000Y-90000000D02*
X121634400Y-90000000D01*
X105789700Y-82946700D02*
X105561800Y-83174600D01*
X125977500Y-84026700D02*
X125977500Y-82197500D01*
X122658800Y-87345400D02*
X125977500Y-84026700D01*
X125977500Y-82197500D02*
X127175000Y-81000000D01*
X121634400Y-90000000D02*
X122658800Y-88975600D01*
%TO.N,/INT*%
X106901700Y-87000000D02*
X107853300Y-86048400D01*
X107853300Y-86048400D02*
X107853300Y-79375000D01*
X106000000Y-87000000D02*
X106901700Y-87000000D01*
X108905000Y-79375000D02*
X107853300Y-79375000D01*
%TO.N,/CS*%
X107853300Y-75958300D02*
X107853300Y-75565000D01*
X104901700Y-87000000D02*
X104901700Y-85925800D01*
X107188600Y-83638900D02*
X107188600Y-76623000D01*
X104901700Y-85925800D02*
X107188600Y-83638900D01*
X104000000Y-87000000D02*
X104901700Y-87000000D01*
X107188600Y-76623000D02*
X107853300Y-75958300D01*
X108905000Y-75565000D02*
X107853300Y-75565000D01*
%TO.N,/SCK*%
X108905000Y-74295000D02*
X107853300Y-74295000D01*
X107095900Y-75052400D02*
X107853300Y-74295000D01*
X107095900Y-75864800D02*
X107095900Y-75052400D01*
%TO.N,/MISO*%
X108905000Y-73025000D02*
X107853300Y-73025000D01*
X107853300Y-73025000D02*
X107626900Y-73025000D01*
%TO.N,/RXD*%
X108905000Y-69215000D02*
X109956700Y-69215000D01*
X110171700Y-69000000D02*
X116522900Y-69000000D01*
X116522900Y-69000000D02*
X119697900Y-72175000D01*
X119697900Y-72175000D02*
X120475000Y-72175000D01*
X109956700Y-69215000D02*
X110171700Y-69000000D01*
X120475000Y-72175000D02*
X122125500Y-72175000D01*
%TO.N,/TXD*%
X120475000Y-70905000D02*
X120031900Y-70905000D01*
X120867100Y-71297100D02*
X121971000Y-71297100D01*
X120031900Y-70905000D02*
X116856900Y-67730000D01*
X110171700Y-67730000D02*
X109956700Y-67945000D01*
X116856900Y-67730000D02*
X110171700Y-67730000D01*
X120475000Y-70905000D02*
X120867100Y-71297100D01*
X108905000Y-67945000D02*
X109956700Y-67945000D01*
%TO.N,/MOSI*%
X102901700Y-86495000D02*
X105392400Y-84004300D01*
X106494200Y-76113900D02*
X106494200Y-75615700D01*
X106626700Y-66631600D02*
X107853300Y-65405000D01*
X108905000Y-65405000D02*
X107853300Y-65405000D01*
X102000000Y-87000000D02*
X102901700Y-87000000D01*
X105583000Y-84004300D02*
X106626700Y-82960600D01*
X105392400Y-84004300D02*
X105583000Y-84004300D01*
X106494200Y-75615700D02*
X106626700Y-75483200D01*
X106626700Y-76246400D02*
X106494200Y-76113900D01*
X102901700Y-87000000D02*
X102901700Y-86495000D01*
X106626700Y-82960600D02*
X106626700Y-76246400D01*
X106626700Y-75483200D02*
X106626700Y-66631600D01*
%TO.N,Net-(U2-V3)*%
X120475000Y-69635000D02*
X121201400Y-69635000D01*
X121201400Y-69635000D02*
X121799700Y-70233300D01*
X126849500Y-84003400D02*
X126450000Y-84402900D01*
X126450000Y-84402900D02*
X126450000Y-85000000D01*
%TO.N,Net-(J1-CC1)*%
D44*
X131250000Y-63214695D02*
X131250000Y-64045000D01*
X136000000Y-64825000D02*
X136000000Y-61000000D01*
X133464695Y-61000000D02*
X131250000Y-63214695D01*
X133825000Y-67000000D02*
X136000000Y-64825000D01*
X136000000Y-61000000D02*
X133464695Y-61000000D01*
%TO.N,/RTS*%
D43*
X111050000Y-80125000D02*
X111000000Y-80175000D01*
X111050000Y-76062500D02*
X111050000Y-80125000D01*
X115064900Y-70444900D02*
X111514200Y-70444900D01*
X110790100Y-71169000D02*
X110790100Y-75802600D01*
X110790100Y-75802600D02*
X111050000Y-76062500D01*
X115525000Y-70905000D02*
X115064900Y-70444900D01*
X111514200Y-70444900D02*
X110790100Y-71169000D01*
%TO.N,/USB_D+*%
X129250000Y-64045000D02*
X129250000Y-63286900D01*
X124739800Y-62386100D02*
X125409500Y-61716400D01*
X124739800Y-64463000D02*
X124739800Y-62386100D01*
X129518900Y-63018000D02*
X129981100Y-63018000D01*
X120837800Y-68365000D02*
X124739800Y-64463000D01*
X130250000Y-63286900D02*
X130250000Y-64045000D01*
X129250000Y-63286900D02*
X129518900Y-63018000D01*
X120475000Y-68365000D02*
X120837800Y-68365000D01*
X127679500Y-61716400D02*
X129250000Y-63286900D01*
X125409500Y-61716400D02*
X127679500Y-61716400D01*
X129981100Y-63018000D02*
X130250000Y-63286900D01*
%TO.N,/USB_D-*%
X130750000Y-63200200D02*
X128248000Y-60698200D01*
X130750000Y-64817800D02*
X130750000Y-64045000D01*
X129750000Y-64045000D02*
X129750000Y-64877800D01*
X130488800Y-65079000D02*
X130750000Y-64817800D01*
X130750000Y-64045000D02*
X130750000Y-63200200D01*
X129750000Y-64877800D02*
X129951200Y-65079000D01*
X128248000Y-60698200D02*
X125066400Y-60698200D01*
X121840600Y-66473400D02*
X121096600Y-66473400D01*
X121096600Y-66473400D02*
X120475000Y-67095000D01*
X129951200Y-65079000D02*
X130488800Y-65079000D01*
%TO.N,Net-(D1-A)*%
X131212500Y-80000000D02*
X128175000Y-80000000D01*
X128175000Y-80000000D02*
X127175000Y-79000000D01*
%TO.N,Net-(D3-A)*%
X128825000Y-81000000D02*
X130000000Y-82175000D01*
X130000000Y-82175000D02*
X130000000Y-83000000D01*
%TO.N,VBUS*%
D45*
X127550000Y-65550000D02*
X127550000Y-64045000D01*
D44*
X131669999Y-65550000D02*
X127550000Y-65550000D01*
X125000000Y-68100000D02*
X127550000Y-65550000D01*
X132450000Y-64045000D02*
X132450000Y-64769999D01*
X125000000Y-69350000D02*
X125000000Y-68100000D01*
X132450000Y-64769999D02*
X131669999Y-65550000D01*
%TD*%
%TA.AperFunction,Conductor*%
%TO.N,GND*%
G36*
X124082339Y-62604685D02*
G01*
X124128094Y-62657489D01*
X124139300Y-62709000D01*
X124139300Y-64162902D01*
X124119615Y-64229941D01*
X124102981Y-64250583D01*
X122513330Y-65840233D01*
X122452007Y-65873718D01*
X122382315Y-65868734D01*
X122356638Y-65853970D01*
X122355954Y-65854995D01*
X122219785Y-65764009D01*
X122219772Y-65764002D01*
X122074099Y-65703663D01*
X122074091Y-65703661D01*
X122048139Y-65698499D01*
X121986228Y-65666114D01*
X121951654Y-65605398D01*
X121948713Y-65586605D01*
X121947598Y-65572433D01*
X121947597Y-65572426D01*
X121904370Y-65423642D01*
X121901744Y-65414602D01*
X121818081Y-65273135D01*
X121818078Y-65273132D01*
X121813298Y-65266969D01*
X121815750Y-65265066D01*
X121789155Y-65216421D01*
X121794104Y-65146726D01*
X121814940Y-65114304D01*
X121813298Y-65113031D01*
X121818075Y-65106870D01*
X121818081Y-65106865D01*
X121901744Y-64965398D01*
X121943391Y-64822050D01*
X121947597Y-64807573D01*
X121947598Y-64807567D01*
X121948603Y-64794794D01*
X121950500Y-64770694D01*
X121950500Y-64339306D01*
X121947598Y-64302431D01*
X121901744Y-64144602D01*
X121818081Y-64003135D01*
X121818079Y-64003133D01*
X121818076Y-64003129D01*
X121701870Y-63886923D01*
X121701862Y-63886917D01*
X121560396Y-63803255D01*
X121560393Y-63803254D01*
X121402573Y-63757402D01*
X121402567Y-63757401D01*
X121365701Y-63754500D01*
X121365694Y-63754500D01*
X119584306Y-63754500D01*
X119584298Y-63754500D01*
X119547432Y-63757401D01*
X119547426Y-63757402D01*
X119389606Y-63803254D01*
X119389603Y-63803255D01*
X119248137Y-63886917D01*
X119248129Y-63886923D01*
X119131923Y-64003129D01*
X119131917Y-64003137D01*
X119048255Y-64144603D01*
X119048254Y-64144606D01*
X119002402Y-64302426D01*
X119002401Y-64302432D01*
X118999500Y-64339298D01*
X118999500Y-64770701D01*
X119002401Y-64807567D01*
X119002402Y-64807573D01*
X119048254Y-64965393D01*
X119048255Y-64965396D01*
X119131917Y-65106862D01*
X119136702Y-65113031D01*
X119134256Y-65114927D01*
X119160857Y-65163642D01*
X119155873Y-65233334D01*
X119135069Y-65265703D01*
X119136702Y-65266969D01*
X119131917Y-65273137D01*
X119048255Y-65414603D01*
X119048254Y-65414606D01*
X119002402Y-65572426D01*
X119002401Y-65572432D01*
X118999500Y-65609298D01*
X118999500Y-66040701D01*
X119002401Y-66077567D01*
X119002402Y-66077573D01*
X119048254Y-66235393D01*
X119048255Y-66235396D01*
X119048256Y-66235398D01*
X119069700Y-66271658D01*
X119131917Y-66376862D01*
X119136702Y-66383031D01*
X119134256Y-66384927D01*
X119160857Y-66433642D01*
X119155873Y-66503334D01*
X119135069Y-66535703D01*
X119136702Y-66536969D01*
X119131917Y-66543137D01*
X119048255Y-66684603D01*
X119048254Y-66684606D01*
X119002402Y-66842426D01*
X119002401Y-66842432D01*
X118999500Y-66879298D01*
X118999500Y-67310701D01*
X119002401Y-67347567D01*
X119002402Y-67347573D01*
X119048254Y-67505393D01*
X119048255Y-67505396D01*
X119048256Y-67505398D01*
X119071399Y-67544531D01*
X119131917Y-67646862D01*
X119136702Y-67653031D01*
X119134256Y-67654927D01*
X119160857Y-67703642D01*
X119155873Y-67773334D01*
X119135069Y-67805703D01*
X119136702Y-67806969D01*
X119131919Y-67813135D01*
X119056228Y-67941121D01*
X119005158Y-67988804D01*
X118936417Y-68001307D01*
X118871827Y-67974661D01*
X118861815Y-67965680D01*
X117036276Y-66140141D01*
X117002791Y-66078818D01*
X117000341Y-66042715D01*
X117000499Y-66040709D01*
X117000500Y-66040686D01*
X117000500Y-65609313D01*
X117000499Y-65609298D01*
X116997598Y-65572432D01*
X116997597Y-65572426D01*
X116954370Y-65423642D01*
X116951744Y-65414602D01*
X116868081Y-65273135D01*
X116868078Y-65273132D01*
X116863298Y-65266969D01*
X116865750Y-65265066D01*
X116839155Y-65216421D01*
X116844104Y-65146726D01*
X116864940Y-65114304D01*
X116863298Y-65113031D01*
X116868075Y-65106870D01*
X116868081Y-65106865D01*
X116951744Y-64965398D01*
X116993391Y-64822050D01*
X116997597Y-64807573D01*
X116997598Y-64807567D01*
X116998603Y-64794794D01*
X117000500Y-64770694D01*
X117000500Y-64339306D01*
X116997598Y-64302431D01*
X116951744Y-64144602D01*
X116868081Y-64003135D01*
X116868079Y-64003133D01*
X116868076Y-64003129D01*
X116751870Y-63886923D01*
X116751862Y-63886917D01*
X116610396Y-63803255D01*
X116610393Y-63803254D01*
X116452573Y-63757402D01*
X116452567Y-63757401D01*
X116415701Y-63754500D01*
X116415694Y-63754500D01*
X114634306Y-63754500D01*
X114634298Y-63754500D01*
X114597432Y-63757401D01*
X114597426Y-63757402D01*
X114439606Y-63803254D01*
X114439603Y-63803255D01*
X114298137Y-63886917D01*
X114298129Y-63886923D01*
X114181923Y-64003129D01*
X114181917Y-64003137D01*
X114098255Y-64144603D01*
X114098254Y-64144606D01*
X114052402Y-64302426D01*
X114052401Y-64302432D01*
X114049500Y-64339298D01*
X114049500Y-64770701D01*
X114052401Y-64807567D01*
X114052402Y-64807573D01*
X114098254Y-64965393D01*
X114098255Y-64965396D01*
X114181917Y-65106862D01*
X114186702Y-65113031D01*
X114184256Y-65114927D01*
X114210857Y-65163642D01*
X114205873Y-65233334D01*
X114185069Y-65265703D01*
X114186702Y-65266969D01*
X114181917Y-65273137D01*
X114098255Y-65414603D01*
X114098254Y-65414606D01*
X114052402Y-65572426D01*
X114052401Y-65572432D01*
X114049500Y-65609298D01*
X114049500Y-65735500D01*
X114029815Y-65802539D01*
X113977011Y-65848294D01*
X113925500Y-65859500D01*
X112492708Y-65859500D01*
X112453704Y-65853206D01*
X112397709Y-65834651D01*
X112298346Y-65824500D01*
X111701662Y-65824500D01*
X111701644Y-65824501D01*
X111602292Y-65834650D01*
X111602289Y-65834651D01*
X111441305Y-65887996D01*
X111441294Y-65888001D01*
X111296959Y-65977029D01*
X111296955Y-65977032D01*
X111177032Y-66096955D01*
X111177029Y-66096959D01*
X111088001Y-66241294D01*
X111087996Y-66241305D01*
X111034651Y-66402290D01*
X111024500Y-66501647D01*
X111024500Y-66501655D01*
X111024500Y-66766228D01*
X111024501Y-67005500D01*
X111004817Y-67072539D01*
X110952013Y-67118294D01*
X110900501Y-67129500D01*
X110279500Y-67129500D01*
X110212461Y-67109815D01*
X110166706Y-67057011D01*
X110155500Y-67005500D01*
X110155499Y-66177129D01*
X110155498Y-66177123D01*
X110152698Y-66151078D01*
X110149091Y-66117517D01*
X110136340Y-66083332D01*
X110131357Y-66013642D01*
X110136338Y-65996672D01*
X110149091Y-65962483D01*
X110155500Y-65902873D01*
X110155499Y-64907128D01*
X110149091Y-64847517D01*
X110146794Y-64841359D01*
X110098797Y-64712671D01*
X110098793Y-64712664D01*
X110012547Y-64597455D01*
X110012544Y-64597452D01*
X109897335Y-64511206D01*
X109897328Y-64511202D01*
X109762482Y-64460908D01*
X109762483Y-64460908D01*
X109702883Y-64454501D01*
X109702881Y-64454500D01*
X109702873Y-64454500D01*
X109702864Y-64454500D01*
X108107129Y-64454500D01*
X108107123Y-64454501D01*
X108047516Y-64460908D01*
X107912671Y-64511202D01*
X107912664Y-64511206D01*
X107797455Y-64597452D01*
X107797452Y-64597455D01*
X107711205Y-64712665D01*
X107711204Y-64712667D01*
X107687891Y-64775171D01*
X107646019Y-64831104D01*
X107628420Y-64841126D01*
X107628554Y-64841359D01*
X107484590Y-64924475D01*
X107484582Y-64924481D01*
X107372778Y-65036286D01*
X106313552Y-66095511D01*
X106252229Y-66128996D01*
X106182537Y-66124012D01*
X106138190Y-66095511D01*
X106095892Y-66053213D01*
X106095888Y-66053210D01*
X105964785Y-65965609D01*
X105964772Y-65965602D01*
X105819101Y-65905264D01*
X105819089Y-65905261D01*
X105664445Y-65874500D01*
X105664442Y-65874500D01*
X105506758Y-65874500D01*
X105506755Y-65874500D01*
X105352110Y-65905261D01*
X105352098Y-65905264D01*
X105206427Y-65965602D01*
X105206414Y-65965609D01*
X105074725Y-66053602D01*
X105008047Y-66074480D01*
X105005834Y-66074500D01*
X92775094Y-66074500D01*
X92708055Y-66054815D01*
X92662300Y-66002011D01*
X92651804Y-65937246D01*
X92655500Y-65902873D01*
X92655499Y-64907128D01*
X92649091Y-64847517D01*
X92646794Y-64841359D01*
X92598797Y-64712671D01*
X92598793Y-64712664D01*
X92512547Y-64597455D01*
X92512544Y-64597452D01*
X92397335Y-64511206D01*
X92397328Y-64511202D01*
X92262482Y-64460908D01*
X92262483Y-64460908D01*
X92202883Y-64454501D01*
X92202881Y-64454500D01*
X92202873Y-64454500D01*
X92202864Y-64454500D01*
X90607129Y-64454500D01*
X90607123Y-64454501D01*
X90547516Y-64460908D01*
X90412671Y-64511202D01*
X90412664Y-64511206D01*
X90297457Y-64597451D01*
X90297451Y-64597457D01*
X90291948Y-64604809D01*
X90236015Y-64646681D01*
X90192680Y-64654500D01*
X90081076Y-64654500D01*
X90052242Y-64660234D01*
X90052243Y-64660235D01*
X89936093Y-64683339D01*
X89936089Y-64683340D01*
X89871043Y-64710284D01*
X89871042Y-64710284D01*
X89799508Y-64739913D01*
X89717372Y-64794795D01*
X89676585Y-64822047D01*
X89676581Y-64822050D01*
X88417052Y-66081578D01*
X88417049Y-66081581D01*
X88370612Y-66151079D01*
X88370613Y-66151080D01*
X88353209Y-66177128D01*
X88334914Y-66204508D01*
X88278343Y-66341082D01*
X88278340Y-66341092D01*
X88249500Y-66486079D01*
X88249500Y-66486082D01*
X88249500Y-85926082D01*
X88249500Y-86073918D01*
X88249500Y-86073920D01*
X88249499Y-86073920D01*
X88278340Y-86218907D01*
X88278343Y-86218917D01*
X88334912Y-86355488D01*
X88334919Y-86355501D01*
X88417048Y-86478415D01*
X88417051Y-86478419D01*
X88521580Y-86582948D01*
X88521584Y-86582951D01*
X88644498Y-86665080D01*
X88644511Y-86665087D01*
X88753717Y-86710321D01*
X88781087Y-86721658D01*
X88781091Y-86721658D01*
X88781092Y-86721659D01*
X88926079Y-86750500D01*
X88926082Y-86750500D01*
X92637770Y-86750500D01*
X92704809Y-86770185D01*
X92725451Y-86786819D01*
X92863181Y-86924549D01*
X92896666Y-86985872D01*
X92899500Y-87012230D01*
X92899500Y-87675001D01*
X92899501Y-87675019D01*
X92910000Y-87777796D01*
X92910001Y-87777799D01*
X92948155Y-87892938D01*
X92965186Y-87944334D01*
X93057288Y-88093656D01*
X93181344Y-88217712D01*
X93330666Y-88309814D01*
X93497203Y-88364999D01*
X93599991Y-88375500D01*
X94262769Y-88375499D01*
X94329808Y-88395183D01*
X94350450Y-88411818D01*
X95289132Y-89350500D01*
X96226452Y-90287819D01*
X96259937Y-90349142D01*
X96254953Y-90418834D01*
X96213081Y-90474767D01*
X96147617Y-90499184D01*
X96138771Y-90499500D01*
X87624500Y-90499500D01*
X87557461Y-90479815D01*
X87511706Y-90427011D01*
X87500500Y-90375500D01*
X87500500Y-62709000D01*
X87520185Y-62641961D01*
X87572989Y-62596206D01*
X87624500Y-62585000D01*
X124015300Y-62585000D01*
X124082339Y-62604685D01*
G37*
%TD.AperFunction*%
%TA.AperFunction,Conductor*%
G36*
X136418834Y-75053625D02*
G01*
X136474767Y-75095497D01*
X136499184Y-75160961D01*
X136499500Y-75169807D01*
X136499500Y-90375500D01*
X136479815Y-90442539D01*
X136427011Y-90488294D01*
X136375500Y-90499500D01*
X122283496Y-90499500D01*
X122216457Y-90479815D01*
X122170702Y-90427011D01*
X122160758Y-90357853D01*
X122189783Y-90294297D01*
X122195815Y-90287819D01*
X122209403Y-90274231D01*
X123017306Y-89466328D01*
X123017311Y-89466324D01*
X123027514Y-89456120D01*
X123027516Y-89456120D01*
X123139320Y-89344316D01*
X123199665Y-89239793D01*
X123250230Y-89191580D01*
X123318837Y-89178356D01*
X123363346Y-89191310D01*
X123481588Y-89251557D01*
X123683757Y-89317246D01*
X123893713Y-89350500D01*
X123893714Y-89350500D01*
X124106286Y-89350500D01*
X124106287Y-89350500D01*
X124316243Y-89317246D01*
X124518412Y-89251557D01*
X124707816Y-89155051D01*
X124757859Y-89118693D01*
X124879786Y-89030109D01*
X124879788Y-89030106D01*
X124879792Y-89030104D01*
X125030104Y-88879792D01*
X125030106Y-88879788D01*
X125030109Y-88879786D01*
X125155048Y-88707820D01*
X125155047Y-88707820D01*
X125155051Y-88707816D01*
X125159514Y-88699054D01*
X125207488Y-88648259D01*
X125275308Y-88631463D01*
X125341444Y-88653999D01*
X125380486Y-88699056D01*
X125384951Y-88707820D01*
X125509890Y-88879786D01*
X125660213Y-89030109D01*
X125832179Y-89155048D01*
X125832181Y-89155049D01*
X125832184Y-89155051D01*
X126021588Y-89251557D01*
X126223757Y-89317246D01*
X126433713Y-89350500D01*
X126433714Y-89350500D01*
X126646286Y-89350500D01*
X126646287Y-89350500D01*
X126856243Y-89317246D01*
X127058412Y-89251557D01*
X127247816Y-89155051D01*
X127297859Y-89118693D01*
X127419786Y-89030109D01*
X127419788Y-89030106D01*
X127419792Y-89030104D01*
X127570104Y-88879792D01*
X127570106Y-88879788D01*
X127570109Y-88879786D01*
X127695048Y-88707820D01*
X127695047Y-88707820D01*
X127695051Y-88707816D01*
X127791557Y-88518412D01*
X127857246Y-88316243D01*
X127890500Y-88106287D01*
X127890500Y-87893713D01*
X130269500Y-87893713D01*
X130269500Y-88106286D01*
X130301735Y-88309814D01*
X130302754Y-88316243D01*
X130351028Y-88464815D01*
X130368444Y-88518414D01*
X130464951Y-88707820D01*
X130589890Y-88879786D01*
X130740213Y-89030109D01*
X130912179Y-89155048D01*
X130912181Y-89155049D01*
X130912184Y-89155051D01*
X131101588Y-89251557D01*
X131303757Y-89317246D01*
X131513713Y-89350500D01*
X131513714Y-89350500D01*
X131726286Y-89350500D01*
X131726287Y-89350500D01*
X131936243Y-89317246D01*
X132138412Y-89251557D01*
X132327816Y-89155051D01*
X132377859Y-89118693D01*
X132499786Y-89030109D01*
X132499788Y-89030106D01*
X132499792Y-89030104D01*
X132650104Y-88879792D01*
X132650106Y-88879788D01*
X132650109Y-88879786D01*
X132775048Y-88707820D01*
X132775047Y-88707820D01*
X132775051Y-88707816D01*
X132779514Y-88699054D01*
X132827488Y-88648259D01*
X132895308Y-88631463D01*
X132961444Y-88653999D01*
X133000486Y-88699056D01*
X133004951Y-88707820D01*
X133129890Y-88879786D01*
X133280213Y-89030109D01*
X133452179Y-89155048D01*
X133452181Y-89155049D01*
X133452184Y-89155051D01*
X133641588Y-89251557D01*
X133843757Y-89317246D01*
X134053713Y-89350500D01*
X134053714Y-89350500D01*
X134266286Y-89350500D01*
X134266287Y-89350500D01*
X134476243Y-89317246D01*
X134678412Y-89251557D01*
X134867816Y-89155051D01*
X134917859Y-89118693D01*
X135039786Y-89030109D01*
X135039788Y-89030106D01*
X135039792Y-89030104D01*
X135190104Y-88879792D01*
X135190106Y-88879788D01*
X135190109Y-88879786D01*
X135315048Y-88707820D01*
X135315047Y-88707820D01*
X135315051Y-88707816D01*
X135411557Y-88518412D01*
X135477246Y-88316243D01*
X135510500Y-88106287D01*
X135510500Y-87893713D01*
X135477246Y-87683757D01*
X135411557Y-87481588D01*
X135315051Y-87292184D01*
X135315049Y-87292181D01*
X135315048Y-87292179D01*
X135190109Y-87120213D01*
X135039786Y-86969890D01*
X134867820Y-86844951D01*
X134678414Y-86748444D01*
X134678413Y-86748443D01*
X134678412Y-86748443D01*
X134476243Y-86682754D01*
X134476241Y-86682753D01*
X134476240Y-86682753D01*
X134314957Y-86657208D01*
X134266287Y-86649500D01*
X134119096Y-86649500D01*
X134052057Y-86629815D01*
X134006302Y-86577011D01*
X133996358Y-86507853D01*
X134025383Y-86444297D01*
X134031415Y-86437819D01*
X134189050Y-86280184D01*
X134358506Y-86110728D01*
X134358511Y-86110724D01*
X134368714Y-86100520D01*
X134368716Y-86100520D01*
X134480520Y-85988716D01*
X134540062Y-85885586D01*
X134559577Y-85851785D01*
X134600500Y-85699058D01*
X134600500Y-85699049D01*
X134601561Y-85690998D01*
X134604617Y-85691400D01*
X134620185Y-85638385D01*
X134659402Y-85599886D01*
X134703044Y-85572968D01*
X134822968Y-85453044D01*
X134912003Y-85308697D01*
X134965349Y-85147708D01*
X134975500Y-85048345D01*
X134975499Y-84501656D01*
X134965349Y-84402292D01*
X134912003Y-84241303D01*
X134911999Y-84241297D01*
X134911998Y-84241294D01*
X134822970Y-84096959D01*
X134822967Y-84096955D01*
X134703044Y-83977032D01*
X134703040Y-83977029D01*
X134558705Y-83888001D01*
X134558699Y-83887998D01*
X134558697Y-83887997D01*
X134558694Y-83887996D01*
X134397709Y-83834651D01*
X134298346Y-83824500D01*
X133701662Y-83824500D01*
X133701644Y-83824501D01*
X133602292Y-83834650D01*
X133602289Y-83834651D01*
X133441305Y-83887996D01*
X133441294Y-83888001D01*
X133296959Y-83977029D01*
X133296955Y-83977032D01*
X133177032Y-84096955D01*
X133177029Y-84096959D01*
X133088001Y-84241294D01*
X133087996Y-84241305D01*
X133034651Y-84402290D01*
X133024500Y-84501647D01*
X133024500Y-85048337D01*
X133024501Y-85048355D01*
X133034650Y-85147707D01*
X133034651Y-85147710D01*
X133087996Y-85308694D01*
X133087998Y-85308699D01*
X133179232Y-85456611D01*
X133197672Y-85524003D01*
X133176750Y-85590667D01*
X133161374Y-85609389D01*
X132104522Y-86666241D01*
X132043199Y-86699726D01*
X131978523Y-86696491D01*
X131936245Y-86682754D01*
X131796272Y-86660584D01*
X131726287Y-86649500D01*
X131513713Y-86649500D01*
X131465042Y-86657208D01*
X131303760Y-86682753D01*
X131101585Y-86748444D01*
X130912179Y-86844951D01*
X130740213Y-86969890D01*
X130589890Y-87120213D01*
X130464951Y-87292179D01*
X130368444Y-87481585D01*
X130302753Y-87683760D01*
X130269500Y-87893713D01*
X127890500Y-87893713D01*
X127857246Y-87683757D01*
X127791557Y-87481588D01*
X127695051Y-87292184D01*
X127695049Y-87292181D01*
X127695048Y-87292179D01*
X127570109Y-87120213D01*
X127419786Y-86969890D01*
X127247820Y-86844951D01*
X127058414Y-86748444D01*
X127058413Y-86748443D01*
X127058412Y-86748443D01*
X126856243Y-86682754D01*
X126856241Y-86682753D01*
X126856240Y-86682753D01*
X126694957Y-86657208D01*
X126646287Y-86649500D01*
X126433713Y-86649500D01*
X126385042Y-86657208D01*
X126223760Y-86682753D01*
X126021585Y-86748444D01*
X125832179Y-86844951D01*
X125660213Y-86969890D01*
X125509890Y-87120213D01*
X125384949Y-87292182D01*
X125380484Y-87300946D01*
X125332509Y-87351742D01*
X125264688Y-87368536D01*
X125198553Y-87345998D01*
X125159516Y-87300946D01*
X125155050Y-87292182D01*
X125030109Y-87120213D01*
X124879786Y-86969890D01*
X124707820Y-86844951D01*
X124518414Y-86748444D01*
X124518413Y-86748443D01*
X124518412Y-86748443D01*
X124398821Y-86709585D01*
X124341146Y-86670148D01*
X124313948Y-86605790D01*
X124325863Y-86536943D01*
X124349456Y-86503977D01*
X125354078Y-85499355D01*
X125415400Y-85465872D01*
X125485092Y-85470856D01*
X125541025Y-85512728D01*
X125559462Y-85548029D01*
X125561208Y-85553298D01*
X125562997Y-85558696D01*
X125563001Y-85558705D01*
X125652029Y-85703040D01*
X125652032Y-85703044D01*
X125771955Y-85822967D01*
X125771959Y-85822970D01*
X125916294Y-85911998D01*
X125916297Y-85911999D01*
X125916303Y-85912003D01*
X126077292Y-85965349D01*
X126176655Y-85975500D01*
X126723344Y-85975499D01*
X126723352Y-85975498D01*
X126723355Y-85975498D01*
X126783657Y-85969338D01*
X126822708Y-85965349D01*
X126983697Y-85912003D01*
X127128044Y-85822968D01*
X127247968Y-85703044D01*
X127337003Y-85558697D01*
X127390349Y-85397708D01*
X127400500Y-85298345D01*
X127400499Y-84701656D01*
X127395626Y-84653955D01*
X127408395Y-84585265D01*
X127431302Y-84553674D01*
X127471289Y-84513689D01*
X127558894Y-84382579D01*
X127619237Y-84236897D01*
X127650000Y-84082242D01*
X127650000Y-83924558D01*
X127650000Y-83924555D01*
X127649999Y-83924553D01*
X127642728Y-83888001D01*
X127619237Y-83769903D01*
X127611205Y-83750512D01*
X127558897Y-83624227D01*
X127558890Y-83624214D01*
X127471289Y-83493111D01*
X127471286Y-83493107D01*
X127359792Y-83381613D01*
X127359788Y-83381610D01*
X127228685Y-83294009D01*
X127228672Y-83294002D01*
X127083001Y-83233664D01*
X127082989Y-83233661D01*
X126928345Y-83202900D01*
X126928342Y-83202900D01*
X126770658Y-83202900D01*
X126726190Y-83211745D01*
X126656599Y-83205517D01*
X126601422Y-83162653D01*
X126578178Y-83096763D01*
X126578000Y-83090127D01*
X126578000Y-82497597D01*
X126597685Y-82430558D01*
X126614319Y-82409916D01*
X127012417Y-82011819D01*
X127073740Y-81978334D01*
X127100098Y-81975500D01*
X127431613Y-81975500D01*
X127431616Y-81975500D01*
X127502196Y-81969086D01*
X127664606Y-81918478D01*
X127810185Y-81830472D01*
X127840393Y-81800264D01*
X127912319Y-81728339D01*
X127973642Y-81694854D01*
X128043334Y-81699838D01*
X128087681Y-81728339D01*
X128189811Y-81830469D01*
X128189813Y-81830470D01*
X128189815Y-81830472D01*
X128335394Y-81918478D01*
X128497804Y-81969086D01*
X128568384Y-81975500D01*
X128899903Y-81975500D01*
X128966942Y-81995185D01*
X128987584Y-82011819D01*
X129165694Y-82189929D01*
X129199179Y-82251252D01*
X129194195Y-82320944D01*
X129183552Y-82342707D01*
X129124952Y-82437710D01*
X129124950Y-82437715D01*
X129122127Y-82446235D01*
X129072064Y-82597315D01*
X129072064Y-82597316D01*
X129072063Y-82597316D01*
X129062000Y-82695818D01*
X129062000Y-83304181D01*
X129072063Y-83402683D01*
X129124950Y-83562284D01*
X129124955Y-83562295D01*
X129213216Y-83705387D01*
X129213219Y-83705391D01*
X129332108Y-83824280D01*
X129332112Y-83824283D01*
X129475204Y-83912544D01*
X129475207Y-83912545D01*
X129475213Y-83912549D01*
X129634815Y-83965436D01*
X129733326Y-83975500D01*
X129733331Y-83975500D01*
X130266669Y-83975500D01*
X130266674Y-83975500D01*
X130365185Y-83965436D01*
X130524787Y-83912549D01*
X130667891Y-83824281D01*
X130786781Y-83705391D01*
X130875049Y-83562287D01*
X130927936Y-83402685D01*
X130938000Y-83304174D01*
X130938000Y-82695826D01*
X130927936Y-82597315D01*
X130875049Y-82437713D01*
X130875045Y-82437707D01*
X130875044Y-82437704D01*
X130786783Y-82294612D01*
X130786780Y-82294608D01*
X130667890Y-82175718D01*
X130654694Y-82167579D01*
X130607969Y-82115631D01*
X130600018Y-82094142D01*
X130559577Y-81943215D01*
X130530639Y-81893095D01*
X130480520Y-81806284D01*
X130368716Y-81694480D01*
X130368715Y-81694479D01*
X130364385Y-81690149D01*
X130364374Y-81690139D01*
X129761819Y-81087584D01*
X129728334Y-81026261D01*
X129725500Y-80999903D01*
X129725500Y-80724500D01*
X129745185Y-80657461D01*
X129797989Y-80611706D01*
X129849500Y-80600500D01*
X130291815Y-80600500D01*
X130358854Y-80620185D01*
X130397351Y-80659400D01*
X130425717Y-80705387D01*
X130425720Y-80705392D01*
X130544608Y-80824280D01*
X130544612Y-80824283D01*
X130687704Y-80912544D01*
X130687707Y-80912545D01*
X130687713Y-80912549D01*
X130847315Y-80965436D01*
X130945826Y-80975500D01*
X130945831Y-80975500D01*
X131479169Y-80975500D01*
X131479174Y-80975500D01*
X131577685Y-80965436D01*
X131737287Y-80912549D01*
X131880391Y-80824281D01*
X131999281Y-80705391D01*
X132087549Y-80562287D01*
X132140436Y-80402685D01*
X132150500Y-80304174D01*
X132150500Y-79695826D01*
X132140436Y-79597315D01*
X132108147Y-79499876D01*
X132105746Y-79430050D01*
X132138171Y-79373195D01*
X133824548Y-77686817D01*
X133885871Y-77653333D01*
X133912229Y-77650499D01*
X134751123Y-77650499D01*
X134751123Y-77650498D01*
X134793889Y-77647600D01*
X134978693Y-77601641D01*
X135149296Y-77517030D01*
X135297722Y-77397722D01*
X135417030Y-77249296D01*
X135501641Y-77078693D01*
X135547600Y-76893889D01*
X135550500Y-76851123D01*
X135550499Y-75870806D01*
X135570183Y-75803768D01*
X135586813Y-75783131D01*
X136287820Y-75082125D01*
X136349142Y-75048641D01*
X136418834Y-75053625D01*
G37*
%TD.AperFunction*%
%TA.AperFunction,Conductor*%
G36*
X90073833Y-66650046D02*
G01*
X90129767Y-66691917D01*
X90154184Y-66757382D01*
X90154500Y-66766228D01*
X90154500Y-67172870D01*
X90154501Y-67172876D01*
X90160908Y-67232481D01*
X90173659Y-67266669D01*
X90178642Y-67336361D01*
X90173659Y-67353331D01*
X90160908Y-67387518D01*
X90154757Y-67444735D01*
X90154501Y-67447123D01*
X90154500Y-67447135D01*
X90154500Y-68442870D01*
X90154501Y-68442876D01*
X90160908Y-68502481D01*
X90173659Y-68536669D01*
X90178642Y-68606361D01*
X90173659Y-68623331D01*
X90160908Y-68657518D01*
X90156516Y-68698373D01*
X90154501Y-68717123D01*
X90154500Y-68717135D01*
X90154500Y-69712870D01*
X90154501Y-69712876D01*
X90160908Y-69772481D01*
X90173659Y-69806669D01*
X90178642Y-69876361D01*
X90173659Y-69893331D01*
X90160908Y-69927518D01*
X90154501Y-69987116D01*
X90154501Y-69987123D01*
X90154500Y-69987135D01*
X90154500Y-70982870D01*
X90154501Y-70982876D01*
X90160908Y-71042481D01*
X90173659Y-71076669D01*
X90178642Y-71146361D01*
X90173659Y-71163331D01*
X90160908Y-71197518D01*
X90155475Y-71248057D01*
X90154501Y-71257123D01*
X90154500Y-71257135D01*
X90154500Y-72252870D01*
X90154501Y-72252876D01*
X90160908Y-72312481D01*
X90173659Y-72346669D01*
X90178642Y-72416361D01*
X90173659Y-72433331D01*
X90160908Y-72467518D01*
X90155179Y-72520807D01*
X90154501Y-72527123D01*
X90154500Y-72527135D01*
X90154500Y-73522870D01*
X90154501Y-73522876D01*
X90160908Y-73582481D01*
X90173659Y-73616669D01*
X90178642Y-73686361D01*
X90173659Y-73703331D01*
X90160908Y-73737518D01*
X90158296Y-73761818D01*
X90154501Y-73797123D01*
X90154500Y-73797135D01*
X90154500Y-74792870D01*
X90154501Y-74792876D01*
X90160908Y-74852481D01*
X90173659Y-74886669D01*
X90178642Y-74956361D01*
X90173659Y-74973331D01*
X90160908Y-75007518D01*
X90154764Y-75064674D01*
X90154501Y-75067123D01*
X90154500Y-75067135D01*
X90154500Y-76062870D01*
X90154501Y-76062876D01*
X90160908Y-76122481D01*
X90173659Y-76156669D01*
X90178642Y-76226361D01*
X90173659Y-76243331D01*
X90160908Y-76277518D01*
X90154738Y-76334912D01*
X90154501Y-76337123D01*
X90154500Y-76337135D01*
X90154500Y-77332870D01*
X90154501Y-77332876D01*
X90160908Y-77392481D01*
X90173659Y-77426669D01*
X90178642Y-77496361D01*
X90173659Y-77513331D01*
X90160908Y-77547518D01*
X90155785Y-77595172D01*
X90154501Y-77607123D01*
X90154500Y-77607135D01*
X90154500Y-78602870D01*
X90154501Y-78602876D01*
X90160908Y-78662481D01*
X90173659Y-78696669D01*
X90178642Y-78766361D01*
X90173659Y-78783331D01*
X90160908Y-78817518D01*
X90155246Y-78870186D01*
X90154501Y-78877123D01*
X90154500Y-78877135D01*
X90154500Y-79872870D01*
X90154501Y-79872876D01*
X90160908Y-79932481D01*
X90173659Y-79966669D01*
X90178642Y-80036361D01*
X90173659Y-80053331D01*
X90160908Y-80087518D01*
X90158909Y-80106116D01*
X90154501Y-80147123D01*
X90154500Y-80147135D01*
X90154500Y-81142870D01*
X90154501Y-81142876D01*
X90160908Y-81202483D01*
X90211202Y-81337328D01*
X90211206Y-81337335D01*
X90297452Y-81452544D01*
X90297455Y-81452547D01*
X90412664Y-81538793D01*
X90412671Y-81538797D01*
X90547517Y-81589091D01*
X90547516Y-81589091D01*
X90554444Y-81589835D01*
X90607127Y-81595500D01*
X92202872Y-81595499D01*
X92262483Y-81589091D01*
X92397331Y-81538796D01*
X92512546Y-81452546D01*
X92598796Y-81337331D01*
X92649091Y-81202483D01*
X92655500Y-81142873D01*
X92655499Y-80147128D01*
X92649091Y-80087517D01*
X92636340Y-80053332D01*
X92631357Y-79983642D01*
X92636340Y-79966669D01*
X92649091Y-79932483D01*
X92655500Y-79872873D01*
X92655499Y-78877128D01*
X92649091Y-78817517D01*
X92636340Y-78783332D01*
X92631357Y-78713642D01*
X92636340Y-78696669D01*
X92649091Y-78662483D01*
X92655500Y-78602873D01*
X92655499Y-77607128D01*
X92649091Y-77547517D01*
X92636340Y-77513332D01*
X92631357Y-77443642D01*
X92636340Y-77426669D01*
X92649091Y-77392483D01*
X92655500Y-77332873D01*
X92655499Y-76337128D01*
X92649091Y-76277517D01*
X92636340Y-76243332D01*
X92631357Y-76173642D01*
X92636340Y-76156669D01*
X92649091Y-76122483D01*
X92655500Y-76062873D01*
X92655499Y-75067128D01*
X92649091Y-75007517D01*
X92636340Y-74973332D01*
X92631357Y-74903642D01*
X92636340Y-74886669D01*
X92649091Y-74852483D01*
X92655500Y-74792873D01*
X92655499Y-73797128D01*
X92649091Y-73737517D01*
X92636340Y-73703332D01*
X92631357Y-73633642D01*
X92636340Y-73616669D01*
X92649091Y-73582483D01*
X92655500Y-73522873D01*
X92655499Y-72527128D01*
X92649091Y-72467517D01*
X92636340Y-72433332D01*
X92631357Y-72363642D01*
X92636340Y-72346669D01*
X92649091Y-72312483D01*
X92655500Y-72252873D01*
X92655499Y-71257128D01*
X92649091Y-71197517D01*
X92636340Y-71163332D01*
X92631357Y-71093642D01*
X92636340Y-71076669D01*
X92649091Y-71042483D01*
X92655500Y-70982873D01*
X92655499Y-69987128D01*
X92649091Y-69927517D01*
X92636340Y-69893332D01*
X92631357Y-69823642D01*
X92636340Y-69806669D01*
X92649091Y-69772483D01*
X92655500Y-69712873D01*
X92655499Y-68717128D01*
X92649091Y-68657517D01*
X92636340Y-68623332D01*
X92631357Y-68553642D01*
X92636340Y-68536669D01*
X92649091Y-68502483D01*
X92655500Y-68442873D01*
X92655499Y-67447128D01*
X92651804Y-67412753D01*
X92664211Y-67343994D01*
X92711822Y-67292857D01*
X92775094Y-67275500D01*
X105005834Y-67275500D01*
X105072873Y-67295185D01*
X105074725Y-67296398D01*
X105206414Y-67384390D01*
X105206427Y-67384397D01*
X105300916Y-67423535D01*
X105352103Y-67444737D01*
X105506753Y-67475499D01*
X105506756Y-67475500D01*
X105506758Y-67475500D01*
X105664444Y-67475500D01*
X105664445Y-67475499D01*
X105819097Y-67444737D01*
X105854748Y-67429969D01*
X105924216Y-67422501D01*
X105986696Y-67453776D01*
X106022348Y-67513865D01*
X106026200Y-67544531D01*
X106026200Y-75192072D01*
X106009588Y-75254070D01*
X105985335Y-75296079D01*
X105985334Y-75296082D01*
X105934623Y-75383914D01*
X105926781Y-75413181D01*
X105893699Y-75536643D01*
X105893699Y-75536645D01*
X105893699Y-75704746D01*
X105893700Y-75704759D01*
X105893700Y-76027230D01*
X105893699Y-76027248D01*
X105893699Y-76192954D01*
X105893698Y-76192954D01*
X105901946Y-76223735D01*
X105934623Y-76345685D01*
X105934624Y-76345687D01*
X105934623Y-76345687D01*
X105951597Y-76375085D01*
X105951599Y-76375087D01*
X105951600Y-76375089D01*
X105994161Y-76448807D01*
X106009588Y-76475528D01*
X106026200Y-76537527D01*
X106026200Y-80520500D01*
X106006515Y-80587539D01*
X105953711Y-80633294D01*
X105902200Y-80644500D01*
X105377129Y-80644500D01*
X105377123Y-80644501D01*
X105317518Y-80650908D01*
X105283331Y-80663659D01*
X105213639Y-80668642D01*
X105196669Y-80663659D01*
X105162480Y-80650908D01*
X105162482Y-80650908D01*
X105102883Y-80644501D01*
X105102881Y-80644500D01*
X105102873Y-80644500D01*
X105102864Y-80644500D01*
X104107129Y-80644500D01*
X104107123Y-80644501D01*
X104047518Y-80650908D01*
X104013331Y-80663659D01*
X103943639Y-80668642D01*
X103926669Y-80663659D01*
X103892480Y-80650908D01*
X103892482Y-80650908D01*
X103832883Y-80644501D01*
X103832881Y-80644500D01*
X103832873Y-80644500D01*
X103832864Y-80644500D01*
X102837129Y-80644500D01*
X102837123Y-80644501D01*
X102777518Y-80650908D01*
X102743331Y-80663659D01*
X102673639Y-80668642D01*
X102656669Y-80663659D01*
X102622480Y-80650908D01*
X102622482Y-80650908D01*
X102562883Y-80644501D01*
X102562881Y-80644500D01*
X102562873Y-80644500D01*
X102562864Y-80644500D01*
X101567129Y-80644500D01*
X101567123Y-80644501D01*
X101507518Y-80650908D01*
X101473331Y-80663659D01*
X101403639Y-80668642D01*
X101386669Y-80663659D01*
X101352480Y-80650908D01*
X101352482Y-80650908D01*
X101292883Y-80644501D01*
X101292881Y-80644500D01*
X101292873Y-80644500D01*
X101292864Y-80644500D01*
X100297129Y-80644500D01*
X100297123Y-80644501D01*
X100237518Y-80650908D01*
X100203331Y-80663659D01*
X100133639Y-80668642D01*
X100116669Y-80663659D01*
X100082480Y-80650908D01*
X100082482Y-80650908D01*
X100022883Y-80644501D01*
X100022881Y-80644500D01*
X100022873Y-80644500D01*
X100022864Y-80644500D01*
X99027129Y-80644500D01*
X99027123Y-80644501D01*
X98967518Y-80650908D01*
X98933331Y-80663659D01*
X98863639Y-80668642D01*
X98846669Y-80663659D01*
X98812480Y-80650908D01*
X98812482Y-80650908D01*
X98752883Y-80644501D01*
X98752881Y-80644500D01*
X98752873Y-80644500D01*
X98752864Y-80644500D01*
X97757129Y-80644500D01*
X97757123Y-80644501D01*
X97697518Y-80650908D01*
X97663331Y-80663659D01*
X97593639Y-80668642D01*
X97576669Y-80663659D01*
X97542480Y-80650908D01*
X97542482Y-80650908D01*
X97482883Y-80644501D01*
X97482881Y-80644500D01*
X97482873Y-80644500D01*
X97482864Y-80644500D01*
X96487129Y-80644500D01*
X96487123Y-80644501D01*
X96427518Y-80650908D01*
X96393331Y-80663659D01*
X96323639Y-80668642D01*
X96306669Y-80663659D01*
X96272480Y-80650908D01*
X96272482Y-80650908D01*
X96212883Y-80644501D01*
X96212881Y-80644500D01*
X96212873Y-80644500D01*
X96212864Y-80644500D01*
X95217129Y-80644500D01*
X95217123Y-80644501D01*
X95157516Y-80650908D01*
X95022671Y-80701202D01*
X95022664Y-80701206D01*
X94907455Y-80787452D01*
X94907452Y-80787455D01*
X94821206Y-80902664D01*
X94821202Y-80902671D01*
X94770908Y-81037517D01*
X94764501Y-81097116D01*
X94764500Y-81097135D01*
X94764500Y-82692870D01*
X94764501Y-82692876D01*
X94770908Y-82752483D01*
X94821202Y-82887328D01*
X94821206Y-82887335D01*
X94907452Y-83002544D01*
X94907455Y-83002547D01*
X95022664Y-83088793D01*
X95022671Y-83088797D01*
X95157517Y-83139091D01*
X95157516Y-83139091D01*
X95164444Y-83139835D01*
X95217127Y-83145500D01*
X96212872Y-83145499D01*
X96272483Y-83139091D01*
X96306667Y-83126340D01*
X96376358Y-83121357D01*
X96393327Y-83126338D01*
X96427517Y-83139091D01*
X96487127Y-83145500D01*
X97482872Y-83145499D01*
X97542483Y-83139091D01*
X97576667Y-83126340D01*
X97646358Y-83121357D01*
X97663327Y-83126338D01*
X97697517Y-83139091D01*
X97757127Y-83145500D01*
X98752872Y-83145499D01*
X98812483Y-83139091D01*
X98846667Y-83126340D01*
X98916358Y-83121357D01*
X98933327Y-83126338D01*
X98967517Y-83139091D01*
X99027127Y-83145500D01*
X100022872Y-83145499D01*
X100082483Y-83139091D01*
X100116667Y-83126340D01*
X100186358Y-83121357D01*
X100203327Y-83126338D01*
X100237517Y-83139091D01*
X100297127Y-83145500D01*
X101292872Y-83145499D01*
X101352483Y-83139091D01*
X101386667Y-83126340D01*
X101456358Y-83121357D01*
X101473327Y-83126338D01*
X101507517Y-83139091D01*
X101567127Y-83145500D01*
X102562872Y-83145499D01*
X102622483Y-83139091D01*
X102656667Y-83126340D01*
X102726358Y-83121357D01*
X102743327Y-83126338D01*
X102777517Y-83139091D01*
X102837127Y-83145500D01*
X103832872Y-83145499D01*
X103892483Y-83139091D01*
X103926667Y-83126340D01*
X103996358Y-83121357D01*
X104013327Y-83126338D01*
X104047517Y-83139091D01*
X104107127Y-83145500D01*
X104638281Y-83145499D01*
X104705320Y-83165183D01*
X104751075Y-83217987D01*
X104759078Y-83247673D01*
X104760111Y-83247468D01*
X104792061Y-83408089D01*
X104792064Y-83408101D01*
X104852402Y-83553772D01*
X104852411Y-83553788D01*
X104852457Y-83553857D01*
X104852469Y-83553898D01*
X104855279Y-83559154D01*
X104854282Y-83559686D01*
X104873334Y-83620534D01*
X104854848Y-83687914D01*
X104837035Y-83710427D01*
X102759930Y-85787533D01*
X102698607Y-85821018D01*
X102628915Y-85816034D01*
X102599365Y-85800171D01*
X102597265Y-85798645D01*
X102576788Y-85783768D01*
X102422445Y-85705127D01*
X102257701Y-85651598D01*
X102257699Y-85651597D01*
X102257698Y-85651597D01*
X102126271Y-85630781D01*
X102086611Y-85624500D01*
X101913389Y-85624500D01*
X101873728Y-85630781D01*
X101742302Y-85651597D01*
X101577552Y-85705128D01*
X101423211Y-85783768D01*
X101283069Y-85885588D01*
X101160588Y-86008069D01*
X101160581Y-86008078D01*
X101100317Y-86091023D01*
X101044987Y-86133689D01*
X100975374Y-86139667D01*
X100913579Y-86107061D01*
X100899683Y-86091023D01*
X100839418Y-86008078D01*
X100839414Y-86008072D01*
X100716928Y-85885586D01*
X100576788Y-85783768D01*
X100573883Y-85782288D01*
X100422447Y-85705128D01*
X100422446Y-85705127D01*
X100422445Y-85705127D01*
X100257701Y-85651598D01*
X100257699Y-85651597D01*
X100257698Y-85651597D01*
X100126271Y-85630781D01*
X100086611Y-85624500D01*
X99913389Y-85624500D01*
X99873728Y-85630781D01*
X99742302Y-85651597D01*
X99577552Y-85705128D01*
X99423211Y-85783768D01*
X99283069Y-85885588D01*
X99160588Y-86008069D01*
X99160581Y-86008078D01*
X99100317Y-86091023D01*
X99044987Y-86133689D01*
X98975374Y-86139667D01*
X98913579Y-86107061D01*
X98899683Y-86091023D01*
X98839418Y-86008078D01*
X98839414Y-86008072D01*
X98716928Y-85885586D01*
X98576788Y-85783768D01*
X98573883Y-85782288D01*
X98422447Y-85705128D01*
X98422446Y-85705127D01*
X98422445Y-85705127D01*
X98257701Y-85651598D01*
X98257699Y-85651597D01*
X98257698Y-85651597D01*
X98126271Y-85630781D01*
X98086611Y-85624500D01*
X97913389Y-85624500D01*
X97873728Y-85630781D01*
X97742302Y-85651597D01*
X97577552Y-85705128D01*
X97423211Y-85783768D01*
X97283069Y-85885588D01*
X97160588Y-86008069D01*
X97160588Y-86008070D01*
X97160586Y-86008072D01*
X97128211Y-86052632D01*
X97058768Y-86148211D01*
X96980128Y-86302552D01*
X96926597Y-86467302D01*
X96900858Y-86629815D01*
X96899500Y-86638389D01*
X96899500Y-87361611D01*
X96926598Y-87532701D01*
X96980127Y-87697445D01*
X97058768Y-87851788D01*
X97160586Y-87991928D01*
X97283072Y-88114414D01*
X97423212Y-88216232D01*
X97577555Y-88294873D01*
X97742299Y-88348402D01*
X97913389Y-88375500D01*
X97913390Y-88375500D01*
X98086610Y-88375500D01*
X98086611Y-88375500D01*
X98257701Y-88348402D01*
X98422445Y-88294873D01*
X98576788Y-88216232D01*
X98716928Y-88114414D01*
X98839414Y-87991928D01*
X98899682Y-87908975D01*
X98955012Y-87866311D01*
X99024626Y-87860332D01*
X99086421Y-87892938D01*
X99100315Y-87908973D01*
X99160586Y-87991928D01*
X99283072Y-88114414D01*
X99423212Y-88216232D01*
X99577555Y-88294873D01*
X99742299Y-88348402D01*
X99913389Y-88375500D01*
X99913390Y-88375500D01*
X100086610Y-88375500D01*
X100086611Y-88375500D01*
X100257701Y-88348402D01*
X100422445Y-88294873D01*
X100576788Y-88216232D01*
X100716928Y-88114414D01*
X100839414Y-87991928D01*
X100899682Y-87908975D01*
X100955012Y-87866311D01*
X101024626Y-87860332D01*
X101086421Y-87892938D01*
X101100315Y-87908973D01*
X101160586Y-87991928D01*
X101283072Y-88114414D01*
X101423212Y-88216232D01*
X101577555Y-88294873D01*
X101742299Y-88348402D01*
X101913389Y-88375500D01*
X101913390Y-88375500D01*
X102086610Y-88375500D01*
X102086611Y-88375500D01*
X102257701Y-88348402D01*
X102422445Y-88294873D01*
X102576788Y-88216232D01*
X102716928Y-88114414D01*
X102839414Y-87991928D01*
X102899682Y-87908975D01*
X102955012Y-87866311D01*
X103024626Y-87860332D01*
X103086421Y-87892938D01*
X103100315Y-87908973D01*
X103160586Y-87991928D01*
X103283072Y-88114414D01*
X103423212Y-88216232D01*
X103577555Y-88294873D01*
X103742299Y-88348402D01*
X103913389Y-88375500D01*
X103913390Y-88375500D01*
X104086610Y-88375500D01*
X104086611Y-88375500D01*
X104257701Y-88348402D01*
X104422445Y-88294873D01*
X104576788Y-88216232D01*
X104716928Y-88114414D01*
X104839414Y-87991928D01*
X104899682Y-87908975D01*
X104955012Y-87866311D01*
X105024626Y-87860332D01*
X105086421Y-87892938D01*
X105100315Y-87908973D01*
X105160586Y-87991928D01*
X105283072Y-88114414D01*
X105423212Y-88216232D01*
X105577555Y-88294873D01*
X105742299Y-88348402D01*
X105913389Y-88375500D01*
X105913390Y-88375500D01*
X106086610Y-88375500D01*
X106086611Y-88375500D01*
X106257701Y-88348402D01*
X106422445Y-88294873D01*
X106576788Y-88216232D01*
X106716928Y-88114414D01*
X106839414Y-87991928D01*
X106941232Y-87851788D01*
X107019873Y-87697445D01*
X107037301Y-87643804D01*
X107076737Y-87586131D01*
X107123140Y-87562348D01*
X107133485Y-87559577D01*
X107183604Y-87530639D01*
X107270416Y-87480520D01*
X107382220Y-87368716D01*
X107382220Y-87368714D01*
X107392428Y-87358507D01*
X107392429Y-87358504D01*
X108333820Y-86417116D01*
X108412877Y-86280184D01*
X108453801Y-86127457D01*
X108453801Y-85969342D01*
X108453801Y-85961747D01*
X108453800Y-85961729D01*
X108453800Y-81719499D01*
X108473485Y-81652460D01*
X108526289Y-81606705D01*
X108577800Y-81595499D01*
X109493000Y-81595499D01*
X109560039Y-81615184D01*
X109605794Y-81667988D01*
X109617000Y-81719499D01*
X109617000Y-84030830D01*
X109616999Y-84030848D01*
X109616999Y-84196561D01*
X109624452Y-84224375D01*
X109622788Y-84294224D01*
X109610794Y-84320615D01*
X109556523Y-84410391D01*
X109505913Y-84572807D01*
X109499500Y-84643386D01*
X109499500Y-85156613D01*
X109505913Y-85227192D01*
X109505913Y-85227194D01*
X109505914Y-85227196D01*
X109556522Y-85389606D01*
X109637396Y-85523388D01*
X109644530Y-85535188D01*
X109764811Y-85655469D01*
X109764813Y-85655470D01*
X109764815Y-85655472D01*
X109910394Y-85743478D01*
X110072804Y-85794086D01*
X110143384Y-85800500D01*
X110143387Y-85800500D01*
X111856613Y-85800500D01*
X111856616Y-85800500D01*
X111927196Y-85794086D01*
X112089606Y-85743478D01*
X112235185Y-85655472D01*
X112355472Y-85535185D01*
X112443478Y-85389606D01*
X112494086Y-85227196D01*
X112500500Y-85156616D01*
X112500500Y-84643384D01*
X112494086Y-84572804D01*
X112468372Y-84490286D01*
X112467223Y-84420430D01*
X112504024Y-84361037D01*
X112567093Y-84330969D01*
X112586759Y-84329400D01*
X116969431Y-84329400D01*
X116969447Y-84329401D01*
X116977043Y-84329401D01*
X117135154Y-84329401D01*
X117135157Y-84329401D01*
X117287885Y-84288477D01*
X117287887Y-84288475D01*
X117287889Y-84288475D01*
X117287890Y-84288474D01*
X117339833Y-84258485D01*
X117339834Y-84258484D01*
X117424816Y-84209420D01*
X117536620Y-84097616D01*
X117536620Y-84097614D01*
X117546824Y-84087411D01*
X117546828Y-84087406D01*
X118622416Y-83011818D01*
X118683739Y-82978333D01*
X118710097Y-82975499D01*
X119058338Y-82975499D01*
X119058344Y-82975499D01*
X119058352Y-82975498D01*
X119058355Y-82975498D01*
X119112760Y-82969940D01*
X119157708Y-82965349D01*
X119318697Y-82912003D01*
X119463044Y-82822968D01*
X119582968Y-82703044D01*
X119672003Y-82558697D01*
X119725349Y-82397708D01*
X119735500Y-82298345D01*
X119735499Y-81701656D01*
X119735313Y-81699838D01*
X119725349Y-81602292D01*
X119725348Y-81602289D01*
X119704309Y-81538797D01*
X119672003Y-81441303D01*
X119671999Y-81441297D01*
X119671998Y-81441294D01*
X119582970Y-81296959D01*
X119582967Y-81296955D01*
X119463044Y-81177032D01*
X119463040Y-81177029D01*
X119318705Y-81088001D01*
X119318699Y-81087998D01*
X119318697Y-81087997D01*
X119255154Y-81066941D01*
X119157709Y-81034651D01*
X119058346Y-81024500D01*
X118511662Y-81024500D01*
X118511644Y-81024501D01*
X118412292Y-81034650D01*
X118412289Y-81034651D01*
X118251305Y-81087996D01*
X118251294Y-81088001D01*
X118106959Y-81177029D01*
X118106955Y-81177032D01*
X117987032Y-81296955D01*
X117987029Y-81296959D01*
X117898001Y-81441294D01*
X117897996Y-81441305D01*
X117844651Y-81602290D01*
X117834500Y-81701647D01*
X117834500Y-82049902D01*
X117814815Y-82116941D01*
X117798181Y-82137583D01*
X116843684Y-83092081D01*
X116782361Y-83125566D01*
X116756003Y-83128400D01*
X116714870Y-83128400D01*
X116647831Y-83108715D01*
X116602076Y-83055911D01*
X116592132Y-82986753D01*
X116614575Y-82933855D01*
X116614110Y-82933580D01*
X116616172Y-82930092D01*
X116616891Y-82928399D01*
X116618078Y-82926867D01*
X116618081Y-82926865D01*
X116701744Y-82785398D01*
X116747598Y-82627569D01*
X116749587Y-82602292D01*
X116750500Y-82590698D01*
X116750500Y-81284313D01*
X116750499Y-81284298D01*
X116750154Y-81279916D01*
X116747598Y-81247431D01*
X116734539Y-81202483D01*
X116707923Y-81110871D01*
X116701744Y-81089602D01*
X116628312Y-80965435D01*
X116617768Y-80947605D01*
X116600500Y-80884484D01*
X116600500Y-78891715D01*
X116620185Y-78824676D01*
X116660349Y-78785598D01*
X116710185Y-78755472D01*
X116830472Y-78635185D01*
X116918478Y-78489606D01*
X116969086Y-78327196D01*
X116975500Y-78256616D01*
X116975500Y-77743384D01*
X116969086Y-77672804D01*
X116918478Y-77510394D01*
X116830472Y-77364815D01*
X116830470Y-77364813D01*
X116830469Y-77364811D01*
X116728339Y-77262681D01*
X116694854Y-77201358D01*
X116699838Y-77131666D01*
X116728339Y-77087319D01*
X116830468Y-76985189D01*
X116830469Y-76985188D01*
X116830472Y-76985185D01*
X116918478Y-76839606D01*
X116969086Y-76677196D01*
X116975500Y-76606616D01*
X116975500Y-76093384D01*
X116969086Y-76022804D01*
X116918478Y-75860394D01*
X116830472Y-75714815D01*
X116830470Y-75714813D01*
X116830469Y-75714811D01*
X116710188Y-75594530D01*
X116564606Y-75506522D01*
X116402196Y-75455914D01*
X116402194Y-75455913D01*
X116402192Y-75455913D01*
X116352778Y-75451423D01*
X116331616Y-75449500D01*
X116331613Y-75449500D01*
X116000097Y-75449500D01*
X115933058Y-75429815D01*
X115912416Y-75413181D01*
X115590790Y-75091555D01*
X115590788Y-75091552D01*
X115471917Y-74972681D01*
X115471916Y-74972680D01*
X115374882Y-74916658D01*
X115374881Y-74916657D01*
X115334983Y-74893622D01*
X115279081Y-74878643D01*
X115182257Y-74852699D01*
X115027364Y-74852699D01*
X114960325Y-74833014D01*
X114958473Y-74831801D01*
X114826785Y-74743809D01*
X114826772Y-74743802D01*
X114681101Y-74683464D01*
X114681089Y-74683461D01*
X114526445Y-74652700D01*
X114526442Y-74652700D01*
X114368758Y-74652700D01*
X114368755Y-74652700D01*
X114214110Y-74683461D01*
X114214098Y-74683464D01*
X114068427Y-74743802D01*
X114068414Y-74743809D01*
X113937311Y-74831410D01*
X113937307Y-74831413D01*
X113825813Y-74942907D01*
X113825808Y-74942913D01*
X113774387Y-75019869D01*
X113720774Y-75064674D01*
X113651449Y-75073380D01*
X113588422Y-75043224D01*
X113583605Y-75038658D01*
X113501870Y-74956923D01*
X113501862Y-74956917D01*
X113360396Y-74873255D01*
X113360393Y-74873254D01*
X113202573Y-74827402D01*
X113202567Y-74827401D01*
X113165701Y-74824500D01*
X113165694Y-74824500D01*
X112734306Y-74824500D01*
X112734298Y-74824500D01*
X112697432Y-74827401D01*
X112697426Y-74827402D01*
X112539606Y-74873254D01*
X112539603Y-74873255D01*
X112398137Y-74956917D01*
X112398129Y-74956923D01*
X112281923Y-75073129D01*
X112281917Y-75073137D01*
X112198255Y-75214603D01*
X112198254Y-75214606D01*
X112152402Y-75372426D01*
X112152401Y-75372432D01*
X112149500Y-75409298D01*
X112149500Y-76575500D01*
X112129815Y-76642539D01*
X112077011Y-76688294D01*
X112025500Y-76699500D01*
X111974500Y-76699500D01*
X111907461Y-76679815D01*
X111861706Y-76627011D01*
X111850500Y-76575500D01*
X111850500Y-75409313D01*
X111850499Y-75409298D01*
X111847598Y-75372432D01*
X111847597Y-75372426D01*
X111801745Y-75214606D01*
X111801744Y-75214603D01*
X111801744Y-75214602D01*
X111718081Y-75073135D01*
X111718079Y-75073133D01*
X111718076Y-75073129D01*
X111601870Y-74956923D01*
X111601862Y-74956917D01*
X111453683Y-74869285D01*
X111455107Y-74866877D01*
X111411639Y-74830701D01*
X111390625Y-74764066D01*
X111390600Y-74761599D01*
X111390600Y-73816921D01*
X111410285Y-73749882D01*
X111463089Y-73704127D01*
X111532247Y-73694183D01*
X111553595Y-73699212D01*
X111602292Y-73715349D01*
X111701655Y-73725500D01*
X111837769Y-73725499D01*
X111904809Y-73745183D01*
X111925451Y-73761818D01*
X112087049Y-73923416D01*
X112191584Y-74027951D01*
X112191585Y-74027952D01*
X112314498Y-74110080D01*
X112314511Y-74110087D01*
X112414644Y-74151563D01*
X112451087Y-74166658D01*
X112451091Y-74166658D01*
X112451092Y-74166659D01*
X112596079Y-74195500D01*
X112596082Y-74195500D01*
X112596083Y-74195500D01*
X112743917Y-74195500D01*
X114417672Y-74195500D01*
X114452267Y-74200424D01*
X114597426Y-74242597D01*
X114597429Y-74242597D01*
X114597431Y-74242598D01*
X114634306Y-74245500D01*
X115212770Y-74245500D01*
X115279809Y-74265185D01*
X115300451Y-74281819D01*
X115796580Y-74777948D01*
X115796584Y-74777951D01*
X115919498Y-74860080D01*
X115919511Y-74860087D01*
X116056082Y-74916656D01*
X116056087Y-74916658D01*
X116056091Y-74916658D01*
X116056092Y-74916659D01*
X116201079Y-74945500D01*
X116201082Y-74945500D01*
X116348917Y-74945500D01*
X120002920Y-74945500D01*
X120069959Y-74965185D01*
X120115714Y-75017989D01*
X120125658Y-75087147D01*
X120117481Y-75116953D01*
X120103342Y-75151086D01*
X120103340Y-75151092D01*
X120074500Y-75296079D01*
X120074500Y-76134480D01*
X120054815Y-76201519D01*
X120002011Y-76247274D01*
X119932853Y-76257218D01*
X119869297Y-76228193D01*
X119862819Y-76222161D01*
X119810188Y-76169530D01*
X119797040Y-76161582D01*
X119664606Y-76081522D01*
X119502196Y-76030914D01*
X119502194Y-76030913D01*
X119502192Y-76030913D01*
X119452778Y-76026423D01*
X119431616Y-76024500D01*
X118918384Y-76024500D01*
X118847804Y-76030914D01*
X118745271Y-76062864D01*
X118697932Y-76077615D01*
X118628072Y-76078765D01*
X118612008Y-76072351D01*
X118611807Y-76072837D01*
X118460501Y-76010164D01*
X118460489Y-76010161D01*
X118305845Y-75979400D01*
X118305842Y-75979400D01*
X118148158Y-75979400D01*
X118148155Y-75979400D01*
X117993510Y-76010161D01*
X117993498Y-76010164D01*
X117847827Y-76070502D01*
X117847814Y-76070509D01*
X117716711Y-76158110D01*
X117716707Y-76158113D01*
X117605213Y-76269607D01*
X117605210Y-76269611D01*
X117517609Y-76400714D01*
X117517602Y-76400727D01*
X117457264Y-76546398D01*
X117457261Y-76546410D01*
X117426500Y-76701053D01*
X117426500Y-76858746D01*
X117457261Y-77013389D01*
X117457264Y-77013401D01*
X117517602Y-77159072D01*
X117517609Y-77159085D01*
X117605210Y-77290188D01*
X117605213Y-77290192D01*
X117716707Y-77401686D01*
X117716711Y-77401689D01*
X117847814Y-77489290D01*
X117847827Y-77489297D01*
X117988385Y-77547517D01*
X117993503Y-77549637D01*
X118148153Y-77580399D01*
X118148156Y-77580400D01*
X118271134Y-77580400D01*
X118338173Y-77600085D01*
X118377250Y-77640249D01*
X118413273Y-77699838D01*
X118419530Y-77710188D01*
X118539811Y-77830469D01*
X118539813Y-77830470D01*
X118539815Y-77830472D01*
X118685394Y-77918478D01*
X118847804Y-77969086D01*
X118918384Y-77975500D01*
X118918387Y-77975500D01*
X119431613Y-77975500D01*
X119431616Y-77975500D01*
X119502196Y-77969086D01*
X119664606Y-77918478D01*
X119810185Y-77830472D01*
X119853839Y-77786818D01*
X119912319Y-77728339D01*
X119973642Y-77694854D01*
X120043334Y-77699838D01*
X120087681Y-77728339D01*
X120189811Y-77830469D01*
X120189813Y-77830470D01*
X120189815Y-77830472D01*
X120335394Y-77918478D01*
X120497804Y-77969086D01*
X120568384Y-77975500D01*
X120687770Y-77975500D01*
X120754809Y-77995185D01*
X120775451Y-78011819D01*
X121213181Y-78449549D01*
X121246666Y-78510872D01*
X121249500Y-78537230D01*
X121249500Y-78742924D01*
X121229815Y-78809963D01*
X121177011Y-78855718D01*
X121164505Y-78860629D01*
X121135674Y-78870182D01*
X121135663Y-78870187D01*
X120986342Y-78962289D01*
X120862289Y-79086342D01*
X120770187Y-79235663D01*
X120770185Y-79235668D01*
X120756044Y-79278343D01*
X120715001Y-79402203D01*
X120715001Y-79402204D01*
X120715000Y-79402204D01*
X120704500Y-79504983D01*
X120704500Y-80495001D01*
X120704501Y-80495019D01*
X120715000Y-80597796D01*
X120715001Y-80597799D01*
X120756986Y-80724500D01*
X120770186Y-80764334D01*
X120862288Y-80913656D01*
X120986344Y-81037712D01*
X121135666Y-81129814D01*
X121302203Y-81184999D01*
X121404991Y-81195500D01*
X122595008Y-81195499D01*
X122697797Y-81184999D01*
X122864334Y-81129814D01*
X123013656Y-81037712D01*
X123137712Y-80913656D01*
X123202015Y-80809402D01*
X123253963Y-80762679D01*
X123307554Y-80750500D01*
X123637770Y-80750500D01*
X123704809Y-80770185D01*
X123725451Y-80786819D01*
X123988181Y-81049548D01*
X124021666Y-81110871D01*
X124024500Y-81137229D01*
X124024500Y-82198126D01*
X124004815Y-82265165D01*
X123988181Y-82285807D01*
X123977032Y-82296955D01*
X123977029Y-82296959D01*
X123888001Y-82441294D01*
X123887996Y-82441305D01*
X123834651Y-82602290D01*
X123824500Y-82701647D01*
X123824500Y-83298337D01*
X123824501Y-83298355D01*
X123834650Y-83397707D01*
X123834651Y-83397710D01*
X123887996Y-83558694D01*
X123888001Y-83558705D01*
X123977029Y-83703040D01*
X123977032Y-83703044D01*
X123988181Y-83714193D01*
X124021666Y-83775516D01*
X124024500Y-83801874D01*
X124024500Y-83862769D01*
X124004815Y-83929808D01*
X123988181Y-83950450D01*
X121325449Y-86613181D01*
X121264126Y-86646666D01*
X121237768Y-86649500D01*
X120562129Y-86649500D01*
X120562123Y-86649501D01*
X120502516Y-86655908D01*
X120367671Y-86706202D01*
X120367664Y-86706206D01*
X120252455Y-86792452D01*
X120252452Y-86792455D01*
X120166206Y-86907664D01*
X120166202Y-86907671D01*
X120115908Y-87042517D01*
X120109501Y-87102116D01*
X120109500Y-87102135D01*
X120109500Y-88085053D01*
X120089815Y-88152092D01*
X120037011Y-88197847D01*
X119967853Y-88207791D01*
X119916610Y-88188156D01*
X119852483Y-88145308D01*
X119852472Y-88145302D01*
X119706801Y-88084964D01*
X119706789Y-88084961D01*
X119552145Y-88054200D01*
X119552142Y-88054200D01*
X119394458Y-88054200D01*
X119394455Y-88054200D01*
X119239810Y-88084961D01*
X119239798Y-88084964D01*
X119094127Y-88145302D01*
X119094114Y-88145309D01*
X118962425Y-88233302D01*
X118895747Y-88254180D01*
X118893534Y-88254200D01*
X117101027Y-88254200D01*
X117064138Y-88248586D01*
X117047193Y-88243306D01*
X116927196Y-88205914D01*
X116856616Y-88199500D01*
X115143384Y-88199500D01*
X115124145Y-88201248D01*
X115072807Y-88205913D01*
X114910393Y-88256522D01*
X114764811Y-88344530D01*
X114644530Y-88464811D01*
X114556522Y-88610393D01*
X114505913Y-88772807D01*
X114499500Y-88843386D01*
X114499500Y-89125500D01*
X114479815Y-89192539D01*
X114427011Y-89238294D01*
X114375500Y-89249500D01*
X97362229Y-89249500D01*
X97295190Y-89229815D01*
X97274548Y-89213181D01*
X95136818Y-87075450D01*
X95103333Y-87014127D01*
X95100499Y-86987769D01*
X95100499Y-86324998D01*
X95100498Y-86324981D01*
X95089999Y-86222203D01*
X95089998Y-86222200D01*
X95088907Y-86218907D01*
X95034814Y-86055666D01*
X94942712Y-85906344D01*
X94818656Y-85782288D01*
X94693559Y-85705128D01*
X94669336Y-85690187D01*
X94669331Y-85690185D01*
X94667862Y-85689698D01*
X94502797Y-85635001D01*
X94502795Y-85635000D01*
X94400016Y-85624500D01*
X94400009Y-85624500D01*
X93737230Y-85624500D01*
X93670191Y-85604815D01*
X93649549Y-85588181D01*
X93478413Y-85417045D01*
X93432775Y-85386553D01*
X93402349Y-85366223D01*
X93402348Y-85366222D01*
X93355503Y-85334920D01*
X93355488Y-85334912D01*
X93218917Y-85278343D01*
X93218907Y-85278340D01*
X93073920Y-85249500D01*
X93073918Y-85249500D01*
X89874500Y-85249500D01*
X89807461Y-85229815D01*
X89761706Y-85177011D01*
X89750500Y-85125500D01*
X89750500Y-66922229D01*
X89770185Y-66855190D01*
X89786813Y-66834553D01*
X89942822Y-66678544D01*
X90004142Y-66645062D01*
X90073833Y-66650046D01*
G37*
%TD.AperFunction*%
%TA.AperFunction,Conductor*%
G36*
X129554809Y-74770185D02*
G01*
X129575451Y-74786819D01*
X130713181Y-75924548D01*
X130746666Y-75985871D01*
X130749500Y-76012229D01*
X130749500Y-76851122D01*
X130749501Y-76851125D01*
X130752399Y-76893886D01*
X130752399Y-76893887D01*
X130798360Y-77078696D01*
X130882967Y-77249292D01*
X130882969Y-77249295D01*
X131002277Y-77397721D01*
X131002278Y-77397722D01*
X131150704Y-77517030D01*
X131150707Y-77517032D01*
X131216446Y-77549635D01*
X131321307Y-77601641D01*
X131481405Y-77641456D01*
X131541711Y-77676737D01*
X131573370Y-77739023D01*
X131566329Y-77808537D01*
X131539159Y-77849471D01*
X131175451Y-78213181D01*
X131114128Y-78246666D01*
X131087770Y-78249500D01*
X129591519Y-78249500D01*
X129524480Y-78229815D01*
X129503837Y-78213180D01*
X129460188Y-78169531D01*
X129460188Y-78169530D01*
X129448304Y-78162346D01*
X129314606Y-78081522D01*
X129152196Y-78030914D01*
X129152194Y-78030913D01*
X129152192Y-78030913D01*
X129102778Y-78026423D01*
X129081616Y-78024500D01*
X129081613Y-78024500D01*
X128962229Y-78024500D01*
X128895190Y-78004815D01*
X128874548Y-77988181D01*
X127303421Y-76417052D01*
X127303420Y-76417051D01*
X127285125Y-76404827D01*
X127221294Y-76362177D01*
X127221293Y-76362176D01*
X127180501Y-76334919D01*
X127180488Y-76334912D01*
X127043917Y-76278343D01*
X127043907Y-76278340D01*
X126898920Y-76249500D01*
X126898918Y-76249500D01*
X125576874Y-76249500D01*
X125509835Y-76229815D01*
X125489193Y-76213181D01*
X125453044Y-76177032D01*
X125453040Y-76177029D01*
X125308705Y-76088001D01*
X125308699Y-76087998D01*
X125308697Y-76087997D01*
X125289157Y-76081522D01*
X125147709Y-76034651D01*
X125048346Y-76024500D01*
X124501662Y-76024500D01*
X124501644Y-76024501D01*
X124402292Y-76034650D01*
X124402289Y-76034651D01*
X124241305Y-76087996D01*
X124241294Y-76088001D01*
X124096959Y-76177029D01*
X124096955Y-76177032D01*
X123977032Y-76296955D01*
X123977029Y-76296959D01*
X123888001Y-76441294D01*
X123887996Y-76441305D01*
X123834651Y-76602290D01*
X123824500Y-76701647D01*
X123824500Y-77298337D01*
X123824501Y-77298355D01*
X123834650Y-77397707D01*
X123834651Y-77397710D01*
X123887996Y-77558694D01*
X123888001Y-77558705D01*
X123977029Y-77703040D01*
X123977032Y-77703044D01*
X124096955Y-77822967D01*
X124096959Y-77822970D01*
X124241294Y-77911998D01*
X124241297Y-77911999D01*
X124241303Y-77912003D01*
X124402292Y-77965349D01*
X124501655Y-77975500D01*
X125048344Y-77975499D01*
X125048352Y-77975498D01*
X125048355Y-77975498D01*
X125111124Y-77969086D01*
X125147708Y-77965349D01*
X125308697Y-77912003D01*
X125453044Y-77822968D01*
X125489193Y-77786819D01*
X125550516Y-77753334D01*
X125576874Y-77750500D01*
X126462770Y-77750500D01*
X126529809Y-77770185D01*
X126550446Y-77786814D01*
X126673047Y-77909415D01*
X126706531Y-77970735D01*
X126701547Y-78040427D01*
X126659676Y-78096361D01*
X126649516Y-78103210D01*
X126539814Y-78169528D01*
X126539810Y-78169531D01*
X126419530Y-78289811D01*
X126331522Y-78435393D01*
X126280913Y-78597807D01*
X126275782Y-78654275D01*
X126275037Y-78662481D01*
X126274500Y-78668386D01*
X126274500Y-79331613D01*
X126280913Y-79402192D01*
X126280913Y-79402194D01*
X126280914Y-79402196D01*
X126331522Y-79564606D01*
X126409614Y-79693786D01*
X126419530Y-79710188D01*
X126539810Y-79830468D01*
X126539814Y-79830471D01*
X126539815Y-79830472D01*
X126582247Y-79856123D01*
X126644710Y-79893884D01*
X126691897Y-79945412D01*
X126703735Y-80014271D01*
X126676466Y-80078600D01*
X126644710Y-80106116D01*
X126539814Y-80169528D01*
X126539810Y-80169531D01*
X126419530Y-80289811D01*
X126331522Y-80435393D01*
X126280913Y-80597807D01*
X126278880Y-80620185D01*
X126274930Y-80663659D01*
X126274500Y-80668386D01*
X126274500Y-80999902D01*
X126254815Y-81066941D01*
X126238181Y-81087583D01*
X125737181Y-81588583D01*
X125675858Y-81622068D01*
X125606166Y-81617084D01*
X125550233Y-81575212D01*
X125525816Y-81509748D01*
X125525500Y-81500902D01*
X125525500Y-80701081D01*
X125525499Y-80701080D01*
X125509785Y-80622077D01*
X125496659Y-80556088D01*
X125463518Y-80476080D01*
X125446665Y-80435394D01*
X125440085Y-80419507D01*
X125367383Y-80310700D01*
X125367380Y-80310696D01*
X125363022Y-80304174D01*
X125357952Y-80296585D01*
X125139967Y-80078600D01*
X124478421Y-79417052D01*
X124478414Y-79417046D01*
X124404729Y-79367812D01*
X124404729Y-79367813D01*
X124355491Y-79334913D01*
X124218917Y-79278343D01*
X124218907Y-79278340D01*
X124073920Y-79249500D01*
X124073918Y-79249500D01*
X123307554Y-79249500D01*
X123240515Y-79229815D01*
X123202015Y-79190597D01*
X123192965Y-79175924D01*
X123137712Y-79086344D01*
X123013656Y-78962288D01*
X122875600Y-78877135D01*
X122864336Y-78870187D01*
X122864325Y-78870182D01*
X122835495Y-78860629D01*
X122778050Y-78820856D01*
X122751228Y-78756340D01*
X122750500Y-78742924D01*
X122750500Y-78101079D01*
X122721659Y-77956092D01*
X122721658Y-77956091D01*
X122721658Y-77956087D01*
X122706080Y-77918478D01*
X122665085Y-77819507D01*
X122643243Y-77786818D01*
X122630814Y-77768216D01*
X122630813Y-77768214D01*
X122630812Y-77768212D01*
X122582953Y-77696585D01*
X122582947Y-77696578D01*
X121761819Y-76875450D01*
X121728334Y-76814127D01*
X121725500Y-76787769D01*
X121725500Y-76668386D01*
X121719887Y-76606616D01*
X121719086Y-76597804D01*
X121668478Y-76435394D01*
X121593382Y-76311171D01*
X121575500Y-76247023D01*
X121575500Y-75732230D01*
X121595185Y-75665191D01*
X121611819Y-75644549D01*
X122274549Y-74981819D01*
X122335872Y-74948334D01*
X122362230Y-74945500D01*
X124728920Y-74945500D01*
X124826462Y-74926096D01*
X124873913Y-74916658D01*
X125010495Y-74860084D01*
X125069565Y-74820615D01*
X125133416Y-74777952D01*
X125133417Y-74777950D01*
X125138480Y-74774568D01*
X125139295Y-74775788D01*
X125196885Y-74751333D01*
X125211234Y-74750500D01*
X129487770Y-74750500D01*
X129554809Y-74770185D01*
G37*
%TD.AperFunction*%
%TA.AperFunction,Conductor*%
G36*
X117168717Y-70505939D02*
G01*
X117204574Y-70530909D01*
X118963181Y-72289516D01*
X118996666Y-72350839D01*
X118999500Y-72377197D01*
X118999500Y-72390701D01*
X119002401Y-72427567D01*
X119002402Y-72427573D01*
X119048254Y-72585393D01*
X119048255Y-72585396D01*
X119131917Y-72726862D01*
X119131923Y-72726870D01*
X119248129Y-72843076D01*
X119248133Y-72843079D01*
X119248135Y-72843081D01*
X119389602Y-72926744D01*
X119431224Y-72938836D01*
X119547426Y-72972597D01*
X119547429Y-72972597D01*
X119547431Y-72972598D01*
X119584306Y-72975500D01*
X119584314Y-72975500D01*
X121365686Y-72975500D01*
X121365694Y-72975500D01*
X121402569Y-72972598D01*
X121402571Y-72972597D01*
X121402573Y-72972597D01*
X121444191Y-72960505D01*
X121560398Y-72926744D01*
X121626228Y-72887811D01*
X121693951Y-72870628D01*
X121740244Y-72883145D01*
X121740693Y-72882063D01*
X121848566Y-72926745D01*
X121892003Y-72944737D01*
X122032064Y-72972597D01*
X122046653Y-72975499D01*
X122046656Y-72975500D01*
X122046658Y-72975500D01*
X122056800Y-72975500D01*
X122123839Y-72995185D01*
X122169594Y-73047989D01*
X122180800Y-73099500D01*
X122180800Y-73113603D01*
X122161115Y-73180642D01*
X122144481Y-73201284D01*
X121937584Y-73408181D01*
X121876261Y-73441666D01*
X121849903Y-73444500D01*
X117124500Y-73444500D01*
X117057461Y-73424815D01*
X117011706Y-73372011D01*
X117000500Y-73320500D01*
X117000500Y-73229313D01*
X117000499Y-73229298D01*
X116997598Y-73192432D01*
X116997597Y-73192426D01*
X116951745Y-73034606D01*
X116951744Y-73034603D01*
X116951744Y-73034602D01*
X116868081Y-72893135D01*
X116868078Y-72893132D01*
X116863298Y-72886969D01*
X116865750Y-72885066D01*
X116839155Y-72836421D01*
X116844104Y-72766726D01*
X116864940Y-72734304D01*
X116863298Y-72733031D01*
X116868075Y-72726870D01*
X116868081Y-72726865D01*
X116951744Y-72585398D01*
X116997598Y-72427569D01*
X117000500Y-72390694D01*
X117000500Y-71959306D01*
X116997598Y-71922431D01*
X116976782Y-71850784D01*
X116951745Y-71764606D01*
X116951744Y-71764603D01*
X116951744Y-71764602D01*
X116868081Y-71623135D01*
X116868078Y-71623132D01*
X116863298Y-71616969D01*
X116865750Y-71615066D01*
X116839155Y-71566421D01*
X116844104Y-71496726D01*
X116864940Y-71464304D01*
X116863298Y-71463031D01*
X116868075Y-71456870D01*
X116868081Y-71456865D01*
X116951744Y-71315398D01*
X116997598Y-71157569D01*
X117000500Y-71120694D01*
X117000500Y-70689306D01*
X116997598Y-70652431D01*
X116997597Y-70652429D01*
X116996460Y-70646201D01*
X116997840Y-70645948D01*
X116998013Y-70583326D01*
X117035950Y-70524652D01*
X117099586Y-70495804D01*
X117168717Y-70505939D01*
G37*
%TD.AperFunction*%
%TA.AperFunction,Conductor*%
G36*
X135292539Y-61670185D02*
G01*
X135338294Y-61722989D01*
X135349500Y-61774500D01*
X135349500Y-64504192D01*
X135329815Y-64571231D01*
X135313181Y-64591873D01*
X133916873Y-65988181D01*
X133855550Y-66021666D01*
X133829192Y-66024500D01*
X133568384Y-66024500D01*
X133549145Y-66026248D01*
X133497807Y-66030913D01*
X133335393Y-66081522D01*
X133189811Y-66169530D01*
X133069530Y-66289811D01*
X132981522Y-66435393D01*
X132930913Y-66597807D01*
X132927876Y-66631230D01*
X132924834Y-66664715D01*
X132924500Y-66668386D01*
X132924500Y-67225500D01*
X132904815Y-67292539D01*
X132852011Y-67338294D01*
X132800500Y-67349500D01*
X129585929Y-67349500D01*
X129460261Y-67374497D01*
X129460255Y-67374499D01*
X129341874Y-67423534D01*
X129235326Y-67494726D01*
X125066871Y-71663181D01*
X125005548Y-71696666D01*
X124979190Y-71699500D01*
X124576662Y-71699500D01*
X124576644Y-71699501D01*
X124477292Y-71709650D01*
X124477289Y-71709651D01*
X124316305Y-71762996D01*
X124316294Y-71763001D01*
X124171959Y-71852029D01*
X124171955Y-71852032D01*
X124052032Y-71971955D01*
X124052029Y-71971959D01*
X123963001Y-72116294D01*
X123962996Y-72116305D01*
X123909651Y-72277290D01*
X123899500Y-72376647D01*
X123899500Y-72923337D01*
X123899501Y-72923355D01*
X123909650Y-73022707D01*
X123909651Y-73022710D01*
X123962996Y-73183694D01*
X123962999Y-73183701D01*
X124007226Y-73255402D01*
X124025667Y-73322795D01*
X124004745Y-73389458D01*
X123951103Y-73434228D01*
X123901688Y-73444500D01*
X123505800Y-73444500D01*
X123438761Y-73424815D01*
X123393006Y-73372011D01*
X123381800Y-73320500D01*
X123381800Y-70349859D01*
X123381801Y-70349846D01*
X123381801Y-70181745D01*
X123381801Y-70181743D01*
X123340877Y-70029015D01*
X123340876Y-70029014D01*
X123340876Y-70029012D01*
X123340875Y-70029011D01*
X123291289Y-69943126D01*
X123291288Y-69943125D01*
X123261821Y-69892086D01*
X123261820Y-69892084D01*
X123150016Y-69780280D01*
X123150015Y-69780279D01*
X123145685Y-69775949D01*
X123145674Y-69775939D01*
X122007990Y-68638255D01*
X122007988Y-68638252D01*
X121986819Y-68617083D01*
X121953334Y-68555760D01*
X121950500Y-68529402D01*
X121950500Y-68152896D01*
X121970185Y-68085857D01*
X121986819Y-68065215D01*
X123516331Y-66535703D01*
X125098306Y-64953728D01*
X125098311Y-64953724D01*
X125108514Y-64943520D01*
X125108516Y-64943520D01*
X125220320Y-64831716D01*
X125255551Y-64770694D01*
X125277475Y-64732721D01*
X125277476Y-64732719D01*
X125299374Y-64694790D01*
X125299373Y-64694790D01*
X125299377Y-64694785D01*
X125340300Y-64542058D01*
X125340300Y-64383943D01*
X125340300Y-62686197D01*
X125359985Y-62619158D01*
X125376619Y-62598516D01*
X125621916Y-62353219D01*
X125683239Y-62319734D01*
X125709597Y-62316900D01*
X126428455Y-62316900D01*
X126495494Y-62336585D01*
X126541249Y-62389389D01*
X126551193Y-62458547D01*
X126548230Y-62472993D01*
X126534500Y-62524234D01*
X126534500Y-62675765D01*
X126573719Y-62822136D01*
X126598614Y-62865254D01*
X126649485Y-62953365D01*
X126649487Y-62953367D01*
X126756636Y-63060516D01*
X126759594Y-63062786D01*
X126761455Y-63065335D01*
X126762382Y-63066262D01*
X126762237Y-63066406D01*
X126800796Y-63119214D01*
X126804949Y-63188960D01*
X126798896Y-63207394D01*
X126752402Y-63367426D01*
X126752401Y-63367432D01*
X126749500Y-63404298D01*
X126749500Y-64685701D01*
X126752401Y-64722567D01*
X126752402Y-64722573D01*
X126794576Y-64867733D01*
X126799500Y-64902328D01*
X126799500Y-65329191D01*
X126779815Y-65396230D01*
X126763181Y-65416872D01*
X124494727Y-67685325D01*
X124494724Y-67685328D01*
X124442772Y-67763080D01*
X124442773Y-67763081D01*
X124423534Y-67791874D01*
X124374499Y-67910255D01*
X124374497Y-67910261D01*
X124349500Y-68035928D01*
X124349500Y-68373313D01*
X124329815Y-68440352D01*
X124290598Y-68478851D01*
X124171956Y-68552031D01*
X124052032Y-68671955D01*
X124052029Y-68671959D01*
X123963001Y-68816294D01*
X123962996Y-68816305D01*
X123909651Y-68977290D01*
X123899500Y-69076647D01*
X123899500Y-69623337D01*
X123899501Y-69623355D01*
X123909650Y-69722707D01*
X123909651Y-69722710D01*
X123962996Y-69883694D01*
X123963001Y-69883705D01*
X124052029Y-70028040D01*
X124052032Y-70028044D01*
X124171955Y-70147967D01*
X124171959Y-70147970D01*
X124316294Y-70236998D01*
X124316297Y-70236999D01*
X124316303Y-70237003D01*
X124477292Y-70290349D01*
X124576655Y-70300500D01*
X125423344Y-70300499D01*
X125423352Y-70300498D01*
X125423355Y-70300498D01*
X125477760Y-70294940D01*
X125522708Y-70290349D01*
X125683697Y-70237003D01*
X125828044Y-70147968D01*
X125947968Y-70028044D01*
X126037003Y-69883697D01*
X126090349Y-69722708D01*
X126100500Y-69623345D01*
X126100499Y-69076656D01*
X126090349Y-68977292D01*
X126037003Y-68816303D01*
X126036999Y-68816297D01*
X126036998Y-68816294D01*
X125947970Y-68671959D01*
X125947967Y-68671955D01*
X125828043Y-68552031D01*
X125738777Y-68496970D01*
X125692053Y-68445021D01*
X125680832Y-68376059D01*
X125708676Y-68311977D01*
X125716183Y-68303762D01*
X127717344Y-66302600D01*
X127763642Y-66274852D01*
X127763285Y-66273989D01*
X127911123Y-66212753D01*
X127911479Y-66213614D01*
X127963840Y-66200500D01*
X131734070Y-66200500D01*
X131818614Y-66183682D01*
X131859743Y-66175501D01*
X131978126Y-66126465D01*
X132010724Y-66104684D01*
X132084668Y-66055277D01*
X132955277Y-65184668D01*
X132960620Y-65176671D01*
X132995967Y-65143216D01*
X132995696Y-65142866D01*
X132999257Y-65140103D01*
X133000608Y-65138825D01*
X133001858Y-65138085D01*
X133001857Y-65138085D01*
X133001865Y-65138081D01*
X133118081Y-65021865D01*
X133201744Y-64880398D01*
X133247598Y-64722569D01*
X133250500Y-64685694D01*
X133250500Y-63404306D01*
X133247598Y-63367431D01*
X133247597Y-63367426D01*
X133199568Y-63202110D01*
X133201019Y-63201688D01*
X133193530Y-63141078D01*
X133223812Y-63078112D01*
X133240410Y-63062782D01*
X133243358Y-63060518D01*
X133243365Y-63060515D01*
X133350515Y-62953365D01*
X133426281Y-62822135D01*
X133465500Y-62675766D01*
X133465500Y-62524234D01*
X133426281Y-62377865D01*
X133350515Y-62246635D01*
X133331941Y-62228061D01*
X133298456Y-62166738D01*
X133303440Y-62097046D01*
X133331941Y-62052699D01*
X133697822Y-61686819D01*
X133759145Y-61653334D01*
X133785503Y-61650500D01*
X135225500Y-61650500D01*
X135292539Y-61670185D01*
G37*
%TD.AperFunction*%
%TA.AperFunction,Conductor*%
G36*
X113995988Y-71065085D02*
G01*
X114041743Y-71117889D01*
X114050446Y-71151482D01*
X114051263Y-71151333D01*
X114052402Y-71157573D01*
X114098254Y-71315393D01*
X114098255Y-71315396D01*
X114181917Y-71456862D01*
X114186702Y-71463031D01*
X114184256Y-71464927D01*
X114210857Y-71513642D01*
X114205873Y-71583334D01*
X114185069Y-71615703D01*
X114186702Y-71616969D01*
X114181917Y-71623137D01*
X114098255Y-71764603D01*
X114098254Y-71764606D01*
X114052402Y-71922426D01*
X114052401Y-71922432D01*
X114049500Y-71959298D01*
X114049500Y-72390701D01*
X114052401Y-72427567D01*
X114052402Y-72427573D01*
X114083876Y-72535905D01*
X114083677Y-72605775D01*
X114045735Y-72664445D01*
X113982096Y-72693288D01*
X113964800Y-72694500D01*
X113099499Y-72694500D01*
X113032460Y-72674815D01*
X112986705Y-72622011D01*
X112975499Y-72570500D01*
X112975499Y-72501662D01*
X112975498Y-72501644D01*
X112965349Y-72402292D01*
X112965348Y-72402289D01*
X112948299Y-72350839D01*
X112912003Y-72241303D01*
X112911999Y-72241297D01*
X112911998Y-72241294D01*
X112822970Y-72096959D01*
X112822967Y-72096955D01*
X112703044Y-71977032D01*
X112703040Y-71977029D01*
X112558705Y-71888001D01*
X112558699Y-71887998D01*
X112558697Y-71887997D01*
X112558694Y-71887996D01*
X112397709Y-71834651D01*
X112298346Y-71824500D01*
X111701662Y-71824500D01*
X111701644Y-71824501D01*
X111602292Y-71834650D01*
X111602285Y-71834652D01*
X111553603Y-71850784D01*
X111483775Y-71853186D01*
X111423733Y-71817454D01*
X111392541Y-71754933D01*
X111390600Y-71733078D01*
X111390600Y-71469097D01*
X111410285Y-71402058D01*
X111426919Y-71381416D01*
X111726616Y-71081719D01*
X111787939Y-71048234D01*
X111814297Y-71045400D01*
X113928949Y-71045400D01*
X113995988Y-71065085D01*
G37*
%TD.AperFunction*%
%TA.AperFunction,Conductor*%
G36*
X136442539Y-56520185D02*
G01*
X136488294Y-56572989D01*
X136499500Y-56624500D01*
X136499500Y-60319418D01*
X136479815Y-60386457D01*
X136427011Y-60432212D01*
X136357853Y-60442156D01*
X136314054Y-60425373D01*
X136313502Y-60426408D01*
X136308124Y-60423533D01*
X136189744Y-60374499D01*
X136189738Y-60374497D01*
X136064071Y-60349500D01*
X136064069Y-60349500D01*
X133400626Y-60349500D01*
X133400624Y-60349500D01*
X133274956Y-60374497D01*
X133274950Y-60374499D01*
X133156569Y-60423534D01*
X133050021Y-60494726D01*
X131059572Y-62485175D01*
X130998249Y-62518660D01*
X130928557Y-62513676D01*
X130884210Y-62485175D01*
X128735590Y-60336555D01*
X128735588Y-60336552D01*
X128616717Y-60217681D01*
X128616716Y-60217680D01*
X128529904Y-60167560D01*
X128529904Y-60167559D01*
X128529900Y-60167558D01*
X128479785Y-60138623D01*
X128327057Y-60097699D01*
X128168943Y-60097699D01*
X128161347Y-60097699D01*
X128161331Y-60097700D01*
X125646166Y-60097700D01*
X125579127Y-60078015D01*
X125577275Y-60076802D01*
X125445585Y-59988809D01*
X125445572Y-59988802D01*
X125299901Y-59928464D01*
X125299889Y-59928461D01*
X125145245Y-59897700D01*
X125145242Y-59897700D01*
X124987558Y-59897700D01*
X124987555Y-59897700D01*
X124832910Y-59928461D01*
X124832898Y-59928464D01*
X124687227Y-59988802D01*
X124687214Y-59988809D01*
X124556111Y-60076410D01*
X124556107Y-60076413D01*
X124444613Y-60187907D01*
X124444610Y-60187911D01*
X124382102Y-60281461D01*
X124328490Y-60326266D01*
X124259165Y-60334973D01*
X124196137Y-60304818D01*
X124159418Y-60245375D01*
X124155000Y-60212570D01*
X124155000Y-56624500D01*
X124174685Y-56557461D01*
X124227489Y-56511706D01*
X124279000Y-56500500D01*
X136375500Y-56500500D01*
X136442539Y-56520185D01*
G37*
%TD.AperFunction*%
%TD*%
M02*
