%TF.GenerationSoftware,KiCad,Pcbnew,10.0.5*%
%TF.CreationDate,2026-07-31T18:56:35+05:30*%
%TF.ProjectId,esp32_project,65737033-325f-4707-926f-6a6563742e6b,rev?*%
%TF.SameCoordinates,Original*%
%TF.FileFunction,Copper,L2,Bot*%
%TF.FilePolarity,Positive*%
%FSLAX46Y46*%
G04 Gerber Fmt 4.6, Leading zero omitted, Abs format (unit mm)*
G04 Created by KiCad (PCBNEW 10.0.5) date 2026-07-31 18:56:35*
%MOMM*%
%LPD*%
G01*
G04 APERTURE LIST*
G04 Aperture macros list*
%AMRoundRect*
0 Rectangle with rounded corners*
0 $1 Rounding radius*
0 $2 $3 $4 $5 $6 $7 $8 $9 X,Y pos of 4 corners*
0 Add a 4 corners polygon primitive as box body*
4,1,4,$2,$3,$4,$5,$6,$7,$8,$9,$2,$3,0*
0 Add four circle primitives for the rounded corners*
1,1,$1+$1,$2,$3*
1,1,$1+$1,$4,$5*
1,1,$1+$1,$6,$7*
1,1,$1+$1,$8,$9*
0 Add four rect primitives between the rounded corners*
20,1,$1+$1,$2,$3,$4,$5,0*
20,1,$1+$1,$4,$5,$6,$7,0*
20,1,$1+$1,$6,$7,$8,$9,0*
20,1,$1+$1,$8,$9,$2,$3,0*%
G04 Aperture macros list end*
%ADD10C,0.150000*%
%ADD11C,0.300000*%
%ADD12C,0.400000*%
%TA.AperFunction,HeatsinkPad*%
%ADD13C,0.600000*%
%TD*%
%TA.AperFunction,ComponentPad*%
%ADD14RoundRect,0.250000X-0.350000X-0.625000X0.350000X-0.625000X0.350000X0.625000X-0.350000X0.625000X0*%
%TD*%
%TA.AperFunction,ComponentPad*%
%ADD15O,1.200000X1.750000*%
%TD*%
%TA.AperFunction,ComponentPad*%
%ADD16R,1.700000X1.700000*%
%TD*%
%TA.AperFunction,ComponentPad*%
%ADD17C,1.700000*%
%TD*%
%TA.AperFunction,ComponentPad*%
%ADD18O,1.000000X2.100000*%
%TD*%
%TA.AperFunction,ComponentPad*%
%ADD19O,1.000000X1.600000*%
%TD*%
%TA.AperFunction,ViaPad*%
%ADD20C,0.600000*%
%TD*%
%TA.AperFunction,Conductor*%
%ADD21C,0.200000*%
%TD*%
G04 APERTURE END LIST*
D10*
X177002200Y-166007200D02*
X285002200Y-166007200D01*
X285002200Y-198007200D01*
X177002200Y-198007200D01*
X177002200Y-166007200D01*
X10000000Y-10000000D02*
X287002200Y-10000000D01*
X287002200Y-200007200D01*
X10000000Y-200007200D01*
X10000000Y-10000000D01*
X12000000Y-12000000D02*
X285002200Y-12000000D01*
X285002200Y-198007200D01*
X12000000Y-198007200D01*
X12000000Y-12000000D01*
X60000000Y-12000000D02*
X60000000Y-10000000D01*
X110000000Y-12000000D02*
X110000000Y-10000000D01*
X160000000Y-12000000D02*
X160000000Y-10000000D01*
X210000000Y-12000000D02*
X210000000Y-10000000D01*
X260000000Y-12000000D02*
X260000000Y-10000000D01*
X36089160Y-11593604D02*
X35346303Y-11593604D01*
X35717731Y-11593604D02*
X35717731Y-10293604D01*
X35717731Y-10293604D02*
X35593922Y-10479319D01*
X35593922Y-10479319D02*
X35470112Y-10603128D01*
X35470112Y-10603128D02*
X35346303Y-10665033D01*
X85346303Y-10417414D02*
X85408207Y-10355509D01*
X85408207Y-10355509D02*
X85532017Y-10293604D01*
X85532017Y-10293604D02*
X85841541Y-10293604D01*
X85841541Y-10293604D02*
X85965350Y-10355509D01*
X85965350Y-10355509D02*
X86027255Y-10417414D01*
X86027255Y-10417414D02*
X86089160Y-10541223D01*
X86089160Y-10541223D02*
X86089160Y-10665033D01*
X86089160Y-10665033D02*
X86027255Y-10850747D01*
X86027255Y-10850747D02*
X85284398Y-11593604D01*
X85284398Y-11593604D02*
X86089160Y-11593604D01*
X135284398Y-10293604D02*
X136089160Y-10293604D01*
X136089160Y-10293604D02*
X135655826Y-10788842D01*
X135655826Y-10788842D02*
X135841541Y-10788842D01*
X135841541Y-10788842D02*
X135965350Y-10850747D01*
X135965350Y-10850747D02*
X136027255Y-10912652D01*
X136027255Y-10912652D02*
X136089160Y-11036461D01*
X136089160Y-11036461D02*
X136089160Y-11345985D01*
X136089160Y-11345985D02*
X136027255Y-11469795D01*
X136027255Y-11469795D02*
X135965350Y-11531700D01*
X135965350Y-11531700D02*
X135841541Y-11593604D01*
X135841541Y-11593604D02*
X135470112Y-11593604D01*
X135470112Y-11593604D02*
X135346303Y-11531700D01*
X135346303Y-11531700D02*
X135284398Y-11469795D01*
X185965350Y-10726938D02*
X185965350Y-11593604D01*
X185655826Y-10231700D02*
X185346303Y-11160271D01*
X185346303Y-11160271D02*
X186151064Y-11160271D01*
X236027255Y-10293604D02*
X235408207Y-10293604D01*
X235408207Y-10293604D02*
X235346303Y-10912652D01*
X235346303Y-10912652D02*
X235408207Y-10850747D01*
X235408207Y-10850747D02*
X235532017Y-10788842D01*
X235532017Y-10788842D02*
X235841541Y-10788842D01*
X235841541Y-10788842D02*
X235965350Y-10850747D01*
X235965350Y-10850747D02*
X236027255Y-10912652D01*
X236027255Y-10912652D02*
X236089160Y-11036461D01*
X236089160Y-11036461D02*
X236089160Y-11345985D01*
X236089160Y-11345985D02*
X236027255Y-11469795D01*
X236027255Y-11469795D02*
X235965350Y-11531700D01*
X235965350Y-11531700D02*
X235841541Y-11593604D01*
X235841541Y-11593604D02*
X235532017Y-11593604D01*
X235532017Y-11593604D02*
X235408207Y-11531700D01*
X235408207Y-11531700D02*
X235346303Y-11469795D01*
X285965350Y-10293604D02*
X285717731Y-10293604D01*
X285717731Y-10293604D02*
X285593922Y-10355509D01*
X285593922Y-10355509D02*
X285532017Y-10417414D01*
X285532017Y-10417414D02*
X285408207Y-10603128D01*
X285408207Y-10603128D02*
X285346303Y-10850747D01*
X285346303Y-10850747D02*
X285346303Y-11345985D01*
X285346303Y-11345985D02*
X285408207Y-11469795D01*
X285408207Y-11469795D02*
X285470112Y-11531700D01*
X285470112Y-11531700D02*
X285593922Y-11593604D01*
X285593922Y-11593604D02*
X285841541Y-11593604D01*
X285841541Y-11593604D02*
X285965350Y-11531700D01*
X285965350Y-11531700D02*
X286027255Y-11469795D01*
X286027255Y-11469795D02*
X286089160Y-11345985D01*
X286089160Y-11345985D02*
X286089160Y-11036461D01*
X286089160Y-11036461D02*
X286027255Y-10912652D01*
X286027255Y-10912652D02*
X285965350Y-10850747D01*
X285965350Y-10850747D02*
X285841541Y-10788842D01*
X285841541Y-10788842D02*
X285593922Y-10788842D01*
X285593922Y-10788842D02*
X285470112Y-10850747D01*
X285470112Y-10850747D02*
X285408207Y-10912652D01*
X285408207Y-10912652D02*
X285346303Y-11036461D01*
X60000000Y-198007200D02*
X60000000Y-200007200D01*
X110000000Y-198007200D02*
X110000000Y-200007200D01*
X160000000Y-198007200D02*
X160000000Y-200007200D01*
X210000000Y-198007200D02*
X210000000Y-200007200D01*
X260000000Y-198007200D02*
X260000000Y-200007200D01*
X36089160Y-199600804D02*
X35346303Y-199600804D01*
X35717731Y-199600804D02*
X35717731Y-198300804D01*
X35717731Y-198300804D02*
X35593922Y-198486519D01*
X35593922Y-198486519D02*
X35470112Y-198610328D01*
X35470112Y-198610328D02*
X35346303Y-198672233D01*
X85346303Y-198424614D02*
X85408207Y-198362709D01*
X85408207Y-198362709D02*
X85532017Y-198300804D01*
X85532017Y-198300804D02*
X85841541Y-198300804D01*
X85841541Y-198300804D02*
X85965350Y-198362709D01*
X85965350Y-198362709D02*
X86027255Y-198424614D01*
X86027255Y-198424614D02*
X86089160Y-198548423D01*
X86089160Y-198548423D02*
X86089160Y-198672233D01*
X86089160Y-198672233D02*
X86027255Y-198857947D01*
X86027255Y-198857947D02*
X85284398Y-199600804D01*
X85284398Y-199600804D02*
X86089160Y-199600804D01*
X135284398Y-198300804D02*
X136089160Y-198300804D01*
X136089160Y-198300804D02*
X135655826Y-198796042D01*
X135655826Y-198796042D02*
X135841541Y-198796042D01*
X135841541Y-198796042D02*
X135965350Y-198857947D01*
X135965350Y-198857947D02*
X136027255Y-198919852D01*
X136027255Y-198919852D02*
X136089160Y-199043661D01*
X136089160Y-199043661D02*
X136089160Y-199353185D01*
X136089160Y-199353185D02*
X136027255Y-199476995D01*
X136027255Y-199476995D02*
X135965350Y-199538900D01*
X135965350Y-199538900D02*
X135841541Y-199600804D01*
X135841541Y-199600804D02*
X135470112Y-199600804D01*
X135470112Y-199600804D02*
X135346303Y-199538900D01*
X135346303Y-199538900D02*
X135284398Y-199476995D01*
X185965350Y-198734138D02*
X185965350Y-199600804D01*
X185655826Y-198238900D02*
X185346303Y-199167471D01*
X185346303Y-199167471D02*
X186151064Y-199167471D01*
X236027255Y-198300804D02*
X235408207Y-198300804D01*
X235408207Y-198300804D02*
X235346303Y-198919852D01*
X235346303Y-198919852D02*
X235408207Y-198857947D01*
X235408207Y-198857947D02*
X235532017Y-198796042D01*
X235532017Y-198796042D02*
X235841541Y-198796042D01*
X235841541Y-198796042D02*
X235965350Y-198857947D01*
X235965350Y-198857947D02*
X236027255Y-198919852D01*
X236027255Y-198919852D02*
X236089160Y-199043661D01*
X236089160Y-199043661D02*
X236089160Y-199353185D01*
X236089160Y-199353185D02*
X236027255Y-199476995D01*
X236027255Y-199476995D02*
X235965350Y-199538900D01*
X235965350Y-199538900D02*
X235841541Y-199600804D01*
X235841541Y-199600804D02*
X235532017Y-199600804D01*
X235532017Y-199600804D02*
X235408207Y-199538900D01*
X235408207Y-199538900D02*
X235346303Y-199476995D01*
X285965350Y-198300804D02*
X285717731Y-198300804D01*
X285717731Y-198300804D02*
X285593922Y-198362709D01*
X285593922Y-198362709D02*
X285532017Y-198424614D01*
X285532017Y-198424614D02*
X285408207Y-198610328D01*
X285408207Y-198610328D02*
X285346303Y-198857947D01*
X285346303Y-198857947D02*
X285346303Y-199353185D01*
X285346303Y-199353185D02*
X285408207Y-199476995D01*
X285408207Y-199476995D02*
X285470112Y-199538900D01*
X285470112Y-199538900D02*
X285593922Y-199600804D01*
X285593922Y-199600804D02*
X285841541Y-199600804D01*
X285841541Y-199600804D02*
X285965350Y-199538900D01*
X285965350Y-199538900D02*
X286027255Y-199476995D01*
X286027255Y-199476995D02*
X286089160Y-199353185D01*
X286089160Y-199353185D02*
X286089160Y-199043661D01*
X286089160Y-199043661D02*
X286027255Y-198919852D01*
X286027255Y-198919852D02*
X285965350Y-198857947D01*
X285965350Y-198857947D02*
X285841541Y-198796042D01*
X285841541Y-198796042D02*
X285593922Y-198796042D01*
X285593922Y-198796042D02*
X285470112Y-198857947D01*
X285470112Y-198857947D02*
X285408207Y-198919852D01*
X285408207Y-198919852D02*
X285346303Y-199043661D01*
X10000000Y-60000000D02*
X12000000Y-60000000D01*
X10000000Y-110000000D02*
X12000000Y-110000000D01*
X10000000Y-160000000D02*
X12000000Y-160000000D01*
X10690476Y-35222176D02*
X11309523Y-35222176D01*
X10566666Y-35593604D02*
X10999999Y-34293604D01*
X10999999Y-34293604D02*
X11433333Y-35593604D01*
X11092857Y-84912652D02*
X11278571Y-84974557D01*
X11278571Y-84974557D02*
X11340476Y-85036461D01*
X11340476Y-85036461D02*
X11402380Y-85160271D01*
X11402380Y-85160271D02*
X11402380Y-85345985D01*
X11402380Y-85345985D02*
X11340476Y-85469795D01*
X11340476Y-85469795D02*
X11278571Y-85531700D01*
X11278571Y-85531700D02*
X11154761Y-85593604D01*
X11154761Y-85593604D02*
X10659523Y-85593604D01*
X10659523Y-85593604D02*
X10659523Y-84293604D01*
X10659523Y-84293604D02*
X11092857Y-84293604D01*
X11092857Y-84293604D02*
X11216666Y-84355509D01*
X11216666Y-84355509D02*
X11278571Y-84417414D01*
X11278571Y-84417414D02*
X11340476Y-84541223D01*
X11340476Y-84541223D02*
X11340476Y-84665033D01*
X11340476Y-84665033D02*
X11278571Y-84788842D01*
X11278571Y-84788842D02*
X11216666Y-84850747D01*
X11216666Y-84850747D02*
X11092857Y-84912652D01*
X11092857Y-84912652D02*
X10659523Y-84912652D01*
X11402380Y-135469795D02*
X11340476Y-135531700D01*
X11340476Y-135531700D02*
X11154761Y-135593604D01*
X11154761Y-135593604D02*
X11030952Y-135593604D01*
X11030952Y-135593604D02*
X10845238Y-135531700D01*
X10845238Y-135531700D02*
X10721428Y-135407890D01*
X10721428Y-135407890D02*
X10659523Y-135284080D01*
X10659523Y-135284080D02*
X10597619Y-135036461D01*
X10597619Y-135036461D02*
X10597619Y-134850747D01*
X10597619Y-134850747D02*
X10659523Y-134603128D01*
X10659523Y-134603128D02*
X10721428Y-134479319D01*
X10721428Y-134479319D02*
X10845238Y-134355509D01*
X10845238Y-134355509D02*
X11030952Y-134293604D01*
X11030952Y-134293604D02*
X11154761Y-134293604D01*
X11154761Y-134293604D02*
X11340476Y-134355509D01*
X11340476Y-134355509D02*
X11402380Y-134417414D01*
X10659523Y-185593604D02*
X10659523Y-184293604D01*
X10659523Y-184293604D02*
X10969047Y-184293604D01*
X10969047Y-184293604D02*
X11154761Y-184355509D01*
X11154761Y-184355509D02*
X11278571Y-184479319D01*
X11278571Y-184479319D02*
X11340476Y-184603128D01*
X11340476Y-184603128D02*
X11402380Y-184850747D01*
X11402380Y-184850747D02*
X11402380Y-185036461D01*
X11402380Y-185036461D02*
X11340476Y-185284080D01*
X11340476Y-185284080D02*
X11278571Y-185407890D01*
X11278571Y-185407890D02*
X11154761Y-185531700D01*
X11154761Y-185531700D02*
X10969047Y-185593604D01*
X10969047Y-185593604D02*
X10659523Y-185593604D01*
X287002200Y-60000000D02*
X285002200Y-60000000D01*
X287002200Y-110000000D02*
X285002200Y-110000000D01*
X287002200Y-160000000D02*
X285002200Y-160000000D01*
X285692676Y-35222176D02*
X286311723Y-35222176D01*
X285568866Y-35593604D02*
X286002199Y-34293604D01*
X286002199Y-34293604D02*
X286435533Y-35593604D01*
X286095057Y-84912652D02*
X286280771Y-84974557D01*
X286280771Y-84974557D02*
X286342676Y-85036461D01*
X286342676Y-85036461D02*
X286404580Y-85160271D01*
X286404580Y-85160271D02*
X286404580Y-85345985D01*
X286404580Y-85345985D02*
X286342676Y-85469795D01*
X286342676Y-85469795D02*
X286280771Y-85531700D01*
X286280771Y-85531700D02*
X286156961Y-85593604D01*
X286156961Y-85593604D02*
X285661723Y-85593604D01*
X285661723Y-85593604D02*
X285661723Y-84293604D01*
X285661723Y-84293604D02*
X286095057Y-84293604D01*
X286095057Y-84293604D02*
X286218866Y-84355509D01*
X286218866Y-84355509D02*
X286280771Y-84417414D01*
X286280771Y-84417414D02*
X286342676Y-84541223D01*
X286342676Y-84541223D02*
X286342676Y-84665033D01*
X286342676Y-84665033D02*
X286280771Y-84788842D01*
X286280771Y-84788842D02*
X286218866Y-84850747D01*
X286218866Y-84850747D02*
X286095057Y-84912652D01*
X286095057Y-84912652D02*
X285661723Y-84912652D01*
X286404580Y-135469795D02*
X286342676Y-135531700D01*
X286342676Y-135531700D02*
X286156961Y-135593604D01*
X286156961Y-135593604D02*
X286033152Y-135593604D01*
X286033152Y-135593604D02*
X285847438Y-135531700D01*
X285847438Y-135531700D02*
X285723628Y-135407890D01*
X285723628Y-135407890D02*
X285661723Y-135284080D01*
X285661723Y-135284080D02*
X285599819Y-135036461D01*
X285599819Y-135036461D02*
X285599819Y-134850747D01*
X285599819Y-134850747D02*
X285661723Y-134603128D01*
X285661723Y-134603128D02*
X285723628Y-134479319D01*
X285723628Y-134479319D02*
X285847438Y-134355509D01*
X285847438Y-134355509D02*
X286033152Y-134293604D01*
X286033152Y-134293604D02*
X286156961Y-134293604D01*
X286156961Y-134293604D02*
X286342676Y-134355509D01*
X286342676Y-134355509D02*
X286404580Y-134417414D01*
X285661723Y-185593604D02*
X285661723Y-184293604D01*
X285661723Y-184293604D02*
X285971247Y-184293604D01*
X285971247Y-184293604D02*
X286156961Y-184355509D01*
X286156961Y-184355509D02*
X286280771Y-184479319D01*
X286280771Y-184479319D02*
X286342676Y-184603128D01*
X286342676Y-184603128D02*
X286404580Y-184850747D01*
X286404580Y-184850747D02*
X286404580Y-185036461D01*
X286404580Y-185036461D02*
X286342676Y-185284080D01*
X286342676Y-185284080D02*
X286280771Y-185407890D01*
X286280771Y-185407890D02*
X286156961Y-185531700D01*
X286156961Y-185531700D02*
X285971247Y-185593604D01*
X285971247Y-185593604D02*
X285661723Y-185593604D01*
X200458026Y-193793328D02*
X200458026Y-192293328D01*
X200458026Y-192293328D02*
X200815169Y-192293328D01*
X200815169Y-192293328D02*
X201029455Y-192364757D01*
X201029455Y-192364757D02*
X201172312Y-192507614D01*
X201172312Y-192507614D02*
X201243741Y-192650471D01*
X201243741Y-192650471D02*
X201315169Y-192936185D01*
X201315169Y-192936185D02*
X201315169Y-193150471D01*
X201315169Y-193150471D02*
X201243741Y-193436185D01*
X201243741Y-193436185D02*
X201172312Y-193579042D01*
X201172312Y-193579042D02*
X201029455Y-193721900D01*
X201029455Y-193721900D02*
X200815169Y-193793328D01*
X200815169Y-193793328D02*
X200458026Y-193793328D01*
X202600884Y-193793328D02*
X202600884Y-193007614D01*
X202600884Y-193007614D02*
X202529455Y-192864757D01*
X202529455Y-192864757D02*
X202386598Y-192793328D01*
X202386598Y-192793328D02*
X202100884Y-192793328D01*
X202100884Y-192793328D02*
X201958026Y-192864757D01*
X202600884Y-193721900D02*
X202458026Y-193793328D01*
X202458026Y-193793328D02*
X202100884Y-193793328D01*
X202100884Y-193793328D02*
X201958026Y-193721900D01*
X201958026Y-193721900D02*
X201886598Y-193579042D01*
X201886598Y-193579042D02*
X201886598Y-193436185D01*
X201886598Y-193436185D02*
X201958026Y-193293328D01*
X201958026Y-193293328D02*
X202100884Y-193221900D01*
X202100884Y-193221900D02*
X202458026Y-193221900D01*
X202458026Y-193221900D02*
X202600884Y-193150471D01*
X203100884Y-192793328D02*
X203672312Y-192793328D01*
X203315169Y-192293328D02*
X203315169Y-193579042D01*
X203315169Y-193579042D02*
X203386598Y-193721900D01*
X203386598Y-193721900D02*
X203529455Y-193793328D01*
X203529455Y-193793328D02*
X203672312Y-193793328D01*
X204743741Y-193721900D02*
X204600884Y-193793328D01*
X204600884Y-193793328D02*
X204315170Y-193793328D01*
X204315170Y-193793328D02*
X204172312Y-193721900D01*
X204172312Y-193721900D02*
X204100884Y-193579042D01*
X204100884Y-193579042D02*
X204100884Y-193007614D01*
X204100884Y-193007614D02*
X204172312Y-192864757D01*
X204172312Y-192864757D02*
X204315170Y-192793328D01*
X204315170Y-192793328D02*
X204600884Y-192793328D01*
X204600884Y-192793328D02*
X204743741Y-192864757D01*
X204743741Y-192864757D02*
X204815170Y-193007614D01*
X204815170Y-193007614D02*
X204815170Y-193150471D01*
X204815170Y-193150471D02*
X204100884Y-193293328D01*
X205458026Y-193650471D02*
X205529455Y-193721900D01*
X205529455Y-193721900D02*
X205458026Y-193793328D01*
X205458026Y-193793328D02*
X205386598Y-193721900D01*
X205386598Y-193721900D02*
X205458026Y-193650471D01*
X205458026Y-193650471D02*
X205458026Y-193793328D01*
X205458026Y-192864757D02*
X205529455Y-192936185D01*
X205529455Y-192936185D02*
X205458026Y-193007614D01*
X205458026Y-193007614D02*
X205386598Y-192936185D01*
X205386598Y-192936185D02*
X205458026Y-192864757D01*
X205458026Y-192864757D02*
X205458026Y-193007614D01*
X177002200Y-194507200D02*
X285002200Y-194507200D01*
X178458026Y-196593328D02*
X178458026Y-195093328D01*
X179315169Y-196593328D02*
X178672312Y-195736185D01*
X179315169Y-195093328D02*
X178458026Y-195950471D01*
X179958026Y-196593328D02*
X179958026Y-195593328D01*
X179958026Y-195093328D02*
X179886598Y-195164757D01*
X179886598Y-195164757D02*
X179958026Y-195236185D01*
X179958026Y-195236185D02*
X180029455Y-195164757D01*
X180029455Y-195164757D02*
X179958026Y-195093328D01*
X179958026Y-195093328D02*
X179958026Y-195236185D01*
X181529455Y-196450471D02*
X181458027Y-196521900D01*
X181458027Y-196521900D02*
X181243741Y-196593328D01*
X181243741Y-196593328D02*
X181100884Y-196593328D01*
X181100884Y-196593328D02*
X180886598Y-196521900D01*
X180886598Y-196521900D02*
X180743741Y-196379042D01*
X180743741Y-196379042D02*
X180672312Y-196236185D01*
X180672312Y-196236185D02*
X180600884Y-195950471D01*
X180600884Y-195950471D02*
X180600884Y-195736185D01*
X180600884Y-195736185D02*
X180672312Y-195450471D01*
X180672312Y-195450471D02*
X180743741Y-195307614D01*
X180743741Y-195307614D02*
X180886598Y-195164757D01*
X180886598Y-195164757D02*
X181100884Y-195093328D01*
X181100884Y-195093328D02*
X181243741Y-195093328D01*
X181243741Y-195093328D02*
X181458027Y-195164757D01*
X181458027Y-195164757D02*
X181529455Y-195236185D01*
X182815170Y-196593328D02*
X182815170Y-195807614D01*
X182815170Y-195807614D02*
X182743741Y-195664757D01*
X182743741Y-195664757D02*
X182600884Y-195593328D01*
X182600884Y-195593328D02*
X182315170Y-195593328D01*
X182315170Y-195593328D02*
X182172312Y-195664757D01*
X182815170Y-196521900D02*
X182672312Y-196593328D01*
X182672312Y-196593328D02*
X182315170Y-196593328D01*
X182315170Y-196593328D02*
X182172312Y-196521900D01*
X182172312Y-196521900D02*
X182100884Y-196379042D01*
X182100884Y-196379042D02*
X182100884Y-196236185D01*
X182100884Y-196236185D02*
X182172312Y-196093328D01*
X182172312Y-196093328D02*
X182315170Y-196021900D01*
X182315170Y-196021900D02*
X182672312Y-196021900D01*
X182672312Y-196021900D02*
X182815170Y-195950471D01*
X184172313Y-196593328D02*
X184172313Y-195093328D01*
X184172313Y-196521900D02*
X184029455Y-196593328D01*
X184029455Y-196593328D02*
X183743741Y-196593328D01*
X183743741Y-196593328D02*
X183600884Y-196521900D01*
X183600884Y-196521900D02*
X183529455Y-196450471D01*
X183529455Y-196450471D02*
X183458027Y-196307614D01*
X183458027Y-196307614D02*
X183458027Y-195879042D01*
X183458027Y-195879042D02*
X183529455Y-195736185D01*
X183529455Y-195736185D02*
X183600884Y-195664757D01*
X183600884Y-195664757D02*
X183743741Y-195593328D01*
X183743741Y-195593328D02*
X184029455Y-195593328D01*
X184029455Y-195593328D02*
X184172313Y-195664757D01*
X186029455Y-195807614D02*
X186529455Y-195807614D01*
X186743741Y-196593328D02*
X186029455Y-196593328D01*
X186029455Y-196593328D02*
X186029455Y-195093328D01*
X186029455Y-195093328D02*
X186743741Y-195093328D01*
X187386598Y-196450471D02*
X187458027Y-196521900D01*
X187458027Y-196521900D02*
X187386598Y-196593328D01*
X187386598Y-196593328D02*
X187315170Y-196521900D01*
X187315170Y-196521900D02*
X187386598Y-196450471D01*
X187386598Y-196450471D02*
X187386598Y-196593328D01*
X188100884Y-196593328D02*
X188100884Y-195093328D01*
X188100884Y-195093328D02*
X188458027Y-195093328D01*
X188458027Y-195093328D02*
X188672313Y-195164757D01*
X188672313Y-195164757D02*
X188815170Y-195307614D01*
X188815170Y-195307614D02*
X188886599Y-195450471D01*
X188886599Y-195450471D02*
X188958027Y-195736185D01*
X188958027Y-195736185D02*
X188958027Y-195950471D01*
X188958027Y-195950471D02*
X188886599Y-196236185D01*
X188886599Y-196236185D02*
X188815170Y-196379042D01*
X188815170Y-196379042D02*
X188672313Y-196521900D01*
X188672313Y-196521900D02*
X188458027Y-196593328D01*
X188458027Y-196593328D02*
X188100884Y-196593328D01*
X189600884Y-196450471D02*
X189672313Y-196521900D01*
X189672313Y-196521900D02*
X189600884Y-196593328D01*
X189600884Y-196593328D02*
X189529456Y-196521900D01*
X189529456Y-196521900D02*
X189600884Y-196450471D01*
X189600884Y-196450471D02*
X189600884Y-196593328D01*
X190243742Y-196164757D02*
X190958028Y-196164757D01*
X190100885Y-196593328D02*
X190600885Y-195093328D01*
X190600885Y-195093328D02*
X191100885Y-196593328D01*
X191600884Y-196450471D02*
X191672313Y-196521900D01*
X191672313Y-196521900D02*
X191600884Y-196593328D01*
X191600884Y-196593328D02*
X191529456Y-196521900D01*
X191529456Y-196521900D02*
X191600884Y-196450471D01*
X191600884Y-196450471D02*
X191600884Y-196593328D01*
X194243742Y-196593328D02*
X193386599Y-196593328D01*
X193815170Y-196593328D02*
X193815170Y-195093328D01*
X193815170Y-195093328D02*
X193672313Y-195307614D01*
X193672313Y-195307614D02*
X193529456Y-195450471D01*
X193529456Y-195450471D02*
X193386599Y-195521900D01*
X195172313Y-195093328D02*
X195315170Y-195093328D01*
X195315170Y-195093328D02*
X195458027Y-195164757D01*
X195458027Y-195164757D02*
X195529456Y-195236185D01*
X195529456Y-195236185D02*
X195600884Y-195379042D01*
X195600884Y-195379042D02*
X195672313Y-195664757D01*
X195672313Y-195664757D02*
X195672313Y-196021900D01*
X195672313Y-196021900D02*
X195600884Y-196307614D01*
X195600884Y-196307614D02*
X195529456Y-196450471D01*
X195529456Y-196450471D02*
X195458027Y-196521900D01*
X195458027Y-196521900D02*
X195315170Y-196593328D01*
X195315170Y-196593328D02*
X195172313Y-196593328D01*
X195172313Y-196593328D02*
X195029456Y-196521900D01*
X195029456Y-196521900D02*
X194958027Y-196450471D01*
X194958027Y-196450471D02*
X194886598Y-196307614D01*
X194886598Y-196307614D02*
X194815170Y-196021900D01*
X194815170Y-196021900D02*
X194815170Y-195664757D01*
X194815170Y-195664757D02*
X194886598Y-195379042D01*
X194886598Y-195379042D02*
X194958027Y-195236185D01*
X194958027Y-195236185D02*
X195029456Y-195164757D01*
X195029456Y-195164757D02*
X195172313Y-195093328D01*
X196315169Y-196450471D02*
X196386598Y-196521900D01*
X196386598Y-196521900D02*
X196315169Y-196593328D01*
X196315169Y-196593328D02*
X196243741Y-196521900D01*
X196243741Y-196521900D02*
X196315169Y-196450471D01*
X196315169Y-196450471D02*
X196315169Y-196593328D01*
X197315170Y-195093328D02*
X197458027Y-195093328D01*
X197458027Y-195093328D02*
X197600884Y-195164757D01*
X197600884Y-195164757D02*
X197672313Y-195236185D01*
X197672313Y-195236185D02*
X197743741Y-195379042D01*
X197743741Y-195379042D02*
X197815170Y-195664757D01*
X197815170Y-195664757D02*
X197815170Y-196021900D01*
X197815170Y-196021900D02*
X197743741Y-196307614D01*
X197743741Y-196307614D02*
X197672313Y-196450471D01*
X197672313Y-196450471D02*
X197600884Y-196521900D01*
X197600884Y-196521900D02*
X197458027Y-196593328D01*
X197458027Y-196593328D02*
X197315170Y-196593328D01*
X197315170Y-196593328D02*
X197172313Y-196521900D01*
X197172313Y-196521900D02*
X197100884Y-196450471D01*
X197100884Y-196450471D02*
X197029455Y-196307614D01*
X197029455Y-196307614D02*
X196958027Y-196021900D01*
X196958027Y-196021900D02*
X196958027Y-195664757D01*
X196958027Y-195664757D02*
X197029455Y-195379042D01*
X197029455Y-195379042D02*
X197100884Y-195236185D01*
X197100884Y-195236185D02*
X197172313Y-195164757D01*
X197172313Y-195164757D02*
X197315170Y-195093328D01*
X198458026Y-196450471D02*
X198529455Y-196521900D01*
X198529455Y-196521900D02*
X198458026Y-196593328D01*
X198458026Y-196593328D02*
X198386598Y-196521900D01*
X198386598Y-196521900D02*
X198458026Y-196450471D01*
X198458026Y-196450471D02*
X198458026Y-196593328D01*
X199886598Y-195093328D02*
X199172312Y-195093328D01*
X199172312Y-195093328D02*
X199100884Y-195807614D01*
X199100884Y-195807614D02*
X199172312Y-195736185D01*
X199172312Y-195736185D02*
X199315170Y-195664757D01*
X199315170Y-195664757D02*
X199672312Y-195664757D01*
X199672312Y-195664757D02*
X199815170Y-195736185D01*
X199815170Y-195736185D02*
X199886598Y-195807614D01*
X199886598Y-195807614D02*
X199958027Y-195950471D01*
X199958027Y-195950471D02*
X199958027Y-196307614D01*
X199958027Y-196307614D02*
X199886598Y-196450471D01*
X199886598Y-196450471D02*
X199815170Y-196521900D01*
X199815170Y-196521900D02*
X199672312Y-196593328D01*
X199672312Y-196593328D02*
X199315170Y-196593328D01*
X199315170Y-196593328D02*
X199172312Y-196521900D01*
X199172312Y-196521900D02*
X199100884Y-196450471D01*
X177002200Y-191507200D02*
X285002200Y-191507200D01*
D11*
X264413853Y-193785528D02*
X263913853Y-193071242D01*
X263556710Y-193785528D02*
X263556710Y-192285528D01*
X263556710Y-192285528D02*
X264128139Y-192285528D01*
X264128139Y-192285528D02*
X264270996Y-192356957D01*
X264270996Y-192356957D02*
X264342425Y-192428385D01*
X264342425Y-192428385D02*
X264413853Y-192571242D01*
X264413853Y-192571242D02*
X264413853Y-192785528D01*
X264413853Y-192785528D02*
X264342425Y-192928385D01*
X264342425Y-192928385D02*
X264270996Y-192999814D01*
X264270996Y-192999814D02*
X264128139Y-193071242D01*
X264128139Y-193071242D02*
X263556710Y-193071242D01*
X265628139Y-193714100D02*
X265485282Y-193785528D01*
X265485282Y-193785528D02*
X265199568Y-193785528D01*
X265199568Y-193785528D02*
X265056710Y-193714100D01*
X265056710Y-193714100D02*
X264985282Y-193571242D01*
X264985282Y-193571242D02*
X264985282Y-192999814D01*
X264985282Y-192999814D02*
X265056710Y-192856957D01*
X265056710Y-192856957D02*
X265199568Y-192785528D01*
X265199568Y-192785528D02*
X265485282Y-192785528D01*
X265485282Y-192785528D02*
X265628139Y-192856957D01*
X265628139Y-192856957D02*
X265699568Y-192999814D01*
X265699568Y-192999814D02*
X265699568Y-193142671D01*
X265699568Y-193142671D02*
X264985282Y-193285528D01*
X266199567Y-192785528D02*
X266556710Y-193785528D01*
X266556710Y-193785528D02*
X266913853Y-192785528D01*
X267485281Y-193642671D02*
X267556710Y-193714100D01*
X267556710Y-193714100D02*
X267485281Y-193785528D01*
X267485281Y-193785528D02*
X267413853Y-193714100D01*
X267413853Y-193714100D02*
X267485281Y-193642671D01*
X267485281Y-193642671D02*
X267485281Y-193785528D01*
X267485281Y-192856957D02*
X267556710Y-192928385D01*
X267556710Y-192928385D02*
X267485281Y-192999814D01*
X267485281Y-192999814D02*
X267413853Y-192928385D01*
X267413853Y-192928385D02*
X267485281Y-192856957D01*
X267485281Y-192856957D02*
X267485281Y-192999814D01*
D10*
X178386598Y-193721900D02*
X178600884Y-193793328D01*
X178600884Y-193793328D02*
X178958026Y-193793328D01*
X178958026Y-193793328D02*
X179100884Y-193721900D01*
X179100884Y-193721900D02*
X179172312Y-193650471D01*
X179172312Y-193650471D02*
X179243741Y-193507614D01*
X179243741Y-193507614D02*
X179243741Y-193364757D01*
X179243741Y-193364757D02*
X179172312Y-193221900D01*
X179172312Y-193221900D02*
X179100884Y-193150471D01*
X179100884Y-193150471D02*
X178958026Y-193079042D01*
X178958026Y-193079042D02*
X178672312Y-193007614D01*
X178672312Y-193007614D02*
X178529455Y-192936185D01*
X178529455Y-192936185D02*
X178458026Y-192864757D01*
X178458026Y-192864757D02*
X178386598Y-192721900D01*
X178386598Y-192721900D02*
X178386598Y-192579042D01*
X178386598Y-192579042D02*
X178458026Y-192436185D01*
X178458026Y-192436185D02*
X178529455Y-192364757D01*
X178529455Y-192364757D02*
X178672312Y-192293328D01*
X178672312Y-192293328D02*
X179029455Y-192293328D01*
X179029455Y-192293328D02*
X179243741Y-192364757D01*
X179886597Y-193793328D02*
X179886597Y-192793328D01*
X179886597Y-192293328D02*
X179815169Y-192364757D01*
X179815169Y-192364757D02*
X179886597Y-192436185D01*
X179886597Y-192436185D02*
X179958026Y-192364757D01*
X179958026Y-192364757D02*
X179886597Y-192293328D01*
X179886597Y-192293328D02*
X179886597Y-192436185D01*
X180458026Y-192793328D02*
X181243741Y-192793328D01*
X181243741Y-192793328D02*
X180458026Y-193793328D01*
X180458026Y-193793328D02*
X181243741Y-193793328D01*
X182386598Y-193721900D02*
X182243741Y-193793328D01*
X182243741Y-193793328D02*
X181958027Y-193793328D01*
X181958027Y-193793328D02*
X181815169Y-193721900D01*
X181815169Y-193721900D02*
X181743741Y-193579042D01*
X181743741Y-193579042D02*
X181743741Y-193007614D01*
X181743741Y-193007614D02*
X181815169Y-192864757D01*
X181815169Y-192864757D02*
X181958027Y-192793328D01*
X181958027Y-192793328D02*
X182243741Y-192793328D01*
X182243741Y-192793328D02*
X182386598Y-192864757D01*
X182386598Y-192864757D02*
X182458027Y-193007614D01*
X182458027Y-193007614D02*
X182458027Y-193150471D01*
X182458027Y-193150471D02*
X181743741Y-193293328D01*
X183100883Y-193650471D02*
X183172312Y-193721900D01*
X183172312Y-193721900D02*
X183100883Y-193793328D01*
X183100883Y-193793328D02*
X183029455Y-193721900D01*
X183029455Y-193721900D02*
X183100883Y-193650471D01*
X183100883Y-193650471D02*
X183100883Y-193793328D01*
X183100883Y-192864757D02*
X183172312Y-192936185D01*
X183172312Y-192936185D02*
X183100883Y-193007614D01*
X183100883Y-193007614D02*
X183029455Y-192936185D01*
X183029455Y-192936185D02*
X183100883Y-192864757D01*
X183100883Y-192864757D02*
X183100883Y-193007614D01*
X184886598Y-193364757D02*
X185600884Y-193364757D01*
X184743741Y-193793328D02*
X185243741Y-192293328D01*
X185243741Y-192293328D02*
X185743741Y-193793328D01*
X186886598Y-192793328D02*
X186886598Y-193793328D01*
X186529455Y-192221900D02*
X186172312Y-193293328D01*
X186172312Y-193293328D02*
X187100883Y-193293328D01*
X263458026Y-196593328D02*
X263458026Y-195093328D01*
X264815170Y-196593328D02*
X264815170Y-195093328D01*
X264815170Y-196521900D02*
X264672312Y-196593328D01*
X264672312Y-196593328D02*
X264386598Y-196593328D01*
X264386598Y-196593328D02*
X264243741Y-196521900D01*
X264243741Y-196521900D02*
X264172312Y-196450471D01*
X264172312Y-196450471D02*
X264100884Y-196307614D01*
X264100884Y-196307614D02*
X264100884Y-195879042D01*
X264100884Y-195879042D02*
X264172312Y-195736185D01*
X264172312Y-195736185D02*
X264243741Y-195664757D01*
X264243741Y-195664757D02*
X264386598Y-195593328D01*
X264386598Y-195593328D02*
X264672312Y-195593328D01*
X264672312Y-195593328D02*
X264815170Y-195664757D01*
X265529455Y-196450471D02*
X265600884Y-196521900D01*
X265600884Y-196521900D02*
X265529455Y-196593328D01*
X265529455Y-196593328D02*
X265458027Y-196521900D01*
X265458027Y-196521900D02*
X265529455Y-196450471D01*
X265529455Y-196450471D02*
X265529455Y-196593328D01*
X265529455Y-195664757D02*
X265600884Y-195736185D01*
X265600884Y-195736185D02*
X265529455Y-195807614D01*
X265529455Y-195807614D02*
X265458027Y-195736185D01*
X265458027Y-195736185D02*
X265529455Y-195664757D01*
X265529455Y-195664757D02*
X265529455Y-195807614D01*
X267315170Y-195236185D02*
X267386598Y-195164757D01*
X267386598Y-195164757D02*
X267529456Y-195093328D01*
X267529456Y-195093328D02*
X267886598Y-195093328D01*
X267886598Y-195093328D02*
X268029456Y-195164757D01*
X268029456Y-195164757D02*
X268100884Y-195236185D01*
X268100884Y-195236185D02*
X268172313Y-195379042D01*
X268172313Y-195379042D02*
X268172313Y-195521900D01*
X268172313Y-195521900D02*
X268100884Y-195736185D01*
X268100884Y-195736185D02*
X267243741Y-196593328D01*
X267243741Y-196593328D02*
X268172313Y-196593328D01*
X269886598Y-195021900D02*
X268600884Y-196950471D01*
X271172313Y-196593328D02*
X270315170Y-196593328D01*
X270743741Y-196593328D02*
X270743741Y-195093328D01*
X270743741Y-195093328D02*
X270600884Y-195307614D01*
X270600884Y-195307614D02*
X270458027Y-195450471D01*
X270458027Y-195450471D02*
X270315170Y-195521900D01*
X272100884Y-195093328D02*
X272243741Y-195093328D01*
X272243741Y-195093328D02*
X272386598Y-195164757D01*
X272386598Y-195164757D02*
X272458027Y-195236185D01*
X272458027Y-195236185D02*
X272529455Y-195379042D01*
X272529455Y-195379042D02*
X272600884Y-195664757D01*
X272600884Y-195664757D02*
X272600884Y-196021900D01*
X272600884Y-196021900D02*
X272529455Y-196307614D01*
X272529455Y-196307614D02*
X272458027Y-196450471D01*
X272458027Y-196450471D02*
X272386598Y-196521900D01*
X272386598Y-196521900D02*
X272243741Y-196593328D01*
X272243741Y-196593328D02*
X272100884Y-196593328D01*
X272100884Y-196593328D02*
X271958027Y-196521900D01*
X271958027Y-196521900D02*
X271886598Y-196450471D01*
X271886598Y-196450471D02*
X271815169Y-196307614D01*
X271815169Y-196307614D02*
X271743741Y-196021900D01*
X271743741Y-196021900D02*
X271743741Y-195664757D01*
X271743741Y-195664757D02*
X271815169Y-195379042D01*
X271815169Y-195379042D02*
X271886598Y-195236185D01*
X271886598Y-195236185D02*
X271958027Y-195164757D01*
X271958027Y-195164757D02*
X272100884Y-195093328D01*
X177002200Y-187507200D02*
X285002200Y-187507200D01*
D12*
X178693928Y-188211638D02*
X179836785Y-188211638D01*
X179015357Y-190211638D02*
X179265357Y-188211638D01*
X180253452Y-190211638D02*
X180420119Y-188878304D01*
X180503452Y-188211638D02*
X180396309Y-188306876D01*
X180396309Y-188306876D02*
X180479643Y-188402114D01*
X180479643Y-188402114D02*
X180586786Y-188306876D01*
X180586786Y-188306876D02*
X180503452Y-188211638D01*
X180503452Y-188211638D02*
X180479643Y-188402114D01*
X181086786Y-188878304D02*
X181848690Y-188878304D01*
X181455833Y-188211638D02*
X181241548Y-189925923D01*
X181241548Y-189925923D02*
X181312976Y-190116400D01*
X181312976Y-190116400D02*
X181491548Y-190211638D01*
X181491548Y-190211638D02*
X181682024Y-190211638D01*
X182634405Y-190211638D02*
X182455833Y-190116400D01*
X182455833Y-190116400D02*
X182384405Y-189925923D01*
X182384405Y-189925923D02*
X182598690Y-188211638D01*
X184170119Y-190116400D02*
X183967738Y-190211638D01*
X183967738Y-190211638D02*
X183586785Y-190211638D01*
X183586785Y-190211638D02*
X183408214Y-190116400D01*
X183408214Y-190116400D02*
X183336785Y-189925923D01*
X183336785Y-189925923D02*
X183432024Y-189164019D01*
X183432024Y-189164019D02*
X183551071Y-188973542D01*
X183551071Y-188973542D02*
X183753452Y-188878304D01*
X183753452Y-188878304D02*
X184134404Y-188878304D01*
X184134404Y-188878304D02*
X184312976Y-188973542D01*
X184312976Y-188973542D02*
X184384404Y-189164019D01*
X184384404Y-189164019D02*
X184360595Y-189354495D01*
X184360595Y-189354495D02*
X183384404Y-189544971D01*
X185134405Y-190021161D02*
X185217738Y-190116400D01*
X185217738Y-190116400D02*
X185110595Y-190211638D01*
X185110595Y-190211638D02*
X185027262Y-190116400D01*
X185027262Y-190116400D02*
X185134405Y-190021161D01*
X185134405Y-190021161D02*
X185110595Y-190211638D01*
X185265357Y-188973542D02*
X185348690Y-189068780D01*
X185348690Y-189068780D02*
X185241548Y-189164019D01*
X185241548Y-189164019D02*
X185158214Y-189068780D01*
X185158214Y-189068780D02*
X185265357Y-188973542D01*
X185265357Y-188973542D02*
X185241548Y-189164019D01*
D10*
X178958026Y-185607614D02*
X178458026Y-185607614D01*
X178458026Y-186393328D02*
X178458026Y-184893328D01*
X178458026Y-184893328D02*
X179172312Y-184893328D01*
X179743740Y-186393328D02*
X179743740Y-185393328D01*
X179743740Y-184893328D02*
X179672312Y-184964757D01*
X179672312Y-184964757D02*
X179743740Y-185036185D01*
X179743740Y-185036185D02*
X179815169Y-184964757D01*
X179815169Y-184964757D02*
X179743740Y-184893328D01*
X179743740Y-184893328D02*
X179743740Y-185036185D01*
X180672312Y-186393328D02*
X180529455Y-186321900D01*
X180529455Y-186321900D02*
X180458026Y-186179042D01*
X180458026Y-186179042D02*
X180458026Y-184893328D01*
X181815169Y-186321900D02*
X181672312Y-186393328D01*
X181672312Y-186393328D02*
X181386598Y-186393328D01*
X181386598Y-186393328D02*
X181243740Y-186321900D01*
X181243740Y-186321900D02*
X181172312Y-186179042D01*
X181172312Y-186179042D02*
X181172312Y-185607614D01*
X181172312Y-185607614D02*
X181243740Y-185464757D01*
X181243740Y-185464757D02*
X181386598Y-185393328D01*
X181386598Y-185393328D02*
X181672312Y-185393328D01*
X181672312Y-185393328D02*
X181815169Y-185464757D01*
X181815169Y-185464757D02*
X181886598Y-185607614D01*
X181886598Y-185607614D02*
X181886598Y-185750471D01*
X181886598Y-185750471D02*
X181172312Y-185893328D01*
X182529454Y-186250471D02*
X182600883Y-186321900D01*
X182600883Y-186321900D02*
X182529454Y-186393328D01*
X182529454Y-186393328D02*
X182458026Y-186321900D01*
X182458026Y-186321900D02*
X182529454Y-186250471D01*
X182529454Y-186250471D02*
X182529454Y-186393328D01*
X182529454Y-185464757D02*
X182600883Y-185536185D01*
X182600883Y-185536185D02*
X182529454Y-185607614D01*
X182529454Y-185607614D02*
X182458026Y-185536185D01*
X182458026Y-185536185D02*
X182529454Y-185464757D01*
X182529454Y-185464757D02*
X182529454Y-185607614D01*
X184958026Y-186321900D02*
X184815169Y-186393328D01*
X184815169Y-186393328D02*
X184529455Y-186393328D01*
X184529455Y-186393328D02*
X184386597Y-186321900D01*
X184386597Y-186321900D02*
X184315169Y-186179042D01*
X184315169Y-186179042D02*
X184315169Y-185607614D01*
X184315169Y-185607614D02*
X184386597Y-185464757D01*
X184386597Y-185464757D02*
X184529455Y-185393328D01*
X184529455Y-185393328D02*
X184815169Y-185393328D01*
X184815169Y-185393328D02*
X184958026Y-185464757D01*
X184958026Y-185464757D02*
X185029455Y-185607614D01*
X185029455Y-185607614D02*
X185029455Y-185750471D01*
X185029455Y-185750471D02*
X184315169Y-185893328D01*
X185600883Y-186321900D02*
X185743740Y-186393328D01*
X185743740Y-186393328D02*
X186029454Y-186393328D01*
X186029454Y-186393328D02*
X186172311Y-186321900D01*
X186172311Y-186321900D02*
X186243740Y-186179042D01*
X186243740Y-186179042D02*
X186243740Y-186107614D01*
X186243740Y-186107614D02*
X186172311Y-185964757D01*
X186172311Y-185964757D02*
X186029454Y-185893328D01*
X186029454Y-185893328D02*
X185815169Y-185893328D01*
X185815169Y-185893328D02*
X185672311Y-185821900D01*
X185672311Y-185821900D02*
X185600883Y-185679042D01*
X185600883Y-185679042D02*
X185600883Y-185607614D01*
X185600883Y-185607614D02*
X185672311Y-185464757D01*
X185672311Y-185464757D02*
X185815169Y-185393328D01*
X185815169Y-185393328D02*
X186029454Y-185393328D01*
X186029454Y-185393328D02*
X186172311Y-185464757D01*
X186886597Y-185393328D02*
X186886597Y-186893328D01*
X186886597Y-185464757D02*
X187029455Y-185393328D01*
X187029455Y-185393328D02*
X187315169Y-185393328D01*
X187315169Y-185393328D02*
X187458026Y-185464757D01*
X187458026Y-185464757D02*
X187529455Y-185536185D01*
X187529455Y-185536185D02*
X187600883Y-185679042D01*
X187600883Y-185679042D02*
X187600883Y-186107614D01*
X187600883Y-186107614D02*
X187529455Y-186250471D01*
X187529455Y-186250471D02*
X187458026Y-186321900D01*
X187458026Y-186321900D02*
X187315169Y-186393328D01*
X187315169Y-186393328D02*
X187029455Y-186393328D01*
X187029455Y-186393328D02*
X186886597Y-186321900D01*
X188100883Y-184893328D02*
X189029455Y-184893328D01*
X189029455Y-184893328D02*
X188529455Y-185464757D01*
X188529455Y-185464757D02*
X188743740Y-185464757D01*
X188743740Y-185464757D02*
X188886598Y-185536185D01*
X188886598Y-185536185D02*
X188958026Y-185607614D01*
X188958026Y-185607614D02*
X189029455Y-185750471D01*
X189029455Y-185750471D02*
X189029455Y-186107614D01*
X189029455Y-186107614D02*
X188958026Y-186250471D01*
X188958026Y-186250471D02*
X188886598Y-186321900D01*
X188886598Y-186321900D02*
X188743740Y-186393328D01*
X188743740Y-186393328D02*
X188315169Y-186393328D01*
X188315169Y-186393328D02*
X188172312Y-186321900D01*
X188172312Y-186321900D02*
X188100883Y-186250471D01*
X189600883Y-185036185D02*
X189672311Y-184964757D01*
X189672311Y-184964757D02*
X189815169Y-184893328D01*
X189815169Y-184893328D02*
X190172311Y-184893328D01*
X190172311Y-184893328D02*
X190315169Y-184964757D01*
X190315169Y-184964757D02*
X190386597Y-185036185D01*
X190386597Y-185036185D02*
X190458026Y-185179042D01*
X190458026Y-185179042D02*
X190458026Y-185321900D01*
X190458026Y-185321900D02*
X190386597Y-185536185D01*
X190386597Y-185536185D02*
X189529454Y-186393328D01*
X189529454Y-186393328D02*
X190458026Y-186393328D01*
X190743740Y-186536185D02*
X191886597Y-186536185D01*
X192243739Y-185393328D02*
X192243739Y-186893328D01*
X192243739Y-185464757D02*
X192386597Y-185393328D01*
X192386597Y-185393328D02*
X192672311Y-185393328D01*
X192672311Y-185393328D02*
X192815168Y-185464757D01*
X192815168Y-185464757D02*
X192886597Y-185536185D01*
X192886597Y-185536185D02*
X192958025Y-185679042D01*
X192958025Y-185679042D02*
X192958025Y-186107614D01*
X192958025Y-186107614D02*
X192886597Y-186250471D01*
X192886597Y-186250471D02*
X192815168Y-186321900D01*
X192815168Y-186321900D02*
X192672311Y-186393328D01*
X192672311Y-186393328D02*
X192386597Y-186393328D01*
X192386597Y-186393328D02*
X192243739Y-186321900D01*
X193600882Y-186393328D02*
X193600882Y-185393328D01*
X193600882Y-185679042D02*
X193672311Y-185536185D01*
X193672311Y-185536185D02*
X193743740Y-185464757D01*
X193743740Y-185464757D02*
X193886597Y-185393328D01*
X193886597Y-185393328D02*
X194029454Y-185393328D01*
X194743739Y-186393328D02*
X194600882Y-186321900D01*
X194600882Y-186321900D02*
X194529453Y-186250471D01*
X194529453Y-186250471D02*
X194458025Y-186107614D01*
X194458025Y-186107614D02*
X194458025Y-185679042D01*
X194458025Y-185679042D02*
X194529453Y-185536185D01*
X194529453Y-185536185D02*
X194600882Y-185464757D01*
X194600882Y-185464757D02*
X194743739Y-185393328D01*
X194743739Y-185393328D02*
X194958025Y-185393328D01*
X194958025Y-185393328D02*
X195100882Y-185464757D01*
X195100882Y-185464757D02*
X195172311Y-185536185D01*
X195172311Y-185536185D02*
X195243739Y-185679042D01*
X195243739Y-185679042D02*
X195243739Y-186107614D01*
X195243739Y-186107614D02*
X195172311Y-186250471D01*
X195172311Y-186250471D02*
X195100882Y-186321900D01*
X195100882Y-186321900D02*
X194958025Y-186393328D01*
X194958025Y-186393328D02*
X194743739Y-186393328D01*
X195886596Y-185393328D02*
X195886596Y-186679042D01*
X195886596Y-186679042D02*
X195815168Y-186821900D01*
X195815168Y-186821900D02*
X195672311Y-186893328D01*
X195672311Y-186893328D02*
X195600882Y-186893328D01*
X195886596Y-184893328D02*
X195815168Y-184964757D01*
X195815168Y-184964757D02*
X195886596Y-185036185D01*
X195886596Y-185036185D02*
X195958025Y-184964757D01*
X195958025Y-184964757D02*
X195886596Y-184893328D01*
X195886596Y-184893328D02*
X195886596Y-185036185D01*
X197172311Y-186321900D02*
X197029454Y-186393328D01*
X197029454Y-186393328D02*
X196743740Y-186393328D01*
X196743740Y-186393328D02*
X196600882Y-186321900D01*
X196600882Y-186321900D02*
X196529454Y-186179042D01*
X196529454Y-186179042D02*
X196529454Y-185607614D01*
X196529454Y-185607614D02*
X196600882Y-185464757D01*
X196600882Y-185464757D02*
X196743740Y-185393328D01*
X196743740Y-185393328D02*
X197029454Y-185393328D01*
X197029454Y-185393328D02*
X197172311Y-185464757D01*
X197172311Y-185464757D02*
X197243740Y-185607614D01*
X197243740Y-185607614D02*
X197243740Y-185750471D01*
X197243740Y-185750471D02*
X196529454Y-185893328D01*
X198529454Y-186321900D02*
X198386596Y-186393328D01*
X198386596Y-186393328D02*
X198100882Y-186393328D01*
X198100882Y-186393328D02*
X197958025Y-186321900D01*
X197958025Y-186321900D02*
X197886596Y-186250471D01*
X197886596Y-186250471D02*
X197815168Y-186107614D01*
X197815168Y-186107614D02*
X197815168Y-185679042D01*
X197815168Y-185679042D02*
X197886596Y-185536185D01*
X197886596Y-185536185D02*
X197958025Y-185464757D01*
X197958025Y-185464757D02*
X198100882Y-185393328D01*
X198100882Y-185393328D02*
X198386596Y-185393328D01*
X198386596Y-185393328D02*
X198529454Y-185464757D01*
X198958025Y-185393328D02*
X199529453Y-185393328D01*
X199172310Y-184893328D02*
X199172310Y-186179042D01*
X199172310Y-186179042D02*
X199243739Y-186321900D01*
X199243739Y-186321900D02*
X199386596Y-186393328D01*
X199386596Y-186393328D02*
X199529453Y-186393328D01*
X200029453Y-186250471D02*
X200100882Y-186321900D01*
X200100882Y-186321900D02*
X200029453Y-186393328D01*
X200029453Y-186393328D02*
X199958025Y-186321900D01*
X199958025Y-186321900D02*
X200029453Y-186250471D01*
X200029453Y-186250471D02*
X200029453Y-186393328D01*
X200743739Y-186393328D02*
X200743739Y-184893328D01*
X200886597Y-185821900D02*
X201315168Y-186393328D01*
X201315168Y-185393328D02*
X200743739Y-185964757D01*
X201958025Y-186393328D02*
X201958025Y-185393328D01*
X201958025Y-184893328D02*
X201886597Y-184964757D01*
X201886597Y-184964757D02*
X201958025Y-185036185D01*
X201958025Y-185036185D02*
X202029454Y-184964757D01*
X202029454Y-184964757D02*
X201958025Y-184893328D01*
X201958025Y-184893328D02*
X201958025Y-185036185D01*
X203315169Y-186321900D02*
X203172311Y-186393328D01*
X203172311Y-186393328D02*
X202886597Y-186393328D01*
X202886597Y-186393328D02*
X202743740Y-186321900D01*
X202743740Y-186321900D02*
X202672311Y-186250471D01*
X202672311Y-186250471D02*
X202600883Y-186107614D01*
X202600883Y-186107614D02*
X202600883Y-185679042D01*
X202600883Y-185679042D02*
X202672311Y-185536185D01*
X202672311Y-185536185D02*
X202743740Y-185464757D01*
X202743740Y-185464757D02*
X202886597Y-185393328D01*
X202886597Y-185393328D02*
X203172311Y-185393328D01*
X203172311Y-185393328D02*
X203315169Y-185464757D01*
X204600883Y-186393328D02*
X204600883Y-185607614D01*
X204600883Y-185607614D02*
X204529454Y-185464757D01*
X204529454Y-185464757D02*
X204386597Y-185393328D01*
X204386597Y-185393328D02*
X204100883Y-185393328D01*
X204100883Y-185393328D02*
X203958025Y-185464757D01*
X204600883Y-186321900D02*
X204458025Y-186393328D01*
X204458025Y-186393328D02*
X204100883Y-186393328D01*
X204100883Y-186393328D02*
X203958025Y-186321900D01*
X203958025Y-186321900D02*
X203886597Y-186179042D01*
X203886597Y-186179042D02*
X203886597Y-186036185D01*
X203886597Y-186036185D02*
X203958025Y-185893328D01*
X203958025Y-185893328D02*
X204100883Y-185821900D01*
X204100883Y-185821900D02*
X204458025Y-185821900D01*
X204458025Y-185821900D02*
X204600883Y-185750471D01*
X205958026Y-186393328D02*
X205958026Y-184893328D01*
X205958026Y-186321900D02*
X205815168Y-186393328D01*
X205815168Y-186393328D02*
X205529454Y-186393328D01*
X205529454Y-186393328D02*
X205386597Y-186321900D01*
X205386597Y-186321900D02*
X205315168Y-186250471D01*
X205315168Y-186250471D02*
X205243740Y-186107614D01*
X205243740Y-186107614D02*
X205243740Y-185679042D01*
X205243740Y-185679042D02*
X205315168Y-185536185D01*
X205315168Y-185536185D02*
X205386597Y-185464757D01*
X205386597Y-185464757D02*
X205529454Y-185393328D01*
X205529454Y-185393328D02*
X205815168Y-185393328D01*
X205815168Y-185393328D02*
X205958026Y-185464757D01*
X206315169Y-186536185D02*
X207458026Y-186536185D01*
X207815168Y-185393328D02*
X207815168Y-186893328D01*
X207815168Y-185464757D02*
X207958026Y-185393328D01*
X207958026Y-185393328D02*
X208243740Y-185393328D01*
X208243740Y-185393328D02*
X208386597Y-185464757D01*
X208386597Y-185464757D02*
X208458026Y-185536185D01*
X208458026Y-185536185D02*
X208529454Y-185679042D01*
X208529454Y-185679042D02*
X208529454Y-186107614D01*
X208529454Y-186107614D02*
X208458026Y-186250471D01*
X208458026Y-186250471D02*
X208386597Y-186321900D01*
X208386597Y-186321900D02*
X208243740Y-186393328D01*
X208243740Y-186393328D02*
X207958026Y-186393328D01*
X207958026Y-186393328D02*
X207815168Y-186321900D01*
X209815169Y-186321900D02*
X209672311Y-186393328D01*
X209672311Y-186393328D02*
X209386597Y-186393328D01*
X209386597Y-186393328D02*
X209243740Y-186321900D01*
X209243740Y-186321900D02*
X209172311Y-186250471D01*
X209172311Y-186250471D02*
X209100883Y-186107614D01*
X209100883Y-186107614D02*
X209100883Y-185679042D01*
X209100883Y-185679042D02*
X209172311Y-185536185D01*
X209172311Y-185536185D02*
X209243740Y-185464757D01*
X209243740Y-185464757D02*
X209386597Y-185393328D01*
X209386597Y-185393328D02*
X209672311Y-185393328D01*
X209672311Y-185393328D02*
X209815169Y-185464757D01*
X210458025Y-186393328D02*
X210458025Y-184893328D01*
X210458025Y-185464757D02*
X210600883Y-185393328D01*
X210600883Y-185393328D02*
X210886597Y-185393328D01*
X210886597Y-185393328D02*
X211029454Y-185464757D01*
X211029454Y-185464757D02*
X211100883Y-185536185D01*
X211100883Y-185536185D02*
X211172311Y-185679042D01*
X211172311Y-185679042D02*
X211172311Y-186107614D01*
X211172311Y-186107614D02*
X211100883Y-186250471D01*
X211100883Y-186250471D02*
X211029454Y-186321900D01*
X211029454Y-186321900D02*
X210886597Y-186393328D01*
X210886597Y-186393328D02*
X210600883Y-186393328D01*
X210600883Y-186393328D02*
X210458025Y-186321900D01*
X177002200Y-181507200D02*
X285002200Y-181507200D01*
X178386598Y-183621900D02*
X178600884Y-183693328D01*
X178600884Y-183693328D02*
X178958026Y-183693328D01*
X178958026Y-183693328D02*
X179100884Y-183621900D01*
X179100884Y-183621900D02*
X179172312Y-183550471D01*
X179172312Y-183550471D02*
X179243741Y-183407614D01*
X179243741Y-183407614D02*
X179243741Y-183264757D01*
X179243741Y-183264757D02*
X179172312Y-183121900D01*
X179172312Y-183121900D02*
X179100884Y-183050471D01*
X179100884Y-183050471D02*
X178958026Y-182979042D01*
X178958026Y-182979042D02*
X178672312Y-182907614D01*
X178672312Y-182907614D02*
X178529455Y-182836185D01*
X178529455Y-182836185D02*
X178458026Y-182764757D01*
X178458026Y-182764757D02*
X178386598Y-182621900D01*
X178386598Y-182621900D02*
X178386598Y-182479042D01*
X178386598Y-182479042D02*
X178458026Y-182336185D01*
X178458026Y-182336185D02*
X178529455Y-182264757D01*
X178529455Y-182264757D02*
X178672312Y-182193328D01*
X178672312Y-182193328D02*
X179029455Y-182193328D01*
X179029455Y-182193328D02*
X179243741Y-182264757D01*
X179886597Y-183693328D02*
X179886597Y-182193328D01*
X180529455Y-183693328D02*
X180529455Y-182907614D01*
X180529455Y-182907614D02*
X180458026Y-182764757D01*
X180458026Y-182764757D02*
X180315169Y-182693328D01*
X180315169Y-182693328D02*
X180100883Y-182693328D01*
X180100883Y-182693328D02*
X179958026Y-182764757D01*
X179958026Y-182764757D02*
X179886597Y-182836185D01*
X181815169Y-183621900D02*
X181672312Y-183693328D01*
X181672312Y-183693328D02*
X181386598Y-183693328D01*
X181386598Y-183693328D02*
X181243740Y-183621900D01*
X181243740Y-183621900D02*
X181172312Y-183479042D01*
X181172312Y-183479042D02*
X181172312Y-182907614D01*
X181172312Y-182907614D02*
X181243740Y-182764757D01*
X181243740Y-182764757D02*
X181386598Y-182693328D01*
X181386598Y-182693328D02*
X181672312Y-182693328D01*
X181672312Y-182693328D02*
X181815169Y-182764757D01*
X181815169Y-182764757D02*
X181886598Y-182907614D01*
X181886598Y-182907614D02*
X181886598Y-183050471D01*
X181886598Y-183050471D02*
X181172312Y-183193328D01*
X183100883Y-183621900D02*
X182958026Y-183693328D01*
X182958026Y-183693328D02*
X182672312Y-183693328D01*
X182672312Y-183693328D02*
X182529454Y-183621900D01*
X182529454Y-183621900D02*
X182458026Y-183479042D01*
X182458026Y-183479042D02*
X182458026Y-182907614D01*
X182458026Y-182907614D02*
X182529454Y-182764757D01*
X182529454Y-182764757D02*
X182672312Y-182693328D01*
X182672312Y-182693328D02*
X182958026Y-182693328D01*
X182958026Y-182693328D02*
X183100883Y-182764757D01*
X183100883Y-182764757D02*
X183172312Y-182907614D01*
X183172312Y-182907614D02*
X183172312Y-183050471D01*
X183172312Y-183050471D02*
X182458026Y-183193328D01*
X183600883Y-182693328D02*
X184172311Y-182693328D01*
X183815168Y-182193328D02*
X183815168Y-183479042D01*
X183815168Y-183479042D02*
X183886597Y-183621900D01*
X183886597Y-183621900D02*
X184029454Y-183693328D01*
X184029454Y-183693328D02*
X184172311Y-183693328D01*
X184672311Y-183550471D02*
X184743740Y-183621900D01*
X184743740Y-183621900D02*
X184672311Y-183693328D01*
X184672311Y-183693328D02*
X184600883Y-183621900D01*
X184600883Y-183621900D02*
X184672311Y-183550471D01*
X184672311Y-183550471D02*
X184672311Y-183693328D01*
X184672311Y-182764757D02*
X184743740Y-182836185D01*
X184743740Y-182836185D02*
X184672311Y-182907614D01*
X184672311Y-182907614D02*
X184600883Y-182836185D01*
X184600883Y-182836185D02*
X184672311Y-182764757D01*
X184672311Y-182764757D02*
X184672311Y-182907614D01*
X197002200Y-191507200D02*
X197002200Y-194507200D01*
X261002200Y-191507200D02*
X261002200Y-198007200D01*
D13*
%TO.P,U1,39,GND_39*%
%TO.N,GND*%
X97950000Y-70712500D03*
X97950000Y-72237500D03*
X98712500Y-69950000D03*
X98712500Y-71475000D03*
X98712500Y-73000000D03*
X99475000Y-70712500D03*
X99475000Y-72237500D03*
X100237500Y-69950000D03*
X100237500Y-71475000D03*
X100237500Y-73000000D03*
X101000000Y-70712500D03*
X101000000Y-72237500D03*
%TD*%
D14*
%TO.P,J2,1,Pin_1_1*%
%TO.N,+3.3V*%
X94000000Y-87000000D03*
D15*
%TO.P,J2,2,Pin_2_2*%
%TO.N,GND*%
X96000000Y-87000000D03*
%TO.P,J2,3,Pin_3_3*%
%TO.N,/SCK*%
X98000000Y-87000000D03*
%TO.P,J2,4,Pin_4_4*%
%TO.N,/MISO*%
X100000000Y-87000000D03*
%TO.P,J2,5,Pin_5_5*%
%TO.N,/MOSI*%
X102000000Y-87000000D03*
%TO.P,J2,6,Pin_6_6*%
%TO.N,/CS*%
X104000000Y-87000000D03*
%TO.P,J2,7,Pin_7_7*%
%TO.N,/INT*%
X106000000Y-87000000D03*
%TD*%
D16*
%TO.P,J3,1,Pin_1_1*%
%TO.N,+3.3V*%
X121460000Y-88000000D03*
D17*
%TO.P,J3,2,Pin_2_2*%
%TO.N,/TXD*%
X124000000Y-88000000D03*
%TO.P,J3,3,Pin_3_3*%
%TO.N,/RXD*%
X126540000Y-88000000D03*
%TO.P,J3,4,Pin_4_4*%
%TO.N,GND*%
X129080000Y-88000000D03*
%TO.P,J3,5,Pin_5_5*%
%TO.N,/EN*%
X131620000Y-88000000D03*
%TO.P,J3,6*%
%TO.N,N/C*%
X134160000Y-88000000D03*
%TD*%
D18*
%TO.P,J1,SH,SHIELD_SH*%
%TO.N,GND*%
X134320000Y-63130000D03*
D19*
X134320000Y-58950000D03*
D18*
X125680000Y-63130000D03*
D19*
X125680000Y-58950000D03*
%TD*%
D20*
%TO.N,/DTR*%
X114017200Y-69635000D03*
X114447600Y-75453200D03*
%TO.N,GND*%
X123564100Y-82015500D03*
%TO.N,/EN*%
X119473300Y-88854700D03*
X105585600Y-66675000D03*
X112888800Y-78083500D03*
X118227000Y-76779900D03*
%TO.N,/D2*%
X121000000Y-90000000D03*
X105561800Y-83174600D03*
%TO.N,/SCK*%
X107095900Y-75864800D03*
%TO.N,/MISO*%
X107626900Y-73025000D03*
%TO.N,/RXD*%
X122125500Y-72175000D03*
%TO.N,/TXD*%
X121971000Y-71297100D03*
%TO.N,Net-(U2-V3)*%
X126849500Y-84003400D03*
X121799700Y-70233300D03*
%TO.N,/USB_D-*%
X121840600Y-66473400D03*
X125066400Y-60698200D03*
%TD*%
%TO.N,/DTR*%
D21*
X114447600Y-70065400D02*
X114017200Y-69635000D01*
X114447600Y-75453200D02*
X114447600Y-70065400D01*
%TO.N,GND*%
X99475000Y-70712500D02*
X98712500Y-69950000D01*
X99475000Y-72237500D02*
X98712500Y-71475000D01*
X134320000Y-58950000D02*
X134320000Y-63130000D01*
X127535200Y-84623500D02*
X127535200Y-66336900D01*
X125680000Y-63130000D02*
X125680000Y-64481700D01*
X98712500Y-73000000D02*
X96901700Y-74810800D01*
X127535200Y-66336900D02*
X125680000Y-64481700D01*
X129080000Y-88000000D02*
X129080000Y-86168300D01*
X127535200Y-84623500D02*
X126172100Y-84623500D01*
X96901700Y-74810800D02*
X96901700Y-87000000D01*
X129080000Y-86168300D02*
X127535200Y-84623500D01*
X97950000Y-72237500D02*
X98712500Y-71475000D01*
X101000000Y-72237500D02*
X100237500Y-71475000D01*
X97950000Y-70712500D02*
X98712500Y-69950000D01*
X126172100Y-84623500D02*
X123564100Y-82015500D01*
X98712500Y-71475000D02*
X99475000Y-70712500D01*
X125680000Y-58950000D02*
X125680000Y-63130000D01*
X101000000Y-70712500D02*
X100237500Y-71475000D01*
X98712500Y-73000000D02*
X99475000Y-72237500D01*
X96000000Y-87000000D02*
X96901700Y-87000000D01*
%TO.N,/EN*%
X112888800Y-78083500D02*
X112888800Y-82270200D01*
X119473300Y-87860000D02*
X119473300Y-88854700D01*
X112888800Y-76779900D02*
X118227000Y-76779900D01*
X112888800Y-76779900D02*
X112888800Y-73978200D01*
X131620000Y-88000000D02*
X130468300Y-89151700D01*
X112888800Y-73978200D02*
X105585600Y-66675000D01*
X122435000Y-86848300D02*
X120485000Y-86848300D01*
X130468300Y-89151700D02*
X123519500Y-89151700D01*
X112888800Y-78083500D02*
X112888800Y-76779900D01*
X123519500Y-89151700D02*
X122611700Y-88243900D01*
X122611700Y-87025000D02*
X122435000Y-86848300D01*
X120485000Y-86848300D02*
X119473300Y-87860000D01*
X112888800Y-82270200D02*
X119473300Y-88854700D01*
X122611700Y-88243900D02*
X122611700Y-87025000D01*
%TO.N,/D2*%
X120293360Y-90227300D02*
X112614500Y-90227300D01*
X112614500Y-90227300D02*
X105561800Y-83174600D01*
X120520660Y-90000000D02*
X120293360Y-90227300D01*
X121000000Y-90000000D02*
X120520660Y-90000000D01*
%TO.N,/SCK*%
X101000000Y-87583400D02*
X101000000Y-81960700D01*
X100391600Y-88191800D02*
X101000000Y-87583400D01*
X98901700Y-87563600D02*
X99529900Y-88191800D01*
X101000000Y-81960700D02*
X107095900Y-75864800D01*
X99529900Y-88191800D02*
X100391600Y-88191800D01*
X98901700Y-87000000D02*
X98901700Y-87563600D01*
X98000000Y-87000000D02*
X98901700Y-87000000D01*
%TO.N,/MISO*%
X100000000Y-87000000D02*
X100000000Y-80651900D01*
X100000000Y-80651900D02*
X107626900Y-73025000D01*
%TO.N,/RXD*%
X122125500Y-83585500D02*
X126540000Y-88000000D01*
X122125500Y-72175000D02*
X122125500Y-83585500D01*
%TO.N,/TXD*%
X121499700Y-71768400D02*
X121971000Y-71297100D01*
X124000000Y-87845300D02*
X121499700Y-85345000D01*
X124000000Y-88000000D02*
X123466743Y-88533257D01*
X124000000Y-88000000D02*
X124000000Y-87845300D01*
X121499700Y-85345000D02*
X121499700Y-71768400D01*
%TO.N,Net-(U2-V3)*%
X121799700Y-70233300D02*
X126849500Y-75283100D01*
X126849500Y-75283100D02*
X126849500Y-84003400D01*
%TO.N,/USB_D-*%
X124667500Y-61097100D02*
X125066400Y-60698200D01*
X121840600Y-66473400D02*
X124667500Y-63646500D01*
X124667500Y-63646500D02*
X124667500Y-61097100D01*
%TD*%
%TA.AperFunction,Conductor*%
%TO.N,GND*%
G36*
X136442539Y-56520185D02*
G01*
X136488294Y-56572989D01*
X136499500Y-56624500D01*
X136499500Y-90375500D01*
X136479815Y-90442539D01*
X136427011Y-90488294D01*
X136375500Y-90499500D01*
X121845134Y-90499500D01*
X121778095Y-90479815D01*
X121732340Y-90427011D01*
X121722396Y-90357853D01*
X121730573Y-90328047D01*
X121747236Y-90287819D01*
X121769737Y-90233497D01*
X121800500Y-90078842D01*
X121800500Y-89921158D01*
X121800500Y-89921155D01*
X121800499Y-89921153D01*
X121769738Y-89766510D01*
X121769737Y-89766503D01*
X121746862Y-89711277D01*
X121709397Y-89620827D01*
X121709390Y-89620814D01*
X121657657Y-89543390D01*
X121636779Y-89476712D01*
X121655264Y-89409332D01*
X121707243Y-89362642D01*
X121760759Y-89350499D01*
X122357871Y-89350499D01*
X122357872Y-89350499D01*
X122417483Y-89344091D01*
X122552331Y-89293796D01*
X122615023Y-89246864D01*
X122680486Y-89222447D01*
X122748760Y-89237298D01*
X122777015Y-89258450D01*
X123034639Y-89516074D01*
X123034649Y-89516085D01*
X123038979Y-89520415D01*
X123038980Y-89520416D01*
X123150784Y-89632220D01*
X123212278Y-89667723D01*
X123249996Y-89689500D01*
X123287712Y-89711276D01*
X123287714Y-89711276D01*
X123287715Y-89711277D01*
X123440443Y-89752200D01*
X123598557Y-89752200D01*
X130381631Y-89752200D01*
X130381647Y-89752201D01*
X130389243Y-89752201D01*
X130547354Y-89752201D01*
X130547357Y-89752201D01*
X130700085Y-89711277D01*
X130775522Y-89667723D01*
X130837016Y-89632220D01*
X130948820Y-89520416D01*
X130948820Y-89520414D01*
X130959024Y-89510211D01*
X130959028Y-89510206D01*
X131135478Y-89333755D01*
X131196799Y-89300272D01*
X131261473Y-89303506D01*
X131303757Y-89317246D01*
X131513713Y-89350500D01*
X131513714Y-89350500D01*
X131726286Y-89350500D01*
X131726287Y-89350500D01*
X131936243Y-89317246D01*
X132138412Y-89251557D01*
X132327816Y-89155051D01*
X132419828Y-89088201D01*
X132499786Y-89030109D01*
X132499788Y-89030106D01*
X132499792Y-89030104D01*
X132650104Y-88879792D01*
X132650106Y-88879788D01*
X132650109Y-88879786D01*
X132775048Y-88707820D01*
X132775047Y-88707820D01*
X132775051Y-88707816D01*
X132779514Y-88699054D01*
X132827488Y-88648259D01*
X132895308Y-88631463D01*
X132961444Y-88653999D01*
X133000486Y-88699056D01*
X133004951Y-88707820D01*
X133129890Y-88879786D01*
X133280213Y-89030109D01*
X133452179Y-89155048D01*
X133452181Y-89155049D01*
X133452184Y-89155051D01*
X133641588Y-89251557D01*
X133843757Y-89317246D01*
X134053713Y-89350500D01*
X134053714Y-89350500D01*
X134266286Y-89350500D01*
X134266287Y-89350500D01*
X134476243Y-89317246D01*
X134678412Y-89251557D01*
X134867816Y-89155051D01*
X134959828Y-89088201D01*
X135039786Y-89030109D01*
X135039788Y-89030106D01*
X135039792Y-89030104D01*
X135190104Y-88879792D01*
X135190106Y-88879788D01*
X135190109Y-88879786D01*
X135315048Y-88707820D01*
X135315047Y-88707820D01*
X135315051Y-88707816D01*
X135411557Y-88518412D01*
X135477246Y-88316243D01*
X135510500Y-88106287D01*
X135510500Y-87893713D01*
X135477246Y-87683757D01*
X135411557Y-87481588D01*
X135315051Y-87292184D01*
X135315049Y-87292181D01*
X135315048Y-87292179D01*
X135190109Y-87120213D01*
X135039786Y-86969890D01*
X134867820Y-86844951D01*
X134678414Y-86748444D01*
X134678413Y-86748443D01*
X134678412Y-86748443D01*
X134476243Y-86682754D01*
X134476241Y-86682753D01*
X134476240Y-86682753D01*
X134314957Y-86657208D01*
X134266287Y-86649500D01*
X134053713Y-86649500D01*
X134005042Y-86657208D01*
X133843760Y-86682753D01*
X133641585Y-86748444D01*
X133452179Y-86844951D01*
X133280213Y-86969890D01*
X133129890Y-87120213D01*
X133004949Y-87292182D01*
X133000484Y-87300946D01*
X132952509Y-87351742D01*
X132884688Y-87368536D01*
X132818553Y-87345998D01*
X132779516Y-87300946D01*
X132775050Y-87292182D01*
X132650109Y-87120213D01*
X132499786Y-86969890D01*
X132327820Y-86844951D01*
X132138414Y-86748444D01*
X132138413Y-86748443D01*
X132138412Y-86748443D01*
X131936243Y-86682754D01*
X131936241Y-86682753D01*
X131936240Y-86682753D01*
X131774957Y-86657208D01*
X131726287Y-86649500D01*
X131513713Y-86649500D01*
X131465042Y-86657208D01*
X131303760Y-86682753D01*
X131101585Y-86748444D01*
X130912179Y-86844951D01*
X130740213Y-86969890D01*
X130589890Y-87120213D01*
X130464951Y-87292179D01*
X130368444Y-87481585D01*
X130302753Y-87683760D01*
X130269500Y-87893713D01*
X130269500Y-88106286D01*
X130302754Y-88316244D01*
X130302754Y-88316247D01*
X130316491Y-88358523D01*
X130318486Y-88428364D01*
X130286243Y-88484521D01*
X130255885Y-88514880D01*
X130194562Y-88548366D01*
X130168202Y-88551200D01*
X127951575Y-88551200D01*
X127884536Y-88531515D01*
X127838781Y-88478711D01*
X127828837Y-88409553D01*
X127833644Y-88388882D01*
X127837993Y-88375498D01*
X127857246Y-88316243D01*
X127890500Y-88106287D01*
X127890500Y-87893713D01*
X127857246Y-87683757D01*
X127791557Y-87481588D01*
X127695051Y-87292184D01*
X127695049Y-87292181D01*
X127695048Y-87292179D01*
X127570109Y-87120213D01*
X127419786Y-86969890D01*
X127247820Y-86844951D01*
X127058414Y-86748444D01*
X127058413Y-86748443D01*
X127058412Y-86748443D01*
X126856243Y-86682754D01*
X126856241Y-86682753D01*
X126856240Y-86682753D01*
X126694957Y-86657208D01*
X126646287Y-86649500D01*
X126433713Y-86649500D01*
X126405006Y-86654046D01*
X126223757Y-86682753D01*
X126181473Y-86696492D01*
X126111632Y-86698486D01*
X126055476Y-86666241D01*
X122762319Y-83373083D01*
X122728834Y-83311760D01*
X122726000Y-83285402D01*
X122726000Y-72754765D01*
X122745685Y-72687726D01*
X122746898Y-72685874D01*
X122834890Y-72554185D01*
X122834890Y-72554184D01*
X122834894Y-72554179D01*
X122891709Y-72417015D01*
X122935550Y-72362611D01*
X123001844Y-72340546D01*
X123069543Y-72357825D01*
X123093951Y-72376786D01*
X126212681Y-75495516D01*
X126246166Y-75556839D01*
X126249000Y-75583197D01*
X126249000Y-83423634D01*
X126229315Y-83490673D01*
X126228102Y-83492525D01*
X126140109Y-83624214D01*
X126140102Y-83624227D01*
X126079764Y-83769898D01*
X126079761Y-83769910D01*
X126049000Y-83924553D01*
X126049000Y-84082246D01*
X126079761Y-84236889D01*
X126079764Y-84236901D01*
X126140102Y-84382572D01*
X126140109Y-84382585D01*
X126227710Y-84513688D01*
X126227713Y-84513692D01*
X126339207Y-84625186D01*
X126339211Y-84625189D01*
X126470314Y-84712790D01*
X126470327Y-84712797D01*
X126615998Y-84773135D01*
X126616003Y-84773137D01*
X126770653Y-84803899D01*
X126770656Y-84803900D01*
X126770658Y-84803900D01*
X126928344Y-84803900D01*
X126928345Y-84803899D01*
X127082997Y-84773137D01*
X127228679Y-84712794D01*
X127359789Y-84625189D01*
X127471289Y-84513689D01*
X127558894Y-84382579D01*
X127619237Y-84236897D01*
X127650000Y-84082242D01*
X127650000Y-83924558D01*
X127650000Y-83924555D01*
X127649999Y-83924553D01*
X127619238Y-83769910D01*
X127619237Y-83769903D01*
X127584025Y-83684892D01*
X127558897Y-83624227D01*
X127558890Y-83624214D01*
X127470898Y-83492525D01*
X127450020Y-83425847D01*
X127450000Y-83423634D01*
X127450000Y-75372160D01*
X127450001Y-75372147D01*
X127450001Y-75204044D01*
X127442343Y-75175463D01*
X127409077Y-75051316D01*
X127346152Y-74942325D01*
X127330024Y-74914390D01*
X127330018Y-74914382D01*
X122634273Y-70218637D01*
X122600788Y-70157314D01*
X122600337Y-70155147D01*
X122598211Y-70144458D01*
X122569437Y-69999803D01*
X122563862Y-69986343D01*
X122509097Y-69854127D01*
X122509090Y-69854114D01*
X122421489Y-69723011D01*
X122421486Y-69723007D01*
X122309992Y-69611513D01*
X122309988Y-69611510D01*
X122178885Y-69523909D01*
X122178872Y-69523902D01*
X122033201Y-69463564D01*
X122033189Y-69463561D01*
X121878545Y-69432800D01*
X121878542Y-69432800D01*
X121720858Y-69432800D01*
X121720855Y-69432800D01*
X121566210Y-69463561D01*
X121566198Y-69463564D01*
X121420527Y-69523902D01*
X121420514Y-69523909D01*
X121289411Y-69611510D01*
X121289407Y-69611513D01*
X121177913Y-69723007D01*
X121177910Y-69723011D01*
X121090309Y-69854114D01*
X121090302Y-69854127D01*
X121029964Y-69999798D01*
X121029961Y-69999810D01*
X120999200Y-70154453D01*
X120999200Y-70312146D01*
X121029961Y-70466789D01*
X121029964Y-70466801D01*
X121090302Y-70612472D01*
X121090309Y-70612485D01*
X121177910Y-70743588D01*
X121177913Y-70743592D01*
X121229565Y-70795243D01*
X121263051Y-70856566D01*
X121258067Y-70926258D01*
X121256446Y-70930377D01*
X121201264Y-71063598D01*
X121201261Y-71063608D01*
X121170362Y-71218948D01*
X121144782Y-71267848D01*
X121146479Y-71268979D01*
X121146477Y-71268982D01*
X121140157Y-71276690D01*
X121137977Y-71280859D01*
X121136426Y-71282437D01*
X121130986Y-71287877D01*
X121130984Y-71287880D01*
X121019181Y-71399682D01*
X121019179Y-71399685D01*
X120969061Y-71486494D01*
X120969059Y-71486496D01*
X120940125Y-71536609D01*
X120940124Y-71536610D01*
X120940123Y-71536615D01*
X120899199Y-71689343D01*
X120899199Y-71689345D01*
X120899199Y-71857446D01*
X120899200Y-71857459D01*
X120899200Y-85258330D01*
X120899199Y-85258348D01*
X120899199Y-85424054D01*
X120899198Y-85424054D01*
X120940123Y-85576785D01*
X120967670Y-85624496D01*
X120967671Y-85624500D01*
X120967672Y-85624500D01*
X121019179Y-85713714D01*
X121019181Y-85713717D01*
X121138049Y-85832585D01*
X121138055Y-85832590D01*
X121341584Y-86036119D01*
X121375069Y-86097442D01*
X121370085Y-86167134D01*
X121328213Y-86223067D01*
X121262749Y-86247484D01*
X121253903Y-86247800D01*
X120571669Y-86247800D01*
X120571653Y-86247799D01*
X120564057Y-86247799D01*
X120405943Y-86247799D01*
X120291397Y-86278492D01*
X120253214Y-86288723D01*
X120234322Y-86299630D01*
X120229258Y-86302555D01*
X120190396Y-86324992D01*
X120116285Y-86367779D01*
X120116282Y-86367781D01*
X119104584Y-87379480D01*
X119104583Y-87379481D01*
X119063629Y-87420434D01*
X119002306Y-87453919D01*
X118932614Y-87448933D01*
X118888268Y-87420433D01*
X113525619Y-82057784D01*
X113492134Y-81996461D01*
X113489300Y-81970103D01*
X113489300Y-78663265D01*
X113508985Y-78596226D01*
X113510198Y-78594374D01*
X113598190Y-78462685D01*
X113598190Y-78462684D01*
X113598194Y-78462679D01*
X113658537Y-78316997D01*
X113689300Y-78162342D01*
X113689300Y-78004658D01*
X113689300Y-78004655D01*
X113689299Y-78004653D01*
X113658538Y-77850010D01*
X113658537Y-77850003D01*
X113658535Y-77849998D01*
X113598197Y-77704327D01*
X113598190Y-77704314D01*
X113510643Y-77573291D01*
X113489765Y-77506613D01*
X113508250Y-77439233D01*
X113560228Y-77392543D01*
X113613745Y-77380400D01*
X117647234Y-77380400D01*
X117714273Y-77400085D01*
X117716125Y-77401298D01*
X117847814Y-77489290D01*
X117847827Y-77489297D01*
X117993498Y-77549635D01*
X117993503Y-77549637D01*
X118109071Y-77572625D01*
X118148153Y-77580399D01*
X118148156Y-77580400D01*
X118148158Y-77580400D01*
X118305844Y-77580400D01*
X118305845Y-77580399D01*
X118460497Y-77549637D01*
X118606179Y-77489294D01*
X118737289Y-77401689D01*
X118848789Y-77290189D01*
X118936394Y-77159079D01*
X118996737Y-77013397D01*
X119027500Y-76858742D01*
X119027500Y-76701058D01*
X119027500Y-76701055D01*
X119027499Y-76701053D01*
X119014268Y-76634537D01*
X118996737Y-76546403D01*
X118996735Y-76546398D01*
X118936397Y-76400727D01*
X118936390Y-76400714D01*
X118848789Y-76269611D01*
X118848786Y-76269607D01*
X118737292Y-76158113D01*
X118737288Y-76158110D01*
X118606185Y-76070509D01*
X118606172Y-76070502D01*
X118460501Y-76010164D01*
X118460489Y-76010161D01*
X118305845Y-75979400D01*
X118305842Y-75979400D01*
X118148158Y-75979400D01*
X118148155Y-75979400D01*
X117993510Y-76010161D01*
X117993498Y-76010164D01*
X117847827Y-76070502D01*
X117847814Y-76070509D01*
X117716125Y-76158502D01*
X117649447Y-76179380D01*
X117647234Y-76179400D01*
X115152841Y-76179400D01*
X115085802Y-76159715D01*
X115040047Y-76106911D01*
X115030103Y-76037753D01*
X115059128Y-75974197D01*
X115065160Y-75967719D01*
X115069386Y-75963492D01*
X115069389Y-75963489D01*
X115156994Y-75832379D01*
X115217337Y-75686697D01*
X115248100Y-75532042D01*
X115248100Y-75374358D01*
X115248100Y-75374355D01*
X115248099Y-75374353D01*
X115244151Y-75354507D01*
X115217337Y-75219703D01*
X115210851Y-75204044D01*
X115156997Y-75074027D01*
X115156990Y-75074014D01*
X115068998Y-74942325D01*
X115048120Y-74875647D01*
X115048100Y-74873434D01*
X115048100Y-70154460D01*
X115048101Y-70154447D01*
X115048101Y-69986344D01*
X115048101Y-69986343D01*
X115007177Y-69833616D01*
X114943320Y-69723011D01*
X114928124Y-69696690D01*
X114928118Y-69696682D01*
X114851773Y-69620337D01*
X114818288Y-69559014D01*
X114817837Y-69556847D01*
X114799282Y-69463564D01*
X114786937Y-69401503D01*
X114786935Y-69401498D01*
X114726597Y-69255827D01*
X114726590Y-69255814D01*
X114638989Y-69124711D01*
X114638986Y-69124707D01*
X114527492Y-69013213D01*
X114527488Y-69013210D01*
X114396385Y-68925609D01*
X114396372Y-68925602D01*
X114250701Y-68865264D01*
X114250689Y-68865261D01*
X114096045Y-68834500D01*
X114096042Y-68834500D01*
X113938358Y-68834500D01*
X113938355Y-68834500D01*
X113783710Y-68865261D01*
X113783698Y-68865264D01*
X113638027Y-68925602D01*
X113638014Y-68925609D01*
X113506911Y-69013210D01*
X113506907Y-69013213D01*
X113395413Y-69124707D01*
X113395410Y-69124711D01*
X113307809Y-69255814D01*
X113307802Y-69255827D01*
X113247464Y-69401498D01*
X113247461Y-69401510D01*
X113216700Y-69556153D01*
X113216700Y-69713846D01*
X113247461Y-69868489D01*
X113247464Y-69868501D01*
X113307802Y-70014172D01*
X113307809Y-70014185D01*
X113395410Y-70145288D01*
X113395413Y-70145292D01*
X113506907Y-70256786D01*
X113506911Y-70256789D01*
X113638014Y-70344390D01*
X113638018Y-70344392D01*
X113638021Y-70344394D01*
X113770556Y-70399291D01*
X113824955Y-70443129D01*
X113847021Y-70509423D01*
X113847100Y-70513850D01*
X113847100Y-74873434D01*
X113827415Y-74940473D01*
X113826202Y-74942325D01*
X113738209Y-75074014D01*
X113738206Y-75074020D01*
X113727861Y-75098996D01*
X113684019Y-75153399D01*
X113617725Y-75175463D01*
X113550026Y-75158183D01*
X113502416Y-75107046D01*
X113489300Y-75051542D01*
X113489300Y-73899145D01*
X113489300Y-73899143D01*
X113448377Y-73746416D01*
X113390858Y-73646789D01*
X113369324Y-73609490D01*
X113369321Y-73609486D01*
X113369320Y-73609484D01*
X113257516Y-73497680D01*
X113257515Y-73497679D01*
X113253185Y-73493349D01*
X113253174Y-73493339D01*
X106420174Y-66660339D01*
X106386689Y-66599016D01*
X106386238Y-66596849D01*
X106355338Y-66441510D01*
X106355337Y-66441503D01*
X106335890Y-66394553D01*
X106294997Y-66295827D01*
X106294990Y-66295814D01*
X106207389Y-66164711D01*
X106207386Y-66164707D01*
X106095892Y-66053213D01*
X106095888Y-66053210D01*
X105964785Y-65965609D01*
X105964772Y-65965602D01*
X105819101Y-65905264D01*
X105819089Y-65905261D01*
X105664445Y-65874500D01*
X105664442Y-65874500D01*
X105506758Y-65874500D01*
X105506755Y-65874500D01*
X105352110Y-65905261D01*
X105352098Y-65905264D01*
X105206427Y-65965602D01*
X105206414Y-65965609D01*
X105075311Y-66053210D01*
X105075307Y-66053213D01*
X104963813Y-66164707D01*
X104963810Y-66164711D01*
X104876209Y-66295814D01*
X104876202Y-66295827D01*
X104815864Y-66441498D01*
X104815861Y-66441510D01*
X104785100Y-66596153D01*
X104785100Y-66753846D01*
X104815861Y-66908489D01*
X104815864Y-66908501D01*
X104876202Y-67054172D01*
X104876209Y-67054185D01*
X104963810Y-67185288D01*
X104963813Y-67185292D01*
X105075307Y-67296786D01*
X105075311Y-67296789D01*
X105206414Y-67384390D01*
X105206427Y-67384397D01*
X105352098Y-67444735D01*
X105352103Y-67444737D01*
X105416747Y-67457595D01*
X105507449Y-67475638D01*
X105569360Y-67508023D01*
X105570939Y-67509574D01*
X112251981Y-74190616D01*
X112285466Y-74251939D01*
X112288300Y-74278297D01*
X112288300Y-77503734D01*
X112268615Y-77570773D01*
X112267402Y-77572625D01*
X112179409Y-77704314D01*
X112179402Y-77704327D01*
X112119064Y-77849998D01*
X112119061Y-77850010D01*
X112088300Y-78004653D01*
X112088300Y-78162346D01*
X112119061Y-78316989D01*
X112119064Y-78317001D01*
X112179402Y-78462672D01*
X112179409Y-78462685D01*
X112267402Y-78594374D01*
X112288280Y-78661051D01*
X112288300Y-78663265D01*
X112288300Y-82183530D01*
X112288299Y-82183548D01*
X112288299Y-82349254D01*
X112288298Y-82349254D01*
X112329223Y-82501985D01*
X112356423Y-82549095D01*
X112356424Y-82549099D01*
X112356425Y-82549099D01*
X112408279Y-82638914D01*
X112408281Y-82638917D01*
X112527149Y-82757785D01*
X112527155Y-82757790D01*
X118638725Y-88869360D01*
X118672210Y-88930683D01*
X118672661Y-88932849D01*
X118703561Y-89088191D01*
X118703564Y-89088201D01*
X118763902Y-89233872D01*
X118763909Y-89233885D01*
X118851510Y-89364988D01*
X118851513Y-89364992D01*
X118901640Y-89415119D01*
X118935125Y-89476442D01*
X118930141Y-89546134D01*
X118888269Y-89602067D01*
X118822805Y-89626484D01*
X118813959Y-89626800D01*
X112914597Y-89626800D01*
X112847558Y-89607115D01*
X112826916Y-89590481D01*
X106396374Y-83159939D01*
X106362889Y-83098616D01*
X106362438Y-83096449D01*
X106331538Y-82941110D01*
X106331537Y-82941103D01*
X106331535Y-82941098D01*
X106271197Y-82795427D01*
X106271190Y-82795414D01*
X106183589Y-82664311D01*
X106183586Y-82664307D01*
X106072092Y-82552813D01*
X106072088Y-82552810D01*
X105940985Y-82465209D01*
X105940972Y-82465202D01*
X105795301Y-82404864D01*
X105795289Y-82404861D01*
X105640645Y-82374100D01*
X105640642Y-82374100D01*
X105482958Y-82374100D01*
X105482955Y-82374100D01*
X105328310Y-82404861D01*
X105328298Y-82404864D01*
X105182627Y-82465202D01*
X105182614Y-82465209D01*
X105051511Y-82552810D01*
X105051507Y-82552813D01*
X104940013Y-82664307D01*
X104940010Y-82664311D01*
X104852409Y-82795414D01*
X104852402Y-82795427D01*
X104792064Y-82941098D01*
X104792061Y-82941110D01*
X104761300Y-83095753D01*
X104761300Y-83253446D01*
X104792061Y-83408089D01*
X104792064Y-83408101D01*
X104852402Y-83553772D01*
X104852409Y-83553785D01*
X104940010Y-83684888D01*
X104940013Y-83684892D01*
X105051507Y-83796386D01*
X105051511Y-83796389D01*
X105182614Y-83883990D01*
X105182627Y-83883997D01*
X105328298Y-83944335D01*
X105328303Y-83944337D01*
X105392947Y-83957195D01*
X105483649Y-83975238D01*
X105545560Y-84007623D01*
X105547139Y-84009174D01*
X111825784Y-90287819D01*
X111859269Y-90349142D01*
X111854285Y-90418834D01*
X111812413Y-90474767D01*
X111746949Y-90499184D01*
X111738103Y-90499500D01*
X87624500Y-90499500D01*
X87557461Y-90479815D01*
X87511706Y-90427011D01*
X87500500Y-90375500D01*
X87500500Y-86324983D01*
X92899500Y-86324983D01*
X92899500Y-87675001D01*
X92899501Y-87675018D01*
X92910000Y-87777796D01*
X92910001Y-87777799D01*
X92948155Y-87892938D01*
X92965186Y-87944334D01*
X93057288Y-88093656D01*
X93181344Y-88217712D01*
X93330666Y-88309814D01*
X93497203Y-88364999D01*
X93599991Y-88375500D01*
X94400008Y-88375499D01*
X94400016Y-88375498D01*
X94400019Y-88375498D01*
X94493203Y-88365979D01*
X94502797Y-88364999D01*
X94669334Y-88309814D01*
X94818656Y-88217712D01*
X94942712Y-88093656D01*
X95034814Y-87944334D01*
X95089999Y-87777797D01*
X95100500Y-87675009D01*
X95100499Y-86638389D01*
X96899500Y-86638389D01*
X96899500Y-87361611D01*
X96926598Y-87532701D01*
X96980127Y-87697445D01*
X97058768Y-87851788D01*
X97160586Y-87991928D01*
X97283072Y-88114414D01*
X97423212Y-88216232D01*
X97577555Y-88294873D01*
X97742299Y-88348402D01*
X97913389Y-88375500D01*
X97913390Y-88375500D01*
X98086610Y-88375500D01*
X98086611Y-88375500D01*
X98257701Y-88348402D01*
X98422445Y-88294873D01*
X98576788Y-88216232D01*
X98576788Y-88216231D01*
X98581129Y-88214020D01*
X98582178Y-88216080D01*
X98640401Y-88200311D01*
X98707010Y-88221404D01*
X98725467Y-88236602D01*
X99045039Y-88556174D01*
X99045049Y-88556185D01*
X99049379Y-88560515D01*
X99049380Y-88560516D01*
X99161184Y-88672320D01*
X99247995Y-88722439D01*
X99247997Y-88722441D01*
X99286051Y-88744411D01*
X99298115Y-88751377D01*
X99450843Y-88792301D01*
X99450846Y-88792301D01*
X99616553Y-88792301D01*
X99616569Y-88792300D01*
X100304931Y-88792300D01*
X100304947Y-88792301D01*
X100312543Y-88792301D01*
X100470654Y-88792301D01*
X100470657Y-88792301D01*
X100623385Y-88751377D01*
X100673504Y-88722439D01*
X100760316Y-88672320D01*
X100872120Y-88560516D01*
X100872121Y-88560514D01*
X101228544Y-88204090D01*
X101289865Y-88170607D01*
X101359557Y-88175591D01*
X101389108Y-88191455D01*
X101423207Y-88216229D01*
X101423209Y-88216230D01*
X101423212Y-88216232D01*
X101577555Y-88294873D01*
X101742299Y-88348402D01*
X101913389Y-88375500D01*
X101913390Y-88375500D01*
X102086610Y-88375500D01*
X102086611Y-88375500D01*
X102257701Y-88348402D01*
X102422445Y-88294873D01*
X102576788Y-88216232D01*
X102716928Y-88114414D01*
X102839414Y-87991928D01*
X102899682Y-87908975D01*
X102955012Y-87866311D01*
X103024626Y-87860332D01*
X103086421Y-87892938D01*
X103100315Y-87908973D01*
X103160586Y-87991928D01*
X103283072Y-88114414D01*
X103423212Y-88216232D01*
X103577555Y-88294873D01*
X103742299Y-88348402D01*
X103913389Y-88375500D01*
X103913390Y-88375500D01*
X104086610Y-88375500D01*
X104086611Y-88375500D01*
X104257701Y-88348402D01*
X104422445Y-88294873D01*
X104576788Y-88216232D01*
X104716928Y-88114414D01*
X104839414Y-87991928D01*
X104899682Y-87908975D01*
X104955012Y-87866311D01*
X105024626Y-87860332D01*
X105086421Y-87892938D01*
X105100315Y-87908973D01*
X105160586Y-87991928D01*
X105283072Y-88114414D01*
X105423212Y-88216232D01*
X105577555Y-88294873D01*
X105742299Y-88348402D01*
X105913389Y-88375500D01*
X105913390Y-88375500D01*
X106086610Y-88375500D01*
X106086611Y-88375500D01*
X106257701Y-88348402D01*
X106422445Y-88294873D01*
X106576788Y-88216232D01*
X106716928Y-88114414D01*
X106839414Y-87991928D01*
X106941232Y-87851788D01*
X107019873Y-87697445D01*
X107073402Y-87532701D01*
X107100500Y-87361611D01*
X107100500Y-86638389D01*
X107073402Y-86467299D01*
X107019873Y-86302555D01*
X106941232Y-86148212D01*
X106839414Y-86008072D01*
X106716928Y-85885586D01*
X106576788Y-85783768D01*
X106422445Y-85705127D01*
X106257701Y-85651598D01*
X106257699Y-85651597D01*
X106257698Y-85651597D01*
X106126271Y-85630781D01*
X106086611Y-85624500D01*
X105913389Y-85624500D01*
X105873728Y-85630781D01*
X105742302Y-85651597D01*
X105577552Y-85705128D01*
X105423211Y-85783768D01*
X105365745Y-85825520D01*
X105283072Y-85885586D01*
X105283070Y-85885588D01*
X105283069Y-85885588D01*
X105160588Y-86008069D01*
X105160581Y-86008078D01*
X105100317Y-86091023D01*
X105044987Y-86133689D01*
X104975374Y-86139667D01*
X104913579Y-86107061D01*
X104899683Y-86091023D01*
X104839418Y-86008078D01*
X104839414Y-86008072D01*
X104716928Y-85885586D01*
X104576788Y-85783768D01*
X104422445Y-85705127D01*
X104257701Y-85651598D01*
X104257699Y-85651597D01*
X104257698Y-85651597D01*
X104126271Y-85630781D01*
X104086611Y-85624500D01*
X103913389Y-85624500D01*
X103873728Y-85630781D01*
X103742302Y-85651597D01*
X103577552Y-85705128D01*
X103423211Y-85783768D01*
X103365745Y-85825520D01*
X103283072Y-85885586D01*
X103283070Y-85885588D01*
X103283069Y-85885588D01*
X103160588Y-86008069D01*
X103160581Y-86008078D01*
X103100317Y-86091023D01*
X103044987Y-86133689D01*
X102975374Y-86139667D01*
X102913579Y-86107061D01*
X102899683Y-86091023D01*
X102839418Y-86008078D01*
X102839414Y-86008072D01*
X102716928Y-85885586D01*
X102576788Y-85783768D01*
X102422445Y-85705127D01*
X102257701Y-85651598D01*
X102257699Y-85651597D01*
X102257698Y-85651597D01*
X102126271Y-85630781D01*
X102086611Y-85624500D01*
X101913389Y-85624500D01*
X101743897Y-85651344D01*
X101674604Y-85642389D01*
X101621152Y-85597393D01*
X101600513Y-85530641D01*
X101600500Y-85528871D01*
X101600500Y-82260797D01*
X101620185Y-82193758D01*
X101636819Y-82173116D01*
X103638557Y-80171378D01*
X107110562Y-76699372D01*
X107171883Y-76665889D01*
X107174050Y-76665438D01*
X107231985Y-76653913D01*
X107329397Y-76634537D01*
X107475079Y-76574194D01*
X107606189Y-76486589D01*
X107717689Y-76375089D01*
X107805294Y-76243979D01*
X107865637Y-76098297D01*
X107896400Y-75943642D01*
X107896400Y-75785958D01*
X107896400Y-75785955D01*
X107896399Y-75785953D01*
X107876656Y-75686701D01*
X107865637Y-75631303D01*
X107845711Y-75583197D01*
X107805297Y-75485627D01*
X107805290Y-75485614D01*
X107717689Y-75354511D01*
X107717686Y-75354507D01*
X107606192Y-75243013D01*
X107606188Y-75243010D01*
X107475085Y-75155409D01*
X107475072Y-75155402D01*
X107329401Y-75095064D01*
X107329389Y-75095061D01*
X107174745Y-75064300D01*
X107174742Y-75064300D01*
X107017058Y-75064300D01*
X107017055Y-75064300D01*
X106862410Y-75095061D01*
X106862398Y-75095064D01*
X106716727Y-75155402D01*
X106716716Y-75155408D01*
X106645487Y-75203002D01*
X106578809Y-75223879D01*
X106511429Y-75205394D01*
X106464740Y-75153415D01*
X106453564Y-75084445D01*
X106481450Y-75020381D01*
X106488905Y-75012229D01*
X107641562Y-73859572D01*
X107702883Y-73826089D01*
X107705050Y-73825638D01*
X107762985Y-73814113D01*
X107860397Y-73794737D01*
X108006079Y-73734394D01*
X108137189Y-73646789D01*
X108248689Y-73535289D01*
X108336294Y-73404179D01*
X108396637Y-73258497D01*
X108427400Y-73103842D01*
X108427400Y-72946158D01*
X108427400Y-72946155D01*
X108427399Y-72946153D01*
X108396638Y-72791510D01*
X108396638Y-72791508D01*
X108396637Y-72791503D01*
X108381420Y-72754765D01*
X108336297Y-72645827D01*
X108336290Y-72645814D01*
X108248689Y-72514711D01*
X108248686Y-72514707D01*
X108137192Y-72403213D01*
X108137188Y-72403210D01*
X108006085Y-72315609D01*
X108006072Y-72315602D01*
X107860401Y-72255264D01*
X107860389Y-72255261D01*
X107705745Y-72224500D01*
X107705742Y-72224500D01*
X107548058Y-72224500D01*
X107548055Y-72224500D01*
X107393410Y-72255261D01*
X107393398Y-72255264D01*
X107247727Y-72315602D01*
X107247714Y-72315609D01*
X107116611Y-72403210D01*
X107116607Y-72403213D01*
X107005113Y-72514707D01*
X107005110Y-72514711D01*
X106917509Y-72645814D01*
X106917502Y-72645827D01*
X106857164Y-72791498D01*
X106857161Y-72791508D01*
X106826261Y-72946850D01*
X106793876Y-73008761D01*
X106792325Y-73010339D01*
X99519481Y-80283182D01*
X99519479Y-80283185D01*
X99469361Y-80369994D01*
X99469359Y-80369996D01*
X99440425Y-80420109D01*
X99440424Y-80420110D01*
X99440423Y-80420115D01*
X99399499Y-80572843D01*
X99399499Y-80572845D01*
X99399499Y-80740946D01*
X99399500Y-80740959D01*
X99399500Y-85737814D01*
X99379815Y-85804853D01*
X99348387Y-85838131D01*
X99283072Y-85885585D01*
X99160588Y-86008069D01*
X99160581Y-86008078D01*
X99100317Y-86091023D01*
X99044987Y-86133689D01*
X98975374Y-86139667D01*
X98913579Y-86107061D01*
X98899683Y-86091023D01*
X98839418Y-86008078D01*
X98839414Y-86008072D01*
X98716928Y-85885586D01*
X98576788Y-85783768D01*
X98422445Y-85705127D01*
X98257701Y-85651598D01*
X98257699Y-85651597D01*
X98257698Y-85651597D01*
X98126271Y-85630781D01*
X98086611Y-85624500D01*
X97913389Y-85624500D01*
X97873728Y-85630781D01*
X97742302Y-85651597D01*
X97577552Y-85705128D01*
X97423211Y-85783768D01*
X97365745Y-85825520D01*
X97283072Y-85885586D01*
X97283070Y-85885588D01*
X97283069Y-85885588D01*
X97160588Y-86008069D01*
X97160588Y-86008070D01*
X97160586Y-86008072D01*
X97160582Y-86008078D01*
X97058768Y-86148211D01*
X96980128Y-86302552D01*
X96926597Y-86467302D01*
X96899613Y-86637677D01*
X96899500Y-86638389D01*
X95100499Y-86638389D01*
X95100499Y-86324992D01*
X95092581Y-86247484D01*
X95089999Y-86222203D01*
X95089998Y-86222200D01*
X95071751Y-86167134D01*
X95034814Y-86055666D01*
X94942712Y-85906344D01*
X94818656Y-85782288D01*
X94707484Y-85713717D01*
X94669336Y-85690187D01*
X94669331Y-85690185D01*
X94667862Y-85689698D01*
X94502797Y-85635001D01*
X94502795Y-85635000D01*
X94400010Y-85624500D01*
X93599998Y-85624500D01*
X93599980Y-85624501D01*
X93497203Y-85635000D01*
X93497200Y-85635001D01*
X93330668Y-85690185D01*
X93330663Y-85690187D01*
X93181342Y-85782289D01*
X93057289Y-85906342D01*
X92965187Y-86055663D01*
X92965186Y-86055666D01*
X92910001Y-86222203D01*
X92910001Y-86222204D01*
X92910000Y-86222204D01*
X92899500Y-86324983D01*
X87500500Y-86324983D01*
X87500500Y-62709000D01*
X87520185Y-62641961D01*
X87572989Y-62596206D01*
X87624500Y-62585000D01*
X123943000Y-62585000D01*
X124010039Y-62604685D01*
X124055794Y-62657489D01*
X124067000Y-62709000D01*
X124067000Y-63346403D01*
X124047315Y-63413442D01*
X124030681Y-63434084D01*
X121825939Y-65638825D01*
X121764616Y-65672310D01*
X121762450Y-65672761D01*
X121607108Y-65703661D01*
X121607098Y-65703664D01*
X121461427Y-65764002D01*
X121461414Y-65764009D01*
X121330311Y-65851610D01*
X121330307Y-65851613D01*
X121218813Y-65963107D01*
X121218810Y-65963111D01*
X121131209Y-66094214D01*
X121131202Y-66094227D01*
X121070864Y-66239898D01*
X121070861Y-66239910D01*
X121040100Y-66394553D01*
X121040100Y-66552246D01*
X121070861Y-66706889D01*
X121070864Y-66706901D01*
X121131202Y-66852572D01*
X121131209Y-66852585D01*
X121218810Y-66983688D01*
X121218813Y-66983692D01*
X121330307Y-67095186D01*
X121330311Y-67095189D01*
X121461414Y-67182790D01*
X121461427Y-67182797D01*
X121607098Y-67243135D01*
X121607103Y-67243137D01*
X121761753Y-67273899D01*
X121761756Y-67273900D01*
X121761758Y-67273900D01*
X121919444Y-67273900D01*
X121919445Y-67273899D01*
X122074097Y-67243137D01*
X122213748Y-67185292D01*
X122219772Y-67182797D01*
X122219772Y-67182796D01*
X122219779Y-67182794D01*
X122350889Y-67095189D01*
X122462389Y-66983689D01*
X122549994Y-66852579D01*
X122610337Y-66706897D01*
X122632366Y-66596153D01*
X122641238Y-66551550D01*
X122673623Y-66489639D01*
X122675119Y-66488115D01*
X125036213Y-64127021D01*
X125036216Y-64127020D01*
X125148020Y-64015216D01*
X125198139Y-63928404D01*
X125227077Y-63878285D01*
X125268000Y-63725558D01*
X125268000Y-63567443D01*
X125268000Y-62524234D01*
X126534500Y-62524234D01*
X126534500Y-62675765D01*
X126573719Y-62822136D01*
X126611602Y-62887750D01*
X126649485Y-62953365D01*
X126756635Y-63060515D01*
X126887865Y-63136281D01*
X127034234Y-63175500D01*
X127034236Y-63175500D01*
X127185764Y-63175500D01*
X127185766Y-63175500D01*
X127332135Y-63136281D01*
X127463365Y-63060515D01*
X127570515Y-62953365D01*
X127646281Y-62822135D01*
X127685500Y-62675766D01*
X127685500Y-62524234D01*
X132314500Y-62524234D01*
X132314500Y-62675765D01*
X132353719Y-62822136D01*
X132391602Y-62887750D01*
X132429485Y-62953365D01*
X132536635Y-63060515D01*
X132667865Y-63136281D01*
X132814234Y-63175500D01*
X132814236Y-63175500D01*
X132965764Y-63175500D01*
X132965766Y-63175500D01*
X133112135Y-63136281D01*
X133243365Y-63060515D01*
X133350515Y-62953365D01*
X133426281Y-62822135D01*
X133465500Y-62675766D01*
X133465500Y-62524234D01*
X133426281Y-62377865D01*
X133350515Y-62246635D01*
X133243365Y-62139485D01*
X133177750Y-62101602D01*
X133112136Y-62063719D01*
X133038950Y-62044109D01*
X132965766Y-62024500D01*
X132814234Y-62024500D01*
X132667863Y-62063719D01*
X132536635Y-62139485D01*
X132536632Y-62139487D01*
X132429487Y-62246632D01*
X132429485Y-62246635D01*
X132353719Y-62377863D01*
X132314500Y-62524234D01*
X127685500Y-62524234D01*
X127646281Y-62377865D01*
X127570515Y-62246635D01*
X127463365Y-62139485D01*
X127397750Y-62101602D01*
X127332136Y-62063719D01*
X127258950Y-62044109D01*
X127185766Y-62024500D01*
X127034234Y-62024500D01*
X126887863Y-62063719D01*
X126756635Y-62139485D01*
X126756632Y-62139487D01*
X126649487Y-62246632D01*
X126649485Y-62246635D01*
X126573719Y-62377863D01*
X126534500Y-62524234D01*
X125268000Y-62524234D01*
X125268000Y-61564003D01*
X125287685Y-61496964D01*
X125340489Y-61451209D01*
X125344548Y-61449442D01*
X125445573Y-61407597D01*
X125445576Y-61407595D01*
X125445579Y-61407594D01*
X125576689Y-61319989D01*
X125688189Y-61208489D01*
X125775794Y-61077379D01*
X125836137Y-60931697D01*
X125866900Y-60777042D01*
X125866900Y-60619358D01*
X125866900Y-60619355D01*
X125866899Y-60619353D01*
X125836138Y-60464710D01*
X125836137Y-60464703D01*
X125836135Y-60464698D01*
X125775797Y-60319027D01*
X125775790Y-60319014D01*
X125688189Y-60187911D01*
X125688186Y-60187907D01*
X125576692Y-60076413D01*
X125576688Y-60076410D01*
X125445585Y-59988809D01*
X125445572Y-59988802D01*
X125299901Y-59928464D01*
X125299889Y-59928461D01*
X125145245Y-59897700D01*
X125145242Y-59897700D01*
X124987558Y-59897700D01*
X124987555Y-59897700D01*
X124832910Y-59928461D01*
X124832898Y-59928464D01*
X124687227Y-59988802D01*
X124687214Y-59988809D01*
X124556111Y-60076410D01*
X124556107Y-60076413D01*
X124444613Y-60187907D01*
X124444610Y-60187911D01*
X124382102Y-60281461D01*
X124328490Y-60326266D01*
X124259165Y-60334973D01*
X124196137Y-60304818D01*
X124159418Y-60245375D01*
X124155000Y-60212570D01*
X124155000Y-56624500D01*
X124174685Y-56557461D01*
X124227489Y-56511706D01*
X124279000Y-56500500D01*
X136375500Y-56500500D01*
X136442539Y-56520185D01*
G37*
%TD.AperFunction*%
%TD*%
M02*
