%TF.GenerationSoftware,KiCad,Pcbnew,10.0.5*%
%TF.CreationDate,2026-07-31T18:56:35+05:30*%
%TF.ProjectId,esp32_project,65737033-325f-4707-926f-6a6563742e6b,rev?*%
%TF.SameCoordinates,Original*%
%TF.FileFunction,Legend,Top*%
%TF.FilePolarity,Positive*%
%FSLAX46Y46*%
G04 Gerber Fmt 4.6, Leading zero omitted, Abs format (unit mm)*
G04 Created by KiCad (PCBNEW 10.0.5) date 2026-07-31 18:56:35*
%MOMM*%
%LPD*%
G01*
G04 APERTURE LIST*
%ADD10C,0.150000*%
%ADD11C,0.300000*%
%ADD12C,0.400000*%
%ADD13C,0.050000*%
%ADD14C,0.125000*%
%ADD15C,0.120000*%
G04 APERTURE END LIST*
D10*
X177002200Y-166007200D02*
X285002200Y-166007200D01*
X285002200Y-198007200D01*
X177002200Y-198007200D01*
X177002200Y-166007200D01*
X10000000Y-10000000D02*
X287002200Y-10000000D01*
X287002200Y-200007200D01*
X10000000Y-200007200D01*
X10000000Y-10000000D01*
X12000000Y-12000000D02*
X285002200Y-12000000D01*
X285002200Y-198007200D01*
X12000000Y-198007200D01*
X12000000Y-12000000D01*
X60000000Y-12000000D02*
X60000000Y-10000000D01*
X110000000Y-12000000D02*
X110000000Y-10000000D01*
X160000000Y-12000000D02*
X160000000Y-10000000D01*
X210000000Y-12000000D02*
X210000000Y-10000000D01*
X260000000Y-12000000D02*
X260000000Y-10000000D01*
X36089160Y-11593604D02*
X35346303Y-11593604D01*
X35717731Y-11593604D02*
X35717731Y-10293604D01*
X35717731Y-10293604D02*
X35593922Y-10479319D01*
X35593922Y-10479319D02*
X35470112Y-10603128D01*
X35470112Y-10603128D02*
X35346303Y-10665033D01*
X85346303Y-10417414D02*
X85408207Y-10355509D01*
X85408207Y-10355509D02*
X85532017Y-10293604D01*
X85532017Y-10293604D02*
X85841541Y-10293604D01*
X85841541Y-10293604D02*
X85965350Y-10355509D01*
X85965350Y-10355509D02*
X86027255Y-10417414D01*
X86027255Y-10417414D02*
X86089160Y-10541223D01*
X86089160Y-10541223D02*
X86089160Y-10665033D01*
X86089160Y-10665033D02*
X86027255Y-10850747D01*
X86027255Y-10850747D02*
X85284398Y-11593604D01*
X85284398Y-11593604D02*
X86089160Y-11593604D01*
X135284398Y-10293604D02*
X136089160Y-10293604D01*
X136089160Y-10293604D02*
X135655826Y-10788842D01*
X135655826Y-10788842D02*
X135841541Y-10788842D01*
X135841541Y-10788842D02*
X135965350Y-10850747D01*
X135965350Y-10850747D02*
X136027255Y-10912652D01*
X136027255Y-10912652D02*
X136089160Y-11036461D01*
X136089160Y-11036461D02*
X136089160Y-11345985D01*
X136089160Y-11345985D02*
X136027255Y-11469795D01*
X136027255Y-11469795D02*
X135965350Y-11531700D01*
X135965350Y-11531700D02*
X135841541Y-11593604D01*
X135841541Y-11593604D02*
X135470112Y-11593604D01*
X135470112Y-11593604D02*
X135346303Y-11531700D01*
X135346303Y-11531700D02*
X135284398Y-11469795D01*
X185965350Y-10726938D02*
X185965350Y-11593604D01*
X185655826Y-10231700D02*
X185346303Y-11160271D01*
X185346303Y-11160271D02*
X186151064Y-11160271D01*
X236027255Y-10293604D02*
X235408207Y-10293604D01*
X235408207Y-10293604D02*
X235346303Y-10912652D01*
X235346303Y-10912652D02*
X235408207Y-10850747D01*
X235408207Y-10850747D02*
X235532017Y-10788842D01*
X235532017Y-10788842D02*
X235841541Y-10788842D01*
X235841541Y-10788842D02*
X235965350Y-10850747D01*
X235965350Y-10850747D02*
X236027255Y-10912652D01*
X236027255Y-10912652D02*
X236089160Y-11036461D01*
X236089160Y-11036461D02*
X236089160Y-11345985D01*
X236089160Y-11345985D02*
X236027255Y-11469795D01*
X236027255Y-11469795D02*
X235965350Y-11531700D01*
X235965350Y-11531700D02*
X235841541Y-11593604D01*
X235841541Y-11593604D02*
X235532017Y-11593604D01*
X235532017Y-11593604D02*
X235408207Y-11531700D01*
X235408207Y-11531700D02*
X235346303Y-11469795D01*
X285965350Y-10293604D02*
X285717731Y-10293604D01*
X285717731Y-10293604D02*
X285593922Y-10355509D01*
X285593922Y-10355509D02*
X285532017Y-10417414D01*
X285532017Y-10417414D02*
X285408207Y-10603128D01*
X285408207Y-10603128D02*
X285346303Y-10850747D01*
X285346303Y-10850747D02*
X285346303Y-11345985D01*
X285346303Y-11345985D02*
X285408207Y-11469795D01*
X285408207Y-11469795D02*
X285470112Y-11531700D01*
X285470112Y-11531700D02*
X285593922Y-11593604D01*
X285593922Y-11593604D02*
X285841541Y-11593604D01*
X285841541Y-11593604D02*
X285965350Y-11531700D01*
X285965350Y-11531700D02*
X286027255Y-11469795D01*
X286027255Y-11469795D02*
X286089160Y-11345985D01*
X286089160Y-11345985D02*
X286089160Y-11036461D01*
X286089160Y-11036461D02*
X286027255Y-10912652D01*
X286027255Y-10912652D02*
X285965350Y-10850747D01*
X285965350Y-10850747D02*
X285841541Y-10788842D01*
X285841541Y-10788842D02*
X285593922Y-10788842D01*
X285593922Y-10788842D02*
X285470112Y-10850747D01*
X285470112Y-10850747D02*
X285408207Y-10912652D01*
X285408207Y-10912652D02*
X285346303Y-11036461D01*
X60000000Y-198007200D02*
X60000000Y-200007200D01*
X110000000Y-198007200D02*
X110000000Y-200007200D01*
X160000000Y-198007200D02*
X160000000Y-200007200D01*
X210000000Y-198007200D02*
X210000000Y-200007200D01*
X260000000Y-198007200D02*
X260000000Y-200007200D01*
X36089160Y-199600804D02*
X35346303Y-199600804D01*
X35717731Y-199600804D02*
X35717731Y-198300804D01*
X35717731Y-198300804D02*
X35593922Y-198486519D01*
X35593922Y-198486519D02*
X35470112Y-198610328D01*
X35470112Y-198610328D02*
X35346303Y-198672233D01*
X85346303Y-198424614D02*
X85408207Y-198362709D01*
X85408207Y-198362709D02*
X85532017Y-198300804D01*
X85532017Y-198300804D02*
X85841541Y-198300804D01*
X85841541Y-198300804D02*
X85965350Y-198362709D01*
X85965350Y-198362709D02*
X86027255Y-198424614D01*
X86027255Y-198424614D02*
X86089160Y-198548423D01*
X86089160Y-198548423D02*
X86089160Y-198672233D01*
X86089160Y-198672233D02*
X86027255Y-198857947D01*
X86027255Y-198857947D02*
X85284398Y-199600804D01*
X85284398Y-199600804D02*
X86089160Y-199600804D01*
X135284398Y-198300804D02*
X136089160Y-198300804D01*
X136089160Y-198300804D02*
X135655826Y-198796042D01*
X135655826Y-198796042D02*
X135841541Y-198796042D01*
X135841541Y-198796042D02*
X135965350Y-198857947D01*
X135965350Y-198857947D02*
X136027255Y-198919852D01*
X136027255Y-198919852D02*
X136089160Y-199043661D01*
X136089160Y-199043661D02*
X136089160Y-199353185D01*
X136089160Y-199353185D02*
X136027255Y-199476995D01*
X136027255Y-199476995D02*
X135965350Y-199538900D01*
X135965350Y-199538900D02*
X135841541Y-199600804D01*
X135841541Y-199600804D02*
X135470112Y-199600804D01*
X135470112Y-199600804D02*
X135346303Y-199538900D01*
X135346303Y-199538900D02*
X135284398Y-199476995D01*
X185965350Y-198734138D02*
X185965350Y-199600804D01*
X185655826Y-198238900D02*
X185346303Y-199167471D01*
X185346303Y-199167471D02*
X186151064Y-199167471D01*
X236027255Y-198300804D02*
X235408207Y-198300804D01*
X235408207Y-198300804D02*
X235346303Y-198919852D01*
X235346303Y-198919852D02*
X235408207Y-198857947D01*
X235408207Y-198857947D02*
X235532017Y-198796042D01*
X235532017Y-198796042D02*
X235841541Y-198796042D01*
X235841541Y-198796042D02*
X235965350Y-198857947D01*
X235965350Y-198857947D02*
X236027255Y-198919852D01*
X236027255Y-198919852D02*
X236089160Y-199043661D01*
X236089160Y-199043661D02*
X236089160Y-199353185D01*
X236089160Y-199353185D02*
X236027255Y-199476995D01*
X236027255Y-199476995D02*
X235965350Y-199538900D01*
X235965350Y-199538900D02*
X235841541Y-199600804D01*
X235841541Y-199600804D02*
X235532017Y-199600804D01*
X235532017Y-199600804D02*
X235408207Y-199538900D01*
X235408207Y-199538900D02*
X235346303Y-199476995D01*
X285965350Y-198300804D02*
X285717731Y-198300804D01*
X285717731Y-198300804D02*
X285593922Y-198362709D01*
X285593922Y-198362709D02*
X285532017Y-198424614D01*
X285532017Y-198424614D02*
X285408207Y-198610328D01*
X285408207Y-198610328D02*
X285346303Y-198857947D01*
X285346303Y-198857947D02*
X285346303Y-199353185D01*
X285346303Y-199353185D02*
X285408207Y-199476995D01*
X285408207Y-199476995D02*
X285470112Y-199538900D01*
X285470112Y-199538900D02*
X285593922Y-199600804D01*
X285593922Y-199600804D02*
X285841541Y-199600804D01*
X285841541Y-199600804D02*
X285965350Y-199538900D01*
X285965350Y-199538900D02*
X286027255Y-199476995D01*
X286027255Y-199476995D02*
X286089160Y-199353185D01*
X286089160Y-199353185D02*
X286089160Y-199043661D01*
X286089160Y-199043661D02*
X286027255Y-198919852D01*
X286027255Y-198919852D02*
X285965350Y-198857947D01*
X285965350Y-198857947D02*
X285841541Y-198796042D01*
X285841541Y-198796042D02*
X285593922Y-198796042D01*
X285593922Y-198796042D02*
X285470112Y-198857947D01*
X285470112Y-198857947D02*
X285408207Y-198919852D01*
X285408207Y-198919852D02*
X285346303Y-199043661D01*
X10000000Y-60000000D02*
X12000000Y-60000000D01*
X10000000Y-110000000D02*
X12000000Y-110000000D01*
X10000000Y-160000000D02*
X12000000Y-160000000D01*
X10690476Y-35222176D02*
X11309523Y-35222176D01*
X10566666Y-35593604D02*
X10999999Y-34293604D01*
X10999999Y-34293604D02*
X11433333Y-35593604D01*
X11092857Y-84912652D02*
X11278571Y-84974557D01*
X11278571Y-84974557D02*
X11340476Y-85036461D01*
X11340476Y-85036461D02*
X11402380Y-85160271D01*
X11402380Y-85160271D02*
X11402380Y-85345985D01*
X11402380Y-85345985D02*
X11340476Y-85469795D01*
X11340476Y-85469795D02*
X11278571Y-85531700D01*
X11278571Y-85531700D02*
X11154761Y-85593604D01*
X11154761Y-85593604D02*
X10659523Y-85593604D01*
X10659523Y-85593604D02*
X10659523Y-84293604D01*
X10659523Y-84293604D02*
X11092857Y-84293604D01*
X11092857Y-84293604D02*
X11216666Y-84355509D01*
X11216666Y-84355509D02*
X11278571Y-84417414D01*
X11278571Y-84417414D02*
X11340476Y-84541223D01*
X11340476Y-84541223D02*
X11340476Y-84665033D01*
X11340476Y-84665033D02*
X11278571Y-84788842D01*
X11278571Y-84788842D02*
X11216666Y-84850747D01*
X11216666Y-84850747D02*
X11092857Y-84912652D01*
X11092857Y-84912652D02*
X10659523Y-84912652D01*
X11402380Y-135469795D02*
X11340476Y-135531700D01*
X11340476Y-135531700D02*
X11154761Y-135593604D01*
X11154761Y-135593604D02*
X11030952Y-135593604D01*
X11030952Y-135593604D02*
X10845238Y-135531700D01*
X10845238Y-135531700D02*
X10721428Y-135407890D01*
X10721428Y-135407890D02*
X10659523Y-135284080D01*
X10659523Y-135284080D02*
X10597619Y-135036461D01*
X10597619Y-135036461D02*
X10597619Y-134850747D01*
X10597619Y-134850747D02*
X10659523Y-134603128D01*
X10659523Y-134603128D02*
X10721428Y-134479319D01*
X10721428Y-134479319D02*
X10845238Y-134355509D01*
X10845238Y-134355509D02*
X11030952Y-134293604D01*
X11030952Y-134293604D02*
X11154761Y-134293604D01*
X11154761Y-134293604D02*
X11340476Y-134355509D01*
X11340476Y-134355509D02*
X11402380Y-134417414D01*
X10659523Y-185593604D02*
X10659523Y-184293604D01*
X10659523Y-184293604D02*
X10969047Y-184293604D01*
X10969047Y-184293604D02*
X11154761Y-184355509D01*
X11154761Y-184355509D02*
X11278571Y-184479319D01*
X11278571Y-184479319D02*
X11340476Y-184603128D01*
X11340476Y-184603128D02*
X11402380Y-184850747D01*
X11402380Y-184850747D02*
X11402380Y-185036461D01*
X11402380Y-185036461D02*
X11340476Y-185284080D01*
X11340476Y-185284080D02*
X11278571Y-185407890D01*
X11278571Y-185407890D02*
X11154761Y-185531700D01*
X11154761Y-185531700D02*
X10969047Y-185593604D01*
X10969047Y-185593604D02*
X10659523Y-185593604D01*
X287002200Y-60000000D02*
X285002200Y-60000000D01*
X287002200Y-110000000D02*
X285002200Y-110000000D01*
X287002200Y-160000000D02*
X285002200Y-160000000D01*
X285692676Y-35222176D02*
X286311723Y-35222176D01*
X285568866Y-35593604D02*
X286002199Y-34293604D01*
X286002199Y-34293604D02*
X286435533Y-35593604D01*
X286095057Y-84912652D02*
X286280771Y-84974557D01*
X286280771Y-84974557D02*
X286342676Y-85036461D01*
X286342676Y-85036461D02*
X286404580Y-85160271D01*
X286404580Y-85160271D02*
X286404580Y-85345985D01*
X286404580Y-85345985D02*
X286342676Y-85469795D01*
X286342676Y-85469795D02*
X286280771Y-85531700D01*
X286280771Y-85531700D02*
X286156961Y-85593604D01*
X286156961Y-85593604D02*
X285661723Y-85593604D01*
X285661723Y-85593604D02*
X285661723Y-84293604D01*
X285661723Y-84293604D02*
X286095057Y-84293604D01*
X286095057Y-84293604D02*
X286218866Y-84355509D01*
X286218866Y-84355509D02*
X286280771Y-84417414D01*
X286280771Y-84417414D02*
X286342676Y-84541223D01*
X286342676Y-84541223D02*
X286342676Y-84665033D01*
X286342676Y-84665033D02*
X286280771Y-84788842D01*
X286280771Y-84788842D02*
X286218866Y-84850747D01*
X286218866Y-84850747D02*
X286095057Y-84912652D01*
X286095057Y-84912652D02*
X285661723Y-84912652D01*
X286404580Y-135469795D02*
X286342676Y-135531700D01*
X286342676Y-135531700D02*
X286156961Y-135593604D01*
X286156961Y-135593604D02*
X286033152Y-135593604D01*
X286033152Y-135593604D02*
X285847438Y-135531700D01*
X285847438Y-135531700D02*
X285723628Y-135407890D01*
X285723628Y-135407890D02*
X285661723Y-135284080D01*
X285661723Y-135284080D02*
X285599819Y-135036461D01*
X285599819Y-135036461D02*
X285599819Y-134850747D01*
X285599819Y-134850747D02*
X285661723Y-134603128D01*
X285661723Y-134603128D02*
X285723628Y-134479319D01*
X285723628Y-134479319D02*
X285847438Y-134355509D01*
X285847438Y-134355509D02*
X286033152Y-134293604D01*
X286033152Y-134293604D02*
X286156961Y-134293604D01*
X286156961Y-134293604D02*
X286342676Y-134355509D01*
X286342676Y-134355509D02*
X286404580Y-134417414D01*
X285661723Y-185593604D02*
X285661723Y-184293604D01*
X285661723Y-184293604D02*
X285971247Y-184293604D01*
X285971247Y-184293604D02*
X286156961Y-184355509D01*
X286156961Y-184355509D02*
X286280771Y-184479319D01*
X286280771Y-184479319D02*
X286342676Y-184603128D01*
X286342676Y-184603128D02*
X286404580Y-184850747D01*
X286404580Y-184850747D02*
X286404580Y-185036461D01*
X286404580Y-185036461D02*
X286342676Y-185284080D01*
X286342676Y-185284080D02*
X286280771Y-185407890D01*
X286280771Y-185407890D02*
X286156961Y-185531700D01*
X286156961Y-185531700D02*
X285971247Y-185593604D01*
X285971247Y-185593604D02*
X285661723Y-185593604D01*
X200458026Y-193793328D02*
X200458026Y-192293328D01*
X200458026Y-192293328D02*
X200815169Y-192293328D01*
X200815169Y-192293328D02*
X201029455Y-192364757D01*
X201029455Y-192364757D02*
X201172312Y-192507614D01*
X201172312Y-192507614D02*
X201243741Y-192650471D01*
X201243741Y-192650471D02*
X201315169Y-192936185D01*
X201315169Y-192936185D02*
X201315169Y-193150471D01*
X201315169Y-193150471D02*
X201243741Y-193436185D01*
X201243741Y-193436185D02*
X201172312Y-193579042D01*
X201172312Y-193579042D02*
X201029455Y-193721900D01*
X201029455Y-193721900D02*
X200815169Y-193793328D01*
X200815169Y-193793328D02*
X200458026Y-193793328D01*
X202600884Y-193793328D02*
X202600884Y-193007614D01*
X202600884Y-193007614D02*
X202529455Y-192864757D01*
X202529455Y-192864757D02*
X202386598Y-192793328D01*
X202386598Y-192793328D02*
X202100884Y-192793328D01*
X202100884Y-192793328D02*
X201958026Y-192864757D01*
X202600884Y-193721900D02*
X202458026Y-193793328D01*
X202458026Y-193793328D02*
X202100884Y-193793328D01*
X202100884Y-193793328D02*
X201958026Y-193721900D01*
X201958026Y-193721900D02*
X201886598Y-193579042D01*
X201886598Y-193579042D02*
X201886598Y-193436185D01*
X201886598Y-193436185D02*
X201958026Y-193293328D01*
X201958026Y-193293328D02*
X202100884Y-193221900D01*
X202100884Y-193221900D02*
X202458026Y-193221900D01*
X202458026Y-193221900D02*
X202600884Y-193150471D01*
X203100884Y-192793328D02*
X203672312Y-192793328D01*
X203315169Y-192293328D02*
X203315169Y-193579042D01*
X203315169Y-193579042D02*
X203386598Y-193721900D01*
X203386598Y-193721900D02*
X203529455Y-193793328D01*
X203529455Y-193793328D02*
X203672312Y-193793328D01*
X204743741Y-193721900D02*
X204600884Y-193793328D01*
X204600884Y-193793328D02*
X204315170Y-193793328D01*
X204315170Y-193793328D02*
X204172312Y-193721900D01*
X204172312Y-193721900D02*
X204100884Y-193579042D01*
X204100884Y-193579042D02*
X204100884Y-193007614D01*
X204100884Y-193007614D02*
X204172312Y-192864757D01*
X204172312Y-192864757D02*
X204315170Y-192793328D01*
X204315170Y-192793328D02*
X204600884Y-192793328D01*
X204600884Y-192793328D02*
X204743741Y-192864757D01*
X204743741Y-192864757D02*
X204815170Y-193007614D01*
X204815170Y-193007614D02*
X204815170Y-193150471D01*
X204815170Y-193150471D02*
X204100884Y-193293328D01*
X205458026Y-193650471D02*
X205529455Y-193721900D01*
X205529455Y-193721900D02*
X205458026Y-193793328D01*
X205458026Y-193793328D02*
X205386598Y-193721900D01*
X205386598Y-193721900D02*
X205458026Y-193650471D01*
X205458026Y-193650471D02*
X205458026Y-193793328D01*
X205458026Y-192864757D02*
X205529455Y-192936185D01*
X205529455Y-192936185D02*
X205458026Y-193007614D01*
X205458026Y-193007614D02*
X205386598Y-192936185D01*
X205386598Y-192936185D02*
X205458026Y-192864757D01*
X205458026Y-192864757D02*
X205458026Y-193007614D01*
X177002200Y-194507200D02*
X285002200Y-194507200D01*
X178458026Y-196593328D02*
X178458026Y-195093328D01*
X179315169Y-196593328D02*
X178672312Y-195736185D01*
X179315169Y-195093328D02*
X178458026Y-195950471D01*
X179958026Y-196593328D02*
X179958026Y-195593328D01*
X179958026Y-195093328D02*
X179886598Y-195164757D01*
X179886598Y-195164757D02*
X179958026Y-195236185D01*
X179958026Y-195236185D02*
X180029455Y-195164757D01*
X180029455Y-195164757D02*
X179958026Y-195093328D01*
X179958026Y-195093328D02*
X179958026Y-195236185D01*
X181529455Y-196450471D02*
X181458027Y-196521900D01*
X181458027Y-196521900D02*
X181243741Y-196593328D01*
X181243741Y-196593328D02*
X181100884Y-196593328D01*
X181100884Y-196593328D02*
X180886598Y-196521900D01*
X180886598Y-196521900D02*
X180743741Y-196379042D01*
X180743741Y-196379042D02*
X180672312Y-196236185D01*
X180672312Y-196236185D02*
X180600884Y-195950471D01*
X180600884Y-195950471D02*
X180600884Y-195736185D01*
X180600884Y-195736185D02*
X180672312Y-195450471D01*
X180672312Y-195450471D02*
X180743741Y-195307614D01*
X180743741Y-195307614D02*
X180886598Y-195164757D01*
X180886598Y-195164757D02*
X181100884Y-195093328D01*
X181100884Y-195093328D02*
X181243741Y-195093328D01*
X181243741Y-195093328D02*
X181458027Y-195164757D01*
X181458027Y-195164757D02*
X181529455Y-195236185D01*
X182815170Y-196593328D02*
X182815170Y-195807614D01*
X182815170Y-195807614D02*
X182743741Y-195664757D01*
X182743741Y-195664757D02*
X182600884Y-195593328D01*
X182600884Y-195593328D02*
X182315170Y-195593328D01*
X182315170Y-195593328D02*
X182172312Y-195664757D01*
X182815170Y-196521900D02*
X182672312Y-196593328D01*
X182672312Y-196593328D02*
X182315170Y-196593328D01*
X182315170Y-196593328D02*
X182172312Y-196521900D01*
X182172312Y-196521900D02*
X182100884Y-196379042D01*
X182100884Y-196379042D02*
X182100884Y-196236185D01*
X182100884Y-196236185D02*
X182172312Y-196093328D01*
X182172312Y-196093328D02*
X182315170Y-196021900D01*
X182315170Y-196021900D02*
X182672312Y-196021900D01*
X182672312Y-196021900D02*
X182815170Y-195950471D01*
X184172313Y-196593328D02*
X184172313Y-195093328D01*
X184172313Y-196521900D02*
X184029455Y-196593328D01*
X184029455Y-196593328D02*
X183743741Y-196593328D01*
X183743741Y-196593328D02*
X183600884Y-196521900D01*
X183600884Y-196521900D02*
X183529455Y-196450471D01*
X183529455Y-196450471D02*
X183458027Y-196307614D01*
X183458027Y-196307614D02*
X183458027Y-195879042D01*
X183458027Y-195879042D02*
X183529455Y-195736185D01*
X183529455Y-195736185D02*
X183600884Y-195664757D01*
X183600884Y-195664757D02*
X183743741Y-195593328D01*
X183743741Y-195593328D02*
X184029455Y-195593328D01*
X184029455Y-195593328D02*
X184172313Y-195664757D01*
X186029455Y-195807614D02*
X186529455Y-195807614D01*
X186743741Y-196593328D02*
X186029455Y-196593328D01*
X186029455Y-196593328D02*
X186029455Y-195093328D01*
X186029455Y-195093328D02*
X186743741Y-195093328D01*
X187386598Y-196450471D02*
X187458027Y-196521900D01*
X187458027Y-196521900D02*
X187386598Y-196593328D01*
X187386598Y-196593328D02*
X187315170Y-196521900D01*
X187315170Y-196521900D02*
X187386598Y-196450471D01*
X187386598Y-196450471D02*
X187386598Y-196593328D01*
X188100884Y-196593328D02*
X188100884Y-195093328D01*
X188100884Y-195093328D02*
X188458027Y-195093328D01*
X188458027Y-195093328D02*
X188672313Y-195164757D01*
X188672313Y-195164757D02*
X188815170Y-195307614D01*
X188815170Y-195307614D02*
X188886599Y-195450471D01*
X188886599Y-195450471D02*
X188958027Y-195736185D01*
X188958027Y-195736185D02*
X188958027Y-195950471D01*
X188958027Y-195950471D02*
X188886599Y-196236185D01*
X188886599Y-196236185D02*
X188815170Y-196379042D01*
X188815170Y-196379042D02*
X188672313Y-196521900D01*
X188672313Y-196521900D02*
X188458027Y-196593328D01*
X188458027Y-196593328D02*
X188100884Y-196593328D01*
X189600884Y-196450471D02*
X189672313Y-196521900D01*
X189672313Y-196521900D02*
X189600884Y-196593328D01*
X189600884Y-196593328D02*
X189529456Y-196521900D01*
X189529456Y-196521900D02*
X189600884Y-196450471D01*
X189600884Y-196450471D02*
X189600884Y-196593328D01*
X190243742Y-196164757D02*
X190958028Y-196164757D01*
X190100885Y-196593328D02*
X190600885Y-195093328D01*
X190600885Y-195093328D02*
X191100885Y-196593328D01*
X191600884Y-196450471D02*
X191672313Y-196521900D01*
X191672313Y-196521900D02*
X191600884Y-196593328D01*
X191600884Y-196593328D02*
X191529456Y-196521900D01*
X191529456Y-196521900D02*
X191600884Y-196450471D01*
X191600884Y-196450471D02*
X191600884Y-196593328D01*
X194243742Y-196593328D02*
X193386599Y-196593328D01*
X193815170Y-196593328D02*
X193815170Y-195093328D01*
X193815170Y-195093328D02*
X193672313Y-195307614D01*
X193672313Y-195307614D02*
X193529456Y-195450471D01*
X193529456Y-195450471D02*
X193386599Y-195521900D01*
X195172313Y-195093328D02*
X195315170Y-195093328D01*
X195315170Y-195093328D02*
X195458027Y-195164757D01*
X195458027Y-195164757D02*
X195529456Y-195236185D01*
X195529456Y-195236185D02*
X195600884Y-195379042D01*
X195600884Y-195379042D02*
X195672313Y-195664757D01*
X195672313Y-195664757D02*
X195672313Y-196021900D01*
X195672313Y-196021900D02*
X195600884Y-196307614D01*
X195600884Y-196307614D02*
X195529456Y-196450471D01*
X195529456Y-196450471D02*
X195458027Y-196521900D01*
X195458027Y-196521900D02*
X195315170Y-196593328D01*
X195315170Y-196593328D02*
X195172313Y-196593328D01*
X195172313Y-196593328D02*
X195029456Y-196521900D01*
X195029456Y-196521900D02*
X194958027Y-196450471D01*
X194958027Y-196450471D02*
X194886598Y-196307614D01*
X194886598Y-196307614D02*
X194815170Y-196021900D01*
X194815170Y-196021900D02*
X194815170Y-195664757D01*
X194815170Y-195664757D02*
X194886598Y-195379042D01*
X194886598Y-195379042D02*
X194958027Y-195236185D01*
X194958027Y-195236185D02*
X195029456Y-195164757D01*
X195029456Y-195164757D02*
X195172313Y-195093328D01*
X196315169Y-196450471D02*
X196386598Y-196521900D01*
X196386598Y-196521900D02*
X196315169Y-196593328D01*
X196315169Y-196593328D02*
X196243741Y-196521900D01*
X196243741Y-196521900D02*
X196315169Y-196450471D01*
X196315169Y-196450471D02*
X196315169Y-196593328D01*
X197315170Y-195093328D02*
X197458027Y-195093328D01*
X197458027Y-195093328D02*
X197600884Y-195164757D01*
X197600884Y-195164757D02*
X197672313Y-195236185D01*
X197672313Y-195236185D02*
X197743741Y-195379042D01*
X197743741Y-195379042D02*
X197815170Y-195664757D01*
X197815170Y-195664757D02*
X197815170Y-196021900D01*
X197815170Y-196021900D02*
X197743741Y-196307614D01*
X197743741Y-196307614D02*
X197672313Y-196450471D01*
X197672313Y-196450471D02*
X197600884Y-196521900D01*
X197600884Y-196521900D02*
X197458027Y-196593328D01*
X197458027Y-196593328D02*
X197315170Y-196593328D01*
X197315170Y-196593328D02*
X197172313Y-196521900D01*
X197172313Y-196521900D02*
X197100884Y-196450471D01*
X197100884Y-196450471D02*
X197029455Y-196307614D01*
X197029455Y-196307614D02*
X196958027Y-196021900D01*
X196958027Y-196021900D02*
X196958027Y-195664757D01*
X196958027Y-195664757D02*
X197029455Y-195379042D01*
X197029455Y-195379042D02*
X197100884Y-195236185D01*
X197100884Y-195236185D02*
X197172313Y-195164757D01*
X197172313Y-195164757D02*
X197315170Y-195093328D01*
X198458026Y-196450471D02*
X198529455Y-196521900D01*
X198529455Y-196521900D02*
X198458026Y-196593328D01*
X198458026Y-196593328D02*
X198386598Y-196521900D01*
X198386598Y-196521900D02*
X198458026Y-196450471D01*
X198458026Y-196450471D02*
X198458026Y-196593328D01*
X199886598Y-195093328D02*
X199172312Y-195093328D01*
X199172312Y-195093328D02*
X199100884Y-195807614D01*
X199100884Y-195807614D02*
X199172312Y-195736185D01*
X199172312Y-195736185D02*
X199315170Y-195664757D01*
X199315170Y-195664757D02*
X199672312Y-195664757D01*
X199672312Y-195664757D02*
X199815170Y-195736185D01*
X199815170Y-195736185D02*
X199886598Y-195807614D01*
X199886598Y-195807614D02*
X199958027Y-195950471D01*
X199958027Y-195950471D02*
X199958027Y-196307614D01*
X199958027Y-196307614D02*
X199886598Y-196450471D01*
X199886598Y-196450471D02*
X199815170Y-196521900D01*
X199815170Y-196521900D02*
X199672312Y-196593328D01*
X199672312Y-196593328D02*
X199315170Y-196593328D01*
X199315170Y-196593328D02*
X199172312Y-196521900D01*
X199172312Y-196521900D02*
X199100884Y-196450471D01*
X177002200Y-191507200D02*
X285002200Y-191507200D01*
D11*
X264413853Y-193785528D02*
X263913853Y-193071242D01*
X263556710Y-193785528D02*
X263556710Y-192285528D01*
X263556710Y-192285528D02*
X264128139Y-192285528D01*
X264128139Y-192285528D02*
X264270996Y-192356957D01*
X264270996Y-192356957D02*
X264342425Y-192428385D01*
X264342425Y-192428385D02*
X264413853Y-192571242D01*
X264413853Y-192571242D02*
X264413853Y-192785528D01*
X264413853Y-192785528D02*
X264342425Y-192928385D01*
X264342425Y-192928385D02*
X264270996Y-192999814D01*
X264270996Y-192999814D02*
X264128139Y-193071242D01*
X264128139Y-193071242D02*
X263556710Y-193071242D01*
X265628139Y-193714100D02*
X265485282Y-193785528D01*
X265485282Y-193785528D02*
X265199568Y-193785528D01*
X265199568Y-193785528D02*
X265056710Y-193714100D01*
X265056710Y-193714100D02*
X264985282Y-193571242D01*
X264985282Y-193571242D02*
X264985282Y-192999814D01*
X264985282Y-192999814D02*
X265056710Y-192856957D01*
X265056710Y-192856957D02*
X265199568Y-192785528D01*
X265199568Y-192785528D02*
X265485282Y-192785528D01*
X265485282Y-192785528D02*
X265628139Y-192856957D01*
X265628139Y-192856957D02*
X265699568Y-192999814D01*
X265699568Y-192999814D02*
X265699568Y-193142671D01*
X265699568Y-193142671D02*
X264985282Y-193285528D01*
X266199567Y-192785528D02*
X266556710Y-193785528D01*
X266556710Y-193785528D02*
X266913853Y-192785528D01*
X267485281Y-193642671D02*
X267556710Y-193714100D01*
X267556710Y-193714100D02*
X267485281Y-193785528D01*
X267485281Y-193785528D02*
X267413853Y-193714100D01*
X267413853Y-193714100D02*
X267485281Y-193642671D01*
X267485281Y-193642671D02*
X267485281Y-193785528D01*
X267485281Y-192856957D02*
X267556710Y-192928385D01*
X267556710Y-192928385D02*
X267485281Y-192999814D01*
X267485281Y-192999814D02*
X267413853Y-192928385D01*
X267413853Y-192928385D02*
X267485281Y-192856957D01*
X267485281Y-192856957D02*
X267485281Y-192999814D01*
D10*
X178386598Y-193721900D02*
X178600884Y-193793328D01*
X178600884Y-193793328D02*
X178958026Y-193793328D01*
X178958026Y-193793328D02*
X179100884Y-193721900D01*
X179100884Y-193721900D02*
X179172312Y-193650471D01*
X179172312Y-193650471D02*
X179243741Y-193507614D01*
X179243741Y-193507614D02*
X179243741Y-193364757D01*
X179243741Y-193364757D02*
X179172312Y-193221900D01*
X179172312Y-193221900D02*
X179100884Y-193150471D01*
X179100884Y-193150471D02*
X178958026Y-193079042D01*
X178958026Y-193079042D02*
X178672312Y-193007614D01*
X178672312Y-193007614D02*
X178529455Y-192936185D01*
X178529455Y-192936185D02*
X178458026Y-192864757D01*
X178458026Y-192864757D02*
X178386598Y-192721900D01*
X178386598Y-192721900D02*
X178386598Y-192579042D01*
X178386598Y-192579042D02*
X178458026Y-192436185D01*
X178458026Y-192436185D02*
X178529455Y-192364757D01*
X178529455Y-192364757D02*
X178672312Y-192293328D01*
X178672312Y-192293328D02*
X179029455Y-192293328D01*
X179029455Y-192293328D02*
X179243741Y-192364757D01*
X179886597Y-193793328D02*
X179886597Y-192793328D01*
X179886597Y-192293328D02*
X179815169Y-192364757D01*
X179815169Y-192364757D02*
X179886597Y-192436185D01*
X179886597Y-192436185D02*
X179958026Y-192364757D01*
X179958026Y-192364757D02*
X179886597Y-192293328D01*
X179886597Y-192293328D02*
X179886597Y-192436185D01*
X180458026Y-192793328D02*
X181243741Y-192793328D01*
X181243741Y-192793328D02*
X180458026Y-193793328D01*
X180458026Y-193793328D02*
X181243741Y-193793328D01*
X182386598Y-193721900D02*
X182243741Y-193793328D01*
X182243741Y-193793328D02*
X181958027Y-193793328D01*
X181958027Y-193793328D02*
X181815169Y-193721900D01*
X181815169Y-193721900D02*
X181743741Y-193579042D01*
X181743741Y-193579042D02*
X181743741Y-193007614D01*
X181743741Y-193007614D02*
X181815169Y-192864757D01*
X181815169Y-192864757D02*
X181958027Y-192793328D01*
X181958027Y-192793328D02*
X182243741Y-192793328D01*
X182243741Y-192793328D02*
X182386598Y-192864757D01*
X182386598Y-192864757D02*
X182458027Y-193007614D01*
X182458027Y-193007614D02*
X182458027Y-193150471D01*
X182458027Y-193150471D02*
X181743741Y-193293328D01*
X183100883Y-193650471D02*
X183172312Y-193721900D01*
X183172312Y-193721900D02*
X183100883Y-193793328D01*
X183100883Y-193793328D02*
X183029455Y-193721900D01*
X183029455Y-193721900D02*
X183100883Y-193650471D01*
X183100883Y-193650471D02*
X183100883Y-193793328D01*
X183100883Y-192864757D02*
X183172312Y-192936185D01*
X183172312Y-192936185D02*
X183100883Y-193007614D01*
X183100883Y-193007614D02*
X183029455Y-192936185D01*
X183029455Y-192936185D02*
X183100883Y-192864757D01*
X183100883Y-192864757D02*
X183100883Y-193007614D01*
X184886598Y-193364757D02*
X185600884Y-193364757D01*
X184743741Y-193793328D02*
X185243741Y-192293328D01*
X185243741Y-192293328D02*
X185743741Y-193793328D01*
X186886598Y-192793328D02*
X186886598Y-193793328D01*
X186529455Y-192221900D02*
X186172312Y-193293328D01*
X186172312Y-193293328D02*
X187100883Y-193293328D01*
X263458026Y-196593328D02*
X263458026Y-195093328D01*
X264815170Y-196593328D02*
X264815170Y-195093328D01*
X264815170Y-196521900D02*
X264672312Y-196593328D01*
X264672312Y-196593328D02*
X264386598Y-196593328D01*
X264386598Y-196593328D02*
X264243741Y-196521900D01*
X264243741Y-196521900D02*
X264172312Y-196450471D01*
X264172312Y-196450471D02*
X264100884Y-196307614D01*
X264100884Y-196307614D02*
X264100884Y-195879042D01*
X264100884Y-195879042D02*
X264172312Y-195736185D01*
X264172312Y-195736185D02*
X264243741Y-195664757D01*
X264243741Y-195664757D02*
X264386598Y-195593328D01*
X264386598Y-195593328D02*
X264672312Y-195593328D01*
X264672312Y-195593328D02*
X264815170Y-195664757D01*
X265529455Y-196450471D02*
X265600884Y-196521900D01*
X265600884Y-196521900D02*
X265529455Y-196593328D01*
X265529455Y-196593328D02*
X265458027Y-196521900D01*
X265458027Y-196521900D02*
X265529455Y-196450471D01*
X265529455Y-196450471D02*
X265529455Y-196593328D01*
X265529455Y-195664757D02*
X265600884Y-195736185D01*
X265600884Y-195736185D02*
X265529455Y-195807614D01*
X265529455Y-195807614D02*
X265458027Y-195736185D01*
X265458027Y-195736185D02*
X265529455Y-195664757D01*
X265529455Y-195664757D02*
X265529455Y-195807614D01*
X268100884Y-195093328D02*
X267386598Y-195093328D01*
X267386598Y-195093328D02*
X267315170Y-195807614D01*
X267315170Y-195807614D02*
X267386598Y-195736185D01*
X267386598Y-195736185D02*
X267529456Y-195664757D01*
X267529456Y-195664757D02*
X267886598Y-195664757D01*
X267886598Y-195664757D02*
X268029456Y-195736185D01*
X268029456Y-195736185D02*
X268100884Y-195807614D01*
X268100884Y-195807614D02*
X268172313Y-195950471D01*
X268172313Y-195950471D02*
X268172313Y-196307614D01*
X268172313Y-196307614D02*
X268100884Y-196450471D01*
X268100884Y-196450471D02*
X268029456Y-196521900D01*
X268029456Y-196521900D02*
X267886598Y-196593328D01*
X267886598Y-196593328D02*
X267529456Y-196593328D01*
X267529456Y-196593328D02*
X267386598Y-196521900D01*
X267386598Y-196521900D02*
X267315170Y-196450471D01*
X269886598Y-195021900D02*
X268600884Y-196950471D01*
X271172313Y-196593328D02*
X270315170Y-196593328D01*
X270743741Y-196593328D02*
X270743741Y-195093328D01*
X270743741Y-195093328D02*
X270600884Y-195307614D01*
X270600884Y-195307614D02*
X270458027Y-195450471D01*
X270458027Y-195450471D02*
X270315170Y-195521900D01*
X272100884Y-195093328D02*
X272243741Y-195093328D01*
X272243741Y-195093328D02*
X272386598Y-195164757D01*
X272386598Y-195164757D02*
X272458027Y-195236185D01*
X272458027Y-195236185D02*
X272529455Y-195379042D01*
X272529455Y-195379042D02*
X272600884Y-195664757D01*
X272600884Y-195664757D02*
X272600884Y-196021900D01*
X272600884Y-196021900D02*
X272529455Y-196307614D01*
X272529455Y-196307614D02*
X272458027Y-196450471D01*
X272458027Y-196450471D02*
X272386598Y-196521900D01*
X272386598Y-196521900D02*
X272243741Y-196593328D01*
X272243741Y-196593328D02*
X272100884Y-196593328D01*
X272100884Y-196593328D02*
X271958027Y-196521900D01*
X271958027Y-196521900D02*
X271886598Y-196450471D01*
X271886598Y-196450471D02*
X271815169Y-196307614D01*
X271815169Y-196307614D02*
X271743741Y-196021900D01*
X271743741Y-196021900D02*
X271743741Y-195664757D01*
X271743741Y-195664757D02*
X271815169Y-195379042D01*
X271815169Y-195379042D02*
X271886598Y-195236185D01*
X271886598Y-195236185D02*
X271958027Y-195164757D01*
X271958027Y-195164757D02*
X272100884Y-195093328D01*
X177002200Y-187507200D02*
X285002200Y-187507200D01*
D12*
X178693928Y-188211638D02*
X179836785Y-188211638D01*
X179015357Y-190211638D02*
X179265357Y-188211638D01*
X180253452Y-190211638D02*
X180420119Y-188878304D01*
X180503452Y-188211638D02*
X180396309Y-188306876D01*
X180396309Y-188306876D02*
X180479643Y-188402114D01*
X180479643Y-188402114D02*
X180586786Y-188306876D01*
X180586786Y-188306876D02*
X180503452Y-188211638D01*
X180503452Y-188211638D02*
X180479643Y-188402114D01*
X181086786Y-188878304D02*
X181848690Y-188878304D01*
X181455833Y-188211638D02*
X181241548Y-189925923D01*
X181241548Y-189925923D02*
X181312976Y-190116400D01*
X181312976Y-190116400D02*
X181491548Y-190211638D01*
X181491548Y-190211638D02*
X181682024Y-190211638D01*
X182634405Y-190211638D02*
X182455833Y-190116400D01*
X182455833Y-190116400D02*
X182384405Y-189925923D01*
X182384405Y-189925923D02*
X182598690Y-188211638D01*
X184170119Y-190116400D02*
X183967738Y-190211638D01*
X183967738Y-190211638D02*
X183586785Y-190211638D01*
X183586785Y-190211638D02*
X183408214Y-190116400D01*
X183408214Y-190116400D02*
X183336785Y-189925923D01*
X183336785Y-189925923D02*
X183432024Y-189164019D01*
X183432024Y-189164019D02*
X183551071Y-188973542D01*
X183551071Y-188973542D02*
X183753452Y-188878304D01*
X183753452Y-188878304D02*
X184134404Y-188878304D01*
X184134404Y-188878304D02*
X184312976Y-188973542D01*
X184312976Y-188973542D02*
X184384404Y-189164019D01*
X184384404Y-189164019D02*
X184360595Y-189354495D01*
X184360595Y-189354495D02*
X183384404Y-189544971D01*
X185134405Y-190021161D02*
X185217738Y-190116400D01*
X185217738Y-190116400D02*
X185110595Y-190211638D01*
X185110595Y-190211638D02*
X185027262Y-190116400D01*
X185027262Y-190116400D02*
X185134405Y-190021161D01*
X185134405Y-190021161D02*
X185110595Y-190211638D01*
X185265357Y-188973542D02*
X185348690Y-189068780D01*
X185348690Y-189068780D02*
X185241548Y-189164019D01*
X185241548Y-189164019D02*
X185158214Y-189068780D01*
X185158214Y-189068780D02*
X185265357Y-188973542D01*
X185265357Y-188973542D02*
X185241548Y-189164019D01*
D10*
X178958026Y-185607614D02*
X178458026Y-185607614D01*
X178458026Y-186393328D02*
X178458026Y-184893328D01*
X178458026Y-184893328D02*
X179172312Y-184893328D01*
X179743740Y-186393328D02*
X179743740Y-185393328D01*
X179743740Y-184893328D02*
X179672312Y-184964757D01*
X179672312Y-184964757D02*
X179743740Y-185036185D01*
X179743740Y-185036185D02*
X179815169Y-184964757D01*
X179815169Y-184964757D02*
X179743740Y-184893328D01*
X179743740Y-184893328D02*
X179743740Y-185036185D01*
X180672312Y-186393328D02*
X180529455Y-186321900D01*
X180529455Y-186321900D02*
X180458026Y-186179042D01*
X180458026Y-186179042D02*
X180458026Y-184893328D01*
X181815169Y-186321900D02*
X181672312Y-186393328D01*
X181672312Y-186393328D02*
X181386598Y-186393328D01*
X181386598Y-186393328D02*
X181243740Y-186321900D01*
X181243740Y-186321900D02*
X181172312Y-186179042D01*
X181172312Y-186179042D02*
X181172312Y-185607614D01*
X181172312Y-185607614D02*
X181243740Y-185464757D01*
X181243740Y-185464757D02*
X181386598Y-185393328D01*
X181386598Y-185393328D02*
X181672312Y-185393328D01*
X181672312Y-185393328D02*
X181815169Y-185464757D01*
X181815169Y-185464757D02*
X181886598Y-185607614D01*
X181886598Y-185607614D02*
X181886598Y-185750471D01*
X181886598Y-185750471D02*
X181172312Y-185893328D01*
X182529454Y-186250471D02*
X182600883Y-186321900D01*
X182600883Y-186321900D02*
X182529454Y-186393328D01*
X182529454Y-186393328D02*
X182458026Y-186321900D01*
X182458026Y-186321900D02*
X182529454Y-186250471D01*
X182529454Y-186250471D02*
X182529454Y-186393328D01*
X182529454Y-185464757D02*
X182600883Y-185536185D01*
X182600883Y-185536185D02*
X182529454Y-185607614D01*
X182529454Y-185607614D02*
X182458026Y-185536185D01*
X182458026Y-185536185D02*
X182529454Y-185464757D01*
X182529454Y-185464757D02*
X182529454Y-185607614D01*
X184958026Y-186321900D02*
X184815169Y-186393328D01*
X184815169Y-186393328D02*
X184529455Y-186393328D01*
X184529455Y-186393328D02*
X184386597Y-186321900D01*
X184386597Y-186321900D02*
X184315169Y-186179042D01*
X184315169Y-186179042D02*
X184315169Y-185607614D01*
X184315169Y-185607614D02*
X184386597Y-185464757D01*
X184386597Y-185464757D02*
X184529455Y-185393328D01*
X184529455Y-185393328D02*
X184815169Y-185393328D01*
X184815169Y-185393328D02*
X184958026Y-185464757D01*
X184958026Y-185464757D02*
X185029455Y-185607614D01*
X185029455Y-185607614D02*
X185029455Y-185750471D01*
X185029455Y-185750471D02*
X184315169Y-185893328D01*
X185600883Y-186321900D02*
X185743740Y-186393328D01*
X185743740Y-186393328D02*
X186029454Y-186393328D01*
X186029454Y-186393328D02*
X186172311Y-186321900D01*
X186172311Y-186321900D02*
X186243740Y-186179042D01*
X186243740Y-186179042D02*
X186243740Y-186107614D01*
X186243740Y-186107614D02*
X186172311Y-185964757D01*
X186172311Y-185964757D02*
X186029454Y-185893328D01*
X186029454Y-185893328D02*
X185815169Y-185893328D01*
X185815169Y-185893328D02*
X185672311Y-185821900D01*
X185672311Y-185821900D02*
X185600883Y-185679042D01*
X185600883Y-185679042D02*
X185600883Y-185607614D01*
X185600883Y-185607614D02*
X185672311Y-185464757D01*
X185672311Y-185464757D02*
X185815169Y-185393328D01*
X185815169Y-185393328D02*
X186029454Y-185393328D01*
X186029454Y-185393328D02*
X186172311Y-185464757D01*
X186886597Y-185393328D02*
X186886597Y-186893328D01*
X186886597Y-185464757D02*
X187029455Y-185393328D01*
X187029455Y-185393328D02*
X187315169Y-185393328D01*
X187315169Y-185393328D02*
X187458026Y-185464757D01*
X187458026Y-185464757D02*
X187529455Y-185536185D01*
X187529455Y-185536185D02*
X187600883Y-185679042D01*
X187600883Y-185679042D02*
X187600883Y-186107614D01*
X187600883Y-186107614D02*
X187529455Y-186250471D01*
X187529455Y-186250471D02*
X187458026Y-186321900D01*
X187458026Y-186321900D02*
X187315169Y-186393328D01*
X187315169Y-186393328D02*
X187029455Y-186393328D01*
X187029455Y-186393328D02*
X186886597Y-186321900D01*
X188100883Y-184893328D02*
X189029455Y-184893328D01*
X189029455Y-184893328D02*
X188529455Y-185464757D01*
X188529455Y-185464757D02*
X188743740Y-185464757D01*
X188743740Y-185464757D02*
X188886598Y-185536185D01*
X188886598Y-185536185D02*
X188958026Y-185607614D01*
X188958026Y-185607614D02*
X189029455Y-185750471D01*
X189029455Y-185750471D02*
X189029455Y-186107614D01*
X189029455Y-186107614D02*
X188958026Y-186250471D01*
X188958026Y-186250471D02*
X188886598Y-186321900D01*
X188886598Y-186321900D02*
X188743740Y-186393328D01*
X188743740Y-186393328D02*
X188315169Y-186393328D01*
X188315169Y-186393328D02*
X188172312Y-186321900D01*
X188172312Y-186321900D02*
X188100883Y-186250471D01*
X189600883Y-185036185D02*
X189672311Y-184964757D01*
X189672311Y-184964757D02*
X189815169Y-184893328D01*
X189815169Y-184893328D02*
X190172311Y-184893328D01*
X190172311Y-184893328D02*
X190315169Y-184964757D01*
X190315169Y-184964757D02*
X190386597Y-185036185D01*
X190386597Y-185036185D02*
X190458026Y-185179042D01*
X190458026Y-185179042D02*
X190458026Y-185321900D01*
X190458026Y-185321900D02*
X190386597Y-185536185D01*
X190386597Y-185536185D02*
X189529454Y-186393328D01*
X189529454Y-186393328D02*
X190458026Y-186393328D01*
X190743740Y-186536185D02*
X191886597Y-186536185D01*
X192243739Y-185393328D02*
X192243739Y-186893328D01*
X192243739Y-185464757D02*
X192386597Y-185393328D01*
X192386597Y-185393328D02*
X192672311Y-185393328D01*
X192672311Y-185393328D02*
X192815168Y-185464757D01*
X192815168Y-185464757D02*
X192886597Y-185536185D01*
X192886597Y-185536185D02*
X192958025Y-185679042D01*
X192958025Y-185679042D02*
X192958025Y-186107614D01*
X192958025Y-186107614D02*
X192886597Y-186250471D01*
X192886597Y-186250471D02*
X192815168Y-186321900D01*
X192815168Y-186321900D02*
X192672311Y-186393328D01*
X192672311Y-186393328D02*
X192386597Y-186393328D01*
X192386597Y-186393328D02*
X192243739Y-186321900D01*
X193600882Y-186393328D02*
X193600882Y-185393328D01*
X193600882Y-185679042D02*
X193672311Y-185536185D01*
X193672311Y-185536185D02*
X193743740Y-185464757D01*
X193743740Y-185464757D02*
X193886597Y-185393328D01*
X193886597Y-185393328D02*
X194029454Y-185393328D01*
X194743739Y-186393328D02*
X194600882Y-186321900D01*
X194600882Y-186321900D02*
X194529453Y-186250471D01*
X194529453Y-186250471D02*
X194458025Y-186107614D01*
X194458025Y-186107614D02*
X194458025Y-185679042D01*
X194458025Y-185679042D02*
X194529453Y-185536185D01*
X194529453Y-185536185D02*
X194600882Y-185464757D01*
X194600882Y-185464757D02*
X194743739Y-185393328D01*
X194743739Y-185393328D02*
X194958025Y-185393328D01*
X194958025Y-185393328D02*
X195100882Y-185464757D01*
X195100882Y-185464757D02*
X195172311Y-185536185D01*
X195172311Y-185536185D02*
X195243739Y-185679042D01*
X195243739Y-185679042D02*
X195243739Y-186107614D01*
X195243739Y-186107614D02*
X195172311Y-186250471D01*
X195172311Y-186250471D02*
X195100882Y-186321900D01*
X195100882Y-186321900D02*
X194958025Y-186393328D01*
X194958025Y-186393328D02*
X194743739Y-186393328D01*
X195886596Y-185393328D02*
X195886596Y-186679042D01*
X195886596Y-186679042D02*
X195815168Y-186821900D01*
X195815168Y-186821900D02*
X195672311Y-186893328D01*
X195672311Y-186893328D02*
X195600882Y-186893328D01*
X195886596Y-184893328D02*
X195815168Y-184964757D01*
X195815168Y-184964757D02*
X195886596Y-185036185D01*
X195886596Y-185036185D02*
X195958025Y-184964757D01*
X195958025Y-184964757D02*
X195886596Y-184893328D01*
X195886596Y-184893328D02*
X195886596Y-185036185D01*
X197172311Y-186321900D02*
X197029454Y-186393328D01*
X197029454Y-186393328D02*
X196743740Y-186393328D01*
X196743740Y-186393328D02*
X196600882Y-186321900D01*
X196600882Y-186321900D02*
X196529454Y-186179042D01*
X196529454Y-186179042D02*
X196529454Y-185607614D01*
X196529454Y-185607614D02*
X196600882Y-185464757D01*
X196600882Y-185464757D02*
X196743740Y-185393328D01*
X196743740Y-185393328D02*
X197029454Y-185393328D01*
X197029454Y-185393328D02*
X197172311Y-185464757D01*
X197172311Y-185464757D02*
X197243740Y-185607614D01*
X197243740Y-185607614D02*
X197243740Y-185750471D01*
X197243740Y-185750471D02*
X196529454Y-185893328D01*
X198529454Y-186321900D02*
X198386596Y-186393328D01*
X198386596Y-186393328D02*
X198100882Y-186393328D01*
X198100882Y-186393328D02*
X197958025Y-186321900D01*
X197958025Y-186321900D02*
X197886596Y-186250471D01*
X197886596Y-186250471D02*
X197815168Y-186107614D01*
X197815168Y-186107614D02*
X197815168Y-185679042D01*
X197815168Y-185679042D02*
X197886596Y-185536185D01*
X197886596Y-185536185D02*
X197958025Y-185464757D01*
X197958025Y-185464757D02*
X198100882Y-185393328D01*
X198100882Y-185393328D02*
X198386596Y-185393328D01*
X198386596Y-185393328D02*
X198529454Y-185464757D01*
X198958025Y-185393328D02*
X199529453Y-185393328D01*
X199172310Y-184893328D02*
X199172310Y-186179042D01*
X199172310Y-186179042D02*
X199243739Y-186321900D01*
X199243739Y-186321900D02*
X199386596Y-186393328D01*
X199386596Y-186393328D02*
X199529453Y-186393328D01*
X200029453Y-186250471D02*
X200100882Y-186321900D01*
X200100882Y-186321900D02*
X200029453Y-186393328D01*
X200029453Y-186393328D02*
X199958025Y-186321900D01*
X199958025Y-186321900D02*
X200029453Y-186250471D01*
X200029453Y-186250471D02*
X200029453Y-186393328D01*
X200743739Y-186393328D02*
X200743739Y-184893328D01*
X200886597Y-185821900D02*
X201315168Y-186393328D01*
X201315168Y-185393328D02*
X200743739Y-185964757D01*
X201958025Y-186393328D02*
X201958025Y-185393328D01*
X201958025Y-184893328D02*
X201886597Y-184964757D01*
X201886597Y-184964757D02*
X201958025Y-185036185D01*
X201958025Y-185036185D02*
X202029454Y-184964757D01*
X202029454Y-184964757D02*
X201958025Y-184893328D01*
X201958025Y-184893328D02*
X201958025Y-185036185D01*
X203315169Y-186321900D02*
X203172311Y-186393328D01*
X203172311Y-186393328D02*
X202886597Y-186393328D01*
X202886597Y-186393328D02*
X202743740Y-186321900D01*
X202743740Y-186321900D02*
X202672311Y-186250471D01*
X202672311Y-186250471D02*
X202600883Y-186107614D01*
X202600883Y-186107614D02*
X202600883Y-185679042D01*
X202600883Y-185679042D02*
X202672311Y-185536185D01*
X202672311Y-185536185D02*
X202743740Y-185464757D01*
X202743740Y-185464757D02*
X202886597Y-185393328D01*
X202886597Y-185393328D02*
X203172311Y-185393328D01*
X203172311Y-185393328D02*
X203315169Y-185464757D01*
X204600883Y-186393328D02*
X204600883Y-185607614D01*
X204600883Y-185607614D02*
X204529454Y-185464757D01*
X204529454Y-185464757D02*
X204386597Y-185393328D01*
X204386597Y-185393328D02*
X204100883Y-185393328D01*
X204100883Y-185393328D02*
X203958025Y-185464757D01*
X204600883Y-186321900D02*
X204458025Y-186393328D01*
X204458025Y-186393328D02*
X204100883Y-186393328D01*
X204100883Y-186393328D02*
X203958025Y-186321900D01*
X203958025Y-186321900D02*
X203886597Y-186179042D01*
X203886597Y-186179042D02*
X203886597Y-186036185D01*
X203886597Y-186036185D02*
X203958025Y-185893328D01*
X203958025Y-185893328D02*
X204100883Y-185821900D01*
X204100883Y-185821900D02*
X204458025Y-185821900D01*
X204458025Y-185821900D02*
X204600883Y-185750471D01*
X205958026Y-186393328D02*
X205958026Y-184893328D01*
X205958026Y-186321900D02*
X205815168Y-186393328D01*
X205815168Y-186393328D02*
X205529454Y-186393328D01*
X205529454Y-186393328D02*
X205386597Y-186321900D01*
X205386597Y-186321900D02*
X205315168Y-186250471D01*
X205315168Y-186250471D02*
X205243740Y-186107614D01*
X205243740Y-186107614D02*
X205243740Y-185679042D01*
X205243740Y-185679042D02*
X205315168Y-185536185D01*
X205315168Y-185536185D02*
X205386597Y-185464757D01*
X205386597Y-185464757D02*
X205529454Y-185393328D01*
X205529454Y-185393328D02*
X205815168Y-185393328D01*
X205815168Y-185393328D02*
X205958026Y-185464757D01*
X206315169Y-186536185D02*
X207458026Y-186536185D01*
X207815168Y-185393328D02*
X207815168Y-186893328D01*
X207815168Y-185464757D02*
X207958026Y-185393328D01*
X207958026Y-185393328D02*
X208243740Y-185393328D01*
X208243740Y-185393328D02*
X208386597Y-185464757D01*
X208386597Y-185464757D02*
X208458026Y-185536185D01*
X208458026Y-185536185D02*
X208529454Y-185679042D01*
X208529454Y-185679042D02*
X208529454Y-186107614D01*
X208529454Y-186107614D02*
X208458026Y-186250471D01*
X208458026Y-186250471D02*
X208386597Y-186321900D01*
X208386597Y-186321900D02*
X208243740Y-186393328D01*
X208243740Y-186393328D02*
X207958026Y-186393328D01*
X207958026Y-186393328D02*
X207815168Y-186321900D01*
X209815169Y-186321900D02*
X209672311Y-186393328D01*
X209672311Y-186393328D02*
X209386597Y-186393328D01*
X209386597Y-186393328D02*
X209243740Y-186321900D01*
X209243740Y-186321900D02*
X209172311Y-186250471D01*
X209172311Y-186250471D02*
X209100883Y-186107614D01*
X209100883Y-186107614D02*
X209100883Y-185679042D01*
X209100883Y-185679042D02*
X209172311Y-185536185D01*
X209172311Y-185536185D02*
X209243740Y-185464757D01*
X209243740Y-185464757D02*
X209386597Y-185393328D01*
X209386597Y-185393328D02*
X209672311Y-185393328D01*
X209672311Y-185393328D02*
X209815169Y-185464757D01*
X210458025Y-186393328D02*
X210458025Y-184893328D01*
X210458025Y-185464757D02*
X210600883Y-185393328D01*
X210600883Y-185393328D02*
X210886597Y-185393328D01*
X210886597Y-185393328D02*
X211029454Y-185464757D01*
X211029454Y-185464757D02*
X211100883Y-185536185D01*
X211100883Y-185536185D02*
X211172311Y-185679042D01*
X211172311Y-185679042D02*
X211172311Y-186107614D01*
X211172311Y-186107614D02*
X211100883Y-186250471D01*
X211100883Y-186250471D02*
X211029454Y-186321900D01*
X211029454Y-186321900D02*
X210886597Y-186393328D01*
X210886597Y-186393328D02*
X210600883Y-186393328D01*
X210600883Y-186393328D02*
X210458025Y-186321900D01*
X177002200Y-181507200D02*
X285002200Y-181507200D01*
X178386598Y-183621900D02*
X178600884Y-183693328D01*
X178600884Y-183693328D02*
X178958026Y-183693328D01*
X178958026Y-183693328D02*
X179100884Y-183621900D01*
X179100884Y-183621900D02*
X179172312Y-183550471D01*
X179172312Y-183550471D02*
X179243741Y-183407614D01*
X179243741Y-183407614D02*
X179243741Y-183264757D01*
X179243741Y-183264757D02*
X179172312Y-183121900D01*
X179172312Y-183121900D02*
X179100884Y-183050471D01*
X179100884Y-183050471D02*
X178958026Y-182979042D01*
X178958026Y-182979042D02*
X178672312Y-182907614D01*
X178672312Y-182907614D02*
X178529455Y-182836185D01*
X178529455Y-182836185D02*
X178458026Y-182764757D01*
X178458026Y-182764757D02*
X178386598Y-182621900D01*
X178386598Y-182621900D02*
X178386598Y-182479042D01*
X178386598Y-182479042D02*
X178458026Y-182336185D01*
X178458026Y-182336185D02*
X178529455Y-182264757D01*
X178529455Y-182264757D02*
X178672312Y-182193328D01*
X178672312Y-182193328D02*
X179029455Y-182193328D01*
X179029455Y-182193328D02*
X179243741Y-182264757D01*
X179886597Y-183693328D02*
X179886597Y-182193328D01*
X180529455Y-183693328D02*
X180529455Y-182907614D01*
X180529455Y-182907614D02*
X180458026Y-182764757D01*
X180458026Y-182764757D02*
X180315169Y-182693328D01*
X180315169Y-182693328D02*
X180100883Y-182693328D01*
X180100883Y-182693328D02*
X179958026Y-182764757D01*
X179958026Y-182764757D02*
X179886597Y-182836185D01*
X181815169Y-183621900D02*
X181672312Y-183693328D01*
X181672312Y-183693328D02*
X181386598Y-183693328D01*
X181386598Y-183693328D02*
X181243740Y-183621900D01*
X181243740Y-183621900D02*
X181172312Y-183479042D01*
X181172312Y-183479042D02*
X181172312Y-182907614D01*
X181172312Y-182907614D02*
X181243740Y-182764757D01*
X181243740Y-182764757D02*
X181386598Y-182693328D01*
X181386598Y-182693328D02*
X181672312Y-182693328D01*
X181672312Y-182693328D02*
X181815169Y-182764757D01*
X181815169Y-182764757D02*
X181886598Y-182907614D01*
X181886598Y-182907614D02*
X181886598Y-183050471D01*
X181886598Y-183050471D02*
X181172312Y-183193328D01*
X183100883Y-183621900D02*
X182958026Y-183693328D01*
X182958026Y-183693328D02*
X182672312Y-183693328D01*
X182672312Y-183693328D02*
X182529454Y-183621900D01*
X182529454Y-183621900D02*
X182458026Y-183479042D01*
X182458026Y-183479042D02*
X182458026Y-182907614D01*
X182458026Y-182907614D02*
X182529454Y-182764757D01*
X182529454Y-182764757D02*
X182672312Y-182693328D01*
X182672312Y-182693328D02*
X182958026Y-182693328D01*
X182958026Y-182693328D02*
X183100883Y-182764757D01*
X183100883Y-182764757D02*
X183172312Y-182907614D01*
X183172312Y-182907614D02*
X183172312Y-183050471D01*
X183172312Y-183050471D02*
X182458026Y-183193328D01*
X183600883Y-182693328D02*
X184172311Y-182693328D01*
X183815168Y-182193328D02*
X183815168Y-183479042D01*
X183815168Y-183479042D02*
X183886597Y-183621900D01*
X183886597Y-183621900D02*
X184029454Y-183693328D01*
X184029454Y-183693328D02*
X184172311Y-183693328D01*
X184672311Y-183550471D02*
X184743740Y-183621900D01*
X184743740Y-183621900D02*
X184672311Y-183693328D01*
X184672311Y-183693328D02*
X184600883Y-183621900D01*
X184600883Y-183621900D02*
X184672311Y-183550471D01*
X184672311Y-183550471D02*
X184672311Y-183693328D01*
X184672311Y-182764757D02*
X184743740Y-182836185D01*
X184743740Y-182836185D02*
X184672311Y-182907614D01*
X184672311Y-182907614D02*
X184600883Y-182836185D01*
X184600883Y-182836185D02*
X184672311Y-182764757D01*
X184672311Y-182764757D02*
X184672311Y-182907614D01*
X197002200Y-191507200D02*
X197002200Y-194507200D01*
X261002200Y-191507200D02*
X261002200Y-198007200D01*
X117884819Y-77341666D02*
X117408628Y-77674999D01*
X117884819Y-77913094D02*
X116884819Y-77913094D01*
X116884819Y-77913094D02*
X116884819Y-77532142D01*
X116884819Y-77532142D02*
X116932438Y-77436904D01*
X116932438Y-77436904D02*
X116980057Y-77389285D01*
X116980057Y-77389285D02*
X117075295Y-77341666D01*
X117075295Y-77341666D02*
X117218152Y-77341666D01*
X117218152Y-77341666D02*
X117313390Y-77389285D01*
X117313390Y-77389285D02*
X117361009Y-77436904D01*
X117361009Y-77436904D02*
X117408628Y-77532142D01*
X117408628Y-77532142D02*
X117408628Y-77913094D01*
X117218152Y-76484523D02*
X117884819Y-76484523D01*
X116837200Y-76722618D02*
X117551485Y-76960713D01*
X117551485Y-76960713D02*
X117551485Y-76341666D01*
X119393333Y-83789580D02*
X119345714Y-83837200D01*
X119345714Y-83837200D02*
X119202857Y-83884819D01*
X119202857Y-83884819D02*
X119107619Y-83884819D01*
X119107619Y-83884819D02*
X118964762Y-83837200D01*
X118964762Y-83837200D02*
X118869524Y-83741961D01*
X118869524Y-83741961D02*
X118821905Y-83646723D01*
X118821905Y-83646723D02*
X118774286Y-83456247D01*
X118774286Y-83456247D02*
X118774286Y-83313390D01*
X118774286Y-83313390D02*
X118821905Y-83122914D01*
X118821905Y-83122914D02*
X118869524Y-83027676D01*
X118869524Y-83027676D02*
X118964762Y-82932438D01*
X118964762Y-82932438D02*
X119107619Y-82884819D01*
X119107619Y-82884819D02*
X119202857Y-82884819D01*
X119202857Y-82884819D02*
X119345714Y-82932438D01*
X119345714Y-82932438D02*
X119393333Y-82980057D01*
X120250476Y-82884819D02*
X120060000Y-82884819D01*
X120060000Y-82884819D02*
X119964762Y-82932438D01*
X119964762Y-82932438D02*
X119917143Y-82980057D01*
X119917143Y-82980057D02*
X119821905Y-83122914D01*
X119821905Y-83122914D02*
X119774286Y-83313390D01*
X119774286Y-83313390D02*
X119774286Y-83694342D01*
X119774286Y-83694342D02*
X119821905Y-83789580D01*
X119821905Y-83789580D02*
X119869524Y-83837200D01*
X119869524Y-83837200D02*
X119964762Y-83884819D01*
X119964762Y-83884819D02*
X120155238Y-83884819D01*
X120155238Y-83884819D02*
X120250476Y-83837200D01*
X120250476Y-83837200D02*
X120298095Y-83789580D01*
X120298095Y-83789580D02*
X120345714Y-83694342D01*
X120345714Y-83694342D02*
X120345714Y-83456247D01*
X120345714Y-83456247D02*
X120298095Y-83361009D01*
X120298095Y-83361009D02*
X120250476Y-83313390D01*
X120250476Y-83313390D02*
X120155238Y-83265771D01*
X120155238Y-83265771D02*
X119964762Y-83265771D01*
X119964762Y-83265771D02*
X119869524Y-83313390D01*
X119869524Y-83313390D02*
X119821905Y-83361009D01*
X119821905Y-83361009D02*
X119774286Y-83456247D01*
X110929580Y-72166666D02*
X110977200Y-72214285D01*
X110977200Y-72214285D02*
X111024819Y-72357142D01*
X111024819Y-72357142D02*
X111024819Y-72452380D01*
X111024819Y-72452380D02*
X110977200Y-72595237D01*
X110977200Y-72595237D02*
X110881961Y-72690475D01*
X110881961Y-72690475D02*
X110786723Y-72738094D01*
X110786723Y-72738094D02*
X110596247Y-72785713D01*
X110596247Y-72785713D02*
X110453390Y-72785713D01*
X110453390Y-72785713D02*
X110262914Y-72738094D01*
X110262914Y-72738094D02*
X110167676Y-72690475D01*
X110167676Y-72690475D02*
X110072438Y-72595237D01*
X110072438Y-72595237D02*
X110024819Y-72452380D01*
X110024819Y-72452380D02*
X110024819Y-72357142D01*
X110024819Y-72357142D02*
X110072438Y-72214285D01*
X110072438Y-72214285D02*
X110120057Y-72166666D01*
X110024819Y-71833332D02*
X110024819Y-71166666D01*
X110024819Y-71166666D02*
X111024819Y-71595237D01*
D13*
X118070876Y-80033333D02*
X118080400Y-80042857D01*
X118080400Y-80042857D02*
X118089923Y-80071428D01*
X118089923Y-80071428D02*
X118089923Y-80090476D01*
X118089923Y-80090476D02*
X118080400Y-80119047D01*
X118080400Y-80119047D02*
X118061352Y-80138095D01*
X118061352Y-80138095D02*
X118042304Y-80147618D01*
X118042304Y-80147618D02*
X118004209Y-80157142D01*
X118004209Y-80157142D02*
X117975638Y-80157142D01*
X117975638Y-80157142D02*
X117937542Y-80147618D01*
X117937542Y-80147618D02*
X117918495Y-80138095D01*
X117918495Y-80138095D02*
X117899447Y-80119047D01*
X117899447Y-80119047D02*
X117889923Y-80090476D01*
X117889923Y-80090476D02*
X117889923Y-80071428D01*
X117889923Y-80071428D02*
X117899447Y-80042857D01*
X117899447Y-80042857D02*
X117908971Y-80033333D01*
X117908971Y-79957142D02*
X117899447Y-79947618D01*
X117899447Y-79947618D02*
X117889923Y-79928571D01*
X117889923Y-79928571D02*
X117889923Y-79880952D01*
X117889923Y-79880952D02*
X117899447Y-79861904D01*
X117899447Y-79861904D02*
X117908971Y-79852380D01*
X117908971Y-79852380D02*
X117928019Y-79842857D01*
X117928019Y-79842857D02*
X117947066Y-79842857D01*
X117947066Y-79842857D02*
X117975638Y-79852380D01*
X117975638Y-79852380D02*
X118089923Y-79966666D01*
X118089923Y-79966666D02*
X118089923Y-79842857D01*
D10*
X123833333Y-78789580D02*
X123785714Y-78837200D01*
X123785714Y-78837200D02*
X123642857Y-78884819D01*
X123642857Y-78884819D02*
X123547619Y-78884819D01*
X123547619Y-78884819D02*
X123404762Y-78837200D01*
X123404762Y-78837200D02*
X123309524Y-78741961D01*
X123309524Y-78741961D02*
X123261905Y-78646723D01*
X123261905Y-78646723D02*
X123214286Y-78456247D01*
X123214286Y-78456247D02*
X123214286Y-78313390D01*
X123214286Y-78313390D02*
X123261905Y-78122914D01*
X123261905Y-78122914D02*
X123309524Y-78027676D01*
X123309524Y-78027676D02*
X123404762Y-77932438D01*
X123404762Y-77932438D02*
X123547619Y-77884819D01*
X123547619Y-77884819D02*
X123642857Y-77884819D01*
X123642857Y-77884819D02*
X123785714Y-77932438D01*
X123785714Y-77932438D02*
X123833333Y-77980057D01*
X124785714Y-78884819D02*
X124214286Y-78884819D01*
X124500000Y-78884819D02*
X124500000Y-77884819D01*
X124500000Y-77884819D02*
X124404762Y-78027676D01*
X124404762Y-78027676D02*
X124309524Y-78122914D01*
X124309524Y-78122914D02*
X124214286Y-78170533D01*
X135789580Y-84166666D02*
X135837200Y-84214285D01*
X135837200Y-84214285D02*
X135884819Y-84357142D01*
X135884819Y-84357142D02*
X135884819Y-84452380D01*
X135884819Y-84452380D02*
X135837200Y-84595237D01*
X135837200Y-84595237D02*
X135741961Y-84690475D01*
X135741961Y-84690475D02*
X135646723Y-84738094D01*
X135646723Y-84738094D02*
X135456247Y-84785713D01*
X135456247Y-84785713D02*
X135313390Y-84785713D01*
X135313390Y-84785713D02*
X135122914Y-84738094D01*
X135122914Y-84738094D02*
X135027676Y-84690475D01*
X135027676Y-84690475D02*
X134932438Y-84595237D01*
X134932438Y-84595237D02*
X134884819Y-84452380D01*
X134884819Y-84452380D02*
X134884819Y-84357142D01*
X134884819Y-84357142D02*
X134932438Y-84214285D01*
X134932438Y-84214285D02*
X134980057Y-84166666D01*
X134884819Y-83261904D02*
X134884819Y-83738094D01*
X134884819Y-83738094D02*
X135361009Y-83785713D01*
X135361009Y-83785713D02*
X135313390Y-83738094D01*
X135313390Y-83738094D02*
X135265771Y-83642856D01*
X135265771Y-83642856D02*
X135265771Y-83404761D01*
X135265771Y-83404761D02*
X135313390Y-83309523D01*
X135313390Y-83309523D02*
X135361009Y-83261904D01*
X135361009Y-83261904D02*
X135456247Y-83214285D01*
X135456247Y-83214285D02*
X135694342Y-83214285D01*
X135694342Y-83214285D02*
X135789580Y-83261904D01*
X135789580Y-83261904D02*
X135837200Y-83309523D01*
X135837200Y-83309523D02*
X135884819Y-83404761D01*
X135884819Y-83404761D02*
X135884819Y-83642856D01*
X135884819Y-83642856D02*
X135837200Y-83738094D01*
X135837200Y-83738094D02*
X135789580Y-83785713D01*
X113150057Y-81095238D02*
X113102438Y-81190476D01*
X113102438Y-81190476D02*
X113007200Y-81285714D01*
X113007200Y-81285714D02*
X112864342Y-81428571D01*
X112864342Y-81428571D02*
X112816723Y-81523809D01*
X112816723Y-81523809D02*
X112816723Y-81619047D01*
X113054819Y-81571428D02*
X113007200Y-81666666D01*
X113007200Y-81666666D02*
X112911961Y-81761904D01*
X112911961Y-81761904D02*
X112721485Y-81809523D01*
X112721485Y-81809523D02*
X112388152Y-81809523D01*
X112388152Y-81809523D02*
X112197676Y-81761904D01*
X112197676Y-81761904D02*
X112102438Y-81666666D01*
X112102438Y-81666666D02*
X112054819Y-81571428D01*
X112054819Y-81571428D02*
X112054819Y-81380952D01*
X112054819Y-81380952D02*
X112102438Y-81285714D01*
X112102438Y-81285714D02*
X112197676Y-81190476D01*
X112197676Y-81190476D02*
X112388152Y-81142857D01*
X112388152Y-81142857D02*
X112721485Y-81142857D01*
X112721485Y-81142857D02*
X112911961Y-81190476D01*
X112911961Y-81190476D02*
X113007200Y-81285714D01*
X113007200Y-81285714D02*
X113054819Y-81380952D01*
X113054819Y-81380952D02*
X113054819Y-81571428D01*
X112054819Y-80809523D02*
X112054819Y-80190476D01*
X112054819Y-80190476D02*
X112435771Y-80523809D01*
X112435771Y-80523809D02*
X112435771Y-80380952D01*
X112435771Y-80380952D02*
X112483390Y-80285714D01*
X112483390Y-80285714D02*
X112531009Y-80238095D01*
X112531009Y-80238095D02*
X112626247Y-80190476D01*
X112626247Y-80190476D02*
X112864342Y-80190476D01*
X112864342Y-80190476D02*
X112959580Y-80238095D01*
X112959580Y-80238095D02*
X113007200Y-80285714D01*
X113007200Y-80285714D02*
X113054819Y-80380952D01*
X113054819Y-80380952D02*
X113054819Y-80666666D01*
X113054819Y-80666666D02*
X113007200Y-80761904D01*
X113007200Y-80761904D02*
X112959580Y-80809523D01*
X98999819Y-146576904D02*
X99809342Y-146576904D01*
X99809342Y-146576904D02*
X99904580Y-146529285D01*
X99904580Y-146529285D02*
X99952200Y-146481666D01*
X99952200Y-146481666D02*
X99999819Y-146386428D01*
X99999819Y-146386428D02*
X99999819Y-146195952D01*
X99999819Y-146195952D02*
X99952200Y-146100714D01*
X99952200Y-146100714D02*
X99904580Y-146053095D01*
X99904580Y-146053095D02*
X99809342Y-146005476D01*
X99809342Y-146005476D02*
X98999819Y-146005476D01*
X99999819Y-145005476D02*
X99999819Y-145576904D01*
X99999819Y-145291190D02*
X98999819Y-145291190D01*
X98999819Y-145291190D02*
X99142676Y-145386428D01*
X99142676Y-145386428D02*
X99237914Y-145481666D01*
X99237914Y-145481666D02*
X99285533Y-145576904D01*
X119833333Y-76024819D02*
X119500000Y-75548628D01*
X119261905Y-76024819D02*
X119261905Y-75024819D01*
X119261905Y-75024819D02*
X119642857Y-75024819D01*
X119642857Y-75024819D02*
X119738095Y-75072438D01*
X119738095Y-75072438D02*
X119785714Y-75120057D01*
X119785714Y-75120057D02*
X119833333Y-75215295D01*
X119833333Y-75215295D02*
X119833333Y-75358152D01*
X119833333Y-75358152D02*
X119785714Y-75453390D01*
X119785714Y-75453390D02*
X119738095Y-75501009D01*
X119738095Y-75501009D02*
X119642857Y-75548628D01*
X119642857Y-75548628D02*
X119261905Y-75548628D01*
X120690476Y-75024819D02*
X120500000Y-75024819D01*
X120500000Y-75024819D02*
X120404762Y-75072438D01*
X120404762Y-75072438D02*
X120357143Y-75120057D01*
X120357143Y-75120057D02*
X120261905Y-75262914D01*
X120261905Y-75262914D02*
X120214286Y-75453390D01*
X120214286Y-75453390D02*
X120214286Y-75834342D01*
X120214286Y-75834342D02*
X120261905Y-75929580D01*
X120261905Y-75929580D02*
X120309524Y-75977200D01*
X120309524Y-75977200D02*
X120404762Y-76024819D01*
X120404762Y-76024819D02*
X120595238Y-76024819D01*
X120595238Y-76024819D02*
X120690476Y-75977200D01*
X120690476Y-75977200D02*
X120738095Y-75929580D01*
X120738095Y-75929580D02*
X120785714Y-75834342D01*
X120785714Y-75834342D02*
X120785714Y-75596247D01*
X120785714Y-75596247D02*
X120738095Y-75501009D01*
X120738095Y-75501009D02*
X120690476Y-75453390D01*
X120690476Y-75453390D02*
X120595238Y-75405771D01*
X120595238Y-75405771D02*
X120404762Y-75405771D01*
X120404762Y-75405771D02*
X120309524Y-75453390D01*
X120309524Y-75453390D02*
X120261905Y-75501009D01*
X120261905Y-75501009D02*
X120214286Y-75596247D01*
D14*
X129916666Y-86177190D02*
X129892857Y-86201000D01*
X129892857Y-86201000D02*
X129821428Y-86224809D01*
X129821428Y-86224809D02*
X129773809Y-86224809D01*
X129773809Y-86224809D02*
X129702381Y-86201000D01*
X129702381Y-86201000D02*
X129654762Y-86153380D01*
X129654762Y-86153380D02*
X129630952Y-86105761D01*
X129630952Y-86105761D02*
X129607143Y-86010523D01*
X129607143Y-86010523D02*
X129607143Y-85939095D01*
X129607143Y-85939095D02*
X129630952Y-85843857D01*
X129630952Y-85843857D02*
X129654762Y-85796238D01*
X129654762Y-85796238D02*
X129702381Y-85748619D01*
X129702381Y-85748619D02*
X129773809Y-85724809D01*
X129773809Y-85724809D02*
X129821428Y-85724809D01*
X129821428Y-85724809D02*
X129892857Y-85748619D01*
X129892857Y-85748619D02*
X129916666Y-85772428D01*
X130345238Y-85891476D02*
X130345238Y-86224809D01*
X130226190Y-85701000D02*
X130107143Y-86058142D01*
X130107143Y-86058142D02*
X130416666Y-86058142D01*
D10*
X135833333Y-67454819D02*
X135500000Y-66978628D01*
X135261905Y-67454819D02*
X135261905Y-66454819D01*
X135261905Y-66454819D02*
X135642857Y-66454819D01*
X135642857Y-66454819D02*
X135738095Y-66502438D01*
X135738095Y-66502438D02*
X135785714Y-66550057D01*
X135785714Y-66550057D02*
X135833333Y-66645295D01*
X135833333Y-66645295D02*
X135833333Y-66788152D01*
X135833333Y-66788152D02*
X135785714Y-66883390D01*
X135785714Y-66883390D02*
X135738095Y-66931009D01*
X135738095Y-66931009D02*
X135642857Y-66978628D01*
X135642857Y-66978628D02*
X135261905Y-66978628D01*
X136214286Y-66550057D02*
X136261905Y-66502438D01*
X136261905Y-66502438D02*
X136357143Y-66454819D01*
X136357143Y-66454819D02*
X136595238Y-66454819D01*
X136595238Y-66454819D02*
X136690476Y-66502438D01*
X136690476Y-66502438D02*
X136738095Y-66550057D01*
X136738095Y-66550057D02*
X136785714Y-66645295D01*
X136785714Y-66645295D02*
X136785714Y-66740533D01*
X136785714Y-66740533D02*
X136738095Y-66883390D01*
X136738095Y-66883390D02*
X136166667Y-67454819D01*
X136166667Y-67454819D02*
X136785714Y-67454819D01*
X114950057Y-77095238D02*
X114902438Y-77190476D01*
X114902438Y-77190476D02*
X114807200Y-77285714D01*
X114807200Y-77285714D02*
X114664342Y-77428571D01*
X114664342Y-77428571D02*
X114616723Y-77523809D01*
X114616723Y-77523809D02*
X114616723Y-77619047D01*
X114854819Y-77571428D02*
X114807200Y-77666666D01*
X114807200Y-77666666D02*
X114711961Y-77761904D01*
X114711961Y-77761904D02*
X114521485Y-77809523D01*
X114521485Y-77809523D02*
X114188152Y-77809523D01*
X114188152Y-77809523D02*
X113997676Y-77761904D01*
X113997676Y-77761904D02*
X113902438Y-77666666D01*
X113902438Y-77666666D02*
X113854819Y-77571428D01*
X113854819Y-77571428D02*
X113854819Y-77380952D01*
X113854819Y-77380952D02*
X113902438Y-77285714D01*
X113902438Y-77285714D02*
X113997676Y-77190476D01*
X113997676Y-77190476D02*
X114188152Y-77142857D01*
X114188152Y-77142857D02*
X114521485Y-77142857D01*
X114521485Y-77142857D02*
X114711961Y-77190476D01*
X114711961Y-77190476D02*
X114807200Y-77285714D01*
X114807200Y-77285714D02*
X114854819Y-77380952D01*
X114854819Y-77380952D02*
X114854819Y-77571428D01*
X114854819Y-76190476D02*
X114854819Y-76761904D01*
X114854819Y-76476190D02*
X113854819Y-76476190D01*
X113854819Y-76476190D02*
X113997676Y-76571428D01*
X113997676Y-76571428D02*
X114092914Y-76666666D01*
X114092914Y-76666666D02*
X114140533Y-76761904D01*
X117238095Y-74354819D02*
X117238095Y-75164342D01*
X117238095Y-75164342D02*
X117285714Y-75259580D01*
X117285714Y-75259580D02*
X117333333Y-75307200D01*
X117333333Y-75307200D02*
X117428571Y-75354819D01*
X117428571Y-75354819D02*
X117619047Y-75354819D01*
X117619047Y-75354819D02*
X117714285Y-75307200D01*
X117714285Y-75307200D02*
X117761904Y-75259580D01*
X117761904Y-75259580D02*
X117809523Y-75164342D01*
X117809523Y-75164342D02*
X117809523Y-74354819D01*
X118238095Y-74450057D02*
X118285714Y-74402438D01*
X118285714Y-74402438D02*
X118380952Y-74354819D01*
X118380952Y-74354819D02*
X118619047Y-74354819D01*
X118619047Y-74354819D02*
X118714285Y-74402438D01*
X118714285Y-74402438D02*
X118761904Y-74450057D01*
X118761904Y-74450057D02*
X118809523Y-74545295D01*
X118809523Y-74545295D02*
X118809523Y-74640533D01*
X118809523Y-74640533D02*
X118761904Y-74783390D01*
X118761904Y-74783390D02*
X118190476Y-75354819D01*
X118190476Y-75354819D02*
X118809523Y-75354819D01*
D14*
X114666667Y-90201000D02*
X114809524Y-90224809D01*
X114809524Y-90224809D02*
X115047619Y-90224809D01*
X115047619Y-90224809D02*
X115142857Y-90201000D01*
X115142857Y-90201000D02*
X115190476Y-90177190D01*
X115190476Y-90177190D02*
X115238095Y-90129571D01*
X115238095Y-90129571D02*
X115238095Y-90081952D01*
X115238095Y-90081952D02*
X115190476Y-90034333D01*
X115190476Y-90034333D02*
X115142857Y-90010523D01*
X115142857Y-90010523D02*
X115047619Y-89986714D01*
X115047619Y-89986714D02*
X114857143Y-89962904D01*
X114857143Y-89962904D02*
X114761905Y-89939095D01*
X114761905Y-89939095D02*
X114714286Y-89915285D01*
X114714286Y-89915285D02*
X114666667Y-89867666D01*
X114666667Y-89867666D02*
X114666667Y-89820047D01*
X114666667Y-89820047D02*
X114714286Y-89772428D01*
X114714286Y-89772428D02*
X114761905Y-89748619D01*
X114761905Y-89748619D02*
X114857143Y-89724809D01*
X114857143Y-89724809D02*
X115095238Y-89724809D01*
X115095238Y-89724809D02*
X115238095Y-89748619D01*
X115571429Y-89724809D02*
X115809524Y-90224809D01*
X115809524Y-90224809D02*
X116000000Y-89867666D01*
X116000000Y-89867666D02*
X116190476Y-90224809D01*
X116190476Y-90224809D02*
X116428572Y-89724809D01*
X117333333Y-90224809D02*
X116761905Y-90224809D01*
X117047619Y-90224809D02*
X117047619Y-89724809D01*
X117047619Y-89724809D02*
X116952381Y-89796238D01*
X116952381Y-89796238D02*
X116857143Y-89843857D01*
X116857143Y-89843857D02*
X116761905Y-89867666D01*
D13*
X110966666Y-83089923D02*
X110900000Y-82994685D01*
X110852381Y-83089923D02*
X110852381Y-82889923D01*
X110852381Y-82889923D02*
X110928571Y-82889923D01*
X110928571Y-82889923D02*
X110947619Y-82899447D01*
X110947619Y-82899447D02*
X110957142Y-82908971D01*
X110957142Y-82908971D02*
X110966666Y-82928019D01*
X110966666Y-82928019D02*
X110966666Y-82956590D01*
X110966666Y-82956590D02*
X110957142Y-82975638D01*
X110957142Y-82975638D02*
X110947619Y-82985161D01*
X110947619Y-82985161D02*
X110928571Y-82994685D01*
X110928571Y-82994685D02*
X110852381Y-82994685D01*
X111147619Y-82889923D02*
X111052381Y-82889923D01*
X111052381Y-82889923D02*
X111042857Y-82985161D01*
X111042857Y-82985161D02*
X111052381Y-82975638D01*
X111052381Y-82975638D02*
X111071428Y-82966114D01*
X111071428Y-82966114D02*
X111119047Y-82966114D01*
X111119047Y-82966114D02*
X111138095Y-82975638D01*
X111138095Y-82975638D02*
X111147619Y-82985161D01*
X111147619Y-82985161D02*
X111157142Y-83004209D01*
X111157142Y-83004209D02*
X111157142Y-83051828D01*
X111157142Y-83051828D02*
X111147619Y-83070876D01*
X111147619Y-83070876D02*
X111138095Y-83080400D01*
X111138095Y-83080400D02*
X111119047Y-83089923D01*
X111119047Y-83089923D02*
X111071428Y-83089923D01*
X111071428Y-83089923D02*
X111052381Y-83080400D01*
X111052381Y-83080400D02*
X111042857Y-83070876D01*
D10*
X99666666Y-83554819D02*
X99666666Y-84269104D01*
X99666666Y-84269104D02*
X99619047Y-84411961D01*
X99619047Y-84411961D02*
X99523809Y-84507200D01*
X99523809Y-84507200D02*
X99380952Y-84554819D01*
X99380952Y-84554819D02*
X99285714Y-84554819D01*
X100095238Y-83650057D02*
X100142857Y-83602438D01*
X100142857Y-83602438D02*
X100238095Y-83554819D01*
X100238095Y-83554819D02*
X100476190Y-83554819D01*
X100476190Y-83554819D02*
X100571428Y-83602438D01*
X100571428Y-83602438D02*
X100619047Y-83650057D01*
X100619047Y-83650057D02*
X100666666Y-83745295D01*
X100666666Y-83745295D02*
X100666666Y-83840533D01*
X100666666Y-83840533D02*
X100619047Y-83983390D01*
X100619047Y-83983390D02*
X100047619Y-84554819D01*
X100047619Y-84554819D02*
X100666666Y-84554819D01*
X123833333Y-84789580D02*
X123785714Y-84837200D01*
X123785714Y-84837200D02*
X123642857Y-84884819D01*
X123642857Y-84884819D02*
X123547619Y-84884819D01*
X123547619Y-84884819D02*
X123404762Y-84837200D01*
X123404762Y-84837200D02*
X123309524Y-84741961D01*
X123309524Y-84741961D02*
X123261905Y-84646723D01*
X123261905Y-84646723D02*
X123214286Y-84456247D01*
X123214286Y-84456247D02*
X123214286Y-84313390D01*
X123214286Y-84313390D02*
X123261905Y-84122914D01*
X123261905Y-84122914D02*
X123309524Y-84027676D01*
X123309524Y-84027676D02*
X123404762Y-83932438D01*
X123404762Y-83932438D02*
X123547619Y-83884819D01*
X123547619Y-83884819D02*
X123642857Y-83884819D01*
X123642857Y-83884819D02*
X123785714Y-83932438D01*
X123785714Y-83932438D02*
X123833333Y-83980057D01*
X124166667Y-83884819D02*
X124785714Y-83884819D01*
X124785714Y-83884819D02*
X124452381Y-84265771D01*
X124452381Y-84265771D02*
X124595238Y-84265771D01*
X124595238Y-84265771D02*
X124690476Y-84313390D01*
X124690476Y-84313390D02*
X124738095Y-84361009D01*
X124738095Y-84361009D02*
X124785714Y-84456247D01*
X124785714Y-84456247D02*
X124785714Y-84694342D01*
X124785714Y-84694342D02*
X124738095Y-84789580D01*
X124738095Y-84789580D02*
X124690476Y-84837200D01*
X124690476Y-84837200D02*
X124595238Y-84884819D01*
X124595238Y-84884819D02*
X124309524Y-84884819D01*
X124309524Y-84884819D02*
X124214286Y-84837200D01*
X124214286Y-84837200D02*
X124166667Y-84789580D01*
X127833333Y-78024819D02*
X127500000Y-77548628D01*
X127261905Y-78024819D02*
X127261905Y-77024819D01*
X127261905Y-77024819D02*
X127642857Y-77024819D01*
X127642857Y-77024819D02*
X127738095Y-77072438D01*
X127738095Y-77072438D02*
X127785714Y-77120057D01*
X127785714Y-77120057D02*
X127833333Y-77215295D01*
X127833333Y-77215295D02*
X127833333Y-77358152D01*
X127833333Y-77358152D02*
X127785714Y-77453390D01*
X127785714Y-77453390D02*
X127738095Y-77501009D01*
X127738095Y-77501009D02*
X127642857Y-77548628D01*
X127642857Y-77548628D02*
X127261905Y-77548628D01*
X128166667Y-77024819D02*
X128785714Y-77024819D01*
X128785714Y-77024819D02*
X128452381Y-77405771D01*
X128452381Y-77405771D02*
X128595238Y-77405771D01*
X128595238Y-77405771D02*
X128690476Y-77453390D01*
X128690476Y-77453390D02*
X128738095Y-77501009D01*
X128738095Y-77501009D02*
X128785714Y-77596247D01*
X128785714Y-77596247D02*
X128785714Y-77834342D01*
X128785714Y-77834342D02*
X128738095Y-77929580D01*
X128738095Y-77929580D02*
X128690476Y-77977200D01*
X128690476Y-77977200D02*
X128595238Y-78024819D01*
X128595238Y-78024819D02*
X128309524Y-78024819D01*
X128309524Y-78024819D02*
X128214286Y-77977200D01*
X128214286Y-77977200D02*
X128166667Y-77929580D01*
X126954819Y-73761904D02*
X127764342Y-73761904D01*
X127764342Y-73761904D02*
X127859580Y-73714285D01*
X127859580Y-73714285D02*
X127907200Y-73666666D01*
X127907200Y-73666666D02*
X127954819Y-73571428D01*
X127954819Y-73571428D02*
X127954819Y-73380952D01*
X127954819Y-73380952D02*
X127907200Y-73285714D01*
X127907200Y-73285714D02*
X127859580Y-73238095D01*
X127859580Y-73238095D02*
X127764342Y-73190476D01*
X127764342Y-73190476D02*
X126954819Y-73190476D01*
X127288152Y-72285714D02*
X127954819Y-72285714D01*
X126907200Y-72523809D02*
X127621485Y-72761904D01*
X127621485Y-72761904D02*
X127621485Y-72142857D01*
X131261905Y-81884819D02*
X131261905Y-80884819D01*
X131261905Y-80884819D02*
X131500000Y-80884819D01*
X131500000Y-80884819D02*
X131642857Y-80932438D01*
X131642857Y-80932438D02*
X131738095Y-81027676D01*
X131738095Y-81027676D02*
X131785714Y-81122914D01*
X131785714Y-81122914D02*
X131833333Y-81313390D01*
X131833333Y-81313390D02*
X131833333Y-81456247D01*
X131833333Y-81456247D02*
X131785714Y-81646723D01*
X131785714Y-81646723D02*
X131738095Y-81741961D01*
X131738095Y-81741961D02*
X131642857Y-81837200D01*
X131642857Y-81837200D02*
X131500000Y-81884819D01*
X131500000Y-81884819D02*
X131261905Y-81884819D01*
X132785714Y-81884819D02*
X132214286Y-81884819D01*
X132500000Y-81884819D02*
X132500000Y-80884819D01*
X132500000Y-80884819D02*
X132404762Y-81027676D01*
X132404762Y-81027676D02*
X132309524Y-81122914D01*
X132309524Y-81122914D02*
X132214286Y-81170533D01*
X130049405Y-84884819D02*
X130049405Y-83884819D01*
X130049405Y-83884819D02*
X130287500Y-83884819D01*
X130287500Y-83884819D02*
X130430357Y-83932438D01*
X130430357Y-83932438D02*
X130525595Y-84027676D01*
X130525595Y-84027676D02*
X130573214Y-84122914D01*
X130573214Y-84122914D02*
X130620833Y-84313390D01*
X130620833Y-84313390D02*
X130620833Y-84456247D01*
X130620833Y-84456247D02*
X130573214Y-84646723D01*
X130573214Y-84646723D02*
X130525595Y-84741961D01*
X130525595Y-84741961D02*
X130430357Y-84837200D01*
X130430357Y-84837200D02*
X130287500Y-84884819D01*
X130287500Y-84884819D02*
X130049405Y-84884819D01*
X130954167Y-83884819D02*
X131573214Y-83884819D01*
X131573214Y-83884819D02*
X131239881Y-84265771D01*
X131239881Y-84265771D02*
X131382738Y-84265771D01*
X131382738Y-84265771D02*
X131477976Y-84313390D01*
X131477976Y-84313390D02*
X131525595Y-84361009D01*
X131525595Y-84361009D02*
X131573214Y-84456247D01*
X131573214Y-84456247D02*
X131573214Y-84694342D01*
X131573214Y-84694342D02*
X131525595Y-84789580D01*
X131525595Y-84789580D02*
X131477976Y-84837200D01*
X131477976Y-84837200D02*
X131382738Y-84884819D01*
X131382738Y-84884819D02*
X131097024Y-84884819D01*
X131097024Y-84884819D02*
X131001786Y-84837200D01*
X131001786Y-84837200D02*
X130954167Y-84789580D01*
D14*
X109666667Y-90201000D02*
X109809524Y-90224809D01*
X109809524Y-90224809D02*
X110047619Y-90224809D01*
X110047619Y-90224809D02*
X110142857Y-90201000D01*
X110142857Y-90201000D02*
X110190476Y-90177190D01*
X110190476Y-90177190D02*
X110238095Y-90129571D01*
X110238095Y-90129571D02*
X110238095Y-90081952D01*
X110238095Y-90081952D02*
X110190476Y-90034333D01*
X110190476Y-90034333D02*
X110142857Y-90010523D01*
X110142857Y-90010523D02*
X110047619Y-89986714D01*
X110047619Y-89986714D02*
X109857143Y-89962904D01*
X109857143Y-89962904D02*
X109761905Y-89939095D01*
X109761905Y-89939095D02*
X109714286Y-89915285D01*
X109714286Y-89915285D02*
X109666667Y-89867666D01*
X109666667Y-89867666D02*
X109666667Y-89820047D01*
X109666667Y-89820047D02*
X109714286Y-89772428D01*
X109714286Y-89772428D02*
X109761905Y-89748619D01*
X109761905Y-89748619D02*
X109857143Y-89724809D01*
X109857143Y-89724809D02*
X110095238Y-89724809D01*
X110095238Y-89724809D02*
X110238095Y-89748619D01*
X110571429Y-89724809D02*
X110809524Y-90224809D01*
X110809524Y-90224809D02*
X111000000Y-89867666D01*
X111000000Y-89867666D02*
X111190476Y-90224809D01*
X111190476Y-90224809D02*
X111428572Y-89724809D01*
X111761905Y-89772428D02*
X111809524Y-89748619D01*
X111809524Y-89748619D02*
X111904762Y-89724809D01*
X111904762Y-89724809D02*
X112142857Y-89724809D01*
X112142857Y-89724809D02*
X112238095Y-89748619D01*
X112238095Y-89748619D02*
X112285714Y-89772428D01*
X112285714Y-89772428D02*
X112333333Y-89820047D01*
X112333333Y-89820047D02*
X112333333Y-89867666D01*
X112333333Y-89867666D02*
X112285714Y-89939095D01*
X112285714Y-89939095D02*
X111714286Y-90224809D01*
X111714286Y-90224809D02*
X112333333Y-90224809D01*
X120833333Y-85724809D02*
X120833333Y-86081952D01*
X120833333Y-86081952D02*
X120809524Y-86153380D01*
X120809524Y-86153380D02*
X120761905Y-86201000D01*
X120761905Y-86201000D02*
X120690476Y-86224809D01*
X120690476Y-86224809D02*
X120642857Y-86224809D01*
X121023809Y-85724809D02*
X121333333Y-85724809D01*
X121333333Y-85724809D02*
X121166666Y-85915285D01*
X121166666Y-85915285D02*
X121238095Y-85915285D01*
X121238095Y-85915285D02*
X121285714Y-85939095D01*
X121285714Y-85939095D02*
X121309523Y-85962904D01*
X121309523Y-85962904D02*
X121333333Y-86010523D01*
X121333333Y-86010523D02*
X121333333Y-86129571D01*
X121333333Y-86129571D02*
X121309523Y-86177190D01*
X121309523Y-86177190D02*
X121285714Y-86201000D01*
X121285714Y-86201000D02*
X121238095Y-86224809D01*
X121238095Y-86224809D02*
X121095238Y-86224809D01*
X121095238Y-86224809D02*
X121047619Y-86201000D01*
X121047619Y-86201000D02*
X121023809Y-86177190D01*
D10*
X110929580Y-66166666D02*
X110977200Y-66214285D01*
X110977200Y-66214285D02*
X111024819Y-66357142D01*
X111024819Y-66357142D02*
X111024819Y-66452380D01*
X111024819Y-66452380D02*
X110977200Y-66595237D01*
X110977200Y-66595237D02*
X110881961Y-66690475D01*
X110881961Y-66690475D02*
X110786723Y-66738094D01*
X110786723Y-66738094D02*
X110596247Y-66785713D01*
X110596247Y-66785713D02*
X110453390Y-66785713D01*
X110453390Y-66785713D02*
X110262914Y-66738094D01*
X110262914Y-66738094D02*
X110167676Y-66690475D01*
X110167676Y-66690475D02*
X110072438Y-66595237D01*
X110072438Y-66595237D02*
X110024819Y-66452380D01*
X110024819Y-66452380D02*
X110024819Y-66357142D01*
X110024819Y-66357142D02*
X110072438Y-66214285D01*
X110072438Y-66214285D02*
X110120057Y-66166666D01*
X110453390Y-65595237D02*
X110405771Y-65690475D01*
X110405771Y-65690475D02*
X110358152Y-65738094D01*
X110358152Y-65738094D02*
X110262914Y-65785713D01*
X110262914Y-65785713D02*
X110215295Y-65785713D01*
X110215295Y-65785713D02*
X110120057Y-65738094D01*
X110120057Y-65738094D02*
X110072438Y-65690475D01*
X110072438Y-65690475D02*
X110024819Y-65595237D01*
X110024819Y-65595237D02*
X110024819Y-65404761D01*
X110024819Y-65404761D02*
X110072438Y-65309523D01*
X110072438Y-65309523D02*
X110120057Y-65261904D01*
X110120057Y-65261904D02*
X110215295Y-65214285D01*
X110215295Y-65214285D02*
X110262914Y-65214285D01*
X110262914Y-65214285D02*
X110358152Y-65261904D01*
X110358152Y-65261904D02*
X110405771Y-65309523D01*
X110405771Y-65309523D02*
X110453390Y-65404761D01*
X110453390Y-65404761D02*
X110453390Y-65595237D01*
X110453390Y-65595237D02*
X110501009Y-65690475D01*
X110501009Y-65690475D02*
X110548628Y-65738094D01*
X110548628Y-65738094D02*
X110643866Y-65785713D01*
X110643866Y-65785713D02*
X110834342Y-65785713D01*
X110834342Y-65785713D02*
X110929580Y-65738094D01*
X110929580Y-65738094D02*
X110977200Y-65690475D01*
X110977200Y-65690475D02*
X111024819Y-65595237D01*
X111024819Y-65595237D02*
X111024819Y-65404761D01*
X111024819Y-65404761D02*
X110977200Y-65309523D01*
X110977200Y-65309523D02*
X110929580Y-65261904D01*
X110929580Y-65261904D02*
X110834342Y-65214285D01*
X110834342Y-65214285D02*
X110643866Y-65214285D01*
X110643866Y-65214285D02*
X110548628Y-65261904D01*
X110548628Y-65261904D02*
X110501009Y-65309523D01*
X110501009Y-65309523D02*
X110453390Y-65404761D01*
X127833333Y-82884819D02*
X127500000Y-82408628D01*
X127261905Y-82884819D02*
X127261905Y-81884819D01*
X127261905Y-81884819D02*
X127642857Y-81884819D01*
X127642857Y-81884819D02*
X127738095Y-81932438D01*
X127738095Y-81932438D02*
X127785714Y-81980057D01*
X127785714Y-81980057D02*
X127833333Y-82075295D01*
X127833333Y-82075295D02*
X127833333Y-82218152D01*
X127833333Y-82218152D02*
X127785714Y-82313390D01*
X127785714Y-82313390D02*
X127738095Y-82361009D01*
X127738095Y-82361009D02*
X127642857Y-82408628D01*
X127642857Y-82408628D02*
X127261905Y-82408628D01*
X128166667Y-81884819D02*
X128833333Y-81884819D01*
X128833333Y-81884819D02*
X128404762Y-82884819D01*
X129666666Y-65099819D02*
X129666666Y-65814104D01*
X129666666Y-65814104D02*
X129619047Y-65956961D01*
X129619047Y-65956961D02*
X129523809Y-66052200D01*
X129523809Y-66052200D02*
X129380952Y-66099819D01*
X129380952Y-66099819D02*
X129285714Y-66099819D01*
X130666666Y-66099819D02*
X130095238Y-66099819D01*
X130380952Y-66099819D02*
X130380952Y-65099819D01*
X130380952Y-65099819D02*
X130285714Y-65242676D01*
X130285714Y-65242676D02*
X130190476Y-65337914D01*
X130190476Y-65337914D02*
X130095238Y-65385533D01*
X123454819Y-71738094D02*
X122454819Y-71738094D01*
X122454819Y-71738094D02*
X122454819Y-71499999D01*
X122454819Y-71499999D02*
X122502438Y-71357142D01*
X122502438Y-71357142D02*
X122597676Y-71261904D01*
X122597676Y-71261904D02*
X122692914Y-71214285D01*
X122692914Y-71214285D02*
X122883390Y-71166666D01*
X122883390Y-71166666D02*
X123026247Y-71166666D01*
X123026247Y-71166666D02*
X123216723Y-71214285D01*
X123216723Y-71214285D02*
X123311961Y-71261904D01*
X123311961Y-71261904D02*
X123407200Y-71357142D01*
X123407200Y-71357142D02*
X123454819Y-71499999D01*
X123454819Y-71499999D02*
X123454819Y-71738094D01*
X122550057Y-70785713D02*
X122502438Y-70738094D01*
X122502438Y-70738094D02*
X122454819Y-70642856D01*
X122454819Y-70642856D02*
X122454819Y-70404761D01*
X122454819Y-70404761D02*
X122502438Y-70309523D01*
X122502438Y-70309523D02*
X122550057Y-70261904D01*
X122550057Y-70261904D02*
X122645295Y-70214285D01*
X122645295Y-70214285D02*
X122740533Y-70214285D01*
X122740533Y-70214285D02*
X122883390Y-70261904D01*
X122883390Y-70261904D02*
X123454819Y-70833332D01*
X123454819Y-70833332D02*
X123454819Y-70214285D01*
%TO.C,R4*%
D15*
X115477500Y-76937742D02*
X115477500Y-77412258D01*
X116522500Y-76937742D02*
X116522500Y-77412258D01*
%TO.C,C6*%
X119700580Y-81490000D02*
X119419420Y-81490000D01*
X119700580Y-82510000D02*
X119419420Y-82510000D01*
%TO.C,C7*%
X111490000Y-72140580D02*
X111490000Y-71859420D01*
X112510000Y-72140580D02*
X112510000Y-71859420D01*
%TO.C,C2*%
X118960000Y-80955000D02*
X123055000Y-80955000D01*
X123055000Y-79045000D02*
X118960000Y-79045000D01*
X123055000Y-80955000D02*
X123055000Y-79045000D01*
%TO.C,C1*%
X124140580Y-76490000D02*
X123859420Y-76490000D01*
X124140580Y-77510000D02*
X123859420Y-77510000D01*
%TO.C,C5*%
X133490000Y-83859420D02*
X133490000Y-84140580D01*
X134510000Y-83859420D02*
X134510000Y-84140580D01*
%TO.C,Q3*%
X113440000Y-80240000D02*
X114440000Y-80240000D01*
X113440000Y-81760000D02*
X113440000Y-80240000D01*
X113490000Y-81760000D02*
X113440000Y-81760000D01*
X115390000Y-81760000D02*
X114610000Y-81760000D01*
X115560000Y-80240000D02*
X116560000Y-80240000D01*
X116560000Y-80240000D02*
X116560000Y-81760000D01*
X116560000Y-81760000D02*
X116510000Y-81760000D01*
X114620000Y-82300000D02*
X114950000Y-82060000D01*
X114950000Y-82540000D01*
X114620000Y-82300000D01*
G36*
X114950000Y-82540000D02*
G01*
X114620000Y-82300000D01*
X114950000Y-82060000D01*
X114950000Y-82540000D01*
G37*
%TO.C,U1*%
X91035000Y-56525000D02*
X91035000Y-62685000D01*
X91035000Y-56525000D02*
X109275000Y-56525000D01*
X91035000Y-81485000D02*
X91035000Y-82265000D01*
X91035000Y-82265000D02*
X92035000Y-82265000D01*
X109275000Y-56525000D02*
X109275000Y-62940000D01*
X109275000Y-81485000D02*
X109275000Y-82265000D01*
X109275000Y-82265000D02*
X108275000Y-82265000D01*
X91030000Y-63410000D02*
X90530000Y-63410000D01*
X91030000Y-62910000D01*
X91030000Y-63410000D01*
G36*
X91030000Y-63410000D02*
G01*
X90530000Y-63410000D01*
X91030000Y-62910000D01*
X91030000Y-63410000D01*
G37*
%TO.C,R6*%
X119762742Y-76477500D02*
X120237258Y-76477500D01*
X119762742Y-77522500D02*
X120237258Y-77522500D01*
%TO.C,C4*%
X127365580Y-84490000D02*
X127084420Y-84490000D01*
X127365580Y-85510000D02*
X127084420Y-85510000D01*
%TO.C,R2*%
X133237258Y-66477500D02*
X132762742Y-66477500D01*
X133237258Y-67522500D02*
X132762742Y-67522500D01*
%TO.C,Q1*%
X110440000Y-76240000D02*
X110490000Y-76240000D01*
X110440000Y-77760000D02*
X110440000Y-76240000D01*
X111440000Y-77760000D02*
X110440000Y-77760000D01*
X111610000Y-76240000D02*
X112390000Y-76240000D01*
X113510000Y-76240000D02*
X113560000Y-76240000D01*
X113560000Y-76240000D02*
X113560000Y-77760000D01*
X113560000Y-77760000D02*
X112560000Y-77760000D01*
X112380000Y-75700000D02*
X112050000Y-75940000D01*
X112050000Y-75460000D01*
X112380000Y-75700000D01*
G36*
X112380000Y-75700000D02*
G01*
X112050000Y-75940000D01*
X112050000Y-75460000D01*
X112380000Y-75700000D01*
G37*
%TO.C,U2*%
X115940000Y-63940000D02*
X120060000Y-63940000D01*
X115940000Y-63995000D02*
X115940000Y-63940000D01*
X115940000Y-74060000D02*
X115940000Y-74005000D01*
X120060000Y-63940000D02*
X120060000Y-63995000D01*
X120060000Y-74005000D02*
X120060000Y-74060000D01*
X120060000Y-74060000D02*
X115940000Y-74060000D01*
X120600000Y-74010000D02*
X120840000Y-74340000D01*
X120360000Y-74340000D01*
X120600000Y-74010000D01*
G36*
X120840000Y-74340000D02*
G01*
X120360000Y-74340000D01*
X120600000Y-74010000D01*
X120840000Y-74340000D01*
G37*
%TO.C,R5*%
X110477500Y-80762742D02*
X110477500Y-81237258D01*
X111522500Y-80762742D02*
X111522500Y-81237258D01*
%TO.C,J2*%
X91640000Y-84890000D02*
X91640000Y-86140000D01*
X91940000Y-86500000D02*
X92550000Y-86500000D01*
X91940000Y-87800000D02*
X92550000Y-87800000D01*
X92550000Y-85800000D02*
X92550000Y-89300000D01*
X92550000Y-89300000D02*
X107450000Y-89300000D01*
X92890000Y-84890000D02*
X91640000Y-84890000D01*
X93400000Y-84990000D02*
X93400000Y-85190000D01*
X93700000Y-84990000D02*
X93400000Y-84990000D01*
X93700000Y-85090000D02*
X93400000Y-85090000D01*
X93700000Y-85190000D02*
X93700000Y-84990000D01*
X94500000Y-85190000D02*
X94500000Y-85800000D01*
X94500000Y-85800000D02*
X92550000Y-85800000D01*
X94900000Y-88800000D02*
X95100000Y-88800000D01*
X94900000Y-89300000D02*
X94900000Y-88800000D01*
X95000000Y-89300000D02*
X95000000Y-88800000D01*
X95100000Y-88800000D02*
X95100000Y-89300000D01*
X96900000Y-88800000D02*
X97100000Y-88800000D01*
X96900000Y-89300000D02*
X96900000Y-88800000D01*
X97000000Y-89300000D02*
X97000000Y-88800000D01*
X97100000Y-88800000D02*
X97100000Y-89300000D01*
X98900000Y-88800000D02*
X99100000Y-88800000D01*
X98900000Y-89300000D02*
X98900000Y-88800000D01*
X99000000Y-89300000D02*
X99000000Y-88800000D01*
X99100000Y-88800000D02*
X99100000Y-89300000D01*
X100900000Y-88800000D02*
X101100000Y-88800000D01*
X100900000Y-89300000D02*
X100900000Y-88800000D01*
X101000000Y-89300000D02*
X101000000Y-88800000D01*
X101100000Y-88800000D02*
X101100000Y-89300000D01*
X102900000Y-88800000D02*
X103100000Y-88800000D01*
X102900000Y-89300000D02*
X102900000Y-88800000D01*
X103000000Y-89300000D02*
X103000000Y-88800000D01*
X103100000Y-88800000D02*
X103100000Y-89300000D01*
X104900000Y-88800000D02*
X105100000Y-88800000D01*
X104900000Y-89300000D02*
X104900000Y-88800000D01*
X105000000Y-89300000D02*
X105000000Y-88800000D01*
X105100000Y-88800000D02*
X105100000Y-89300000D01*
X105500000Y-85800000D02*
X105500000Y-85190000D01*
X107450000Y-85800000D02*
X105500000Y-85800000D01*
X107450000Y-89300000D02*
X107450000Y-85800000D01*
X108060000Y-86500000D02*
X107450000Y-86500000D01*
X108060000Y-87800000D02*
X107450000Y-87800000D01*
X91940000Y-85190000D02*
X108060000Y-85190000D01*
X108060000Y-89910000D01*
X91940000Y-89910000D01*
X91940000Y-85190000D01*
%TO.C,C3*%
X124140580Y-82490000D02*
X123859420Y-82490000D01*
X124140580Y-83510000D02*
X123859420Y-83510000D01*
%TO.C,R3*%
X127762742Y-78477500D02*
X128237258Y-78477500D01*
X127762742Y-79522500D02*
X128237258Y-79522500D01*
%TO.C,U4*%
X128590000Y-71090000D02*
X129850000Y-71090000D01*
X128590000Y-74850000D02*
X128590000Y-71090000D01*
X135410000Y-71090000D02*
X134150000Y-71090000D01*
X135410000Y-74850000D02*
X135410000Y-71090000D01*
X128690000Y-76130000D02*
X128360000Y-76370000D01*
X128360000Y-75890000D01*
X128690000Y-76130000D01*
G36*
X128690000Y-76130000D02*
G01*
X128360000Y-76370000D01*
X128360000Y-75890000D01*
X128690000Y-76130000D01*
G37*
%TO.C,D1*%
X131200000Y-80735000D02*
X133485000Y-80735000D01*
X133485000Y-79265000D02*
X131200000Y-79265000D01*
X133485000Y-80735000D02*
X133485000Y-79265000D01*
%TO.C,D3*%
X129987500Y-83735000D02*
X132272500Y-83735000D01*
X132272500Y-82265000D02*
X129987500Y-82265000D01*
X132272500Y-83735000D02*
X132272500Y-82265000D01*
%TO.C,SW2*%
X109430000Y-84930000D02*
X109730000Y-84930000D01*
X109430000Y-89070000D02*
X109430000Y-84930000D01*
X109730000Y-89070000D02*
X109430000Y-89070000D01*
X112270000Y-84930000D02*
X112570000Y-84930000D01*
X112570000Y-84930000D02*
X112570000Y-89070000D01*
X112570000Y-89070000D02*
X112270000Y-89070000D01*
%TO.C,J3*%
X120080000Y-89380000D02*
X120080000Y-88000000D01*
X121460000Y-89380000D02*
X120080000Y-89380000D01*
X122730000Y-86620000D02*
X135540000Y-86620000D01*
X122730000Y-89380000D02*
X122730000Y-86620000D01*
X122730000Y-89380000D02*
X135540000Y-89380000D01*
X135540000Y-89380000D02*
X135540000Y-86620000D01*
%TO.C,C8*%
X111490000Y-66140580D02*
X111490000Y-65859420D01*
X112510000Y-66140580D02*
X112510000Y-65859420D01*
%TO.C,R7*%
X128237258Y-80477500D02*
X127762742Y-80477500D01*
X128237258Y-81522500D02*
X127762742Y-81522500D01*
%TO.C,J1*%
X125300000Y-58000000D02*
X125300000Y-56100000D01*
X125300000Y-61900000D02*
X125300000Y-59900000D01*
X134700000Y-56100000D02*
X125300000Y-56100000D01*
X134700000Y-58000000D02*
X134700000Y-56100000D01*
X134700000Y-61900000D02*
X134700000Y-59900000D01*
%TO.C,D2*%
X124000000Y-73360000D02*
X124000000Y-69350000D01*
X124000000Y-73360000D02*
X126000000Y-73360000D01*
X126000000Y-73360000D02*
X126000000Y-69350000D01*
%TD*%
M02*
