%TF.GenerationSoftware,KiCad,Pcbnew,10.0.5*%
%TF.CreationDate,2026-07-31T18:48:37+05:30*%
%TF.ProjectId,imu_design,696d755f-6465-4736-9967-6e2e6b696361,rev?*%
%TF.SameCoordinates,Original*%
%TF.FileFunction,Copper,L1,Top*%
%TF.FilePolarity,Positive*%
%FSLAX46Y46*%
G04 Gerber Fmt 4.6, Leading zero omitted, Abs format (unit mm)*
G04 Created by KiCad (PCBNEW 10.0.5) date 2026-07-31 18:48:37*
%MOMM*%
%LPD*%
G01*
G04 APERTURE LIST*
G04 Aperture macros list*
%AMRoundRect*
0 Rectangle with rounded corners*
0 $1 Rounding radius*
0 $2 $3 $4 $5 $6 $7 $8 $9 X,Y pos of 4 corners*
0 Add a 4 corners polygon primitive as box body*
4,1,4,$2,$3,$4,$5,$6,$7,$8,$9,$2,$3,0*
0 Add four circle primitives for the rounded corners*
1,1,$1+$1,$2,$3*
1,1,$1+$1,$4,$5*
1,1,$1+$1,$6,$7*
1,1,$1+$1,$8,$9*
0 Add four rect primitives between the rounded corners*
20,1,$1+$1,$2,$3,$4,$5,0*
20,1,$1+$1,$4,$5,$6,$7,0*
20,1,$1+$1,$6,$7,$8,$9,0*
20,1,$1+$1,$8,$9,$2,$3,0*%
G04 Aperture macros list end*
%ADD10C,0.150000*%
%ADD11C,0.300000*%
%ADD12C,0.400000*%
%TA.AperFunction,SMDPad,CuDef*%
%ADD13RoundRect,0.225000X-0.225000X-0.250000X0.225000X-0.250000X0.225000X0.250000X-0.225000X0.250000X0*%
%TD*%
%TA.AperFunction,SMDPad,CuDef*%
%ADD14RoundRect,0.087500X0.087500X-0.225000X0.087500X0.225000X-0.087500X0.225000X-0.087500X-0.225000X0*%
%TD*%
%TA.AperFunction,SMDPad,CuDef*%
%ADD15RoundRect,0.087500X0.225000X-0.087500X0.225000X0.087500X-0.225000X0.087500X-0.225000X-0.087500X0*%
%TD*%
%TA.AperFunction,SMDPad,CuDef*%
%ADD16RoundRect,0.225000X0.225000X0.250000X-0.225000X0.250000X-0.225000X-0.250000X0.225000X-0.250000X0*%
%TD*%
%TA.AperFunction,SMDPad,CuDef*%
%ADD17RoundRect,0.225000X0.250000X-0.225000X0.250000X0.225000X-0.250000X0.225000X-0.250000X-0.225000X0*%
%TD*%
%TA.AperFunction,ComponentPad*%
%ADD18RoundRect,0.250000X-0.350000X-0.625000X0.350000X-0.625000X0.350000X0.625000X-0.350000X0.625000X0*%
%TD*%
%TA.AperFunction,ComponentPad*%
%ADD19O,1.200000X1.750000*%
%TD*%
%TA.AperFunction,ViaPad*%
%ADD20C,0.600000*%
%TD*%
%TA.AperFunction,Conductor*%
%ADD21C,0.200000*%
%TD*%
G04 APERTURE END LIST*
D10*
X177002200Y-166007200D02*
X285002200Y-166007200D01*
X285002200Y-198007200D01*
X177002200Y-198007200D01*
X177002200Y-166007200D01*
X10000000Y-10000000D02*
X287002200Y-10000000D01*
X287002200Y-200007200D01*
X10000000Y-200007200D01*
X10000000Y-10000000D01*
X12000000Y-12000000D02*
X285002200Y-12000000D01*
X285002200Y-198007200D01*
X12000000Y-198007200D01*
X12000000Y-12000000D01*
X60000000Y-12000000D02*
X60000000Y-10000000D01*
X110000000Y-12000000D02*
X110000000Y-10000000D01*
X160000000Y-12000000D02*
X160000000Y-10000000D01*
X210000000Y-12000000D02*
X210000000Y-10000000D01*
X260000000Y-12000000D02*
X260000000Y-10000000D01*
X36089160Y-11593604D02*
X35346303Y-11593604D01*
X35717731Y-11593604D02*
X35717731Y-10293604D01*
X35717731Y-10293604D02*
X35593922Y-10479319D01*
X35593922Y-10479319D02*
X35470112Y-10603128D01*
X35470112Y-10603128D02*
X35346303Y-10665033D01*
X85346303Y-10417414D02*
X85408207Y-10355509D01*
X85408207Y-10355509D02*
X85532017Y-10293604D01*
X85532017Y-10293604D02*
X85841541Y-10293604D01*
X85841541Y-10293604D02*
X85965350Y-10355509D01*
X85965350Y-10355509D02*
X86027255Y-10417414D01*
X86027255Y-10417414D02*
X86089160Y-10541223D01*
X86089160Y-10541223D02*
X86089160Y-10665033D01*
X86089160Y-10665033D02*
X86027255Y-10850747D01*
X86027255Y-10850747D02*
X85284398Y-11593604D01*
X85284398Y-11593604D02*
X86089160Y-11593604D01*
X135284398Y-10293604D02*
X136089160Y-10293604D01*
X136089160Y-10293604D02*
X135655826Y-10788842D01*
X135655826Y-10788842D02*
X135841541Y-10788842D01*
X135841541Y-10788842D02*
X135965350Y-10850747D01*
X135965350Y-10850747D02*
X136027255Y-10912652D01*
X136027255Y-10912652D02*
X136089160Y-11036461D01*
X136089160Y-11036461D02*
X136089160Y-11345985D01*
X136089160Y-11345985D02*
X136027255Y-11469795D01*
X136027255Y-11469795D02*
X135965350Y-11531700D01*
X135965350Y-11531700D02*
X135841541Y-11593604D01*
X135841541Y-11593604D02*
X135470112Y-11593604D01*
X135470112Y-11593604D02*
X135346303Y-11531700D01*
X135346303Y-11531700D02*
X135284398Y-11469795D01*
X185965350Y-10726938D02*
X185965350Y-11593604D01*
X185655826Y-10231700D02*
X185346303Y-11160271D01*
X185346303Y-11160271D02*
X186151064Y-11160271D01*
X236027255Y-10293604D02*
X235408207Y-10293604D01*
X235408207Y-10293604D02*
X235346303Y-10912652D01*
X235346303Y-10912652D02*
X235408207Y-10850747D01*
X235408207Y-10850747D02*
X235532017Y-10788842D01*
X235532017Y-10788842D02*
X235841541Y-10788842D01*
X235841541Y-10788842D02*
X235965350Y-10850747D01*
X235965350Y-10850747D02*
X236027255Y-10912652D01*
X236027255Y-10912652D02*
X236089160Y-11036461D01*
X236089160Y-11036461D02*
X236089160Y-11345985D01*
X236089160Y-11345985D02*
X236027255Y-11469795D01*
X236027255Y-11469795D02*
X235965350Y-11531700D01*
X235965350Y-11531700D02*
X235841541Y-11593604D01*
X235841541Y-11593604D02*
X235532017Y-11593604D01*
X235532017Y-11593604D02*
X235408207Y-11531700D01*
X235408207Y-11531700D02*
X235346303Y-11469795D01*
X285965350Y-10293604D02*
X285717731Y-10293604D01*
X285717731Y-10293604D02*
X285593922Y-10355509D01*
X285593922Y-10355509D02*
X285532017Y-10417414D01*
X285532017Y-10417414D02*
X285408207Y-10603128D01*
X285408207Y-10603128D02*
X285346303Y-10850747D01*
X285346303Y-10850747D02*
X285346303Y-11345985D01*
X285346303Y-11345985D02*
X285408207Y-11469795D01*
X285408207Y-11469795D02*
X285470112Y-11531700D01*
X285470112Y-11531700D02*
X285593922Y-11593604D01*
X285593922Y-11593604D02*
X285841541Y-11593604D01*
X285841541Y-11593604D02*
X285965350Y-11531700D01*
X285965350Y-11531700D02*
X286027255Y-11469795D01*
X286027255Y-11469795D02*
X286089160Y-11345985D01*
X286089160Y-11345985D02*
X286089160Y-11036461D01*
X286089160Y-11036461D02*
X286027255Y-10912652D01*
X286027255Y-10912652D02*
X285965350Y-10850747D01*
X285965350Y-10850747D02*
X285841541Y-10788842D01*
X285841541Y-10788842D02*
X285593922Y-10788842D01*
X285593922Y-10788842D02*
X285470112Y-10850747D01*
X285470112Y-10850747D02*
X285408207Y-10912652D01*
X285408207Y-10912652D02*
X285346303Y-11036461D01*
X60000000Y-198007200D02*
X60000000Y-200007200D01*
X110000000Y-198007200D02*
X110000000Y-200007200D01*
X160000000Y-198007200D02*
X160000000Y-200007200D01*
X210000000Y-198007200D02*
X210000000Y-200007200D01*
X260000000Y-198007200D02*
X260000000Y-200007200D01*
X36089160Y-199600804D02*
X35346303Y-199600804D01*
X35717731Y-199600804D02*
X35717731Y-198300804D01*
X35717731Y-198300804D02*
X35593922Y-198486519D01*
X35593922Y-198486519D02*
X35470112Y-198610328D01*
X35470112Y-198610328D02*
X35346303Y-198672233D01*
X85346303Y-198424614D02*
X85408207Y-198362709D01*
X85408207Y-198362709D02*
X85532017Y-198300804D01*
X85532017Y-198300804D02*
X85841541Y-198300804D01*
X85841541Y-198300804D02*
X85965350Y-198362709D01*
X85965350Y-198362709D02*
X86027255Y-198424614D01*
X86027255Y-198424614D02*
X86089160Y-198548423D01*
X86089160Y-198548423D02*
X86089160Y-198672233D01*
X86089160Y-198672233D02*
X86027255Y-198857947D01*
X86027255Y-198857947D02*
X85284398Y-199600804D01*
X85284398Y-199600804D02*
X86089160Y-199600804D01*
X135284398Y-198300804D02*
X136089160Y-198300804D01*
X136089160Y-198300804D02*
X135655826Y-198796042D01*
X135655826Y-198796042D02*
X135841541Y-198796042D01*
X135841541Y-198796042D02*
X135965350Y-198857947D01*
X135965350Y-198857947D02*
X136027255Y-198919852D01*
X136027255Y-198919852D02*
X136089160Y-199043661D01*
X136089160Y-199043661D02*
X136089160Y-199353185D01*
X136089160Y-199353185D02*
X136027255Y-199476995D01*
X136027255Y-199476995D02*
X135965350Y-199538900D01*
X135965350Y-199538900D02*
X135841541Y-199600804D01*
X135841541Y-199600804D02*
X135470112Y-199600804D01*
X135470112Y-199600804D02*
X135346303Y-199538900D01*
X135346303Y-199538900D02*
X135284398Y-199476995D01*
X185965350Y-198734138D02*
X185965350Y-199600804D01*
X185655826Y-198238900D02*
X185346303Y-199167471D01*
X185346303Y-199167471D02*
X186151064Y-199167471D01*
X236027255Y-198300804D02*
X235408207Y-198300804D01*
X235408207Y-198300804D02*
X235346303Y-198919852D01*
X235346303Y-198919852D02*
X235408207Y-198857947D01*
X235408207Y-198857947D02*
X235532017Y-198796042D01*
X235532017Y-198796042D02*
X235841541Y-198796042D01*
X235841541Y-198796042D02*
X235965350Y-198857947D01*
X235965350Y-198857947D02*
X236027255Y-198919852D01*
X236027255Y-198919852D02*
X236089160Y-199043661D01*
X236089160Y-199043661D02*
X236089160Y-199353185D01*
X236089160Y-199353185D02*
X236027255Y-199476995D01*
X236027255Y-199476995D02*
X235965350Y-199538900D01*
X235965350Y-199538900D02*
X235841541Y-199600804D01*
X235841541Y-199600804D02*
X235532017Y-199600804D01*
X235532017Y-199600804D02*
X235408207Y-199538900D01*
X235408207Y-199538900D02*
X235346303Y-199476995D01*
X285965350Y-198300804D02*
X285717731Y-198300804D01*
X285717731Y-198300804D02*
X285593922Y-198362709D01*
X285593922Y-198362709D02*
X285532017Y-198424614D01*
X285532017Y-198424614D02*
X285408207Y-198610328D01*
X285408207Y-198610328D02*
X285346303Y-198857947D01*
X285346303Y-198857947D02*
X285346303Y-199353185D01*
X285346303Y-199353185D02*
X285408207Y-199476995D01*
X285408207Y-199476995D02*
X285470112Y-199538900D01*
X285470112Y-199538900D02*
X285593922Y-199600804D01*
X285593922Y-199600804D02*
X285841541Y-199600804D01*
X285841541Y-199600804D02*
X285965350Y-199538900D01*
X285965350Y-199538900D02*
X286027255Y-199476995D01*
X286027255Y-199476995D02*
X286089160Y-199353185D01*
X286089160Y-199353185D02*
X286089160Y-199043661D01*
X286089160Y-199043661D02*
X286027255Y-198919852D01*
X286027255Y-198919852D02*
X285965350Y-198857947D01*
X285965350Y-198857947D02*
X285841541Y-198796042D01*
X285841541Y-198796042D02*
X285593922Y-198796042D01*
X285593922Y-198796042D02*
X285470112Y-198857947D01*
X285470112Y-198857947D02*
X285408207Y-198919852D01*
X285408207Y-198919852D02*
X285346303Y-199043661D01*
X10000000Y-60000000D02*
X12000000Y-60000000D01*
X10000000Y-110000000D02*
X12000000Y-110000000D01*
X10000000Y-160000000D02*
X12000000Y-160000000D01*
X10690476Y-35222176D02*
X11309523Y-35222176D01*
X10566666Y-35593604D02*
X10999999Y-34293604D01*
X10999999Y-34293604D02*
X11433333Y-35593604D01*
X11092857Y-84912652D02*
X11278571Y-84974557D01*
X11278571Y-84974557D02*
X11340476Y-85036461D01*
X11340476Y-85036461D02*
X11402380Y-85160271D01*
X11402380Y-85160271D02*
X11402380Y-85345985D01*
X11402380Y-85345985D02*
X11340476Y-85469795D01*
X11340476Y-85469795D02*
X11278571Y-85531700D01*
X11278571Y-85531700D02*
X11154761Y-85593604D01*
X11154761Y-85593604D02*
X10659523Y-85593604D01*
X10659523Y-85593604D02*
X10659523Y-84293604D01*
X10659523Y-84293604D02*
X11092857Y-84293604D01*
X11092857Y-84293604D02*
X11216666Y-84355509D01*
X11216666Y-84355509D02*
X11278571Y-84417414D01*
X11278571Y-84417414D02*
X11340476Y-84541223D01*
X11340476Y-84541223D02*
X11340476Y-84665033D01*
X11340476Y-84665033D02*
X11278571Y-84788842D01*
X11278571Y-84788842D02*
X11216666Y-84850747D01*
X11216666Y-84850747D02*
X11092857Y-84912652D01*
X11092857Y-84912652D02*
X10659523Y-84912652D01*
X11402380Y-135469795D02*
X11340476Y-135531700D01*
X11340476Y-135531700D02*
X11154761Y-135593604D01*
X11154761Y-135593604D02*
X11030952Y-135593604D01*
X11030952Y-135593604D02*
X10845238Y-135531700D01*
X10845238Y-135531700D02*
X10721428Y-135407890D01*
X10721428Y-135407890D02*
X10659523Y-135284080D01*
X10659523Y-135284080D02*
X10597619Y-135036461D01*
X10597619Y-135036461D02*
X10597619Y-134850747D01*
X10597619Y-134850747D02*
X10659523Y-134603128D01*
X10659523Y-134603128D02*
X10721428Y-134479319D01*
X10721428Y-134479319D02*
X10845238Y-134355509D01*
X10845238Y-134355509D02*
X11030952Y-134293604D01*
X11030952Y-134293604D02*
X11154761Y-134293604D01*
X11154761Y-134293604D02*
X11340476Y-134355509D01*
X11340476Y-134355509D02*
X11402380Y-134417414D01*
X10659523Y-185593604D02*
X10659523Y-184293604D01*
X10659523Y-184293604D02*
X10969047Y-184293604D01*
X10969047Y-184293604D02*
X11154761Y-184355509D01*
X11154761Y-184355509D02*
X11278571Y-184479319D01*
X11278571Y-184479319D02*
X11340476Y-184603128D01*
X11340476Y-184603128D02*
X11402380Y-184850747D01*
X11402380Y-184850747D02*
X11402380Y-185036461D01*
X11402380Y-185036461D02*
X11340476Y-185284080D01*
X11340476Y-185284080D02*
X11278571Y-185407890D01*
X11278571Y-185407890D02*
X11154761Y-185531700D01*
X11154761Y-185531700D02*
X10969047Y-185593604D01*
X10969047Y-185593604D02*
X10659523Y-185593604D01*
X287002200Y-60000000D02*
X285002200Y-60000000D01*
X287002200Y-110000000D02*
X285002200Y-110000000D01*
X287002200Y-160000000D02*
X285002200Y-160000000D01*
X285692676Y-35222176D02*
X286311723Y-35222176D01*
X285568866Y-35593604D02*
X286002199Y-34293604D01*
X286002199Y-34293604D02*
X286435533Y-35593604D01*
X286095057Y-84912652D02*
X286280771Y-84974557D01*
X286280771Y-84974557D02*
X286342676Y-85036461D01*
X286342676Y-85036461D02*
X286404580Y-85160271D01*
X286404580Y-85160271D02*
X286404580Y-85345985D01*
X286404580Y-85345985D02*
X286342676Y-85469795D01*
X286342676Y-85469795D02*
X286280771Y-85531700D01*
X286280771Y-85531700D02*
X286156961Y-85593604D01*
X286156961Y-85593604D02*
X285661723Y-85593604D01*
X285661723Y-85593604D02*
X285661723Y-84293604D01*
X285661723Y-84293604D02*
X286095057Y-84293604D01*
X286095057Y-84293604D02*
X286218866Y-84355509D01*
X286218866Y-84355509D02*
X286280771Y-84417414D01*
X286280771Y-84417414D02*
X286342676Y-84541223D01*
X286342676Y-84541223D02*
X286342676Y-84665033D01*
X286342676Y-84665033D02*
X286280771Y-84788842D01*
X286280771Y-84788842D02*
X286218866Y-84850747D01*
X286218866Y-84850747D02*
X286095057Y-84912652D01*
X286095057Y-84912652D02*
X285661723Y-84912652D01*
X286404580Y-135469795D02*
X286342676Y-135531700D01*
X286342676Y-135531700D02*
X286156961Y-135593604D01*
X286156961Y-135593604D02*
X286033152Y-135593604D01*
X286033152Y-135593604D02*
X285847438Y-135531700D01*
X285847438Y-135531700D02*
X285723628Y-135407890D01*
X285723628Y-135407890D02*
X285661723Y-135284080D01*
X285661723Y-135284080D02*
X285599819Y-135036461D01*
X285599819Y-135036461D02*
X285599819Y-134850747D01*
X285599819Y-134850747D02*
X285661723Y-134603128D01*
X285661723Y-134603128D02*
X285723628Y-134479319D01*
X285723628Y-134479319D02*
X285847438Y-134355509D01*
X285847438Y-134355509D02*
X286033152Y-134293604D01*
X286033152Y-134293604D02*
X286156961Y-134293604D01*
X286156961Y-134293604D02*
X286342676Y-134355509D01*
X286342676Y-134355509D02*
X286404580Y-134417414D01*
X285661723Y-185593604D02*
X285661723Y-184293604D01*
X285661723Y-184293604D02*
X285971247Y-184293604D01*
X285971247Y-184293604D02*
X286156961Y-184355509D01*
X286156961Y-184355509D02*
X286280771Y-184479319D01*
X286280771Y-184479319D02*
X286342676Y-184603128D01*
X286342676Y-184603128D02*
X286404580Y-184850747D01*
X286404580Y-184850747D02*
X286404580Y-185036461D01*
X286404580Y-185036461D02*
X286342676Y-185284080D01*
X286342676Y-185284080D02*
X286280771Y-185407890D01*
X286280771Y-185407890D02*
X286156961Y-185531700D01*
X286156961Y-185531700D02*
X285971247Y-185593604D01*
X285971247Y-185593604D02*
X285661723Y-185593604D01*
X200458026Y-193793328D02*
X200458026Y-192293328D01*
X200458026Y-192293328D02*
X200815169Y-192293328D01*
X200815169Y-192293328D02*
X201029455Y-192364757D01*
X201029455Y-192364757D02*
X201172312Y-192507614D01*
X201172312Y-192507614D02*
X201243741Y-192650471D01*
X201243741Y-192650471D02*
X201315169Y-192936185D01*
X201315169Y-192936185D02*
X201315169Y-193150471D01*
X201315169Y-193150471D02*
X201243741Y-193436185D01*
X201243741Y-193436185D02*
X201172312Y-193579042D01*
X201172312Y-193579042D02*
X201029455Y-193721900D01*
X201029455Y-193721900D02*
X200815169Y-193793328D01*
X200815169Y-193793328D02*
X200458026Y-193793328D01*
X202600884Y-193793328D02*
X202600884Y-193007614D01*
X202600884Y-193007614D02*
X202529455Y-192864757D01*
X202529455Y-192864757D02*
X202386598Y-192793328D01*
X202386598Y-192793328D02*
X202100884Y-192793328D01*
X202100884Y-192793328D02*
X201958026Y-192864757D01*
X202600884Y-193721900D02*
X202458026Y-193793328D01*
X202458026Y-193793328D02*
X202100884Y-193793328D01*
X202100884Y-193793328D02*
X201958026Y-193721900D01*
X201958026Y-193721900D02*
X201886598Y-193579042D01*
X201886598Y-193579042D02*
X201886598Y-193436185D01*
X201886598Y-193436185D02*
X201958026Y-193293328D01*
X201958026Y-193293328D02*
X202100884Y-193221900D01*
X202100884Y-193221900D02*
X202458026Y-193221900D01*
X202458026Y-193221900D02*
X202600884Y-193150471D01*
X203100884Y-192793328D02*
X203672312Y-192793328D01*
X203315169Y-192293328D02*
X203315169Y-193579042D01*
X203315169Y-193579042D02*
X203386598Y-193721900D01*
X203386598Y-193721900D02*
X203529455Y-193793328D01*
X203529455Y-193793328D02*
X203672312Y-193793328D01*
X204743741Y-193721900D02*
X204600884Y-193793328D01*
X204600884Y-193793328D02*
X204315170Y-193793328D01*
X204315170Y-193793328D02*
X204172312Y-193721900D01*
X204172312Y-193721900D02*
X204100884Y-193579042D01*
X204100884Y-193579042D02*
X204100884Y-193007614D01*
X204100884Y-193007614D02*
X204172312Y-192864757D01*
X204172312Y-192864757D02*
X204315170Y-192793328D01*
X204315170Y-192793328D02*
X204600884Y-192793328D01*
X204600884Y-192793328D02*
X204743741Y-192864757D01*
X204743741Y-192864757D02*
X204815170Y-193007614D01*
X204815170Y-193007614D02*
X204815170Y-193150471D01*
X204815170Y-193150471D02*
X204100884Y-193293328D01*
X205458026Y-193650471D02*
X205529455Y-193721900D01*
X205529455Y-193721900D02*
X205458026Y-193793328D01*
X205458026Y-193793328D02*
X205386598Y-193721900D01*
X205386598Y-193721900D02*
X205458026Y-193650471D01*
X205458026Y-193650471D02*
X205458026Y-193793328D01*
X205458026Y-192864757D02*
X205529455Y-192936185D01*
X205529455Y-192936185D02*
X205458026Y-193007614D01*
X205458026Y-193007614D02*
X205386598Y-192936185D01*
X205386598Y-192936185D02*
X205458026Y-192864757D01*
X205458026Y-192864757D02*
X205458026Y-193007614D01*
X177002200Y-194507200D02*
X285002200Y-194507200D01*
X178458026Y-196593328D02*
X178458026Y-195093328D01*
X179315169Y-196593328D02*
X178672312Y-195736185D01*
X179315169Y-195093328D02*
X178458026Y-195950471D01*
X179958026Y-196593328D02*
X179958026Y-195593328D01*
X179958026Y-195093328D02*
X179886598Y-195164757D01*
X179886598Y-195164757D02*
X179958026Y-195236185D01*
X179958026Y-195236185D02*
X180029455Y-195164757D01*
X180029455Y-195164757D02*
X179958026Y-195093328D01*
X179958026Y-195093328D02*
X179958026Y-195236185D01*
X181529455Y-196450471D02*
X181458027Y-196521900D01*
X181458027Y-196521900D02*
X181243741Y-196593328D01*
X181243741Y-196593328D02*
X181100884Y-196593328D01*
X181100884Y-196593328D02*
X180886598Y-196521900D01*
X180886598Y-196521900D02*
X180743741Y-196379042D01*
X180743741Y-196379042D02*
X180672312Y-196236185D01*
X180672312Y-196236185D02*
X180600884Y-195950471D01*
X180600884Y-195950471D02*
X180600884Y-195736185D01*
X180600884Y-195736185D02*
X180672312Y-195450471D01*
X180672312Y-195450471D02*
X180743741Y-195307614D01*
X180743741Y-195307614D02*
X180886598Y-195164757D01*
X180886598Y-195164757D02*
X181100884Y-195093328D01*
X181100884Y-195093328D02*
X181243741Y-195093328D01*
X181243741Y-195093328D02*
X181458027Y-195164757D01*
X181458027Y-195164757D02*
X181529455Y-195236185D01*
X182815170Y-196593328D02*
X182815170Y-195807614D01*
X182815170Y-195807614D02*
X182743741Y-195664757D01*
X182743741Y-195664757D02*
X182600884Y-195593328D01*
X182600884Y-195593328D02*
X182315170Y-195593328D01*
X182315170Y-195593328D02*
X182172312Y-195664757D01*
X182815170Y-196521900D02*
X182672312Y-196593328D01*
X182672312Y-196593328D02*
X182315170Y-196593328D01*
X182315170Y-196593328D02*
X182172312Y-196521900D01*
X182172312Y-196521900D02*
X182100884Y-196379042D01*
X182100884Y-196379042D02*
X182100884Y-196236185D01*
X182100884Y-196236185D02*
X182172312Y-196093328D01*
X182172312Y-196093328D02*
X182315170Y-196021900D01*
X182315170Y-196021900D02*
X182672312Y-196021900D01*
X182672312Y-196021900D02*
X182815170Y-195950471D01*
X184172313Y-196593328D02*
X184172313Y-195093328D01*
X184172313Y-196521900D02*
X184029455Y-196593328D01*
X184029455Y-196593328D02*
X183743741Y-196593328D01*
X183743741Y-196593328D02*
X183600884Y-196521900D01*
X183600884Y-196521900D02*
X183529455Y-196450471D01*
X183529455Y-196450471D02*
X183458027Y-196307614D01*
X183458027Y-196307614D02*
X183458027Y-195879042D01*
X183458027Y-195879042D02*
X183529455Y-195736185D01*
X183529455Y-195736185D02*
X183600884Y-195664757D01*
X183600884Y-195664757D02*
X183743741Y-195593328D01*
X183743741Y-195593328D02*
X184029455Y-195593328D01*
X184029455Y-195593328D02*
X184172313Y-195664757D01*
X186029455Y-195807614D02*
X186529455Y-195807614D01*
X186743741Y-196593328D02*
X186029455Y-196593328D01*
X186029455Y-196593328D02*
X186029455Y-195093328D01*
X186029455Y-195093328D02*
X186743741Y-195093328D01*
X187386598Y-196450471D02*
X187458027Y-196521900D01*
X187458027Y-196521900D02*
X187386598Y-196593328D01*
X187386598Y-196593328D02*
X187315170Y-196521900D01*
X187315170Y-196521900D02*
X187386598Y-196450471D01*
X187386598Y-196450471D02*
X187386598Y-196593328D01*
X188100884Y-196593328D02*
X188100884Y-195093328D01*
X188100884Y-195093328D02*
X188458027Y-195093328D01*
X188458027Y-195093328D02*
X188672313Y-195164757D01*
X188672313Y-195164757D02*
X188815170Y-195307614D01*
X188815170Y-195307614D02*
X188886599Y-195450471D01*
X188886599Y-195450471D02*
X188958027Y-195736185D01*
X188958027Y-195736185D02*
X188958027Y-195950471D01*
X188958027Y-195950471D02*
X188886599Y-196236185D01*
X188886599Y-196236185D02*
X188815170Y-196379042D01*
X188815170Y-196379042D02*
X188672313Y-196521900D01*
X188672313Y-196521900D02*
X188458027Y-196593328D01*
X188458027Y-196593328D02*
X188100884Y-196593328D01*
X189600884Y-196450471D02*
X189672313Y-196521900D01*
X189672313Y-196521900D02*
X189600884Y-196593328D01*
X189600884Y-196593328D02*
X189529456Y-196521900D01*
X189529456Y-196521900D02*
X189600884Y-196450471D01*
X189600884Y-196450471D02*
X189600884Y-196593328D01*
X190243742Y-196164757D02*
X190958028Y-196164757D01*
X190100885Y-196593328D02*
X190600885Y-195093328D01*
X190600885Y-195093328D02*
X191100885Y-196593328D01*
X191600884Y-196450471D02*
X191672313Y-196521900D01*
X191672313Y-196521900D02*
X191600884Y-196593328D01*
X191600884Y-196593328D02*
X191529456Y-196521900D01*
X191529456Y-196521900D02*
X191600884Y-196450471D01*
X191600884Y-196450471D02*
X191600884Y-196593328D01*
X194243742Y-196593328D02*
X193386599Y-196593328D01*
X193815170Y-196593328D02*
X193815170Y-195093328D01*
X193815170Y-195093328D02*
X193672313Y-195307614D01*
X193672313Y-195307614D02*
X193529456Y-195450471D01*
X193529456Y-195450471D02*
X193386599Y-195521900D01*
X195172313Y-195093328D02*
X195315170Y-195093328D01*
X195315170Y-195093328D02*
X195458027Y-195164757D01*
X195458027Y-195164757D02*
X195529456Y-195236185D01*
X195529456Y-195236185D02*
X195600884Y-195379042D01*
X195600884Y-195379042D02*
X195672313Y-195664757D01*
X195672313Y-195664757D02*
X195672313Y-196021900D01*
X195672313Y-196021900D02*
X195600884Y-196307614D01*
X195600884Y-196307614D02*
X195529456Y-196450471D01*
X195529456Y-196450471D02*
X195458027Y-196521900D01*
X195458027Y-196521900D02*
X195315170Y-196593328D01*
X195315170Y-196593328D02*
X195172313Y-196593328D01*
X195172313Y-196593328D02*
X195029456Y-196521900D01*
X195029456Y-196521900D02*
X194958027Y-196450471D01*
X194958027Y-196450471D02*
X194886598Y-196307614D01*
X194886598Y-196307614D02*
X194815170Y-196021900D01*
X194815170Y-196021900D02*
X194815170Y-195664757D01*
X194815170Y-195664757D02*
X194886598Y-195379042D01*
X194886598Y-195379042D02*
X194958027Y-195236185D01*
X194958027Y-195236185D02*
X195029456Y-195164757D01*
X195029456Y-195164757D02*
X195172313Y-195093328D01*
X196315169Y-196450471D02*
X196386598Y-196521900D01*
X196386598Y-196521900D02*
X196315169Y-196593328D01*
X196315169Y-196593328D02*
X196243741Y-196521900D01*
X196243741Y-196521900D02*
X196315169Y-196450471D01*
X196315169Y-196450471D02*
X196315169Y-196593328D01*
X197315170Y-195093328D02*
X197458027Y-195093328D01*
X197458027Y-195093328D02*
X197600884Y-195164757D01*
X197600884Y-195164757D02*
X197672313Y-195236185D01*
X197672313Y-195236185D02*
X197743741Y-195379042D01*
X197743741Y-195379042D02*
X197815170Y-195664757D01*
X197815170Y-195664757D02*
X197815170Y-196021900D01*
X197815170Y-196021900D02*
X197743741Y-196307614D01*
X197743741Y-196307614D02*
X197672313Y-196450471D01*
X197672313Y-196450471D02*
X197600884Y-196521900D01*
X197600884Y-196521900D02*
X197458027Y-196593328D01*
X197458027Y-196593328D02*
X197315170Y-196593328D01*
X197315170Y-196593328D02*
X197172313Y-196521900D01*
X197172313Y-196521900D02*
X197100884Y-196450471D01*
X197100884Y-196450471D02*
X197029455Y-196307614D01*
X197029455Y-196307614D02*
X196958027Y-196021900D01*
X196958027Y-196021900D02*
X196958027Y-195664757D01*
X196958027Y-195664757D02*
X197029455Y-195379042D01*
X197029455Y-195379042D02*
X197100884Y-195236185D01*
X197100884Y-195236185D02*
X197172313Y-195164757D01*
X197172313Y-195164757D02*
X197315170Y-195093328D01*
X198458026Y-196450471D02*
X198529455Y-196521900D01*
X198529455Y-196521900D02*
X198458026Y-196593328D01*
X198458026Y-196593328D02*
X198386598Y-196521900D01*
X198386598Y-196521900D02*
X198458026Y-196450471D01*
X198458026Y-196450471D02*
X198458026Y-196593328D01*
X199886598Y-195093328D02*
X199172312Y-195093328D01*
X199172312Y-195093328D02*
X199100884Y-195807614D01*
X199100884Y-195807614D02*
X199172312Y-195736185D01*
X199172312Y-195736185D02*
X199315170Y-195664757D01*
X199315170Y-195664757D02*
X199672312Y-195664757D01*
X199672312Y-195664757D02*
X199815170Y-195736185D01*
X199815170Y-195736185D02*
X199886598Y-195807614D01*
X199886598Y-195807614D02*
X199958027Y-195950471D01*
X199958027Y-195950471D02*
X199958027Y-196307614D01*
X199958027Y-196307614D02*
X199886598Y-196450471D01*
X199886598Y-196450471D02*
X199815170Y-196521900D01*
X199815170Y-196521900D02*
X199672312Y-196593328D01*
X199672312Y-196593328D02*
X199315170Y-196593328D01*
X199315170Y-196593328D02*
X199172312Y-196521900D01*
X199172312Y-196521900D02*
X199100884Y-196450471D01*
X177002200Y-191507200D02*
X285002200Y-191507200D01*
D11*
X264413853Y-193785528D02*
X263913853Y-193071242D01*
X263556710Y-193785528D02*
X263556710Y-192285528D01*
X263556710Y-192285528D02*
X264128139Y-192285528D01*
X264128139Y-192285528D02*
X264270996Y-192356957D01*
X264270996Y-192356957D02*
X264342425Y-192428385D01*
X264342425Y-192428385D02*
X264413853Y-192571242D01*
X264413853Y-192571242D02*
X264413853Y-192785528D01*
X264413853Y-192785528D02*
X264342425Y-192928385D01*
X264342425Y-192928385D02*
X264270996Y-192999814D01*
X264270996Y-192999814D02*
X264128139Y-193071242D01*
X264128139Y-193071242D02*
X263556710Y-193071242D01*
X265628139Y-193714100D02*
X265485282Y-193785528D01*
X265485282Y-193785528D02*
X265199568Y-193785528D01*
X265199568Y-193785528D02*
X265056710Y-193714100D01*
X265056710Y-193714100D02*
X264985282Y-193571242D01*
X264985282Y-193571242D02*
X264985282Y-192999814D01*
X264985282Y-192999814D02*
X265056710Y-192856957D01*
X265056710Y-192856957D02*
X265199568Y-192785528D01*
X265199568Y-192785528D02*
X265485282Y-192785528D01*
X265485282Y-192785528D02*
X265628139Y-192856957D01*
X265628139Y-192856957D02*
X265699568Y-192999814D01*
X265699568Y-192999814D02*
X265699568Y-193142671D01*
X265699568Y-193142671D02*
X264985282Y-193285528D01*
X266199567Y-192785528D02*
X266556710Y-193785528D01*
X266556710Y-193785528D02*
X266913853Y-192785528D01*
X267485281Y-193642671D02*
X267556710Y-193714100D01*
X267556710Y-193714100D02*
X267485281Y-193785528D01*
X267485281Y-193785528D02*
X267413853Y-193714100D01*
X267413853Y-193714100D02*
X267485281Y-193642671D01*
X267485281Y-193642671D02*
X267485281Y-193785528D01*
X267485281Y-192856957D02*
X267556710Y-192928385D01*
X267556710Y-192928385D02*
X267485281Y-192999814D01*
X267485281Y-192999814D02*
X267413853Y-192928385D01*
X267413853Y-192928385D02*
X267485281Y-192856957D01*
X267485281Y-192856957D02*
X267485281Y-192999814D01*
D10*
X178386598Y-193721900D02*
X178600884Y-193793328D01*
X178600884Y-193793328D02*
X178958026Y-193793328D01*
X178958026Y-193793328D02*
X179100884Y-193721900D01*
X179100884Y-193721900D02*
X179172312Y-193650471D01*
X179172312Y-193650471D02*
X179243741Y-193507614D01*
X179243741Y-193507614D02*
X179243741Y-193364757D01*
X179243741Y-193364757D02*
X179172312Y-193221900D01*
X179172312Y-193221900D02*
X179100884Y-193150471D01*
X179100884Y-193150471D02*
X178958026Y-193079042D01*
X178958026Y-193079042D02*
X178672312Y-193007614D01*
X178672312Y-193007614D02*
X178529455Y-192936185D01*
X178529455Y-192936185D02*
X178458026Y-192864757D01*
X178458026Y-192864757D02*
X178386598Y-192721900D01*
X178386598Y-192721900D02*
X178386598Y-192579042D01*
X178386598Y-192579042D02*
X178458026Y-192436185D01*
X178458026Y-192436185D02*
X178529455Y-192364757D01*
X178529455Y-192364757D02*
X178672312Y-192293328D01*
X178672312Y-192293328D02*
X179029455Y-192293328D01*
X179029455Y-192293328D02*
X179243741Y-192364757D01*
X179886597Y-193793328D02*
X179886597Y-192793328D01*
X179886597Y-192293328D02*
X179815169Y-192364757D01*
X179815169Y-192364757D02*
X179886597Y-192436185D01*
X179886597Y-192436185D02*
X179958026Y-192364757D01*
X179958026Y-192364757D02*
X179886597Y-192293328D01*
X179886597Y-192293328D02*
X179886597Y-192436185D01*
X180458026Y-192793328D02*
X181243741Y-192793328D01*
X181243741Y-192793328D02*
X180458026Y-193793328D01*
X180458026Y-193793328D02*
X181243741Y-193793328D01*
X182386598Y-193721900D02*
X182243741Y-193793328D01*
X182243741Y-193793328D02*
X181958027Y-193793328D01*
X181958027Y-193793328D02*
X181815169Y-193721900D01*
X181815169Y-193721900D02*
X181743741Y-193579042D01*
X181743741Y-193579042D02*
X181743741Y-193007614D01*
X181743741Y-193007614D02*
X181815169Y-192864757D01*
X181815169Y-192864757D02*
X181958027Y-192793328D01*
X181958027Y-192793328D02*
X182243741Y-192793328D01*
X182243741Y-192793328D02*
X182386598Y-192864757D01*
X182386598Y-192864757D02*
X182458027Y-193007614D01*
X182458027Y-193007614D02*
X182458027Y-193150471D01*
X182458027Y-193150471D02*
X181743741Y-193293328D01*
X183100883Y-193650471D02*
X183172312Y-193721900D01*
X183172312Y-193721900D02*
X183100883Y-193793328D01*
X183100883Y-193793328D02*
X183029455Y-193721900D01*
X183029455Y-193721900D02*
X183100883Y-193650471D01*
X183100883Y-193650471D02*
X183100883Y-193793328D01*
X183100883Y-192864757D02*
X183172312Y-192936185D01*
X183172312Y-192936185D02*
X183100883Y-193007614D01*
X183100883Y-193007614D02*
X183029455Y-192936185D01*
X183029455Y-192936185D02*
X183100883Y-192864757D01*
X183100883Y-192864757D02*
X183100883Y-193007614D01*
X184886598Y-193364757D02*
X185600884Y-193364757D01*
X184743741Y-193793328D02*
X185243741Y-192293328D01*
X185243741Y-192293328D02*
X185743741Y-193793328D01*
X186886598Y-192793328D02*
X186886598Y-193793328D01*
X186529455Y-192221900D02*
X186172312Y-193293328D01*
X186172312Y-193293328D02*
X187100883Y-193293328D01*
X263458026Y-196593328D02*
X263458026Y-195093328D01*
X264815170Y-196593328D02*
X264815170Y-195093328D01*
X264815170Y-196521900D02*
X264672312Y-196593328D01*
X264672312Y-196593328D02*
X264386598Y-196593328D01*
X264386598Y-196593328D02*
X264243741Y-196521900D01*
X264243741Y-196521900D02*
X264172312Y-196450471D01*
X264172312Y-196450471D02*
X264100884Y-196307614D01*
X264100884Y-196307614D02*
X264100884Y-195879042D01*
X264100884Y-195879042D02*
X264172312Y-195736185D01*
X264172312Y-195736185D02*
X264243741Y-195664757D01*
X264243741Y-195664757D02*
X264386598Y-195593328D01*
X264386598Y-195593328D02*
X264672312Y-195593328D01*
X264672312Y-195593328D02*
X264815170Y-195664757D01*
X265529455Y-196450471D02*
X265600884Y-196521900D01*
X265600884Y-196521900D02*
X265529455Y-196593328D01*
X265529455Y-196593328D02*
X265458027Y-196521900D01*
X265458027Y-196521900D02*
X265529455Y-196450471D01*
X265529455Y-196450471D02*
X265529455Y-196593328D01*
X265529455Y-195664757D02*
X265600884Y-195736185D01*
X265600884Y-195736185D02*
X265529455Y-195807614D01*
X265529455Y-195807614D02*
X265458027Y-195736185D01*
X265458027Y-195736185D02*
X265529455Y-195664757D01*
X265529455Y-195664757D02*
X265529455Y-195807614D01*
X268172313Y-196593328D02*
X267315170Y-196593328D01*
X267743741Y-196593328D02*
X267743741Y-195093328D01*
X267743741Y-195093328D02*
X267600884Y-195307614D01*
X267600884Y-195307614D02*
X267458027Y-195450471D01*
X267458027Y-195450471D02*
X267315170Y-195521900D01*
X269886598Y-195021900D02*
X268600884Y-196950471D01*
X271172313Y-196593328D02*
X270315170Y-196593328D01*
X270743741Y-196593328D02*
X270743741Y-195093328D01*
X270743741Y-195093328D02*
X270600884Y-195307614D01*
X270600884Y-195307614D02*
X270458027Y-195450471D01*
X270458027Y-195450471D02*
X270315170Y-195521900D01*
X272100884Y-195093328D02*
X272243741Y-195093328D01*
X272243741Y-195093328D02*
X272386598Y-195164757D01*
X272386598Y-195164757D02*
X272458027Y-195236185D01*
X272458027Y-195236185D02*
X272529455Y-195379042D01*
X272529455Y-195379042D02*
X272600884Y-195664757D01*
X272600884Y-195664757D02*
X272600884Y-196021900D01*
X272600884Y-196021900D02*
X272529455Y-196307614D01*
X272529455Y-196307614D02*
X272458027Y-196450471D01*
X272458027Y-196450471D02*
X272386598Y-196521900D01*
X272386598Y-196521900D02*
X272243741Y-196593328D01*
X272243741Y-196593328D02*
X272100884Y-196593328D01*
X272100884Y-196593328D02*
X271958027Y-196521900D01*
X271958027Y-196521900D02*
X271886598Y-196450471D01*
X271886598Y-196450471D02*
X271815169Y-196307614D01*
X271815169Y-196307614D02*
X271743741Y-196021900D01*
X271743741Y-196021900D02*
X271743741Y-195664757D01*
X271743741Y-195664757D02*
X271815169Y-195379042D01*
X271815169Y-195379042D02*
X271886598Y-195236185D01*
X271886598Y-195236185D02*
X271958027Y-195164757D01*
X271958027Y-195164757D02*
X272100884Y-195093328D01*
X177002200Y-187507200D02*
X285002200Y-187507200D01*
D12*
X178693928Y-188211638D02*
X179836785Y-188211638D01*
X179015357Y-190211638D02*
X179265357Y-188211638D01*
X180253452Y-190211638D02*
X180420119Y-188878304D01*
X180503452Y-188211638D02*
X180396309Y-188306876D01*
X180396309Y-188306876D02*
X180479643Y-188402114D01*
X180479643Y-188402114D02*
X180586786Y-188306876D01*
X180586786Y-188306876D02*
X180503452Y-188211638D01*
X180503452Y-188211638D02*
X180479643Y-188402114D01*
X181086786Y-188878304D02*
X181848690Y-188878304D01*
X181455833Y-188211638D02*
X181241548Y-189925923D01*
X181241548Y-189925923D02*
X181312976Y-190116400D01*
X181312976Y-190116400D02*
X181491548Y-190211638D01*
X181491548Y-190211638D02*
X181682024Y-190211638D01*
X182634405Y-190211638D02*
X182455833Y-190116400D01*
X182455833Y-190116400D02*
X182384405Y-189925923D01*
X182384405Y-189925923D02*
X182598690Y-188211638D01*
X184170119Y-190116400D02*
X183967738Y-190211638D01*
X183967738Y-190211638D02*
X183586785Y-190211638D01*
X183586785Y-190211638D02*
X183408214Y-190116400D01*
X183408214Y-190116400D02*
X183336785Y-189925923D01*
X183336785Y-189925923D02*
X183432024Y-189164019D01*
X183432024Y-189164019D02*
X183551071Y-188973542D01*
X183551071Y-188973542D02*
X183753452Y-188878304D01*
X183753452Y-188878304D02*
X184134404Y-188878304D01*
X184134404Y-188878304D02*
X184312976Y-188973542D01*
X184312976Y-188973542D02*
X184384404Y-189164019D01*
X184384404Y-189164019D02*
X184360595Y-189354495D01*
X184360595Y-189354495D02*
X183384404Y-189544971D01*
X185134405Y-190021161D02*
X185217738Y-190116400D01*
X185217738Y-190116400D02*
X185110595Y-190211638D01*
X185110595Y-190211638D02*
X185027262Y-190116400D01*
X185027262Y-190116400D02*
X185134405Y-190021161D01*
X185134405Y-190021161D02*
X185110595Y-190211638D01*
X185265357Y-188973542D02*
X185348690Y-189068780D01*
X185348690Y-189068780D02*
X185241548Y-189164019D01*
X185241548Y-189164019D02*
X185158214Y-189068780D01*
X185158214Y-189068780D02*
X185265357Y-188973542D01*
X185265357Y-188973542D02*
X185241548Y-189164019D01*
D10*
X178958026Y-185607614D02*
X178458026Y-185607614D01*
X178458026Y-186393328D02*
X178458026Y-184893328D01*
X178458026Y-184893328D02*
X179172312Y-184893328D01*
X179743740Y-186393328D02*
X179743740Y-185393328D01*
X179743740Y-184893328D02*
X179672312Y-184964757D01*
X179672312Y-184964757D02*
X179743740Y-185036185D01*
X179743740Y-185036185D02*
X179815169Y-184964757D01*
X179815169Y-184964757D02*
X179743740Y-184893328D01*
X179743740Y-184893328D02*
X179743740Y-185036185D01*
X180672312Y-186393328D02*
X180529455Y-186321900D01*
X180529455Y-186321900D02*
X180458026Y-186179042D01*
X180458026Y-186179042D02*
X180458026Y-184893328D01*
X181815169Y-186321900D02*
X181672312Y-186393328D01*
X181672312Y-186393328D02*
X181386598Y-186393328D01*
X181386598Y-186393328D02*
X181243740Y-186321900D01*
X181243740Y-186321900D02*
X181172312Y-186179042D01*
X181172312Y-186179042D02*
X181172312Y-185607614D01*
X181172312Y-185607614D02*
X181243740Y-185464757D01*
X181243740Y-185464757D02*
X181386598Y-185393328D01*
X181386598Y-185393328D02*
X181672312Y-185393328D01*
X181672312Y-185393328D02*
X181815169Y-185464757D01*
X181815169Y-185464757D02*
X181886598Y-185607614D01*
X181886598Y-185607614D02*
X181886598Y-185750471D01*
X181886598Y-185750471D02*
X181172312Y-185893328D01*
X182529454Y-186250471D02*
X182600883Y-186321900D01*
X182600883Y-186321900D02*
X182529454Y-186393328D01*
X182529454Y-186393328D02*
X182458026Y-186321900D01*
X182458026Y-186321900D02*
X182529454Y-186250471D01*
X182529454Y-186250471D02*
X182529454Y-186393328D01*
X182529454Y-185464757D02*
X182600883Y-185536185D01*
X182600883Y-185536185D02*
X182529454Y-185607614D01*
X182529454Y-185607614D02*
X182458026Y-185536185D01*
X182458026Y-185536185D02*
X182529454Y-185464757D01*
X182529454Y-185464757D02*
X182529454Y-185607614D01*
X184386597Y-186393328D02*
X184386597Y-185393328D01*
X184386597Y-184893328D02*
X184315169Y-184964757D01*
X184315169Y-184964757D02*
X184386597Y-185036185D01*
X184386597Y-185036185D02*
X184458026Y-184964757D01*
X184458026Y-184964757D02*
X184386597Y-184893328D01*
X184386597Y-184893328D02*
X184386597Y-185036185D01*
X185100883Y-186393328D02*
X185100883Y-185393328D01*
X185100883Y-185536185D02*
X185172312Y-185464757D01*
X185172312Y-185464757D02*
X185315169Y-185393328D01*
X185315169Y-185393328D02*
X185529455Y-185393328D01*
X185529455Y-185393328D02*
X185672312Y-185464757D01*
X185672312Y-185464757D02*
X185743741Y-185607614D01*
X185743741Y-185607614D02*
X185743741Y-186393328D01*
X185743741Y-185607614D02*
X185815169Y-185464757D01*
X185815169Y-185464757D02*
X185958026Y-185393328D01*
X185958026Y-185393328D02*
X186172312Y-185393328D01*
X186172312Y-185393328D02*
X186315169Y-185464757D01*
X186315169Y-185464757D02*
X186386598Y-185607614D01*
X186386598Y-185607614D02*
X186386598Y-186393328D01*
X187743741Y-185393328D02*
X187743741Y-186393328D01*
X187100883Y-185393328D02*
X187100883Y-186179042D01*
X187100883Y-186179042D02*
X187172312Y-186321900D01*
X187172312Y-186321900D02*
X187315169Y-186393328D01*
X187315169Y-186393328D02*
X187529455Y-186393328D01*
X187529455Y-186393328D02*
X187672312Y-186321900D01*
X187672312Y-186321900D02*
X187743741Y-186250471D01*
X188100884Y-186536185D02*
X189243741Y-186536185D01*
X190243741Y-186393328D02*
X190243741Y-184893328D01*
X190243741Y-186321900D02*
X190100883Y-186393328D01*
X190100883Y-186393328D02*
X189815169Y-186393328D01*
X189815169Y-186393328D02*
X189672312Y-186321900D01*
X189672312Y-186321900D02*
X189600883Y-186250471D01*
X189600883Y-186250471D02*
X189529455Y-186107614D01*
X189529455Y-186107614D02*
X189529455Y-185679042D01*
X189529455Y-185679042D02*
X189600883Y-185536185D01*
X189600883Y-185536185D02*
X189672312Y-185464757D01*
X189672312Y-185464757D02*
X189815169Y-185393328D01*
X189815169Y-185393328D02*
X190100883Y-185393328D01*
X190100883Y-185393328D02*
X190243741Y-185464757D01*
X191529455Y-186321900D02*
X191386598Y-186393328D01*
X191386598Y-186393328D02*
X191100884Y-186393328D01*
X191100884Y-186393328D02*
X190958026Y-186321900D01*
X190958026Y-186321900D02*
X190886598Y-186179042D01*
X190886598Y-186179042D02*
X190886598Y-185607614D01*
X190886598Y-185607614D02*
X190958026Y-185464757D01*
X190958026Y-185464757D02*
X191100884Y-185393328D01*
X191100884Y-185393328D02*
X191386598Y-185393328D01*
X191386598Y-185393328D02*
X191529455Y-185464757D01*
X191529455Y-185464757D02*
X191600884Y-185607614D01*
X191600884Y-185607614D02*
X191600884Y-185750471D01*
X191600884Y-185750471D02*
X190886598Y-185893328D01*
X192172312Y-186321900D02*
X192315169Y-186393328D01*
X192315169Y-186393328D02*
X192600883Y-186393328D01*
X192600883Y-186393328D02*
X192743740Y-186321900D01*
X192743740Y-186321900D02*
X192815169Y-186179042D01*
X192815169Y-186179042D02*
X192815169Y-186107614D01*
X192815169Y-186107614D02*
X192743740Y-185964757D01*
X192743740Y-185964757D02*
X192600883Y-185893328D01*
X192600883Y-185893328D02*
X192386598Y-185893328D01*
X192386598Y-185893328D02*
X192243740Y-185821900D01*
X192243740Y-185821900D02*
X192172312Y-185679042D01*
X192172312Y-185679042D02*
X192172312Y-185607614D01*
X192172312Y-185607614D02*
X192243740Y-185464757D01*
X192243740Y-185464757D02*
X192386598Y-185393328D01*
X192386598Y-185393328D02*
X192600883Y-185393328D01*
X192600883Y-185393328D02*
X192743740Y-185464757D01*
X193458026Y-186393328D02*
X193458026Y-185393328D01*
X193458026Y-184893328D02*
X193386598Y-184964757D01*
X193386598Y-184964757D02*
X193458026Y-185036185D01*
X193458026Y-185036185D02*
X193529455Y-184964757D01*
X193529455Y-184964757D02*
X193458026Y-184893328D01*
X193458026Y-184893328D02*
X193458026Y-185036185D01*
X194815170Y-185393328D02*
X194815170Y-186607614D01*
X194815170Y-186607614D02*
X194743741Y-186750471D01*
X194743741Y-186750471D02*
X194672312Y-186821900D01*
X194672312Y-186821900D02*
X194529455Y-186893328D01*
X194529455Y-186893328D02*
X194315170Y-186893328D01*
X194315170Y-186893328D02*
X194172312Y-186821900D01*
X194815170Y-186321900D02*
X194672312Y-186393328D01*
X194672312Y-186393328D02*
X194386598Y-186393328D01*
X194386598Y-186393328D02*
X194243741Y-186321900D01*
X194243741Y-186321900D02*
X194172312Y-186250471D01*
X194172312Y-186250471D02*
X194100884Y-186107614D01*
X194100884Y-186107614D02*
X194100884Y-185679042D01*
X194100884Y-185679042D02*
X194172312Y-185536185D01*
X194172312Y-185536185D02*
X194243741Y-185464757D01*
X194243741Y-185464757D02*
X194386598Y-185393328D01*
X194386598Y-185393328D02*
X194672312Y-185393328D01*
X194672312Y-185393328D02*
X194815170Y-185464757D01*
X195529455Y-185393328D02*
X195529455Y-186393328D01*
X195529455Y-185536185D02*
X195600884Y-185464757D01*
X195600884Y-185464757D02*
X195743741Y-185393328D01*
X195743741Y-185393328D02*
X195958027Y-185393328D01*
X195958027Y-185393328D02*
X196100884Y-185464757D01*
X196100884Y-185464757D02*
X196172313Y-185607614D01*
X196172313Y-185607614D02*
X196172313Y-186393328D01*
X196886598Y-186250471D02*
X196958027Y-186321900D01*
X196958027Y-186321900D02*
X196886598Y-186393328D01*
X196886598Y-186393328D02*
X196815170Y-186321900D01*
X196815170Y-186321900D02*
X196886598Y-186250471D01*
X196886598Y-186250471D02*
X196886598Y-186393328D01*
X197600884Y-186393328D02*
X197600884Y-184893328D01*
X197743742Y-185821900D02*
X198172313Y-186393328D01*
X198172313Y-185393328D02*
X197600884Y-185964757D01*
X198815170Y-186393328D02*
X198815170Y-185393328D01*
X198815170Y-184893328D02*
X198743742Y-184964757D01*
X198743742Y-184964757D02*
X198815170Y-185036185D01*
X198815170Y-185036185D02*
X198886599Y-184964757D01*
X198886599Y-184964757D02*
X198815170Y-184893328D01*
X198815170Y-184893328D02*
X198815170Y-185036185D01*
X200172314Y-186321900D02*
X200029456Y-186393328D01*
X200029456Y-186393328D02*
X199743742Y-186393328D01*
X199743742Y-186393328D02*
X199600885Y-186321900D01*
X199600885Y-186321900D02*
X199529456Y-186250471D01*
X199529456Y-186250471D02*
X199458028Y-186107614D01*
X199458028Y-186107614D02*
X199458028Y-185679042D01*
X199458028Y-185679042D02*
X199529456Y-185536185D01*
X199529456Y-185536185D02*
X199600885Y-185464757D01*
X199600885Y-185464757D02*
X199743742Y-185393328D01*
X199743742Y-185393328D02*
X200029456Y-185393328D01*
X200029456Y-185393328D02*
X200172314Y-185464757D01*
X201458028Y-186393328D02*
X201458028Y-185607614D01*
X201458028Y-185607614D02*
X201386599Y-185464757D01*
X201386599Y-185464757D02*
X201243742Y-185393328D01*
X201243742Y-185393328D02*
X200958028Y-185393328D01*
X200958028Y-185393328D02*
X200815170Y-185464757D01*
X201458028Y-186321900D02*
X201315170Y-186393328D01*
X201315170Y-186393328D02*
X200958028Y-186393328D01*
X200958028Y-186393328D02*
X200815170Y-186321900D01*
X200815170Y-186321900D02*
X200743742Y-186179042D01*
X200743742Y-186179042D02*
X200743742Y-186036185D01*
X200743742Y-186036185D02*
X200815170Y-185893328D01*
X200815170Y-185893328D02*
X200958028Y-185821900D01*
X200958028Y-185821900D02*
X201315170Y-185821900D01*
X201315170Y-185821900D02*
X201458028Y-185750471D01*
X202815171Y-186393328D02*
X202815171Y-184893328D01*
X202815171Y-186321900D02*
X202672313Y-186393328D01*
X202672313Y-186393328D02*
X202386599Y-186393328D01*
X202386599Y-186393328D02*
X202243742Y-186321900D01*
X202243742Y-186321900D02*
X202172313Y-186250471D01*
X202172313Y-186250471D02*
X202100885Y-186107614D01*
X202100885Y-186107614D02*
X202100885Y-185679042D01*
X202100885Y-185679042D02*
X202172313Y-185536185D01*
X202172313Y-185536185D02*
X202243742Y-185464757D01*
X202243742Y-185464757D02*
X202386599Y-185393328D01*
X202386599Y-185393328D02*
X202672313Y-185393328D01*
X202672313Y-185393328D02*
X202815171Y-185464757D01*
X203172314Y-186536185D02*
X204315171Y-186536185D01*
X204672313Y-185393328D02*
X204672313Y-186893328D01*
X204672313Y-185464757D02*
X204815171Y-185393328D01*
X204815171Y-185393328D02*
X205100885Y-185393328D01*
X205100885Y-185393328D02*
X205243742Y-185464757D01*
X205243742Y-185464757D02*
X205315171Y-185536185D01*
X205315171Y-185536185D02*
X205386599Y-185679042D01*
X205386599Y-185679042D02*
X205386599Y-186107614D01*
X205386599Y-186107614D02*
X205315171Y-186250471D01*
X205315171Y-186250471D02*
X205243742Y-186321900D01*
X205243742Y-186321900D02*
X205100885Y-186393328D01*
X205100885Y-186393328D02*
X204815171Y-186393328D01*
X204815171Y-186393328D02*
X204672313Y-186321900D01*
X206672314Y-186321900D02*
X206529456Y-186393328D01*
X206529456Y-186393328D02*
X206243742Y-186393328D01*
X206243742Y-186393328D02*
X206100885Y-186321900D01*
X206100885Y-186321900D02*
X206029456Y-186250471D01*
X206029456Y-186250471D02*
X205958028Y-186107614D01*
X205958028Y-186107614D02*
X205958028Y-185679042D01*
X205958028Y-185679042D02*
X206029456Y-185536185D01*
X206029456Y-185536185D02*
X206100885Y-185464757D01*
X206100885Y-185464757D02*
X206243742Y-185393328D01*
X206243742Y-185393328D02*
X206529456Y-185393328D01*
X206529456Y-185393328D02*
X206672314Y-185464757D01*
X207315170Y-186393328D02*
X207315170Y-184893328D01*
X207315170Y-185464757D02*
X207458028Y-185393328D01*
X207458028Y-185393328D02*
X207743742Y-185393328D01*
X207743742Y-185393328D02*
X207886599Y-185464757D01*
X207886599Y-185464757D02*
X207958028Y-185536185D01*
X207958028Y-185536185D02*
X208029456Y-185679042D01*
X208029456Y-185679042D02*
X208029456Y-186107614D01*
X208029456Y-186107614D02*
X207958028Y-186250471D01*
X207958028Y-186250471D02*
X207886599Y-186321900D01*
X207886599Y-186321900D02*
X207743742Y-186393328D01*
X207743742Y-186393328D02*
X207458028Y-186393328D01*
X207458028Y-186393328D02*
X207315170Y-186321900D01*
X177002200Y-181507200D02*
X285002200Y-181507200D01*
X178386598Y-183621900D02*
X178600884Y-183693328D01*
X178600884Y-183693328D02*
X178958026Y-183693328D01*
X178958026Y-183693328D02*
X179100884Y-183621900D01*
X179100884Y-183621900D02*
X179172312Y-183550471D01*
X179172312Y-183550471D02*
X179243741Y-183407614D01*
X179243741Y-183407614D02*
X179243741Y-183264757D01*
X179243741Y-183264757D02*
X179172312Y-183121900D01*
X179172312Y-183121900D02*
X179100884Y-183050471D01*
X179100884Y-183050471D02*
X178958026Y-182979042D01*
X178958026Y-182979042D02*
X178672312Y-182907614D01*
X178672312Y-182907614D02*
X178529455Y-182836185D01*
X178529455Y-182836185D02*
X178458026Y-182764757D01*
X178458026Y-182764757D02*
X178386598Y-182621900D01*
X178386598Y-182621900D02*
X178386598Y-182479042D01*
X178386598Y-182479042D02*
X178458026Y-182336185D01*
X178458026Y-182336185D02*
X178529455Y-182264757D01*
X178529455Y-182264757D02*
X178672312Y-182193328D01*
X178672312Y-182193328D02*
X179029455Y-182193328D01*
X179029455Y-182193328D02*
X179243741Y-182264757D01*
X179886597Y-183693328D02*
X179886597Y-182193328D01*
X180529455Y-183693328D02*
X180529455Y-182907614D01*
X180529455Y-182907614D02*
X180458026Y-182764757D01*
X180458026Y-182764757D02*
X180315169Y-182693328D01*
X180315169Y-182693328D02*
X180100883Y-182693328D01*
X180100883Y-182693328D02*
X179958026Y-182764757D01*
X179958026Y-182764757D02*
X179886597Y-182836185D01*
X181815169Y-183621900D02*
X181672312Y-183693328D01*
X181672312Y-183693328D02*
X181386598Y-183693328D01*
X181386598Y-183693328D02*
X181243740Y-183621900D01*
X181243740Y-183621900D02*
X181172312Y-183479042D01*
X181172312Y-183479042D02*
X181172312Y-182907614D01*
X181172312Y-182907614D02*
X181243740Y-182764757D01*
X181243740Y-182764757D02*
X181386598Y-182693328D01*
X181386598Y-182693328D02*
X181672312Y-182693328D01*
X181672312Y-182693328D02*
X181815169Y-182764757D01*
X181815169Y-182764757D02*
X181886598Y-182907614D01*
X181886598Y-182907614D02*
X181886598Y-183050471D01*
X181886598Y-183050471D02*
X181172312Y-183193328D01*
X183100883Y-183621900D02*
X182958026Y-183693328D01*
X182958026Y-183693328D02*
X182672312Y-183693328D01*
X182672312Y-183693328D02*
X182529454Y-183621900D01*
X182529454Y-183621900D02*
X182458026Y-183479042D01*
X182458026Y-183479042D02*
X182458026Y-182907614D01*
X182458026Y-182907614D02*
X182529454Y-182764757D01*
X182529454Y-182764757D02*
X182672312Y-182693328D01*
X182672312Y-182693328D02*
X182958026Y-182693328D01*
X182958026Y-182693328D02*
X183100883Y-182764757D01*
X183100883Y-182764757D02*
X183172312Y-182907614D01*
X183172312Y-182907614D02*
X183172312Y-183050471D01*
X183172312Y-183050471D02*
X182458026Y-183193328D01*
X183600883Y-182693328D02*
X184172311Y-182693328D01*
X183815168Y-182193328D02*
X183815168Y-183479042D01*
X183815168Y-183479042D02*
X183886597Y-183621900D01*
X183886597Y-183621900D02*
X184029454Y-183693328D01*
X184029454Y-183693328D02*
X184172311Y-183693328D01*
X184672311Y-183550471D02*
X184743740Y-183621900D01*
X184743740Y-183621900D02*
X184672311Y-183693328D01*
X184672311Y-183693328D02*
X184600883Y-183621900D01*
X184600883Y-183621900D02*
X184672311Y-183550471D01*
X184672311Y-183550471D02*
X184672311Y-183693328D01*
X184672311Y-182764757D02*
X184743740Y-182836185D01*
X184743740Y-182836185D02*
X184672311Y-182907614D01*
X184672311Y-182907614D02*
X184600883Y-182836185D01*
X184600883Y-182836185D02*
X184672311Y-182764757D01*
X184672311Y-182764757D02*
X184672311Y-182907614D01*
X197002200Y-191507200D02*
X197002200Y-194507200D01*
X261002200Y-191507200D02*
X261002200Y-198007200D01*
D13*
%TO.P,C1,1*%
%TO.N,+3.3V*%
X119975000Y-72837500D03*
%TO.P,C1,2*%
%TO.N,GND*%
X121525000Y-72837500D03*
%TD*%
D14*
%TO.P,U1,1,SDO/SA0_1*%
%TO.N,/IMU_MISO*%
X126000000Y-74000000D03*
%TO.P,U1,2,SDX_2*%
%TO.N,/IMU_MOSI*%
X126500000Y-74000000D03*
%TO.P,U1,3,SCX_3*%
%TO.N,/IMU_SCK*%
X127000000Y-74000000D03*
%TO.P,U1,4,INT1_4*%
%TO.N,/IMU_INT1*%
X127500000Y-74000000D03*
D15*
%TO.P,U1,5,VDDIO_5*%
%TO.N,+3.3V*%
X127662500Y-73337500D03*
%TO.P,U1,6,GND_6*%
%TO.N,GND*%
X127662500Y-72837500D03*
%TO.P,U1,7,GND_7*%
X127662500Y-72337500D03*
D14*
%TO.P,U1,8,VDD_8*%
%TO.N,+3.3V*%
X127500000Y-71675000D03*
%TO.P,U1,9,INT2_9*%
%TO.N,unconnected-(U1-INT2-Pad9)*%
X127000000Y-71675000D03*
%TO.P,U1,10,NC_10*%
%TO.N,unconnected-(U1-NC-Pad10)*%
X126500000Y-71675000D03*
%TO.P,U1,11,NC_11*%
%TO.N,unconnected-(U1-NC-Pad11)*%
X126000000Y-71675000D03*
D15*
%TO.P,U1,12,CS_12*%
%TO.N,/IMU_CS*%
X125837500Y-72337500D03*
%TO.P,U1,13,SCL_13*%
%TO.N,unconnected-(U1-SCL-Pad13)*%
X125837500Y-72837500D03*
%TO.P,U1,14,SDA_14*%
%TO.N,unconnected-(U1-SDA-Pad14)*%
X125837500Y-73337500D03*
%TD*%
D16*
%TO.P,C3,1*%
%TO.N,+3.3V*%
X132300000Y-74837500D03*
%TO.P,C3,2*%
%TO.N,GND*%
X130750000Y-74837500D03*
%TD*%
D17*
%TO.P,C2,1*%
%TO.N,GND*%
X130750000Y-72612500D03*
%TO.P,C2,2*%
%TO.N,+3.3V*%
X130750000Y-71062500D03*
%TD*%
D18*
%TO.P,J1,1,Pin_1_1*%
%TO.N,+3.3V*%
X120475000Y-64450000D03*
D19*
%TO.P,J1,2,Pin_2_2*%
%TO.N,GND*%
X122475000Y-64450000D03*
%TO.P,J1,3,Pin_3_3*%
%TO.N,/IMU_SCK*%
X124475000Y-64450000D03*
%TO.P,J1,4,Pin_4_4*%
%TO.N,/IMU_MISO*%
X126475000Y-64450000D03*
%TO.P,J1,5,Pin_5_5*%
%TO.N,/IMU_MOSI*%
X128475000Y-64450000D03*
%TO.P,J1,6,Pin_6_6*%
%TO.N,/IMU_CS*%
X130475000Y-64450000D03*
%TO.P,J1,7,Pin_7_7*%
%TO.N,/IMU_INT1*%
X132475000Y-64450000D03*
%TD*%
D20*
%TO.N,+3.3V*%
X128500900Y-73144500D03*
%TO.N,/IMU_MOSI*%
X124796700Y-69933200D03*
%TO.N,/IMU_INT1*%
X128497100Y-74000000D03*
%TD*%
%TO.N,+3.3V*%
D21*
X128112500Y-71062500D02*
X127500000Y-71675000D01*
X132300000Y-72612500D02*
X132300000Y-74837500D01*
X119975000Y-64950000D02*
X119975000Y-72837500D01*
X128500900Y-73144500D02*
X128307900Y-73337500D01*
X131260600Y-75876900D02*
X132300000Y-74837500D01*
X120475000Y-64450000D02*
X119975000Y-64950000D01*
X130750000Y-71062500D02*
X132300000Y-72612500D01*
X119975000Y-72837500D02*
X123014400Y-75876900D01*
X123014400Y-75876900D02*
X131260600Y-75876900D01*
X128307900Y-73337500D02*
X127662500Y-73337500D01*
X130750000Y-71062500D02*
X128112500Y-71062500D01*
%TO.N,GND*%
X130750000Y-72612500D02*
X130680300Y-72542800D01*
X124150800Y-75463300D02*
X130124200Y-75463300D01*
X130124200Y-75463300D02*
X130750000Y-74837500D01*
X127662500Y-72337500D02*
X127662500Y-72542800D01*
X130750000Y-72612500D02*
X130750000Y-74837500D01*
X121573300Y-72789200D02*
X121525000Y-72837500D01*
X127662500Y-72542800D02*
X127662500Y-72837500D01*
X122475000Y-64450000D02*
X121573300Y-64450000D01*
X121525000Y-72837500D02*
X124150800Y-75463300D01*
X121573300Y-64450000D02*
X121573300Y-72789200D01*
X130680300Y-72542800D02*
X127662500Y-72542800D01*
%TO.N,/IMU_MISO*%
X125579600Y-74000000D02*
X125118300Y-73538700D01*
X125198400Y-70382400D02*
X125573300Y-70007500D01*
X125118300Y-70464600D02*
X125198400Y-70384500D01*
X126000000Y-74000000D02*
X125579600Y-74000000D01*
X125118300Y-73538700D02*
X125118300Y-70464600D01*
X125198400Y-70384500D02*
X125198400Y-70382400D01*
X126475000Y-64450000D02*
X125573300Y-64450000D01*
X125573300Y-70007500D02*
X125573300Y-64450000D01*
%TO.N,/IMU_MOSI*%
X124656700Y-70073200D02*
X124796700Y-69933200D01*
X126203500Y-74659900D02*
X125612300Y-74659900D01*
X124656700Y-73704300D02*
X124656700Y-70073200D01*
X125612300Y-74659900D02*
X124656700Y-73704300D01*
X126500000Y-74363400D02*
X126203500Y-74659900D01*
X126500000Y-74000000D02*
X126500000Y-74363400D01*
%TO.N,/IMU_SCK*%
X124193500Y-65908200D02*
X124193500Y-73809100D01*
X124475000Y-64450000D02*
X124475000Y-65626700D01*
X124193500Y-73809100D02*
X125446000Y-75061600D01*
X124475000Y-65626700D02*
X124193500Y-65908200D01*
X127000000Y-74443200D02*
X127000000Y-74000000D01*
X126381600Y-75061600D02*
X127000000Y-74443200D01*
X125446000Y-75061600D02*
X126381600Y-75061600D01*
%TO.N,/IMU_INT1*%
X127500000Y-74000000D02*
X128497100Y-74000000D01*
%TO.N,/IMU_CS*%
X130475000Y-64450000D02*
X129573300Y-64450000D01*
X125837500Y-72337500D02*
X125710700Y-72337500D01*
X125521500Y-70629400D02*
X129573300Y-66577600D01*
X129573300Y-66577600D02*
X129573300Y-64450000D01*
X125710700Y-72337500D02*
X125521500Y-72148300D01*
X125521500Y-72148300D02*
X125521500Y-70629400D01*
%TD*%
%TA.AperFunction,Conductor*%
%TO.N,GND*%
G36*
X135442539Y-61520185D02*
G01*
X135488294Y-61572989D01*
X135499500Y-61624500D01*
X135499500Y-76375500D01*
X135479815Y-76442539D01*
X135427011Y-76488294D01*
X135375500Y-76499500D01*
X131786598Y-76499500D01*
X131719559Y-76479815D01*
X131673804Y-76427011D01*
X131663860Y-76357853D01*
X131692885Y-76294297D01*
X131698917Y-76287819D01*
X131741120Y-76245616D01*
X131741120Y-76245614D01*
X131751324Y-76235411D01*
X131751328Y-76235406D01*
X132137416Y-75849318D01*
X132198739Y-75815833D01*
X132225097Y-75812999D01*
X132573338Y-75812999D01*
X132573344Y-75812999D01*
X132573352Y-75812998D01*
X132573355Y-75812998D01*
X132627760Y-75807440D01*
X132672708Y-75802849D01*
X132833697Y-75749503D01*
X132978044Y-75660468D01*
X133097968Y-75540544D01*
X133187003Y-75396197D01*
X133240349Y-75235208D01*
X133250500Y-75135845D01*
X133250499Y-74539156D01*
X133240349Y-74439792D01*
X133187003Y-74278803D01*
X133186999Y-74278797D01*
X133186998Y-74278794D01*
X133097970Y-74134459D01*
X133097969Y-74134458D01*
X133097968Y-74134456D01*
X132978044Y-74014532D01*
X132959399Y-74003031D01*
X132912677Y-73951082D01*
X132900500Y-73897495D01*
X132900500Y-72701559D01*
X132900501Y-72701546D01*
X132900501Y-72533445D01*
X132900501Y-72533443D01*
X132859577Y-72380715D01*
X132830639Y-72330595D01*
X132780520Y-72243784D01*
X132668716Y-72131980D01*
X132668715Y-72131979D01*
X132664385Y-72127649D01*
X132664374Y-72127639D01*
X131761818Y-71225083D01*
X131728333Y-71163760D01*
X131725499Y-71137402D01*
X131725499Y-70789162D01*
X131725498Y-70789144D01*
X131715349Y-70689792D01*
X131715348Y-70689789D01*
X131679622Y-70581975D01*
X131662003Y-70528803D01*
X131661999Y-70528797D01*
X131661998Y-70528794D01*
X131572970Y-70384459D01*
X131572967Y-70384455D01*
X131453044Y-70264532D01*
X131453040Y-70264529D01*
X131308705Y-70175501D01*
X131308699Y-70175498D01*
X131308697Y-70175497D01*
X131308694Y-70175496D01*
X131147709Y-70122151D01*
X131048346Y-70112000D01*
X130451662Y-70112000D01*
X130451644Y-70112001D01*
X130352292Y-70122150D01*
X130352289Y-70122151D01*
X130191305Y-70175496D01*
X130191294Y-70175501D01*
X130046959Y-70264529D01*
X130046955Y-70264532D01*
X129927031Y-70384456D01*
X129915535Y-70403096D01*
X129863588Y-70449821D01*
X129809996Y-70462000D01*
X128199170Y-70462000D01*
X128199154Y-70461999D01*
X128191558Y-70461999D01*
X128033443Y-70461999D01*
X127918897Y-70492692D01*
X127880714Y-70502923D01*
X127869040Y-70509664D01*
X127869037Y-70509665D01*
X127743790Y-70581975D01*
X127743782Y-70581981D01*
X127150083Y-71175681D01*
X127088760Y-71209166D01*
X127062402Y-71212000D01*
X126889056Y-71212000D01*
X126819640Y-71225807D01*
X126819634Y-71225810D01*
X126818888Y-71226309D01*
X126817013Y-71226895D01*
X126808356Y-71230482D01*
X126808034Y-71229706D01*
X126752209Y-71247185D01*
X126684830Y-71228698D01*
X126681112Y-71226309D01*
X126680365Y-71225810D01*
X126680359Y-71225807D01*
X126610944Y-71212000D01*
X126610942Y-71212000D01*
X126389058Y-71212000D01*
X126389056Y-71212000D01*
X126319640Y-71225807D01*
X126319634Y-71225810D01*
X126318888Y-71226309D01*
X126317013Y-71226895D01*
X126308356Y-71230482D01*
X126308034Y-71229706D01*
X126252209Y-71247185D01*
X126184830Y-71228698D01*
X126181104Y-71226304D01*
X126177104Y-71223631D01*
X126132302Y-71170016D01*
X126122000Y-71120532D01*
X126122000Y-70929497D01*
X126141685Y-70862458D01*
X126158319Y-70841816D01*
X128083952Y-68916183D01*
X130053820Y-66946316D01*
X130132877Y-66809384D01*
X130173801Y-66656657D01*
X130173801Y-66498542D01*
X130173801Y-66490947D01*
X130173800Y-66490929D01*
X130173800Y-65936697D01*
X130193485Y-65869658D01*
X130246289Y-65823903D01*
X130315447Y-65813959D01*
X130317133Y-65814214D01*
X130388389Y-65825500D01*
X130388390Y-65825500D01*
X130561610Y-65825500D01*
X130561611Y-65825500D01*
X130732701Y-65798402D01*
X130897445Y-65744873D01*
X131051788Y-65666232D01*
X131191928Y-65564414D01*
X131314414Y-65441928D01*
X131374682Y-65358975D01*
X131430012Y-65316311D01*
X131499626Y-65310332D01*
X131561421Y-65342938D01*
X131575315Y-65358973D01*
X131635586Y-65441928D01*
X131758072Y-65564414D01*
X131898212Y-65666232D01*
X132052555Y-65744873D01*
X132217299Y-65798402D01*
X132388389Y-65825500D01*
X132388390Y-65825500D01*
X132561610Y-65825500D01*
X132561611Y-65825500D01*
X132732701Y-65798402D01*
X132897445Y-65744873D01*
X133051788Y-65666232D01*
X133191928Y-65564414D01*
X133314414Y-65441928D01*
X133416232Y-65301788D01*
X133494873Y-65147445D01*
X133548402Y-64982701D01*
X133575500Y-64811611D01*
X133575500Y-64088389D01*
X133548402Y-63917299D01*
X133494873Y-63752555D01*
X133416232Y-63598212D01*
X133314414Y-63458072D01*
X133191928Y-63335586D01*
X133051788Y-63233768D01*
X132897445Y-63155127D01*
X132732701Y-63101598D01*
X132732699Y-63101597D01*
X132732698Y-63101597D01*
X132601271Y-63080781D01*
X132561611Y-63074500D01*
X132388389Y-63074500D01*
X132348728Y-63080781D01*
X132217302Y-63101597D01*
X132052552Y-63155128D01*
X131898211Y-63233768D01*
X131818256Y-63291859D01*
X131758072Y-63335586D01*
X131758070Y-63335588D01*
X131758069Y-63335588D01*
X131635588Y-63458069D01*
X131635581Y-63458078D01*
X131575317Y-63541023D01*
X131519987Y-63583689D01*
X131450374Y-63589667D01*
X131388579Y-63557061D01*
X131374683Y-63541023D01*
X131314418Y-63458078D01*
X131314414Y-63458072D01*
X131191928Y-63335586D01*
X131051788Y-63233768D01*
X130897445Y-63155127D01*
X130732701Y-63101598D01*
X130732699Y-63101597D01*
X130732698Y-63101597D01*
X130601271Y-63080781D01*
X130561611Y-63074500D01*
X130388389Y-63074500D01*
X130348728Y-63080781D01*
X130217302Y-63101597D01*
X130052552Y-63155128D01*
X129898211Y-63233768D01*
X129818256Y-63291859D01*
X129758072Y-63335586D01*
X129758070Y-63335588D01*
X129758069Y-63335588D01*
X129635588Y-63458069D01*
X129635581Y-63458078D01*
X129575317Y-63541023D01*
X129519987Y-63583689D01*
X129450374Y-63589667D01*
X129388579Y-63557061D01*
X129374683Y-63541023D01*
X129314418Y-63458078D01*
X129314414Y-63458072D01*
X129191928Y-63335586D01*
X129051788Y-63233768D01*
X128897445Y-63155127D01*
X128732701Y-63101598D01*
X128732699Y-63101597D01*
X128732698Y-63101597D01*
X128601271Y-63080781D01*
X128561611Y-63074500D01*
X128388389Y-63074500D01*
X128348728Y-63080781D01*
X128217302Y-63101597D01*
X128052552Y-63155128D01*
X127898211Y-63233768D01*
X127818256Y-63291859D01*
X127758072Y-63335586D01*
X127758070Y-63335588D01*
X127758069Y-63335588D01*
X127635588Y-63458069D01*
X127635581Y-63458078D01*
X127575317Y-63541023D01*
X127519987Y-63583689D01*
X127450374Y-63589667D01*
X127388579Y-63557061D01*
X127374683Y-63541023D01*
X127314418Y-63458078D01*
X127314414Y-63458072D01*
X127191928Y-63335586D01*
X127051788Y-63233768D01*
X126897445Y-63155127D01*
X126732701Y-63101598D01*
X126732699Y-63101597D01*
X126732698Y-63101597D01*
X126601271Y-63080781D01*
X126561611Y-63074500D01*
X126388389Y-63074500D01*
X126348728Y-63080781D01*
X126217302Y-63101597D01*
X126052552Y-63155128D01*
X125898211Y-63233768D01*
X125818256Y-63291859D01*
X125758072Y-63335586D01*
X125758070Y-63335588D01*
X125758069Y-63335588D01*
X125635588Y-63458069D01*
X125635581Y-63458078D01*
X125575317Y-63541023D01*
X125519987Y-63583689D01*
X125450374Y-63589667D01*
X125388579Y-63557061D01*
X125374683Y-63541023D01*
X125314418Y-63458078D01*
X125314414Y-63458072D01*
X125191928Y-63335586D01*
X125051788Y-63233768D01*
X124897445Y-63155127D01*
X124732701Y-63101598D01*
X124732699Y-63101597D01*
X124732698Y-63101597D01*
X124601271Y-63080781D01*
X124561611Y-63074500D01*
X124388389Y-63074500D01*
X124348728Y-63080781D01*
X124217302Y-63101597D01*
X124052552Y-63155128D01*
X123898211Y-63233768D01*
X123818256Y-63291859D01*
X123758072Y-63335586D01*
X123758070Y-63335588D01*
X123758069Y-63335588D01*
X123635588Y-63458069D01*
X123635588Y-63458070D01*
X123635586Y-63458072D01*
X123635582Y-63458078D01*
X123533768Y-63598211D01*
X123455128Y-63752552D01*
X123401597Y-63917302D01*
X123374500Y-64088389D01*
X123374500Y-64811611D01*
X123401598Y-64982701D01*
X123455127Y-65147445D01*
X123533768Y-65301788D01*
X123635586Y-65441928D01*
X123635588Y-65441930D01*
X123653079Y-65459421D01*
X123686564Y-65520744D01*
X123681580Y-65590436D01*
X123672789Y-65609096D01*
X123666914Y-65619271D01*
X123662861Y-65626292D01*
X123662859Y-65626296D01*
X123633925Y-65676409D01*
X123633924Y-65676410D01*
X123618044Y-65735672D01*
X123592999Y-65829143D01*
X123592999Y-65829145D01*
X123592999Y-65997246D01*
X123593000Y-65997259D01*
X123593000Y-73722430D01*
X123592999Y-73722448D01*
X123592999Y-73888154D01*
X123592998Y-73888154D01*
X123592999Y-73888157D01*
X123633923Y-74040885D01*
X123655840Y-74078846D01*
X123662858Y-74091000D01*
X123662859Y-74091004D01*
X123662860Y-74091004D01*
X123712979Y-74177814D01*
X123712981Y-74177817D01*
X123831849Y-74296685D01*
X123831855Y-74296690D01*
X124599884Y-75064719D01*
X124633369Y-75126042D01*
X124628385Y-75195734D01*
X124586513Y-75251667D01*
X124521049Y-75276084D01*
X124512203Y-75276400D01*
X123314498Y-75276400D01*
X123247459Y-75256715D01*
X123226817Y-75240081D01*
X120961818Y-72975082D01*
X120928333Y-72913759D01*
X120925499Y-72887401D01*
X120925499Y-72539162D01*
X120925498Y-72539144D01*
X120915349Y-72439792D01*
X120915348Y-72439789D01*
X120895773Y-72380715D01*
X120862003Y-72278803D01*
X120861999Y-72278797D01*
X120861998Y-72278794D01*
X120772970Y-72134459D01*
X120772969Y-72134458D01*
X120772968Y-72134456D01*
X120653044Y-72014532D01*
X120634399Y-72003031D01*
X120587677Y-71951082D01*
X120575500Y-71897495D01*
X120575500Y-65949499D01*
X120595185Y-65882460D01*
X120647989Y-65836705D01*
X120699500Y-65825499D01*
X120875002Y-65825499D01*
X120875008Y-65825499D01*
X120977797Y-65814999D01*
X121144334Y-65759814D01*
X121293656Y-65667712D01*
X121417712Y-65543656D01*
X121509814Y-65394334D01*
X121564999Y-65227797D01*
X121575500Y-65125009D01*
X121575499Y-63774992D01*
X121564999Y-63672203D01*
X121509814Y-63505666D01*
X121417712Y-63356344D01*
X121293656Y-63232288D01*
X121168559Y-63155128D01*
X121144336Y-63140187D01*
X121144331Y-63140185D01*
X121142862Y-63139698D01*
X120977797Y-63085001D01*
X120977795Y-63085000D01*
X120875010Y-63074500D01*
X120074998Y-63074500D01*
X120074980Y-63074501D01*
X119972203Y-63085000D01*
X119972200Y-63085001D01*
X119805668Y-63140185D01*
X119805663Y-63140187D01*
X119656342Y-63232289D01*
X119532289Y-63356342D01*
X119440187Y-63505663D01*
X119440186Y-63505666D01*
X119385001Y-63672203D01*
X119385001Y-63672204D01*
X119385000Y-63672204D01*
X119374500Y-63774983D01*
X119374500Y-64866527D01*
X119374499Y-64866542D01*
X119374499Y-65039046D01*
X119374500Y-65039059D01*
X119374500Y-71897495D01*
X119354815Y-71964534D01*
X119315600Y-72003032D01*
X119296954Y-72014533D01*
X119177029Y-72134459D01*
X119088001Y-72278794D01*
X119087996Y-72278805D01*
X119034651Y-72439790D01*
X119024500Y-72539147D01*
X119024500Y-73135837D01*
X119024501Y-73135855D01*
X119034650Y-73235207D01*
X119034651Y-73235210D01*
X119087996Y-73396194D01*
X119088001Y-73396205D01*
X119177029Y-73540540D01*
X119177032Y-73540544D01*
X119296955Y-73660467D01*
X119296959Y-73660470D01*
X119441294Y-73749498D01*
X119441297Y-73749499D01*
X119441303Y-73749503D01*
X119602292Y-73802849D01*
X119701655Y-73813000D01*
X120049902Y-73812999D01*
X120116941Y-73832683D01*
X120137583Y-73849318D01*
X122576083Y-76287819D01*
X122609568Y-76349142D01*
X122604584Y-76418834D01*
X122562712Y-76474767D01*
X122497248Y-76499184D01*
X122488402Y-76499500D01*
X117624500Y-76499500D01*
X117557461Y-76479815D01*
X117511706Y-76427011D01*
X117500500Y-76375500D01*
X117500500Y-61624500D01*
X117520185Y-61557461D01*
X117572989Y-61511706D01*
X117624500Y-61500500D01*
X135375500Y-61500500D01*
X135442539Y-61520185D01*
G37*
%TD.AperFunction*%
%TA.AperFunction,Conductor*%
G36*
X129877035Y-71682685D02*
G01*
X129915535Y-71721904D01*
X129927031Y-71740543D01*
X130046955Y-71860467D01*
X130046959Y-71860470D01*
X130191294Y-71949498D01*
X130191297Y-71949499D01*
X130191303Y-71949503D01*
X130352292Y-72002849D01*
X130451655Y-72013000D01*
X130799902Y-72012999D01*
X130866941Y-72032683D01*
X130887583Y-72049318D01*
X131663181Y-72824916D01*
X131696666Y-72886239D01*
X131699500Y-72912597D01*
X131699500Y-73897495D01*
X131679815Y-73964534D01*
X131640600Y-74003032D01*
X131621954Y-74014533D01*
X131502029Y-74134459D01*
X131413001Y-74278794D01*
X131412996Y-74278805D01*
X131359651Y-74439790D01*
X131349500Y-74539147D01*
X131349500Y-74887400D01*
X131329815Y-74954439D01*
X131313182Y-74975081D01*
X131048184Y-75240081D01*
X130986861Y-75273566D01*
X130960502Y-75276400D01*
X127315397Y-75276400D01*
X127248358Y-75256715D01*
X127202603Y-75203911D01*
X127192659Y-75134753D01*
X127221684Y-75071197D01*
X127227716Y-75064719D01*
X127480520Y-74811916D01*
X127539713Y-74709390D01*
X127563641Y-74667946D01*
X127565290Y-74668898D01*
X127602557Y-74622648D01*
X127668850Y-74600579D01*
X127673283Y-74600500D01*
X127917334Y-74600500D01*
X127984373Y-74620185D01*
X127986225Y-74621398D01*
X128117914Y-74709390D01*
X128117927Y-74709397D01*
X128263598Y-74769735D01*
X128263603Y-74769737D01*
X128418253Y-74800499D01*
X128418256Y-74800500D01*
X128418258Y-74800500D01*
X128575944Y-74800500D01*
X128575945Y-74800499D01*
X128730597Y-74769737D01*
X128876279Y-74709394D01*
X129007389Y-74621789D01*
X129118889Y-74510289D01*
X129206494Y-74379179D01*
X129266837Y-74233497D01*
X129297600Y-74078842D01*
X129297600Y-73921158D01*
X129297600Y-73921155D01*
X129297599Y-73921153D01*
X129276086Y-73813000D01*
X129266837Y-73766503D01*
X129266835Y-73766498D01*
X129207927Y-73624279D01*
X129200458Y-73554810D01*
X129209181Y-73529812D01*
X129207963Y-73529308D01*
X129263098Y-73396197D01*
X129270637Y-73377997D01*
X129301400Y-73223342D01*
X129301400Y-73065658D01*
X129301400Y-73065655D01*
X129301399Y-73065653D01*
X129283383Y-72975082D01*
X129270637Y-72911003D01*
X129260861Y-72887401D01*
X129210297Y-72765327D01*
X129210290Y-72765314D01*
X129122689Y-72634211D01*
X129122686Y-72634207D01*
X129011192Y-72522713D01*
X129011188Y-72522710D01*
X128880085Y-72435109D01*
X128880072Y-72435102D01*
X128734401Y-72374764D01*
X128734389Y-72374761D01*
X128579745Y-72344000D01*
X128579742Y-72344000D01*
X128422058Y-72344000D01*
X128422055Y-72344000D01*
X128267410Y-72374761D01*
X128267398Y-72374764D01*
X128121727Y-72435102D01*
X128121714Y-72435109D01*
X127990611Y-72522710D01*
X127990607Y-72522713D01*
X127879113Y-72634207D01*
X127879109Y-72634212D01*
X127847254Y-72681889D01*
X127793643Y-72726695D01*
X127744151Y-72737000D01*
X127583443Y-72737000D01*
X127430716Y-72777923D01*
X127430709Y-72777926D01*
X127293790Y-72856975D01*
X127293782Y-72856981D01*
X127181981Y-72968782D01*
X127181975Y-72968790D01*
X127102926Y-73105709D01*
X127102923Y-73105716D01*
X127062000Y-73258443D01*
X127062000Y-73275500D01*
X127042315Y-73342539D01*
X126989511Y-73388294D01*
X126938000Y-73399500D01*
X126920943Y-73399500D01*
X126782093Y-73436704D01*
X126717907Y-73436704D01*
X126618470Y-73410060D01*
X126579057Y-73399500D01*
X126424500Y-73399500D01*
X126357461Y-73379815D01*
X126311706Y-73327011D01*
X126300500Y-73275500D01*
X126300500Y-73226555D01*
X126286692Y-73157140D01*
X126286691Y-73157138D01*
X126286691Y-73157137D01*
X126286192Y-73156391D01*
X126285607Y-73154521D01*
X126282018Y-73145857D01*
X126282793Y-73145535D01*
X126265314Y-73089715D01*
X126283798Y-73022334D01*
X126286193Y-73018608D01*
X126286691Y-73017863D01*
X126295201Y-72975082D01*
X126300500Y-72948444D01*
X126300500Y-72769786D01*
X126317113Y-72707786D01*
X126318018Y-72706217D01*
X126318020Y-72706216D01*
X126397077Y-72569284D01*
X126438000Y-72416557D01*
X126438000Y-72262000D01*
X126457685Y-72194961D01*
X126510489Y-72149206D01*
X126562000Y-72138000D01*
X126610944Y-72138000D01*
X126680359Y-72124192D01*
X126680359Y-72124191D01*
X126680363Y-72124191D01*
X126681108Y-72123692D01*
X126682978Y-72123107D01*
X126691643Y-72119518D01*
X126691964Y-72120293D01*
X126747785Y-72102814D01*
X126815166Y-72121298D01*
X126818883Y-72123687D01*
X126819637Y-72124191D01*
X126819638Y-72124191D01*
X126819640Y-72124192D01*
X126889055Y-72138000D01*
X127067715Y-72138000D01*
X127129716Y-72154613D01*
X127131282Y-72155517D01*
X127131284Y-72155519D01*
X127268215Y-72234577D01*
X127420943Y-72275501D01*
X127420946Y-72275501D01*
X127579054Y-72275501D01*
X127579057Y-72275501D01*
X127731785Y-72234577D01*
X127868716Y-72155519D01*
X128324916Y-71699319D01*
X128386239Y-71665834D01*
X128412597Y-71663000D01*
X129809996Y-71663000D01*
X129877035Y-71682685D01*
G37*
%TD.AperFunction*%
%TD*%
M02*
